G04 #@! TF.GenerationSoftware,KiCad,Pcbnew,5.1.5*
G04 #@! TF.CreationDate,2020-05-20T18:02:06-05:00*
G04 #@! TF.ProjectId,kdi574,6b646935-3734-42e6-9b69-6361645f7063,v01*
G04 #@! TF.SameCoordinates,Original*
G04 #@! TF.FileFunction,Copper,L3,Inr*
G04 #@! TF.FilePolarity,Positive*
%FSLAX46Y46*%
G04 Gerber Fmt 4.6, Leading zero omitted, Abs format (unit mm)*
G04 Created by KiCad (PCBNEW 5.1.5) date 2020-05-20 18:02:06*
%MOMM*%
%LPD*%
G04 APERTURE LIST*
%ADD10O,1.200000X2.000000*%
%ADD11O,1.700000X1.700000*%
%ADD12R,1.700000X1.700000*%
%ADD13R,1.520000X1.520000*%
%ADD14C,1.520000*%
%ADD15C,0.762000*%
%ADD16C,0.525000*%
%ADD17C,0.254000*%
G04 APERTURE END LIST*
D10*
X182880000Y-82600000D03*
X182880000Y-90120000D03*
X185420000Y-82600000D03*
X185420000Y-90120000D03*
X187960000Y-82600000D03*
X187960000Y-90120000D03*
X190500000Y-82600000D03*
X190500000Y-90120000D03*
X193040000Y-82600000D03*
X193040000Y-90120000D03*
D11*
X147320000Y-102108000D03*
X144780000Y-102108000D03*
X147320000Y-104648000D03*
X144780000Y-104648000D03*
X147320000Y-107188000D03*
D12*
X144780000Y-107188000D03*
D10*
X137160000Y-90120000D03*
X137160000Y-82600000D03*
X134620000Y-90120000D03*
X134620000Y-82600000D03*
X132080000Y-90120000D03*
X132080000Y-82600000D03*
X129540000Y-90120000D03*
X129540000Y-82600000D03*
X127000000Y-90120000D03*
X127000000Y-82600000D03*
X124460000Y-90120000D03*
X124460000Y-82600000D03*
X154940000Y-82600000D03*
X154940000Y-90120000D03*
X157480000Y-82600000D03*
X157480000Y-90120000D03*
X160020000Y-82600000D03*
X160020000Y-90120000D03*
X162560000Y-82600000D03*
X162560000Y-90120000D03*
X165100000Y-82600000D03*
X165100000Y-90120000D03*
X167640000Y-82600000D03*
X167640000Y-90120000D03*
D13*
X192201800Y-98552000D03*
D14*
X190931800Y-101092000D03*
X189661800Y-98552000D03*
X188391800Y-101092000D03*
X187121800Y-98552000D03*
X185851800Y-101092000D03*
D12*
X165798500Y-101231700D03*
D11*
X168338500Y-101231700D03*
X165798500Y-103771700D03*
X168338500Y-103771700D03*
X165798500Y-106311700D03*
X168338500Y-106311700D03*
D15*
X122392440Y-97602040D03*
X181233460Y-96078040D03*
X166367460Y-96088200D03*
X177960020Y-80787240D03*
X198412100Y-84980780D03*
X139049760Y-91752420D03*
X140200380Y-82349340D03*
X184670700Y-96062800D03*
X158460440Y-94472760D03*
X138638280Y-98447860D03*
X142190460Y-84222580D03*
X144825720Y-84086780D03*
X147436840Y-84015660D03*
X170167300Y-83055460D03*
X175310800Y-82844640D03*
X181043580Y-81086960D03*
X141114780Y-90662760D03*
X196855080Y-92100400D03*
X172090080Y-92100400D03*
X172323760Y-100898960D03*
X147231100Y-90731340D03*
X169489120Y-92897960D03*
X195996560Y-92897960D03*
X136169400Y-100705920D03*
X136298940Y-94358460D03*
X136258300Y-105788460D03*
X136210040Y-99438460D03*
X136265920Y-104518460D03*
X136237980Y-95625920D03*
X136159240Y-101978460D03*
X136278620Y-98168460D03*
X125705860Y-91747340D03*
X128869720Y-97068360D03*
X128869720Y-97068360D03*
X132520300Y-106514020D03*
X131701540Y-100629720D03*
X128450340Y-98750120D03*
X132445760Y-97368360D03*
X127271780Y-98991420D03*
X127198120Y-100995480D03*
X118480430Y-103319990D03*
X152204420Y-93205300D03*
X117424200Y-102323900D03*
X151450040Y-94315280D03*
X116601240Y-101371400D03*
X152138380Y-95760540D03*
X129922270Y-102883970D03*
X188471810Y-95510350D03*
X131042410Y-102922070D03*
X141516100Y-107274360D03*
X132427980Y-102900480D03*
X131645660Y-99443540D03*
X129716530Y-101078030D03*
X129446020Y-99885500D03*
D16*
X139049760Y-91752420D02*
X139049760Y-83499960D01*
X139049760Y-83499960D02*
X140200380Y-82349340D01*
X140200380Y-82349340D02*
X140200380Y-82349340D01*
D17*
X138141010Y-87375010D02*
X138141010Y-95178308D01*
X138141010Y-95178308D02*
X134254240Y-99065078D01*
X134620000Y-82600000D02*
X134620000Y-83854000D01*
X134620000Y-83854000D02*
X138141010Y-87375010D01*
X134254240Y-99065078D02*
X134254240Y-99867720D01*
X135092440Y-100705920D02*
X136169400Y-100705920D01*
X134254240Y-99867720D02*
X135092440Y-100705920D01*
X135917941Y-89630584D02*
X135917941Y-93977461D01*
X132080000Y-85792643D02*
X135917941Y-89630584D01*
X135917941Y-93977461D02*
X136298940Y-94358460D01*
X132080000Y-82600000D02*
X132080000Y-85792643D01*
X124460000Y-82600000D02*
X124460000Y-83854000D01*
X126467861Y-92905581D02*
X132463541Y-98901261D01*
X126467861Y-91381579D02*
X126467861Y-92905581D01*
X124460000Y-83854000D02*
X125441010Y-84835010D01*
X125441010Y-90354728D02*
X126467861Y-91381579D01*
X125441010Y-84835010D02*
X125441010Y-90354728D01*
X132463541Y-100673287D02*
X133713220Y-101922966D01*
X132463541Y-98901261D02*
X132463541Y-100673287D01*
X133713220Y-103243380D02*
X136258300Y-105788460D01*
X133713220Y-101922966D02*
X133713220Y-103243380D01*
X153048500Y-82600000D02*
X136210040Y-99438460D01*
X154940000Y-82600000D02*
X153048500Y-82600000D01*
X152045390Y-88738990D02*
X136646919Y-104137461D01*
X157675010Y-88738990D02*
X152045390Y-88738990D01*
X162560000Y-83854000D02*
X157675010Y-88738990D01*
X136646919Y-104137461D02*
X136265920Y-104518460D01*
X162560000Y-82600000D02*
X162560000Y-83854000D01*
X131098990Y-86773653D02*
X133638990Y-89313653D01*
X131673653Y-81218990D02*
X131098990Y-81793653D01*
X131098990Y-81793653D02*
X131098990Y-86773653D01*
X133638990Y-93026930D02*
X136237980Y-95625920D01*
X133638990Y-89313653D02*
X133638990Y-93026930D01*
X133065531Y-79827112D02*
X131098990Y-81793653D01*
X165100000Y-82600000D02*
X165100000Y-81346000D01*
X163581112Y-79827112D02*
X133065531Y-79827112D01*
X165100000Y-81346000D02*
X163581112Y-79827112D01*
X185420000Y-81346000D02*
X183393102Y-79319102D01*
X185420000Y-82600000D02*
X185420000Y-81346000D01*
X131033538Y-79319102D02*
X129641600Y-80711040D01*
X183393102Y-79319102D02*
X131033538Y-79319102D01*
X129641663Y-80710980D02*
X129641600Y-80711040D01*
X135620425Y-101978460D02*
X136159240Y-101978460D01*
X129641600Y-80711040D02*
X128417320Y-81935323D01*
X133746231Y-100104266D02*
X135620425Y-101978460D01*
X128417320Y-81935323D02*
X128417320Y-90784677D01*
X128417320Y-90784677D02*
X133746231Y-96113588D01*
X133746231Y-96113588D02*
X133746231Y-100104266D01*
X192912990Y-83981010D02*
X193040000Y-83854000D01*
X136278620Y-98168460D02*
X153228090Y-81218990D01*
X153228090Y-81218990D02*
X163352430Y-81218990D01*
X164097700Y-84493100D02*
X192907920Y-84493100D01*
X163352430Y-81218990D02*
X163875720Y-81742280D01*
X193040000Y-83854000D02*
X193040000Y-82600000D01*
X163875720Y-81742280D02*
X163875720Y-83753960D01*
X163875720Y-83753960D02*
X164102770Y-83981010D01*
X192912990Y-84488030D02*
X192907920Y-84493100D01*
X192912990Y-83981010D02*
X192912990Y-84488030D01*
X164102770Y-84488030D02*
X164097700Y-84493100D01*
X164102770Y-83981010D02*
X164102770Y-84488030D01*
X132901299Y-106133021D02*
X132520300Y-106514020D01*
X133189981Y-105844339D02*
X132901299Y-106133021D01*
X133189981Y-102118161D02*
X133189981Y-105844339D01*
X131701540Y-100629720D02*
X133189981Y-102118161D01*
X131944115Y-107784031D02*
X141006429Y-107784031D01*
X131042410Y-102922070D02*
X131042410Y-106882326D01*
X131042410Y-106882326D02*
X131944115Y-107784031D01*
X141006429Y-107784031D02*
X141516100Y-107274360D01*
X141516100Y-107274360D02*
X141549120Y-107241340D01*
X131758299Y-103570161D02*
X131758299Y-106879781D01*
X132427980Y-102900480D02*
X131758299Y-103570161D01*
X131758299Y-106879781D02*
X132154539Y-107276021D01*
X132154539Y-107276021D02*
X135898501Y-107276021D01*
X137126980Y-106047542D02*
X137126980Y-104375834D01*
X135898501Y-107276021D02*
X137126980Y-106047542D01*
X137126980Y-104375834D02*
X139635037Y-101867777D01*
X142415260Y-104648000D02*
X144780000Y-104648000D01*
X139635037Y-101867777D02*
X142415260Y-104648000D01*
X130501390Y-101908610D02*
X130501390Y-100702108D01*
X130288031Y-102121969D02*
X130501390Y-101908610D01*
X131860651Y-108419001D02*
X129160269Y-105718619D01*
X130501390Y-100702108D02*
X131335779Y-99867719D01*
X146088999Y-108419001D02*
X131860651Y-108419001D01*
X129160269Y-105718619D02*
X129160269Y-102518209D01*
X147320000Y-107188000D02*
X146088999Y-108419001D01*
X131335779Y-99753421D02*
X131645660Y-99443540D01*
X131335779Y-99867719D02*
X131335779Y-99753421D01*
X129556509Y-102121969D02*
X130288031Y-102121969D01*
X129160269Y-102518209D02*
X129556509Y-102121969D01*
X148551001Y-106597119D02*
X147910881Y-105956999D01*
X148551001Y-107778881D02*
X148551001Y-106597119D01*
X147402871Y-108927011D02*
X148551001Y-107778881D01*
X131650227Y-108927011D02*
X147402871Y-108927011D01*
X128652260Y-105929044D02*
X131650227Y-108927011D01*
X128652260Y-102142300D02*
X128652260Y-105929044D01*
X129716530Y-101078030D02*
X128652260Y-102142300D01*
X146011001Y-105160883D02*
X146011001Y-103339001D01*
X146807117Y-105956999D02*
X146011001Y-105160883D01*
X145629999Y-102957999D02*
X144780000Y-102108000D01*
X146011001Y-103339001D02*
X145629999Y-102957999D01*
X147910881Y-105956999D02*
X146807117Y-105956999D01*
X131439803Y-109435021D02*
X147613296Y-109435020D01*
X128144251Y-106139469D02*
X131439803Y-109435021D01*
X128146790Y-101184730D02*
X129446020Y-99885500D01*
X128144250Y-101184730D02*
X128144251Y-106139469D01*
X128144250Y-101184730D02*
X128146790Y-101184730D01*
X147613296Y-109435020D02*
X149059011Y-107989305D01*
X149059011Y-107989305D02*
X149059010Y-105184929D01*
X148522081Y-104648000D02*
X147320000Y-104648000D01*
X149059010Y-105184929D02*
X148522081Y-104648000D01*
G36*
X201240001Y-109642300D02*
G01*
X194634521Y-109642300D01*
X194771018Y-109615149D01*
X195182311Y-109444786D01*
X195552466Y-109197456D01*
X195867256Y-108882666D01*
X196114586Y-108512511D01*
X196284949Y-108101218D01*
X196371800Y-107664591D01*
X196371800Y-107353433D01*
X196479020Y-107612285D01*
X196727336Y-107983917D01*
X197043383Y-108299964D01*
X197415015Y-108548280D01*
X197827951Y-108719324D01*
X198266321Y-108806521D01*
X198713279Y-108806521D01*
X199151649Y-108719324D01*
X199564585Y-108548280D01*
X199936217Y-108299964D01*
X200252264Y-107983917D01*
X200500580Y-107612285D01*
X200671624Y-107199349D01*
X200758821Y-106760979D01*
X200758821Y-106314021D01*
X200671624Y-105875651D01*
X200500580Y-105462715D01*
X200252264Y-105091083D01*
X199936217Y-104775036D01*
X199564585Y-104526720D01*
X199151649Y-104355676D01*
X198713279Y-104268479D01*
X198266321Y-104268479D01*
X197827951Y-104355676D01*
X197415015Y-104526720D01*
X197043383Y-104775036D01*
X196727336Y-105091083D01*
X196479020Y-105462715D01*
X196307976Y-105875651D01*
X196220779Y-106314021D01*
X196220779Y-106627862D01*
X196114586Y-106371489D01*
X195867256Y-106001334D01*
X195552466Y-105686544D01*
X195182311Y-105439214D01*
X194771018Y-105268851D01*
X194334391Y-105182000D01*
X193889209Y-105182000D01*
X193452582Y-105268851D01*
X193041289Y-105439214D01*
X192671134Y-105686544D01*
X192356344Y-106001334D01*
X192109014Y-106371489D01*
X191938651Y-106782782D01*
X191851800Y-107219409D01*
X191851800Y-107664591D01*
X191938651Y-108101218D01*
X192109014Y-108512511D01*
X192356344Y-108882666D01*
X192671134Y-109197456D01*
X193041289Y-109444786D01*
X193452582Y-109615149D01*
X193589079Y-109642300D01*
X184474521Y-109642300D01*
X184611018Y-109615149D01*
X185022311Y-109444786D01*
X185392466Y-109197456D01*
X185707256Y-108882666D01*
X185954586Y-108512511D01*
X186124949Y-108101218D01*
X186211800Y-107664591D01*
X186211800Y-107219409D01*
X186124949Y-106782782D01*
X185954586Y-106371489D01*
X185707256Y-106001334D01*
X185392466Y-105686544D01*
X185022311Y-105439214D01*
X184611018Y-105268851D01*
X184174391Y-105182000D01*
X183729209Y-105182000D01*
X183292582Y-105268851D01*
X182881289Y-105439214D01*
X182511134Y-105686544D01*
X182196344Y-106001334D01*
X181949014Y-106371489D01*
X181778651Y-106782782D01*
X181691800Y-107219409D01*
X181691800Y-107664591D01*
X181778651Y-108101218D01*
X181949014Y-108512511D01*
X182196344Y-108882666D01*
X182511134Y-109197456D01*
X182881289Y-109444786D01*
X183292582Y-109615149D01*
X183429079Y-109642300D01*
X148483646Y-109642300D01*
X149571368Y-108554579D01*
X149600433Y-108530726D01*
X149624286Y-108501661D01*
X149624290Y-108501657D01*
X149695656Y-108414698D01*
X149766412Y-108282321D01*
X149770264Y-108269623D01*
X149809985Y-108138682D01*
X149821011Y-108026730D01*
X149821011Y-108026728D01*
X149824697Y-107989305D01*
X149821011Y-107951881D01*
X149821010Y-105312248D01*
X152628598Y-105312248D01*
X152628598Y-106015752D01*
X152765845Y-106705739D01*
X153035065Y-107355693D01*
X153425911Y-107940636D01*
X153923364Y-108438089D01*
X154508307Y-108828935D01*
X155158261Y-109098155D01*
X155848248Y-109235402D01*
X156551752Y-109235402D01*
X157241739Y-109098155D01*
X157891693Y-108828935D01*
X158476636Y-108438089D01*
X158974089Y-107940636D01*
X159364935Y-107355693D01*
X159634155Y-106705739D01*
X159771402Y-106015752D01*
X159771402Y-105312248D01*
X159634155Y-104622261D01*
X159364935Y-103972307D01*
X158974089Y-103387364D01*
X158476636Y-102889911D01*
X157891693Y-102499065D01*
X157241739Y-102229845D01*
X156551752Y-102092598D01*
X155848248Y-102092598D01*
X155158261Y-102229845D01*
X154508307Y-102499065D01*
X153923364Y-102889911D01*
X153425911Y-103387364D01*
X153035065Y-103972307D01*
X152765845Y-104622261D01*
X152628598Y-105312248D01*
X149821010Y-105312248D01*
X149821009Y-105222361D01*
X149824696Y-105184928D01*
X149809983Y-105035550D01*
X149766411Y-104891912D01*
X149695654Y-104759536D01*
X149624289Y-104672577D01*
X149624284Y-104672572D01*
X149600431Y-104643507D01*
X149571366Y-104619654D01*
X149087364Y-104135653D01*
X149063503Y-104106578D01*
X148947473Y-104011355D01*
X148815096Y-103940598D01*
X148671459Y-103897026D01*
X148599472Y-103889936D01*
X148473475Y-103701368D01*
X148266632Y-103494525D01*
X148092240Y-103378000D01*
X148266632Y-103261475D01*
X148473475Y-103054632D01*
X148635990Y-102811411D01*
X148747932Y-102541158D01*
X148805000Y-102254260D01*
X148805000Y-102081700D01*
X164310428Y-102081700D01*
X164322688Y-102206182D01*
X164358998Y-102325880D01*
X164417963Y-102436194D01*
X164497315Y-102532885D01*
X164594006Y-102612237D01*
X164704320Y-102671202D01*
X164776880Y-102693213D01*
X164645025Y-102825068D01*
X164482510Y-103068289D01*
X164370568Y-103338542D01*
X164313500Y-103625440D01*
X164313500Y-103917960D01*
X164370568Y-104204858D01*
X164482510Y-104475111D01*
X164645025Y-104718332D01*
X164851868Y-104925175D01*
X165026260Y-105041700D01*
X164851868Y-105158225D01*
X164645025Y-105365068D01*
X164482510Y-105608289D01*
X164370568Y-105878542D01*
X164313500Y-106165440D01*
X164313500Y-106457960D01*
X164370568Y-106744858D01*
X164482510Y-107015111D01*
X164645025Y-107258332D01*
X164851868Y-107465175D01*
X165095089Y-107627690D01*
X165365342Y-107739632D01*
X165652240Y-107796700D01*
X165944760Y-107796700D01*
X166231658Y-107739632D01*
X166501911Y-107627690D01*
X166745132Y-107465175D01*
X166951975Y-107258332D01*
X167068500Y-107083940D01*
X167185025Y-107258332D01*
X167391868Y-107465175D01*
X167635089Y-107627690D01*
X167905342Y-107739632D01*
X168192240Y-107796700D01*
X168484760Y-107796700D01*
X168771658Y-107739632D01*
X169041911Y-107627690D01*
X169285132Y-107465175D01*
X169491975Y-107258332D01*
X169654490Y-107015111D01*
X169766432Y-106744858D01*
X169823500Y-106457960D01*
X169823500Y-106165440D01*
X169766432Y-105878542D01*
X169654490Y-105608289D01*
X169491975Y-105365068D01*
X169285132Y-105158225D01*
X169110740Y-105041700D01*
X169285132Y-104925175D01*
X169491975Y-104718332D01*
X169654490Y-104475111D01*
X169766432Y-104204858D01*
X169823500Y-103917960D01*
X169823500Y-103625440D01*
X169766432Y-103338542D01*
X169654490Y-103068289D01*
X169491975Y-102825068D01*
X169285132Y-102618225D01*
X169110740Y-102501700D01*
X169285132Y-102385175D01*
X169491975Y-102178332D01*
X169573623Y-102056137D01*
X185067269Y-102056137D01*
X185134006Y-102296025D01*
X185382692Y-102412924D01*
X185649406Y-102479061D01*
X185923897Y-102491895D01*
X186195617Y-102450931D01*
X186454126Y-102357744D01*
X186569594Y-102296025D01*
X186636331Y-102056137D01*
X185851800Y-101271605D01*
X185067269Y-102056137D01*
X169573623Y-102056137D01*
X169654490Y-101935111D01*
X169766432Y-101664858D01*
X169823500Y-101377960D01*
X169823500Y-101085440D01*
X169766502Y-100798893D01*
X171307760Y-100798893D01*
X171307760Y-100999027D01*
X171346804Y-101195316D01*
X171423392Y-101380216D01*
X171534581Y-101546622D01*
X171676098Y-101688139D01*
X171842504Y-101799328D01*
X172027404Y-101875916D01*
X172223693Y-101914960D01*
X172423827Y-101914960D01*
X172620116Y-101875916D01*
X172805016Y-101799328D01*
X172971422Y-101688139D01*
X173112939Y-101546622D01*
X173224128Y-101380216D01*
X173300716Y-101195316D01*
X173306925Y-101164097D01*
X184451905Y-101164097D01*
X184492869Y-101435817D01*
X184586056Y-101694326D01*
X184647775Y-101809794D01*
X184887663Y-101876531D01*
X185672195Y-101092000D01*
X184887663Y-100307469D01*
X184647775Y-100374206D01*
X184530876Y-100622892D01*
X184464739Y-100889606D01*
X184451905Y-101164097D01*
X173306925Y-101164097D01*
X173339760Y-100999027D01*
X173339760Y-100798893D01*
X173300716Y-100602604D01*
X173224128Y-100417704D01*
X173112939Y-100251298D01*
X172989504Y-100127863D01*
X185067269Y-100127863D01*
X185851800Y-100912395D01*
X186636331Y-100127863D01*
X186569594Y-99887975D01*
X186320908Y-99771076D01*
X186054194Y-99704939D01*
X185779703Y-99692105D01*
X185507983Y-99733069D01*
X185249474Y-99826256D01*
X185134006Y-99887975D01*
X185067269Y-100127863D01*
X172989504Y-100127863D01*
X172971422Y-100109781D01*
X172805016Y-99998592D01*
X172620116Y-99922004D01*
X172423827Y-99882960D01*
X172223693Y-99882960D01*
X172027404Y-99922004D01*
X171842504Y-99998592D01*
X171676098Y-100109781D01*
X171534581Y-100251298D01*
X171423392Y-100417704D01*
X171346804Y-100602604D01*
X171307760Y-100798893D01*
X169766502Y-100798893D01*
X169766432Y-100798542D01*
X169654490Y-100528289D01*
X169491975Y-100285068D01*
X169285132Y-100078225D01*
X169041911Y-99915710D01*
X168771658Y-99803768D01*
X168484760Y-99746700D01*
X168192240Y-99746700D01*
X167905342Y-99803768D01*
X167635089Y-99915710D01*
X167391868Y-100078225D01*
X167260013Y-100210080D01*
X167238002Y-100137520D01*
X167179037Y-100027206D01*
X167099685Y-99930515D01*
X167002994Y-99851163D01*
X166892680Y-99792198D01*
X166772982Y-99755888D01*
X166648500Y-99743628D01*
X166084250Y-99746700D01*
X165925500Y-99905450D01*
X165925500Y-101104700D01*
X165945500Y-101104700D01*
X165945500Y-101358700D01*
X165925500Y-101358700D01*
X165925500Y-101378700D01*
X165671500Y-101378700D01*
X165671500Y-101358700D01*
X164472250Y-101358700D01*
X164313500Y-101517450D01*
X164310428Y-102081700D01*
X148805000Y-102081700D01*
X148805000Y-101961740D01*
X148747932Y-101674842D01*
X148635990Y-101404589D01*
X148473475Y-101161368D01*
X148266632Y-100954525D01*
X148023411Y-100792010D01*
X147753158Y-100680068D01*
X147466260Y-100623000D01*
X147173740Y-100623000D01*
X146886842Y-100680068D01*
X146616589Y-100792010D01*
X146373368Y-100954525D01*
X146166525Y-101161368D01*
X146050000Y-101335760D01*
X145933475Y-101161368D01*
X145726632Y-100954525D01*
X145483411Y-100792010D01*
X145213158Y-100680068D01*
X144926260Y-100623000D01*
X144633740Y-100623000D01*
X144346842Y-100680068D01*
X144076589Y-100792010D01*
X143833368Y-100954525D01*
X143626525Y-101161368D01*
X143464010Y-101404589D01*
X143352068Y-101674842D01*
X143295000Y-101961740D01*
X143295000Y-102254260D01*
X143352068Y-102541158D01*
X143464010Y-102811411D01*
X143626525Y-103054632D01*
X143833368Y-103261475D01*
X144007760Y-103378000D01*
X143833368Y-103494525D01*
X143626525Y-103701368D01*
X143503158Y-103886000D01*
X142730891Y-103886000D01*
X140353450Y-101508560D01*
X141480310Y-100381700D01*
X164310428Y-100381700D01*
X164313500Y-100945950D01*
X164472250Y-101104700D01*
X165671500Y-101104700D01*
X165671500Y-99905450D01*
X165512750Y-99746700D01*
X164948500Y-99743628D01*
X164824018Y-99755888D01*
X164704320Y-99792198D01*
X164594006Y-99851163D01*
X164497315Y-99930515D01*
X164417963Y-100027206D01*
X164358998Y-100137520D01*
X164322688Y-100257218D01*
X164310428Y-100381700D01*
X141480310Y-100381700D01*
X143447406Y-98414604D01*
X185726800Y-98414604D01*
X185726800Y-98689396D01*
X185780409Y-98958907D01*
X185885567Y-99212780D01*
X186038233Y-99441261D01*
X186232539Y-99635567D01*
X186461020Y-99788233D01*
X186714893Y-99893391D01*
X186984404Y-99947000D01*
X187259196Y-99947000D01*
X187528707Y-99893391D01*
X187782580Y-99788233D01*
X188011061Y-99635567D01*
X188205367Y-99441261D01*
X188358033Y-99212780D01*
X188391800Y-99131260D01*
X188425567Y-99212780D01*
X188578233Y-99441261D01*
X188772539Y-99635567D01*
X189001020Y-99788233D01*
X189254893Y-99893391D01*
X189524404Y-99947000D01*
X189799196Y-99947000D01*
X190068707Y-99893391D01*
X190322580Y-99788233D01*
X190551061Y-99635567D01*
X190745367Y-99441261D01*
X190807326Y-99348533D01*
X190815988Y-99436482D01*
X190852298Y-99556180D01*
X190911263Y-99666494D01*
X190936299Y-99697000D01*
X190794404Y-99697000D01*
X190524893Y-99750609D01*
X190271020Y-99855767D01*
X190042539Y-100008433D01*
X189848233Y-100202739D01*
X189695567Y-100431220D01*
X189661800Y-100512740D01*
X189628033Y-100431220D01*
X189475367Y-100202739D01*
X189281061Y-100008433D01*
X189052580Y-99855767D01*
X188798707Y-99750609D01*
X188529196Y-99697000D01*
X188254404Y-99697000D01*
X187984893Y-99750609D01*
X187731020Y-99855767D01*
X187502539Y-100008433D01*
X187308233Y-100202739D01*
X187155567Y-100431220D01*
X187123970Y-100507501D01*
X187117544Y-100489674D01*
X187055825Y-100374206D01*
X186815937Y-100307469D01*
X186031405Y-101092000D01*
X186815937Y-101876531D01*
X187055825Y-101809794D01*
X187121400Y-101670293D01*
X187155567Y-101752780D01*
X187308233Y-101981261D01*
X187502539Y-102175567D01*
X187731020Y-102328233D01*
X187984893Y-102433391D01*
X188254404Y-102487000D01*
X188529196Y-102487000D01*
X188798707Y-102433391D01*
X189052580Y-102328233D01*
X189281061Y-102175567D01*
X189475367Y-101981261D01*
X189628033Y-101752780D01*
X189661800Y-101671260D01*
X189695567Y-101752780D01*
X189848233Y-101981261D01*
X190042539Y-102175567D01*
X190271020Y-102328233D01*
X190524893Y-102433391D01*
X190794404Y-102487000D01*
X191069196Y-102487000D01*
X191338707Y-102433391D01*
X191592580Y-102328233D01*
X191821061Y-102175567D01*
X192015367Y-101981261D01*
X192168033Y-101752780D01*
X192273191Y-101498907D01*
X192326800Y-101229396D01*
X192326800Y-100954604D01*
X192273191Y-100685093D01*
X192168033Y-100431220D01*
X192015367Y-100202739D01*
X191821061Y-100008433D01*
X191730915Y-99948199D01*
X191916050Y-99947000D01*
X192074800Y-99788250D01*
X192074800Y-98679000D01*
X192328800Y-98679000D01*
X192328800Y-99788250D01*
X192487550Y-99947000D01*
X192961800Y-99950072D01*
X193086282Y-99937812D01*
X193205980Y-99901502D01*
X193316294Y-99842537D01*
X193412985Y-99763185D01*
X193492337Y-99666494D01*
X193551302Y-99556180D01*
X193587612Y-99436482D01*
X193599872Y-99312000D01*
X193596800Y-98837750D01*
X193438050Y-98679000D01*
X192328800Y-98679000D01*
X192074800Y-98679000D01*
X192054800Y-98679000D01*
X192054800Y-98425000D01*
X192074800Y-98425000D01*
X192074800Y-97315750D01*
X192328800Y-97315750D01*
X192328800Y-98425000D01*
X193438050Y-98425000D01*
X193596800Y-98266250D01*
X193599872Y-97792000D01*
X193587612Y-97667518D01*
X193551302Y-97547820D01*
X193492337Y-97437506D01*
X193412985Y-97340815D01*
X193316294Y-97261463D01*
X193205980Y-97202498D01*
X193086282Y-97166188D01*
X192961800Y-97153928D01*
X192487550Y-97157000D01*
X192328800Y-97315750D01*
X192074800Y-97315750D01*
X191916050Y-97157000D01*
X191441800Y-97153928D01*
X191317318Y-97166188D01*
X191197620Y-97202498D01*
X191087306Y-97261463D01*
X190990615Y-97340815D01*
X190911263Y-97437506D01*
X190852298Y-97547820D01*
X190815988Y-97667518D01*
X190807326Y-97755467D01*
X190745367Y-97662739D01*
X190551061Y-97468433D01*
X190322580Y-97315767D01*
X190068707Y-97210609D01*
X189799196Y-97157000D01*
X189524404Y-97157000D01*
X189254893Y-97210609D01*
X189001020Y-97315767D01*
X188772539Y-97468433D01*
X188578233Y-97662739D01*
X188425567Y-97891220D01*
X188391800Y-97972740D01*
X188358033Y-97891220D01*
X188205367Y-97662739D01*
X188011061Y-97468433D01*
X187782580Y-97315767D01*
X187528707Y-97210609D01*
X187259196Y-97157000D01*
X186984404Y-97157000D01*
X186714893Y-97210609D01*
X186461020Y-97315767D01*
X186232539Y-97468433D01*
X186038233Y-97662739D01*
X185885567Y-97891220D01*
X185780409Y-98145093D01*
X185726800Y-98414604D01*
X143447406Y-98414604D01*
X147646797Y-94215213D01*
X150434040Y-94215213D01*
X150434040Y-94415347D01*
X150473084Y-94611636D01*
X150549672Y-94796536D01*
X150660861Y-94962942D01*
X150802378Y-95104459D01*
X150968784Y-95215648D01*
X151153684Y-95292236D01*
X151226636Y-95306747D01*
X151161424Y-95464184D01*
X151122380Y-95660473D01*
X151122380Y-95860607D01*
X151161424Y-96056896D01*
X151238012Y-96241796D01*
X151349201Y-96408202D01*
X151490718Y-96549719D01*
X151657124Y-96660908D01*
X151842024Y-96737496D01*
X152038313Y-96776540D01*
X152238447Y-96776540D01*
X152434736Y-96737496D01*
X152619636Y-96660908D01*
X152786042Y-96549719D01*
X152927559Y-96408202D01*
X153038748Y-96241796D01*
X153115336Y-96056896D01*
X153129013Y-95988133D01*
X165351460Y-95988133D01*
X165351460Y-96188267D01*
X165390504Y-96384556D01*
X165467092Y-96569456D01*
X165578281Y-96735862D01*
X165719798Y-96877379D01*
X165886204Y-96988568D01*
X166071104Y-97065156D01*
X166267393Y-97104200D01*
X166467527Y-97104200D01*
X166663816Y-97065156D01*
X166848716Y-96988568D01*
X167015122Y-96877379D01*
X167156639Y-96735862D01*
X167267828Y-96569456D01*
X167344416Y-96384556D01*
X167383460Y-96188267D01*
X167383460Y-95988133D01*
X167381440Y-95977973D01*
X180217460Y-95977973D01*
X180217460Y-96178107D01*
X180256504Y-96374396D01*
X180333092Y-96559296D01*
X180444281Y-96725702D01*
X180585798Y-96867219D01*
X180752204Y-96978408D01*
X180937104Y-97054996D01*
X181133393Y-97094040D01*
X181333527Y-97094040D01*
X181529816Y-97054996D01*
X181714716Y-96978408D01*
X181881122Y-96867219D01*
X182022639Y-96725702D01*
X182133828Y-96559296D01*
X182210416Y-96374396D01*
X182249460Y-96178107D01*
X182249460Y-95977973D01*
X182210416Y-95781684D01*
X182133828Y-95596784D01*
X182022639Y-95430378D01*
X182002544Y-95410283D01*
X187455810Y-95410283D01*
X187455810Y-95610417D01*
X187494854Y-95806706D01*
X187571442Y-95991606D01*
X187682631Y-96158012D01*
X187824148Y-96299529D01*
X187990554Y-96410718D01*
X188175454Y-96487306D01*
X188371743Y-96526350D01*
X188571877Y-96526350D01*
X188768166Y-96487306D01*
X188953066Y-96410718D01*
X189119472Y-96299529D01*
X189260989Y-96158012D01*
X189372178Y-95991606D01*
X189448766Y-95806706D01*
X189487810Y-95610417D01*
X189487810Y-95410283D01*
X189448766Y-95213994D01*
X189372178Y-95029094D01*
X189260989Y-94862688D01*
X189119472Y-94721171D01*
X188953066Y-94609982D01*
X188768166Y-94533394D01*
X188571877Y-94494350D01*
X188371743Y-94494350D01*
X188175454Y-94533394D01*
X187990554Y-94609982D01*
X187824148Y-94721171D01*
X187682631Y-94862688D01*
X187571442Y-95029094D01*
X187494854Y-95213994D01*
X187455810Y-95410283D01*
X182002544Y-95410283D01*
X181881122Y-95288861D01*
X181714716Y-95177672D01*
X181529816Y-95101084D01*
X181333527Y-95062040D01*
X181133393Y-95062040D01*
X180937104Y-95101084D01*
X180752204Y-95177672D01*
X180585798Y-95288861D01*
X180444281Y-95430378D01*
X180333092Y-95596784D01*
X180256504Y-95781684D01*
X180217460Y-95977973D01*
X167381440Y-95977973D01*
X167344416Y-95791844D01*
X167267828Y-95606944D01*
X167156639Y-95440538D01*
X167015122Y-95299021D01*
X166848716Y-95187832D01*
X166663816Y-95111244D01*
X166467527Y-95072200D01*
X166267393Y-95072200D01*
X166071104Y-95111244D01*
X165886204Y-95187832D01*
X165719798Y-95299021D01*
X165578281Y-95440538D01*
X165467092Y-95606944D01*
X165390504Y-95791844D01*
X165351460Y-95988133D01*
X153129013Y-95988133D01*
X153154380Y-95860607D01*
X153154380Y-95660473D01*
X153115336Y-95464184D01*
X153038748Y-95279284D01*
X152927559Y-95112878D01*
X152786042Y-94971361D01*
X152619636Y-94860172D01*
X152434736Y-94783584D01*
X152361784Y-94769073D01*
X152426996Y-94611636D01*
X152466040Y-94415347D01*
X152466040Y-94215213D01*
X152461056Y-94190157D01*
X152500776Y-94182256D01*
X152685676Y-94105668D01*
X152852082Y-93994479D01*
X152993599Y-93852962D01*
X153104788Y-93686556D01*
X153181376Y-93501656D01*
X153220420Y-93305367D01*
X153220420Y-93105233D01*
X153181376Y-92908944D01*
X153135378Y-92797893D01*
X168473120Y-92797893D01*
X168473120Y-92998027D01*
X168512164Y-93194316D01*
X168588752Y-93379216D01*
X168699941Y-93545622D01*
X168841458Y-93687139D01*
X169007864Y-93798328D01*
X169192764Y-93874916D01*
X169389053Y-93913960D01*
X169589187Y-93913960D01*
X169785476Y-93874916D01*
X169970376Y-93798328D01*
X170136782Y-93687139D01*
X170278299Y-93545622D01*
X170389488Y-93379216D01*
X170466076Y-93194316D01*
X170505120Y-92998027D01*
X170505120Y-92797893D01*
X170466076Y-92601604D01*
X170389488Y-92416704D01*
X170278299Y-92250298D01*
X170136782Y-92108781D01*
X169974479Y-92000333D01*
X171074080Y-92000333D01*
X171074080Y-92200467D01*
X171113124Y-92396756D01*
X171189712Y-92581656D01*
X171300901Y-92748062D01*
X171442418Y-92889579D01*
X171608824Y-93000768D01*
X171793724Y-93077356D01*
X171990013Y-93116400D01*
X172190147Y-93116400D01*
X172386436Y-93077356D01*
X172571336Y-93000768D01*
X172737742Y-92889579D01*
X172829428Y-92797893D01*
X194980560Y-92797893D01*
X194980560Y-92998027D01*
X195019604Y-93194316D01*
X195096192Y-93379216D01*
X195207381Y-93545622D01*
X195348898Y-93687139D01*
X195515304Y-93798328D01*
X195700204Y-93874916D01*
X195896493Y-93913960D01*
X196096627Y-93913960D01*
X196292916Y-93874916D01*
X196477816Y-93798328D01*
X196644222Y-93687139D01*
X196785739Y-93545622D01*
X196896928Y-93379216D01*
X196973516Y-93194316D01*
X196990410Y-93109386D01*
X197151436Y-93077356D01*
X197336336Y-93000768D01*
X197502742Y-92889579D01*
X197644259Y-92748062D01*
X197755448Y-92581656D01*
X197832036Y-92396756D01*
X197871080Y-92200467D01*
X197871080Y-92000333D01*
X197832036Y-91804044D01*
X197755448Y-91619144D01*
X197644259Y-91452738D01*
X197502742Y-91311221D01*
X197336336Y-91200032D01*
X197151436Y-91123444D01*
X196955147Y-91084400D01*
X196755013Y-91084400D01*
X196558724Y-91123444D01*
X196373824Y-91200032D01*
X196207418Y-91311221D01*
X196065901Y-91452738D01*
X195954712Y-91619144D01*
X195878124Y-91804044D01*
X195861230Y-91888974D01*
X195700204Y-91921004D01*
X195515304Y-91997592D01*
X195348898Y-92108781D01*
X195207381Y-92250298D01*
X195096192Y-92416704D01*
X195019604Y-92601604D01*
X194980560Y-92797893D01*
X172829428Y-92797893D01*
X172879259Y-92748062D01*
X172990448Y-92581656D01*
X173067036Y-92396756D01*
X173106080Y-92200467D01*
X173106080Y-92000333D01*
X173067036Y-91804044D01*
X172990448Y-91619144D01*
X172879259Y-91452738D01*
X172737742Y-91311221D01*
X172571336Y-91200032D01*
X172386436Y-91123444D01*
X172190147Y-91084400D01*
X171990013Y-91084400D01*
X171793724Y-91123444D01*
X171608824Y-91200032D01*
X171442418Y-91311221D01*
X171300901Y-91452738D01*
X171189712Y-91619144D01*
X171113124Y-91804044D01*
X171074080Y-92000333D01*
X169974479Y-92000333D01*
X169970376Y-91997592D01*
X169785476Y-91921004D01*
X169589187Y-91881960D01*
X169389053Y-91881960D01*
X169192764Y-91921004D01*
X169007864Y-91997592D01*
X168841458Y-92108781D01*
X168699941Y-92250298D01*
X168588752Y-92416704D01*
X168512164Y-92601604D01*
X168473120Y-92797893D01*
X153135378Y-92797893D01*
X153104788Y-92724044D01*
X152993599Y-92557638D01*
X152852082Y-92416121D01*
X152685676Y-92304932D01*
X152500776Y-92228344D01*
X152304487Y-92189300D01*
X152104353Y-92189300D01*
X151908064Y-92228344D01*
X151723164Y-92304932D01*
X151556758Y-92416121D01*
X151415241Y-92557638D01*
X151304052Y-92724044D01*
X151227464Y-92908944D01*
X151188420Y-93105233D01*
X151188420Y-93305367D01*
X151193404Y-93330423D01*
X151153684Y-93338324D01*
X150968784Y-93414912D01*
X150802378Y-93526101D01*
X150660861Y-93667618D01*
X150549672Y-93834024D01*
X150473084Y-94018924D01*
X150434040Y-94215213D01*
X147646797Y-94215213D01*
X152361020Y-89500990D01*
X153720596Y-89500990D01*
X153705000Y-89659336D01*
X153705000Y-90580665D01*
X153722870Y-90762102D01*
X153793489Y-90994901D01*
X153908168Y-91209449D01*
X154062499Y-91397502D01*
X154250552Y-91551833D01*
X154465100Y-91666511D01*
X154697899Y-91737130D01*
X154940000Y-91760975D01*
X155182102Y-91737130D01*
X155414901Y-91666511D01*
X155629449Y-91551833D01*
X155817502Y-91397502D01*
X155971833Y-91209449D01*
X156086511Y-90994901D01*
X156157130Y-90762101D01*
X156175000Y-90580664D01*
X156175000Y-89659335D01*
X156159404Y-89500990D01*
X156260596Y-89500990D01*
X156245000Y-89659336D01*
X156245000Y-90580665D01*
X156262870Y-90762102D01*
X156333489Y-90994901D01*
X156448168Y-91209449D01*
X156602499Y-91397502D01*
X156790552Y-91551833D01*
X157005100Y-91666511D01*
X157237899Y-91737130D01*
X157480000Y-91760975D01*
X157722102Y-91737130D01*
X157954901Y-91666511D01*
X158169449Y-91551833D01*
X158357502Y-91397502D01*
X158511833Y-91209449D01*
X158626511Y-90994901D01*
X158697130Y-90762101D01*
X158715000Y-90580664D01*
X158715000Y-89659336D01*
X158785000Y-89659336D01*
X158785000Y-90580665D01*
X158802870Y-90762102D01*
X158873489Y-90994901D01*
X158988168Y-91209449D01*
X159142499Y-91397502D01*
X159330552Y-91551833D01*
X159545100Y-91666511D01*
X159777899Y-91737130D01*
X160020000Y-91760975D01*
X160262102Y-91737130D01*
X160494901Y-91666511D01*
X160709449Y-91551833D01*
X160897502Y-91397502D01*
X161051833Y-91209449D01*
X161166511Y-90994901D01*
X161237130Y-90762101D01*
X161255000Y-90580664D01*
X161255000Y-89659336D01*
X161325000Y-89659336D01*
X161325000Y-90580665D01*
X161342870Y-90762102D01*
X161413489Y-90994901D01*
X161528168Y-91209449D01*
X161682499Y-91397502D01*
X161870552Y-91551833D01*
X162085100Y-91666511D01*
X162317899Y-91737130D01*
X162560000Y-91760975D01*
X162802102Y-91737130D01*
X163034901Y-91666511D01*
X163249449Y-91551833D01*
X163437502Y-91397502D01*
X163591833Y-91209449D01*
X163706511Y-90994901D01*
X163777130Y-90762101D01*
X163795000Y-90580664D01*
X163795000Y-89659336D01*
X163865000Y-89659336D01*
X163865000Y-90580665D01*
X163882870Y-90762102D01*
X163953489Y-90994901D01*
X164068168Y-91209449D01*
X164222499Y-91397502D01*
X164410552Y-91551833D01*
X164625100Y-91666511D01*
X164857899Y-91737130D01*
X165100000Y-91760975D01*
X165342102Y-91737130D01*
X165574901Y-91666511D01*
X165789449Y-91551833D01*
X165977502Y-91397502D01*
X166131833Y-91209449D01*
X166246511Y-90994901D01*
X166317130Y-90762101D01*
X166335000Y-90580664D01*
X166335000Y-89659336D01*
X166405000Y-89659336D01*
X166405000Y-90580665D01*
X166422870Y-90762102D01*
X166493489Y-90994901D01*
X166608168Y-91209449D01*
X166762499Y-91397502D01*
X166950552Y-91551833D01*
X167165100Y-91666511D01*
X167397899Y-91737130D01*
X167640000Y-91760975D01*
X167882102Y-91737130D01*
X168114901Y-91666511D01*
X168329449Y-91551833D01*
X168517502Y-91397502D01*
X168671833Y-91209449D01*
X168786511Y-90994901D01*
X168857130Y-90762101D01*
X168875000Y-90580664D01*
X168875000Y-89659336D01*
X181645000Y-89659336D01*
X181645000Y-90580665D01*
X181662870Y-90762102D01*
X181733489Y-90994901D01*
X181848168Y-91209449D01*
X182002499Y-91397502D01*
X182190552Y-91551833D01*
X182405100Y-91666511D01*
X182637899Y-91737130D01*
X182880000Y-91760975D01*
X183122102Y-91737130D01*
X183354901Y-91666511D01*
X183569449Y-91551833D01*
X183757502Y-91397502D01*
X183911833Y-91209449D01*
X184026511Y-90994901D01*
X184097130Y-90762101D01*
X184115000Y-90580664D01*
X184115000Y-89659336D01*
X184185000Y-89659336D01*
X184185000Y-90580665D01*
X184202870Y-90762102D01*
X184273489Y-90994901D01*
X184388168Y-91209449D01*
X184542499Y-91397502D01*
X184730552Y-91551833D01*
X184945100Y-91666511D01*
X185177899Y-91737130D01*
X185420000Y-91760975D01*
X185662102Y-91737130D01*
X185894901Y-91666511D01*
X186109449Y-91551833D01*
X186297502Y-91397502D01*
X186451833Y-91209449D01*
X186566511Y-90994901D01*
X186637130Y-90762101D01*
X186655000Y-90580664D01*
X186655000Y-89659336D01*
X186725000Y-89659336D01*
X186725000Y-90580665D01*
X186742870Y-90762102D01*
X186813489Y-90994901D01*
X186928168Y-91209449D01*
X187082499Y-91397502D01*
X187270552Y-91551833D01*
X187485100Y-91666511D01*
X187717899Y-91737130D01*
X187960000Y-91760975D01*
X188202102Y-91737130D01*
X188434901Y-91666511D01*
X188649449Y-91551833D01*
X188837502Y-91397502D01*
X188991833Y-91209449D01*
X189106511Y-90994901D01*
X189177130Y-90762101D01*
X189195000Y-90580664D01*
X189195000Y-89659336D01*
X189265000Y-89659336D01*
X189265000Y-90580665D01*
X189282870Y-90762102D01*
X189353489Y-90994901D01*
X189468168Y-91209449D01*
X189622499Y-91397502D01*
X189810552Y-91551833D01*
X190025100Y-91666511D01*
X190257899Y-91737130D01*
X190500000Y-91760975D01*
X190742102Y-91737130D01*
X190974901Y-91666511D01*
X191189449Y-91551833D01*
X191377502Y-91397502D01*
X191531833Y-91209449D01*
X191646511Y-90994901D01*
X191717130Y-90762101D01*
X191735000Y-90580664D01*
X191735000Y-89659336D01*
X191805000Y-89659336D01*
X191805000Y-90580665D01*
X191822870Y-90762102D01*
X191893489Y-90994901D01*
X192008168Y-91209449D01*
X192162499Y-91397502D01*
X192350552Y-91551833D01*
X192565100Y-91666511D01*
X192797899Y-91737130D01*
X193040000Y-91760975D01*
X193282102Y-91737130D01*
X193514901Y-91666511D01*
X193729449Y-91551833D01*
X193917502Y-91397502D01*
X194071833Y-91209449D01*
X194186511Y-90994901D01*
X194257130Y-90762101D01*
X194275000Y-90580664D01*
X194275000Y-89659335D01*
X194257130Y-89477898D01*
X194186511Y-89245099D01*
X194071833Y-89030551D01*
X193917502Y-88842498D01*
X193729448Y-88688167D01*
X193514900Y-88573489D01*
X193282101Y-88502870D01*
X193040000Y-88479025D01*
X192797898Y-88502870D01*
X192565099Y-88573489D01*
X192350551Y-88688167D01*
X192162498Y-88842498D01*
X192008167Y-89030552D01*
X191893489Y-89245100D01*
X191822870Y-89477899D01*
X191805000Y-89659336D01*
X191735000Y-89659336D01*
X191735000Y-89659335D01*
X191717130Y-89477898D01*
X191646511Y-89245099D01*
X191531833Y-89030551D01*
X191377502Y-88842498D01*
X191189448Y-88688167D01*
X190974900Y-88573489D01*
X190742101Y-88502870D01*
X190500000Y-88479025D01*
X190257898Y-88502870D01*
X190025099Y-88573489D01*
X189810551Y-88688167D01*
X189622498Y-88842498D01*
X189468167Y-89030552D01*
X189353489Y-89245100D01*
X189282870Y-89477899D01*
X189265000Y-89659336D01*
X189195000Y-89659336D01*
X189195000Y-89659335D01*
X189177130Y-89477898D01*
X189106511Y-89245099D01*
X188991833Y-89030551D01*
X188837502Y-88842498D01*
X188649448Y-88688167D01*
X188434900Y-88573489D01*
X188202101Y-88502870D01*
X187960000Y-88479025D01*
X187717898Y-88502870D01*
X187485099Y-88573489D01*
X187270551Y-88688167D01*
X187082498Y-88842498D01*
X186928167Y-89030552D01*
X186813489Y-89245100D01*
X186742870Y-89477899D01*
X186725000Y-89659336D01*
X186655000Y-89659336D01*
X186655000Y-89659335D01*
X186637130Y-89477898D01*
X186566511Y-89245099D01*
X186451833Y-89030551D01*
X186297502Y-88842498D01*
X186109448Y-88688167D01*
X185894900Y-88573489D01*
X185662101Y-88502870D01*
X185420000Y-88479025D01*
X185177898Y-88502870D01*
X184945099Y-88573489D01*
X184730551Y-88688167D01*
X184542498Y-88842498D01*
X184388167Y-89030552D01*
X184273489Y-89245100D01*
X184202870Y-89477899D01*
X184185000Y-89659336D01*
X184115000Y-89659336D01*
X184115000Y-89659335D01*
X184097130Y-89477898D01*
X184026511Y-89245099D01*
X183911833Y-89030551D01*
X183757502Y-88842498D01*
X183569448Y-88688167D01*
X183354900Y-88573489D01*
X183122101Y-88502870D01*
X182880000Y-88479025D01*
X182637898Y-88502870D01*
X182405099Y-88573489D01*
X182190551Y-88688167D01*
X182002498Y-88842498D01*
X181848167Y-89030552D01*
X181733489Y-89245100D01*
X181662870Y-89477899D01*
X181645000Y-89659336D01*
X168875000Y-89659336D01*
X168875000Y-89659335D01*
X168857130Y-89477898D01*
X168786511Y-89245099D01*
X168671833Y-89030551D01*
X168517502Y-88842498D01*
X168329448Y-88688167D01*
X168114900Y-88573489D01*
X167882101Y-88502870D01*
X167640000Y-88479025D01*
X167397898Y-88502870D01*
X167165099Y-88573489D01*
X166950551Y-88688167D01*
X166762498Y-88842498D01*
X166608167Y-89030552D01*
X166493489Y-89245100D01*
X166422870Y-89477899D01*
X166405000Y-89659336D01*
X166335000Y-89659336D01*
X166335000Y-89659335D01*
X166317130Y-89477898D01*
X166246511Y-89245099D01*
X166131833Y-89030551D01*
X165977502Y-88842498D01*
X165789448Y-88688167D01*
X165574900Y-88573489D01*
X165342101Y-88502870D01*
X165100000Y-88479025D01*
X164857898Y-88502870D01*
X164625099Y-88573489D01*
X164410551Y-88688167D01*
X164222498Y-88842498D01*
X164068167Y-89030552D01*
X163953489Y-89245100D01*
X163882870Y-89477899D01*
X163865000Y-89659336D01*
X163795000Y-89659336D01*
X163795000Y-89659335D01*
X163777130Y-89477898D01*
X163706511Y-89245099D01*
X163591833Y-89030551D01*
X163437502Y-88842498D01*
X163249448Y-88688167D01*
X163034900Y-88573489D01*
X162802101Y-88502870D01*
X162560000Y-88479025D01*
X162317898Y-88502870D01*
X162085099Y-88573489D01*
X161870551Y-88688167D01*
X161682498Y-88842498D01*
X161528167Y-89030552D01*
X161413489Y-89245100D01*
X161342870Y-89477899D01*
X161325000Y-89659336D01*
X161255000Y-89659336D01*
X161255000Y-89659335D01*
X161237130Y-89477898D01*
X161166511Y-89245099D01*
X161051833Y-89030551D01*
X160897502Y-88842498D01*
X160709448Y-88688167D01*
X160494900Y-88573489D01*
X160262101Y-88502870D01*
X160020000Y-88479025D01*
X159777898Y-88502870D01*
X159545099Y-88573489D01*
X159330551Y-88688167D01*
X159142498Y-88842498D01*
X158988167Y-89030552D01*
X158873489Y-89245100D01*
X158802870Y-89477899D01*
X158785000Y-89659336D01*
X158715000Y-89659336D01*
X158715000Y-89659335D01*
X158697130Y-89477898D01*
X158626511Y-89245099D01*
X158511833Y-89030551D01*
X158488955Y-89002675D01*
X163072352Y-84419279D01*
X163101422Y-84395422D01*
X163196645Y-84279392D01*
X163245762Y-84187500D01*
X163270079Y-84217130D01*
X163334299Y-84295382D01*
X163340770Y-84300693D01*
X163340770Y-84404196D01*
X163332014Y-84493100D01*
X163346726Y-84642478D01*
X163390298Y-84786115D01*
X163461055Y-84918492D01*
X163556278Y-85034522D01*
X163672308Y-85129745D01*
X163804685Y-85200502D01*
X163948322Y-85244074D01*
X164060274Y-85255100D01*
X164060277Y-85255100D01*
X164097700Y-85258786D01*
X164135123Y-85255100D01*
X192870497Y-85255100D01*
X192907920Y-85258786D01*
X192945343Y-85255100D01*
X192945346Y-85255100D01*
X193057298Y-85244074D01*
X193200935Y-85200502D01*
X193333312Y-85129745D01*
X193449342Y-85034522D01*
X193451627Y-85031737D01*
X193454412Y-85029452D01*
X193549635Y-84913422D01*
X193620392Y-84781045D01*
X193663964Y-84637408D01*
X193674990Y-84525456D01*
X193674990Y-84525454D01*
X193678676Y-84488031D01*
X193674990Y-84450608D01*
X193674990Y-84281409D01*
X193676645Y-84279392D01*
X193747402Y-84147015D01*
X193790974Y-84003378D01*
X193793335Y-83979403D01*
X193917502Y-83877502D01*
X194071833Y-83689449D01*
X194186511Y-83474901D01*
X194257130Y-83242101D01*
X194275000Y-83060664D01*
X194275000Y-82139335D01*
X194257130Y-81957898D01*
X194186511Y-81725099D01*
X194071833Y-81510551D01*
X193917502Y-81322498D01*
X193729448Y-81168167D01*
X193514900Y-81053489D01*
X193282101Y-80982870D01*
X193040000Y-80959025D01*
X192797898Y-80982870D01*
X192565099Y-81053489D01*
X192350551Y-81168167D01*
X192162498Y-81322498D01*
X192008167Y-81510552D01*
X191893489Y-81725100D01*
X191822870Y-81957899D01*
X191805000Y-82139336D01*
X191805000Y-83060665D01*
X191822870Y-83242102D01*
X191893489Y-83474901D01*
X192008168Y-83689449D01*
X192042350Y-83731100D01*
X191497651Y-83731100D01*
X191531833Y-83689449D01*
X191646511Y-83474901D01*
X191717130Y-83242101D01*
X191735000Y-83060664D01*
X191735000Y-82139335D01*
X191717130Y-81957898D01*
X191646511Y-81725099D01*
X191531833Y-81510551D01*
X191377502Y-81322498D01*
X191189448Y-81168167D01*
X190974900Y-81053489D01*
X190742101Y-80982870D01*
X190500000Y-80959025D01*
X190257898Y-80982870D01*
X190025099Y-81053489D01*
X189810551Y-81168167D01*
X189622498Y-81322498D01*
X189468167Y-81510552D01*
X189353489Y-81725100D01*
X189282870Y-81957899D01*
X189265000Y-82139336D01*
X189265000Y-83060665D01*
X189282870Y-83242102D01*
X189353489Y-83474901D01*
X189468168Y-83689449D01*
X189502350Y-83731100D01*
X188957651Y-83731100D01*
X188991833Y-83689449D01*
X189106511Y-83474901D01*
X189177130Y-83242101D01*
X189195000Y-83060664D01*
X189195000Y-82139335D01*
X189177130Y-81957898D01*
X189106511Y-81725099D01*
X188991833Y-81510551D01*
X188837502Y-81322498D01*
X188649448Y-81168167D01*
X188434900Y-81053489D01*
X188202101Y-80982870D01*
X187960000Y-80959025D01*
X187717898Y-80982870D01*
X187485099Y-81053489D01*
X187270551Y-81168167D01*
X187082498Y-81322498D01*
X186928167Y-81510552D01*
X186813489Y-81725100D01*
X186742870Y-81957899D01*
X186725000Y-82139336D01*
X186725000Y-83060665D01*
X186742870Y-83242102D01*
X186813489Y-83474901D01*
X186928168Y-83689449D01*
X186962350Y-83731100D01*
X186417651Y-83731100D01*
X186451833Y-83689449D01*
X186566511Y-83474901D01*
X186637130Y-83242101D01*
X186655000Y-83060664D01*
X186655000Y-82139335D01*
X186637130Y-81957898D01*
X186566511Y-81725099D01*
X186451833Y-81510551D01*
X186297502Y-81322498D01*
X186173335Y-81220598D01*
X186170974Y-81196622D01*
X186127402Y-81052985D01*
X186081178Y-80966506D01*
X186056645Y-80920607D01*
X186010295Y-80864130D01*
X185961422Y-80804578D01*
X185932346Y-80780716D01*
X185065651Y-79914021D01*
X196220779Y-79914021D01*
X196220779Y-80360979D01*
X196307976Y-80799349D01*
X196479020Y-81212285D01*
X196727336Y-81583917D01*
X197043383Y-81899964D01*
X197415015Y-82148280D01*
X197827951Y-82319324D01*
X198266321Y-82406521D01*
X198713279Y-82406521D01*
X199151649Y-82319324D01*
X199564585Y-82148280D01*
X199936217Y-81899964D01*
X200252264Y-81583917D01*
X200500580Y-81212285D01*
X200671624Y-80799349D01*
X200758821Y-80360979D01*
X200758821Y-79914021D01*
X200671624Y-79475651D01*
X200500580Y-79062715D01*
X200252264Y-78691083D01*
X199936217Y-78375036D01*
X199564585Y-78126720D01*
X199151649Y-77955676D01*
X198713279Y-77868479D01*
X198266321Y-77868479D01*
X197827951Y-77955676D01*
X197415015Y-78126720D01*
X197043383Y-78375036D01*
X196727336Y-78691083D01*
X196479020Y-79062715D01*
X196307976Y-79475651D01*
X196220779Y-79914021D01*
X185065651Y-79914021D01*
X183958386Y-78806756D01*
X183934524Y-78777680D01*
X183818494Y-78682457D01*
X183686117Y-78611700D01*
X183542480Y-78568128D01*
X183430528Y-78557102D01*
X183430525Y-78557102D01*
X183393102Y-78553416D01*
X183355679Y-78557102D01*
X131070961Y-78557102D01*
X131033538Y-78553416D01*
X130996115Y-78557102D01*
X130996112Y-78557102D01*
X130884160Y-78568128D01*
X130740523Y-78611700D01*
X130678902Y-78644637D01*
X130608145Y-78682457D01*
X130565757Y-78717245D01*
X130492116Y-78777680D01*
X130468254Y-78806756D01*
X129129254Y-80145756D01*
X129129248Y-80145761D01*
X129109333Y-80165676D01*
X129088982Y-80185058D01*
X129082911Y-80192098D01*
X127911314Y-81363698D01*
X127877502Y-81322498D01*
X127689448Y-81168167D01*
X127474900Y-81053489D01*
X127242101Y-80982870D01*
X127000000Y-80959025D01*
X126757898Y-80982870D01*
X126525099Y-81053489D01*
X126310551Y-81168167D01*
X126122498Y-81322498D01*
X125968167Y-81510552D01*
X125853489Y-81725100D01*
X125782870Y-81957899D01*
X125765000Y-82139336D01*
X125765000Y-83060665D01*
X125782870Y-83242102D01*
X125853489Y-83474901D01*
X125968168Y-83689449D01*
X126122499Y-83877502D01*
X126310552Y-84031833D01*
X126525100Y-84146511D01*
X126757899Y-84217130D01*
X127000000Y-84240975D01*
X127242102Y-84217130D01*
X127474901Y-84146511D01*
X127655320Y-84050075D01*
X127655321Y-88669926D01*
X127474900Y-88573489D01*
X127242101Y-88502870D01*
X127000000Y-88479025D01*
X126757898Y-88502870D01*
X126525099Y-88573489D01*
X126310551Y-88688167D01*
X126203010Y-88776424D01*
X126203010Y-84872433D01*
X126206696Y-84835010D01*
X126196791Y-84734442D01*
X126191984Y-84685632D01*
X126148412Y-84541995D01*
X126077656Y-84409619D01*
X126077655Y-84409617D01*
X126042147Y-84366351D01*
X125982432Y-84293588D01*
X125953357Y-84269727D01*
X125438304Y-83754674D01*
X125491833Y-83689449D01*
X125606511Y-83474901D01*
X125677130Y-83242101D01*
X125695000Y-83060664D01*
X125695000Y-82139335D01*
X125677130Y-81957898D01*
X125606511Y-81725099D01*
X125491833Y-81510551D01*
X125337502Y-81322498D01*
X125149448Y-81168167D01*
X124934900Y-81053489D01*
X124702101Y-80982870D01*
X124460000Y-80959025D01*
X124217898Y-80982870D01*
X123985099Y-81053489D01*
X123770551Y-81168167D01*
X123582498Y-81322498D01*
X123428167Y-81510552D01*
X123313489Y-81725100D01*
X123242870Y-81957899D01*
X123225000Y-82139336D01*
X123225000Y-83060665D01*
X123242870Y-83242102D01*
X123313489Y-83474901D01*
X123428168Y-83689449D01*
X123582499Y-83877502D01*
X123706666Y-83979403D01*
X123709027Y-84003378D01*
X123752599Y-84147015D01*
X123823355Y-84279392D01*
X123858854Y-84322647D01*
X123918579Y-84395422D01*
X123947649Y-84419279D01*
X124679010Y-85150640D01*
X124679011Y-88500596D01*
X124460000Y-88479025D01*
X124217898Y-88502870D01*
X123985099Y-88573489D01*
X123770551Y-88688167D01*
X123582498Y-88842498D01*
X123428167Y-89030552D01*
X123313489Y-89245100D01*
X123242870Y-89477899D01*
X123225000Y-89659336D01*
X123225000Y-90580665D01*
X123242870Y-90762102D01*
X123313489Y-90994901D01*
X123428168Y-91209449D01*
X123582499Y-91397502D01*
X123770552Y-91551833D01*
X123985100Y-91666511D01*
X124217899Y-91737130D01*
X124460000Y-91760975D01*
X124689860Y-91738336D01*
X124689860Y-91847407D01*
X124728904Y-92043696D01*
X124805492Y-92228596D01*
X124916681Y-92395002D01*
X125058198Y-92536519D01*
X125224604Y-92647708D01*
X125409504Y-92724296D01*
X125605793Y-92763340D01*
X125705862Y-92763340D01*
X125705862Y-92868148D01*
X125702175Y-92905581D01*
X125716888Y-93054959D01*
X125760460Y-93198596D01*
X125831216Y-93330973D01*
X125897863Y-93412182D01*
X125926440Y-93447003D01*
X125955510Y-93470860D01*
X128575607Y-96090958D01*
X128573364Y-96091404D01*
X128388464Y-96167992D01*
X128222058Y-96279181D01*
X128080541Y-96420698D01*
X127969352Y-96587104D01*
X127892764Y-96772004D01*
X127853720Y-96968293D01*
X127853720Y-97168427D01*
X127892764Y-97364716D01*
X127969352Y-97549616D01*
X128080541Y-97716022D01*
X128142457Y-97777938D01*
X127969084Y-97849752D01*
X127802678Y-97960941D01*
X127696136Y-98067483D01*
X127568136Y-98014464D01*
X127371847Y-97975420D01*
X127171713Y-97975420D01*
X126975424Y-98014464D01*
X126790524Y-98091052D01*
X126624118Y-98202241D01*
X126482601Y-98343758D01*
X126371412Y-98510164D01*
X126294824Y-98695064D01*
X126255780Y-98891353D01*
X126255780Y-99091487D01*
X126294824Y-99287776D01*
X126371412Y-99472676D01*
X126482601Y-99639082D01*
X126624118Y-99780599D01*
X126790524Y-99891788D01*
X126975424Y-99968376D01*
X127064651Y-99986124D01*
X126901764Y-100018524D01*
X126716864Y-100095112D01*
X126550458Y-100206301D01*
X126408941Y-100347818D01*
X126297752Y-100514224D01*
X126221164Y-100699124D01*
X126182120Y-100895413D01*
X126182120Y-101095547D01*
X126221164Y-101291836D01*
X126297752Y-101476736D01*
X126408941Y-101643142D01*
X126550458Y-101784659D01*
X126716864Y-101895848D01*
X126901764Y-101972436D01*
X127098053Y-102011480D01*
X127298187Y-102011480D01*
X127382250Y-101994759D01*
X127382252Y-106102036D01*
X127378565Y-106139469D01*
X127393278Y-106288847D01*
X127436850Y-106432484D01*
X127507606Y-106564861D01*
X127573680Y-106645372D01*
X127602830Y-106680891D01*
X127631900Y-106704748D01*
X130569451Y-109642300D01*
X113647700Y-109642300D01*
X113647700Y-106314021D01*
X114432779Y-106314021D01*
X114432779Y-106760979D01*
X114519976Y-107199349D01*
X114691020Y-107612285D01*
X114939336Y-107983917D01*
X115255383Y-108299964D01*
X115627015Y-108548280D01*
X116039951Y-108719324D01*
X116478321Y-108806521D01*
X116925279Y-108806521D01*
X117363649Y-108719324D01*
X117776585Y-108548280D01*
X118148217Y-108299964D01*
X118464264Y-107983917D01*
X118712580Y-107612285D01*
X118883624Y-107199349D01*
X118970821Y-106760979D01*
X118970821Y-106314021D01*
X118883624Y-105875651D01*
X118712580Y-105462715D01*
X118464264Y-105091083D01*
X118148217Y-104775036D01*
X117776585Y-104526720D01*
X117363649Y-104355676D01*
X116925279Y-104268479D01*
X116478321Y-104268479D01*
X116039951Y-104355676D01*
X115627015Y-104526720D01*
X115255383Y-104775036D01*
X114939336Y-105091083D01*
X114691020Y-105462715D01*
X114519976Y-105875651D01*
X114432779Y-106314021D01*
X113647700Y-106314021D01*
X113647700Y-101271333D01*
X115585240Y-101271333D01*
X115585240Y-101471467D01*
X115624284Y-101667756D01*
X115700872Y-101852656D01*
X115812061Y-102019062D01*
X115953578Y-102160579D01*
X116119984Y-102271768D01*
X116304884Y-102348356D01*
X116408200Y-102368907D01*
X116408200Y-102423967D01*
X116447244Y-102620256D01*
X116523832Y-102805156D01*
X116635021Y-102971562D01*
X116776538Y-103113079D01*
X116942944Y-103224268D01*
X117127844Y-103300856D01*
X117324133Y-103339900D01*
X117464430Y-103339900D01*
X117464430Y-103420057D01*
X117503474Y-103616346D01*
X117580062Y-103801246D01*
X117691251Y-103967652D01*
X117832768Y-104109169D01*
X117999174Y-104220358D01*
X118184074Y-104296946D01*
X118380363Y-104335990D01*
X118580497Y-104335990D01*
X118776786Y-104296946D01*
X118961686Y-104220358D01*
X119128092Y-104109169D01*
X119269609Y-103967652D01*
X119380798Y-103801246D01*
X119457386Y-103616346D01*
X119496430Y-103420057D01*
X119496430Y-103219923D01*
X119457386Y-103023634D01*
X119380798Y-102838734D01*
X119269609Y-102672328D01*
X119128092Y-102530811D01*
X118961686Y-102419622D01*
X118776786Y-102343034D01*
X118580497Y-102303990D01*
X118440200Y-102303990D01*
X118440200Y-102223833D01*
X118401156Y-102027544D01*
X118324568Y-101842644D01*
X118213379Y-101676238D01*
X118071862Y-101534721D01*
X117905456Y-101423532D01*
X117720556Y-101346944D01*
X117617240Y-101326393D01*
X117617240Y-101271333D01*
X117578196Y-101075044D01*
X117501608Y-100890144D01*
X117390419Y-100723738D01*
X117248902Y-100582221D01*
X117082496Y-100471032D01*
X116897596Y-100394444D01*
X116701307Y-100355400D01*
X116501173Y-100355400D01*
X116304884Y-100394444D01*
X116119984Y-100471032D01*
X115953578Y-100582221D01*
X115812061Y-100723738D01*
X115700872Y-100890144D01*
X115624284Y-101075044D01*
X115585240Y-101271333D01*
X113647700Y-101271333D01*
X113647700Y-97501973D01*
X121376440Y-97501973D01*
X121376440Y-97702107D01*
X121415484Y-97898396D01*
X121492072Y-98083296D01*
X121603261Y-98249702D01*
X121744778Y-98391219D01*
X121911184Y-98502408D01*
X122096084Y-98578996D01*
X122292373Y-98618040D01*
X122492507Y-98618040D01*
X122688796Y-98578996D01*
X122873696Y-98502408D01*
X123040102Y-98391219D01*
X123181619Y-98249702D01*
X123292808Y-98083296D01*
X123369396Y-97898396D01*
X123408440Y-97702107D01*
X123408440Y-97501973D01*
X123369396Y-97305684D01*
X123292808Y-97120784D01*
X123181619Y-96954378D01*
X123040102Y-96812861D01*
X122873696Y-96701672D01*
X122688796Y-96625084D01*
X122492507Y-96586040D01*
X122292373Y-96586040D01*
X122096084Y-96625084D01*
X121911184Y-96701672D01*
X121744778Y-96812861D01*
X121603261Y-96954378D01*
X121492072Y-97120784D01*
X121415484Y-97305684D01*
X121376440Y-97501973D01*
X113647700Y-97501973D01*
X113647700Y-79914021D01*
X114432779Y-79914021D01*
X114432779Y-80360979D01*
X114519976Y-80799349D01*
X114691020Y-81212285D01*
X114939336Y-81583917D01*
X115255383Y-81899964D01*
X115627015Y-82148280D01*
X116039951Y-82319324D01*
X116478321Y-82406521D01*
X116925279Y-82406521D01*
X117363649Y-82319324D01*
X117776585Y-82148280D01*
X118148217Y-81899964D01*
X118464264Y-81583917D01*
X118712580Y-81212285D01*
X118883624Y-80799349D01*
X118970821Y-80360979D01*
X118970821Y-79914021D01*
X118883624Y-79475651D01*
X118712580Y-79062715D01*
X118464264Y-78691083D01*
X118148217Y-78375036D01*
X117776585Y-78126720D01*
X117363649Y-77955676D01*
X116925279Y-77868479D01*
X116478321Y-77868479D01*
X116039951Y-77955676D01*
X115627015Y-78126720D01*
X115255383Y-78375036D01*
X114939336Y-78691083D01*
X114691020Y-79062715D01*
X114519976Y-79475651D01*
X114432779Y-79914021D01*
X113647700Y-79914021D01*
X113647700Y-76647700D01*
X201240000Y-76647700D01*
X201240001Y-109642300D01*
G37*
X201240001Y-109642300D02*
X194634521Y-109642300D01*
X194771018Y-109615149D01*
X195182311Y-109444786D01*
X195552466Y-109197456D01*
X195867256Y-108882666D01*
X196114586Y-108512511D01*
X196284949Y-108101218D01*
X196371800Y-107664591D01*
X196371800Y-107353433D01*
X196479020Y-107612285D01*
X196727336Y-107983917D01*
X197043383Y-108299964D01*
X197415015Y-108548280D01*
X197827951Y-108719324D01*
X198266321Y-108806521D01*
X198713279Y-108806521D01*
X199151649Y-108719324D01*
X199564585Y-108548280D01*
X199936217Y-108299964D01*
X200252264Y-107983917D01*
X200500580Y-107612285D01*
X200671624Y-107199349D01*
X200758821Y-106760979D01*
X200758821Y-106314021D01*
X200671624Y-105875651D01*
X200500580Y-105462715D01*
X200252264Y-105091083D01*
X199936217Y-104775036D01*
X199564585Y-104526720D01*
X199151649Y-104355676D01*
X198713279Y-104268479D01*
X198266321Y-104268479D01*
X197827951Y-104355676D01*
X197415015Y-104526720D01*
X197043383Y-104775036D01*
X196727336Y-105091083D01*
X196479020Y-105462715D01*
X196307976Y-105875651D01*
X196220779Y-106314021D01*
X196220779Y-106627862D01*
X196114586Y-106371489D01*
X195867256Y-106001334D01*
X195552466Y-105686544D01*
X195182311Y-105439214D01*
X194771018Y-105268851D01*
X194334391Y-105182000D01*
X193889209Y-105182000D01*
X193452582Y-105268851D01*
X193041289Y-105439214D01*
X192671134Y-105686544D01*
X192356344Y-106001334D01*
X192109014Y-106371489D01*
X191938651Y-106782782D01*
X191851800Y-107219409D01*
X191851800Y-107664591D01*
X191938651Y-108101218D01*
X192109014Y-108512511D01*
X192356344Y-108882666D01*
X192671134Y-109197456D01*
X193041289Y-109444786D01*
X193452582Y-109615149D01*
X193589079Y-109642300D01*
X184474521Y-109642300D01*
X184611018Y-109615149D01*
X185022311Y-109444786D01*
X185392466Y-109197456D01*
X185707256Y-108882666D01*
X185954586Y-108512511D01*
X186124949Y-108101218D01*
X186211800Y-107664591D01*
X186211800Y-107219409D01*
X186124949Y-106782782D01*
X185954586Y-106371489D01*
X185707256Y-106001334D01*
X185392466Y-105686544D01*
X185022311Y-105439214D01*
X184611018Y-105268851D01*
X184174391Y-105182000D01*
X183729209Y-105182000D01*
X183292582Y-105268851D01*
X182881289Y-105439214D01*
X182511134Y-105686544D01*
X182196344Y-106001334D01*
X181949014Y-106371489D01*
X181778651Y-106782782D01*
X181691800Y-107219409D01*
X181691800Y-107664591D01*
X181778651Y-108101218D01*
X181949014Y-108512511D01*
X182196344Y-108882666D01*
X182511134Y-109197456D01*
X182881289Y-109444786D01*
X183292582Y-109615149D01*
X183429079Y-109642300D01*
X148483646Y-109642300D01*
X149571368Y-108554579D01*
X149600433Y-108530726D01*
X149624286Y-108501661D01*
X149624290Y-108501657D01*
X149695656Y-108414698D01*
X149766412Y-108282321D01*
X149770264Y-108269623D01*
X149809985Y-108138682D01*
X149821011Y-108026730D01*
X149821011Y-108026728D01*
X149824697Y-107989305D01*
X149821011Y-107951881D01*
X149821010Y-105312248D01*
X152628598Y-105312248D01*
X152628598Y-106015752D01*
X152765845Y-106705739D01*
X153035065Y-107355693D01*
X153425911Y-107940636D01*
X153923364Y-108438089D01*
X154508307Y-108828935D01*
X155158261Y-109098155D01*
X155848248Y-109235402D01*
X156551752Y-109235402D01*
X157241739Y-109098155D01*
X157891693Y-108828935D01*
X158476636Y-108438089D01*
X158974089Y-107940636D01*
X159364935Y-107355693D01*
X159634155Y-106705739D01*
X159771402Y-106015752D01*
X159771402Y-105312248D01*
X159634155Y-104622261D01*
X159364935Y-103972307D01*
X158974089Y-103387364D01*
X158476636Y-102889911D01*
X157891693Y-102499065D01*
X157241739Y-102229845D01*
X156551752Y-102092598D01*
X155848248Y-102092598D01*
X155158261Y-102229845D01*
X154508307Y-102499065D01*
X153923364Y-102889911D01*
X153425911Y-103387364D01*
X153035065Y-103972307D01*
X152765845Y-104622261D01*
X152628598Y-105312248D01*
X149821010Y-105312248D01*
X149821009Y-105222361D01*
X149824696Y-105184928D01*
X149809983Y-105035550D01*
X149766411Y-104891912D01*
X149695654Y-104759536D01*
X149624289Y-104672577D01*
X149624284Y-104672572D01*
X149600431Y-104643507D01*
X149571366Y-104619654D01*
X149087364Y-104135653D01*
X149063503Y-104106578D01*
X148947473Y-104011355D01*
X148815096Y-103940598D01*
X148671459Y-103897026D01*
X148599472Y-103889936D01*
X148473475Y-103701368D01*
X148266632Y-103494525D01*
X148092240Y-103378000D01*
X148266632Y-103261475D01*
X148473475Y-103054632D01*
X148635990Y-102811411D01*
X148747932Y-102541158D01*
X148805000Y-102254260D01*
X148805000Y-102081700D01*
X164310428Y-102081700D01*
X164322688Y-102206182D01*
X164358998Y-102325880D01*
X164417963Y-102436194D01*
X164497315Y-102532885D01*
X164594006Y-102612237D01*
X164704320Y-102671202D01*
X164776880Y-102693213D01*
X164645025Y-102825068D01*
X164482510Y-103068289D01*
X164370568Y-103338542D01*
X164313500Y-103625440D01*
X164313500Y-103917960D01*
X164370568Y-104204858D01*
X164482510Y-104475111D01*
X164645025Y-104718332D01*
X164851868Y-104925175D01*
X165026260Y-105041700D01*
X164851868Y-105158225D01*
X164645025Y-105365068D01*
X164482510Y-105608289D01*
X164370568Y-105878542D01*
X164313500Y-106165440D01*
X164313500Y-106457960D01*
X164370568Y-106744858D01*
X164482510Y-107015111D01*
X164645025Y-107258332D01*
X164851868Y-107465175D01*
X165095089Y-107627690D01*
X165365342Y-107739632D01*
X165652240Y-107796700D01*
X165944760Y-107796700D01*
X166231658Y-107739632D01*
X166501911Y-107627690D01*
X166745132Y-107465175D01*
X166951975Y-107258332D01*
X167068500Y-107083940D01*
X167185025Y-107258332D01*
X167391868Y-107465175D01*
X167635089Y-107627690D01*
X167905342Y-107739632D01*
X168192240Y-107796700D01*
X168484760Y-107796700D01*
X168771658Y-107739632D01*
X169041911Y-107627690D01*
X169285132Y-107465175D01*
X169491975Y-107258332D01*
X169654490Y-107015111D01*
X169766432Y-106744858D01*
X169823500Y-106457960D01*
X169823500Y-106165440D01*
X169766432Y-105878542D01*
X169654490Y-105608289D01*
X169491975Y-105365068D01*
X169285132Y-105158225D01*
X169110740Y-105041700D01*
X169285132Y-104925175D01*
X169491975Y-104718332D01*
X169654490Y-104475111D01*
X169766432Y-104204858D01*
X169823500Y-103917960D01*
X169823500Y-103625440D01*
X169766432Y-103338542D01*
X169654490Y-103068289D01*
X169491975Y-102825068D01*
X169285132Y-102618225D01*
X169110740Y-102501700D01*
X169285132Y-102385175D01*
X169491975Y-102178332D01*
X169573623Y-102056137D01*
X185067269Y-102056137D01*
X185134006Y-102296025D01*
X185382692Y-102412924D01*
X185649406Y-102479061D01*
X185923897Y-102491895D01*
X186195617Y-102450931D01*
X186454126Y-102357744D01*
X186569594Y-102296025D01*
X186636331Y-102056137D01*
X185851800Y-101271605D01*
X185067269Y-102056137D01*
X169573623Y-102056137D01*
X169654490Y-101935111D01*
X169766432Y-101664858D01*
X169823500Y-101377960D01*
X169823500Y-101085440D01*
X169766502Y-100798893D01*
X171307760Y-100798893D01*
X171307760Y-100999027D01*
X171346804Y-101195316D01*
X171423392Y-101380216D01*
X171534581Y-101546622D01*
X171676098Y-101688139D01*
X171842504Y-101799328D01*
X172027404Y-101875916D01*
X172223693Y-101914960D01*
X172423827Y-101914960D01*
X172620116Y-101875916D01*
X172805016Y-101799328D01*
X172971422Y-101688139D01*
X173112939Y-101546622D01*
X173224128Y-101380216D01*
X173300716Y-101195316D01*
X173306925Y-101164097D01*
X184451905Y-101164097D01*
X184492869Y-101435817D01*
X184586056Y-101694326D01*
X184647775Y-101809794D01*
X184887663Y-101876531D01*
X185672195Y-101092000D01*
X184887663Y-100307469D01*
X184647775Y-100374206D01*
X184530876Y-100622892D01*
X184464739Y-100889606D01*
X184451905Y-101164097D01*
X173306925Y-101164097D01*
X173339760Y-100999027D01*
X173339760Y-100798893D01*
X173300716Y-100602604D01*
X173224128Y-100417704D01*
X173112939Y-100251298D01*
X172989504Y-100127863D01*
X185067269Y-100127863D01*
X185851800Y-100912395D01*
X186636331Y-100127863D01*
X186569594Y-99887975D01*
X186320908Y-99771076D01*
X186054194Y-99704939D01*
X185779703Y-99692105D01*
X185507983Y-99733069D01*
X185249474Y-99826256D01*
X185134006Y-99887975D01*
X185067269Y-100127863D01*
X172989504Y-100127863D01*
X172971422Y-100109781D01*
X172805016Y-99998592D01*
X172620116Y-99922004D01*
X172423827Y-99882960D01*
X172223693Y-99882960D01*
X172027404Y-99922004D01*
X171842504Y-99998592D01*
X171676098Y-100109781D01*
X171534581Y-100251298D01*
X171423392Y-100417704D01*
X171346804Y-100602604D01*
X171307760Y-100798893D01*
X169766502Y-100798893D01*
X169766432Y-100798542D01*
X169654490Y-100528289D01*
X169491975Y-100285068D01*
X169285132Y-100078225D01*
X169041911Y-99915710D01*
X168771658Y-99803768D01*
X168484760Y-99746700D01*
X168192240Y-99746700D01*
X167905342Y-99803768D01*
X167635089Y-99915710D01*
X167391868Y-100078225D01*
X167260013Y-100210080D01*
X167238002Y-100137520D01*
X167179037Y-100027206D01*
X167099685Y-99930515D01*
X167002994Y-99851163D01*
X166892680Y-99792198D01*
X166772982Y-99755888D01*
X166648500Y-99743628D01*
X166084250Y-99746700D01*
X165925500Y-99905450D01*
X165925500Y-101104700D01*
X165945500Y-101104700D01*
X165945500Y-101358700D01*
X165925500Y-101358700D01*
X165925500Y-101378700D01*
X165671500Y-101378700D01*
X165671500Y-101358700D01*
X164472250Y-101358700D01*
X164313500Y-101517450D01*
X164310428Y-102081700D01*
X148805000Y-102081700D01*
X148805000Y-101961740D01*
X148747932Y-101674842D01*
X148635990Y-101404589D01*
X148473475Y-101161368D01*
X148266632Y-100954525D01*
X148023411Y-100792010D01*
X147753158Y-100680068D01*
X147466260Y-100623000D01*
X147173740Y-100623000D01*
X146886842Y-100680068D01*
X146616589Y-100792010D01*
X146373368Y-100954525D01*
X146166525Y-101161368D01*
X146050000Y-101335760D01*
X145933475Y-101161368D01*
X145726632Y-100954525D01*
X145483411Y-100792010D01*
X145213158Y-100680068D01*
X144926260Y-100623000D01*
X144633740Y-100623000D01*
X144346842Y-100680068D01*
X144076589Y-100792010D01*
X143833368Y-100954525D01*
X143626525Y-101161368D01*
X143464010Y-101404589D01*
X143352068Y-101674842D01*
X143295000Y-101961740D01*
X143295000Y-102254260D01*
X143352068Y-102541158D01*
X143464010Y-102811411D01*
X143626525Y-103054632D01*
X143833368Y-103261475D01*
X144007760Y-103378000D01*
X143833368Y-103494525D01*
X143626525Y-103701368D01*
X143503158Y-103886000D01*
X142730891Y-103886000D01*
X140353450Y-101508560D01*
X141480310Y-100381700D01*
X164310428Y-100381700D01*
X164313500Y-100945950D01*
X164472250Y-101104700D01*
X165671500Y-101104700D01*
X165671500Y-99905450D01*
X165512750Y-99746700D01*
X164948500Y-99743628D01*
X164824018Y-99755888D01*
X164704320Y-99792198D01*
X164594006Y-99851163D01*
X164497315Y-99930515D01*
X164417963Y-100027206D01*
X164358998Y-100137520D01*
X164322688Y-100257218D01*
X164310428Y-100381700D01*
X141480310Y-100381700D01*
X143447406Y-98414604D01*
X185726800Y-98414604D01*
X185726800Y-98689396D01*
X185780409Y-98958907D01*
X185885567Y-99212780D01*
X186038233Y-99441261D01*
X186232539Y-99635567D01*
X186461020Y-99788233D01*
X186714893Y-99893391D01*
X186984404Y-99947000D01*
X187259196Y-99947000D01*
X187528707Y-99893391D01*
X187782580Y-99788233D01*
X188011061Y-99635567D01*
X188205367Y-99441261D01*
X188358033Y-99212780D01*
X188391800Y-99131260D01*
X188425567Y-99212780D01*
X188578233Y-99441261D01*
X188772539Y-99635567D01*
X189001020Y-99788233D01*
X189254893Y-99893391D01*
X189524404Y-99947000D01*
X189799196Y-99947000D01*
X190068707Y-99893391D01*
X190322580Y-99788233D01*
X190551061Y-99635567D01*
X190745367Y-99441261D01*
X190807326Y-99348533D01*
X190815988Y-99436482D01*
X190852298Y-99556180D01*
X190911263Y-99666494D01*
X190936299Y-99697000D01*
X190794404Y-99697000D01*
X190524893Y-99750609D01*
X190271020Y-99855767D01*
X190042539Y-100008433D01*
X189848233Y-100202739D01*
X189695567Y-100431220D01*
X189661800Y-100512740D01*
X189628033Y-100431220D01*
X189475367Y-100202739D01*
X189281061Y-100008433D01*
X189052580Y-99855767D01*
X188798707Y-99750609D01*
X188529196Y-99697000D01*
X188254404Y-99697000D01*
X187984893Y-99750609D01*
X187731020Y-99855767D01*
X187502539Y-100008433D01*
X187308233Y-100202739D01*
X187155567Y-100431220D01*
X187123970Y-100507501D01*
X187117544Y-100489674D01*
X187055825Y-100374206D01*
X186815937Y-100307469D01*
X186031405Y-101092000D01*
X186815937Y-101876531D01*
X187055825Y-101809794D01*
X187121400Y-101670293D01*
X187155567Y-101752780D01*
X187308233Y-101981261D01*
X187502539Y-102175567D01*
X187731020Y-102328233D01*
X187984893Y-102433391D01*
X188254404Y-102487000D01*
X188529196Y-102487000D01*
X188798707Y-102433391D01*
X189052580Y-102328233D01*
X189281061Y-102175567D01*
X189475367Y-101981261D01*
X189628033Y-101752780D01*
X189661800Y-101671260D01*
X189695567Y-101752780D01*
X189848233Y-101981261D01*
X190042539Y-102175567D01*
X190271020Y-102328233D01*
X190524893Y-102433391D01*
X190794404Y-102487000D01*
X191069196Y-102487000D01*
X191338707Y-102433391D01*
X191592580Y-102328233D01*
X191821061Y-102175567D01*
X192015367Y-101981261D01*
X192168033Y-101752780D01*
X192273191Y-101498907D01*
X192326800Y-101229396D01*
X192326800Y-100954604D01*
X192273191Y-100685093D01*
X192168033Y-100431220D01*
X192015367Y-100202739D01*
X191821061Y-100008433D01*
X191730915Y-99948199D01*
X191916050Y-99947000D01*
X192074800Y-99788250D01*
X192074800Y-98679000D01*
X192328800Y-98679000D01*
X192328800Y-99788250D01*
X192487550Y-99947000D01*
X192961800Y-99950072D01*
X193086282Y-99937812D01*
X193205980Y-99901502D01*
X193316294Y-99842537D01*
X193412985Y-99763185D01*
X193492337Y-99666494D01*
X193551302Y-99556180D01*
X193587612Y-99436482D01*
X193599872Y-99312000D01*
X193596800Y-98837750D01*
X193438050Y-98679000D01*
X192328800Y-98679000D01*
X192074800Y-98679000D01*
X192054800Y-98679000D01*
X192054800Y-98425000D01*
X192074800Y-98425000D01*
X192074800Y-97315750D01*
X192328800Y-97315750D01*
X192328800Y-98425000D01*
X193438050Y-98425000D01*
X193596800Y-98266250D01*
X193599872Y-97792000D01*
X193587612Y-97667518D01*
X193551302Y-97547820D01*
X193492337Y-97437506D01*
X193412985Y-97340815D01*
X193316294Y-97261463D01*
X193205980Y-97202498D01*
X193086282Y-97166188D01*
X192961800Y-97153928D01*
X192487550Y-97157000D01*
X192328800Y-97315750D01*
X192074800Y-97315750D01*
X191916050Y-97157000D01*
X191441800Y-97153928D01*
X191317318Y-97166188D01*
X191197620Y-97202498D01*
X191087306Y-97261463D01*
X190990615Y-97340815D01*
X190911263Y-97437506D01*
X190852298Y-97547820D01*
X190815988Y-97667518D01*
X190807326Y-97755467D01*
X190745367Y-97662739D01*
X190551061Y-97468433D01*
X190322580Y-97315767D01*
X190068707Y-97210609D01*
X189799196Y-97157000D01*
X189524404Y-97157000D01*
X189254893Y-97210609D01*
X189001020Y-97315767D01*
X188772539Y-97468433D01*
X188578233Y-97662739D01*
X188425567Y-97891220D01*
X188391800Y-97972740D01*
X188358033Y-97891220D01*
X188205367Y-97662739D01*
X188011061Y-97468433D01*
X187782580Y-97315767D01*
X187528707Y-97210609D01*
X187259196Y-97157000D01*
X186984404Y-97157000D01*
X186714893Y-97210609D01*
X186461020Y-97315767D01*
X186232539Y-97468433D01*
X186038233Y-97662739D01*
X185885567Y-97891220D01*
X185780409Y-98145093D01*
X185726800Y-98414604D01*
X143447406Y-98414604D01*
X147646797Y-94215213D01*
X150434040Y-94215213D01*
X150434040Y-94415347D01*
X150473084Y-94611636D01*
X150549672Y-94796536D01*
X150660861Y-94962942D01*
X150802378Y-95104459D01*
X150968784Y-95215648D01*
X151153684Y-95292236D01*
X151226636Y-95306747D01*
X151161424Y-95464184D01*
X151122380Y-95660473D01*
X151122380Y-95860607D01*
X151161424Y-96056896D01*
X151238012Y-96241796D01*
X151349201Y-96408202D01*
X151490718Y-96549719D01*
X151657124Y-96660908D01*
X151842024Y-96737496D01*
X152038313Y-96776540D01*
X152238447Y-96776540D01*
X152434736Y-96737496D01*
X152619636Y-96660908D01*
X152786042Y-96549719D01*
X152927559Y-96408202D01*
X153038748Y-96241796D01*
X153115336Y-96056896D01*
X153129013Y-95988133D01*
X165351460Y-95988133D01*
X165351460Y-96188267D01*
X165390504Y-96384556D01*
X165467092Y-96569456D01*
X165578281Y-96735862D01*
X165719798Y-96877379D01*
X165886204Y-96988568D01*
X166071104Y-97065156D01*
X166267393Y-97104200D01*
X166467527Y-97104200D01*
X166663816Y-97065156D01*
X166848716Y-96988568D01*
X167015122Y-96877379D01*
X167156639Y-96735862D01*
X167267828Y-96569456D01*
X167344416Y-96384556D01*
X167383460Y-96188267D01*
X167383460Y-95988133D01*
X167381440Y-95977973D01*
X180217460Y-95977973D01*
X180217460Y-96178107D01*
X180256504Y-96374396D01*
X180333092Y-96559296D01*
X180444281Y-96725702D01*
X180585798Y-96867219D01*
X180752204Y-96978408D01*
X180937104Y-97054996D01*
X181133393Y-97094040D01*
X181333527Y-97094040D01*
X181529816Y-97054996D01*
X181714716Y-96978408D01*
X181881122Y-96867219D01*
X182022639Y-96725702D01*
X182133828Y-96559296D01*
X182210416Y-96374396D01*
X182249460Y-96178107D01*
X182249460Y-95977973D01*
X182210416Y-95781684D01*
X182133828Y-95596784D01*
X182022639Y-95430378D01*
X182002544Y-95410283D01*
X187455810Y-95410283D01*
X187455810Y-95610417D01*
X187494854Y-95806706D01*
X187571442Y-95991606D01*
X187682631Y-96158012D01*
X187824148Y-96299529D01*
X187990554Y-96410718D01*
X188175454Y-96487306D01*
X188371743Y-96526350D01*
X188571877Y-96526350D01*
X188768166Y-96487306D01*
X188953066Y-96410718D01*
X189119472Y-96299529D01*
X189260989Y-96158012D01*
X189372178Y-95991606D01*
X189448766Y-95806706D01*
X189487810Y-95610417D01*
X189487810Y-95410283D01*
X189448766Y-95213994D01*
X189372178Y-95029094D01*
X189260989Y-94862688D01*
X189119472Y-94721171D01*
X188953066Y-94609982D01*
X188768166Y-94533394D01*
X188571877Y-94494350D01*
X188371743Y-94494350D01*
X188175454Y-94533394D01*
X187990554Y-94609982D01*
X187824148Y-94721171D01*
X187682631Y-94862688D01*
X187571442Y-95029094D01*
X187494854Y-95213994D01*
X187455810Y-95410283D01*
X182002544Y-95410283D01*
X181881122Y-95288861D01*
X181714716Y-95177672D01*
X181529816Y-95101084D01*
X181333527Y-95062040D01*
X181133393Y-95062040D01*
X180937104Y-95101084D01*
X180752204Y-95177672D01*
X180585798Y-95288861D01*
X180444281Y-95430378D01*
X180333092Y-95596784D01*
X180256504Y-95781684D01*
X180217460Y-95977973D01*
X167381440Y-95977973D01*
X167344416Y-95791844D01*
X167267828Y-95606944D01*
X167156639Y-95440538D01*
X167015122Y-95299021D01*
X166848716Y-95187832D01*
X166663816Y-95111244D01*
X166467527Y-95072200D01*
X166267393Y-95072200D01*
X166071104Y-95111244D01*
X165886204Y-95187832D01*
X165719798Y-95299021D01*
X165578281Y-95440538D01*
X165467092Y-95606944D01*
X165390504Y-95791844D01*
X165351460Y-95988133D01*
X153129013Y-95988133D01*
X153154380Y-95860607D01*
X153154380Y-95660473D01*
X153115336Y-95464184D01*
X153038748Y-95279284D01*
X152927559Y-95112878D01*
X152786042Y-94971361D01*
X152619636Y-94860172D01*
X152434736Y-94783584D01*
X152361784Y-94769073D01*
X152426996Y-94611636D01*
X152466040Y-94415347D01*
X152466040Y-94215213D01*
X152461056Y-94190157D01*
X152500776Y-94182256D01*
X152685676Y-94105668D01*
X152852082Y-93994479D01*
X152993599Y-93852962D01*
X153104788Y-93686556D01*
X153181376Y-93501656D01*
X153220420Y-93305367D01*
X153220420Y-93105233D01*
X153181376Y-92908944D01*
X153135378Y-92797893D01*
X168473120Y-92797893D01*
X168473120Y-92998027D01*
X168512164Y-93194316D01*
X168588752Y-93379216D01*
X168699941Y-93545622D01*
X168841458Y-93687139D01*
X169007864Y-93798328D01*
X169192764Y-93874916D01*
X169389053Y-93913960D01*
X169589187Y-93913960D01*
X169785476Y-93874916D01*
X169970376Y-93798328D01*
X170136782Y-93687139D01*
X170278299Y-93545622D01*
X170389488Y-93379216D01*
X170466076Y-93194316D01*
X170505120Y-92998027D01*
X170505120Y-92797893D01*
X170466076Y-92601604D01*
X170389488Y-92416704D01*
X170278299Y-92250298D01*
X170136782Y-92108781D01*
X169974479Y-92000333D01*
X171074080Y-92000333D01*
X171074080Y-92200467D01*
X171113124Y-92396756D01*
X171189712Y-92581656D01*
X171300901Y-92748062D01*
X171442418Y-92889579D01*
X171608824Y-93000768D01*
X171793724Y-93077356D01*
X171990013Y-93116400D01*
X172190147Y-93116400D01*
X172386436Y-93077356D01*
X172571336Y-93000768D01*
X172737742Y-92889579D01*
X172829428Y-92797893D01*
X194980560Y-92797893D01*
X194980560Y-92998027D01*
X195019604Y-93194316D01*
X195096192Y-93379216D01*
X195207381Y-93545622D01*
X195348898Y-93687139D01*
X195515304Y-93798328D01*
X195700204Y-93874916D01*
X195896493Y-93913960D01*
X196096627Y-93913960D01*
X196292916Y-93874916D01*
X196477816Y-93798328D01*
X196644222Y-93687139D01*
X196785739Y-93545622D01*
X196896928Y-93379216D01*
X196973516Y-93194316D01*
X196990410Y-93109386D01*
X197151436Y-93077356D01*
X197336336Y-93000768D01*
X197502742Y-92889579D01*
X197644259Y-92748062D01*
X197755448Y-92581656D01*
X197832036Y-92396756D01*
X197871080Y-92200467D01*
X197871080Y-92000333D01*
X197832036Y-91804044D01*
X197755448Y-91619144D01*
X197644259Y-91452738D01*
X197502742Y-91311221D01*
X197336336Y-91200032D01*
X197151436Y-91123444D01*
X196955147Y-91084400D01*
X196755013Y-91084400D01*
X196558724Y-91123444D01*
X196373824Y-91200032D01*
X196207418Y-91311221D01*
X196065901Y-91452738D01*
X195954712Y-91619144D01*
X195878124Y-91804044D01*
X195861230Y-91888974D01*
X195700204Y-91921004D01*
X195515304Y-91997592D01*
X195348898Y-92108781D01*
X195207381Y-92250298D01*
X195096192Y-92416704D01*
X195019604Y-92601604D01*
X194980560Y-92797893D01*
X172829428Y-92797893D01*
X172879259Y-92748062D01*
X172990448Y-92581656D01*
X173067036Y-92396756D01*
X173106080Y-92200467D01*
X173106080Y-92000333D01*
X173067036Y-91804044D01*
X172990448Y-91619144D01*
X172879259Y-91452738D01*
X172737742Y-91311221D01*
X172571336Y-91200032D01*
X172386436Y-91123444D01*
X172190147Y-91084400D01*
X171990013Y-91084400D01*
X171793724Y-91123444D01*
X171608824Y-91200032D01*
X171442418Y-91311221D01*
X171300901Y-91452738D01*
X171189712Y-91619144D01*
X171113124Y-91804044D01*
X171074080Y-92000333D01*
X169974479Y-92000333D01*
X169970376Y-91997592D01*
X169785476Y-91921004D01*
X169589187Y-91881960D01*
X169389053Y-91881960D01*
X169192764Y-91921004D01*
X169007864Y-91997592D01*
X168841458Y-92108781D01*
X168699941Y-92250298D01*
X168588752Y-92416704D01*
X168512164Y-92601604D01*
X168473120Y-92797893D01*
X153135378Y-92797893D01*
X153104788Y-92724044D01*
X152993599Y-92557638D01*
X152852082Y-92416121D01*
X152685676Y-92304932D01*
X152500776Y-92228344D01*
X152304487Y-92189300D01*
X152104353Y-92189300D01*
X151908064Y-92228344D01*
X151723164Y-92304932D01*
X151556758Y-92416121D01*
X151415241Y-92557638D01*
X151304052Y-92724044D01*
X151227464Y-92908944D01*
X151188420Y-93105233D01*
X151188420Y-93305367D01*
X151193404Y-93330423D01*
X151153684Y-93338324D01*
X150968784Y-93414912D01*
X150802378Y-93526101D01*
X150660861Y-93667618D01*
X150549672Y-93834024D01*
X150473084Y-94018924D01*
X150434040Y-94215213D01*
X147646797Y-94215213D01*
X152361020Y-89500990D01*
X153720596Y-89500990D01*
X153705000Y-89659336D01*
X153705000Y-90580665D01*
X153722870Y-90762102D01*
X153793489Y-90994901D01*
X153908168Y-91209449D01*
X154062499Y-91397502D01*
X154250552Y-91551833D01*
X154465100Y-91666511D01*
X154697899Y-91737130D01*
X154940000Y-91760975D01*
X155182102Y-91737130D01*
X155414901Y-91666511D01*
X155629449Y-91551833D01*
X155817502Y-91397502D01*
X155971833Y-91209449D01*
X156086511Y-90994901D01*
X156157130Y-90762101D01*
X156175000Y-90580664D01*
X156175000Y-89659335D01*
X156159404Y-89500990D01*
X156260596Y-89500990D01*
X156245000Y-89659336D01*
X156245000Y-90580665D01*
X156262870Y-90762102D01*
X156333489Y-90994901D01*
X156448168Y-91209449D01*
X156602499Y-91397502D01*
X156790552Y-91551833D01*
X157005100Y-91666511D01*
X157237899Y-91737130D01*
X157480000Y-91760975D01*
X157722102Y-91737130D01*
X157954901Y-91666511D01*
X158169449Y-91551833D01*
X158357502Y-91397502D01*
X158511833Y-91209449D01*
X158626511Y-90994901D01*
X158697130Y-90762101D01*
X158715000Y-90580664D01*
X158715000Y-89659336D01*
X158785000Y-89659336D01*
X158785000Y-90580665D01*
X158802870Y-90762102D01*
X158873489Y-90994901D01*
X158988168Y-91209449D01*
X159142499Y-91397502D01*
X159330552Y-91551833D01*
X159545100Y-91666511D01*
X159777899Y-91737130D01*
X160020000Y-91760975D01*
X160262102Y-91737130D01*
X160494901Y-91666511D01*
X160709449Y-91551833D01*
X160897502Y-91397502D01*
X161051833Y-91209449D01*
X161166511Y-90994901D01*
X161237130Y-90762101D01*
X161255000Y-90580664D01*
X161255000Y-89659336D01*
X161325000Y-89659336D01*
X161325000Y-90580665D01*
X161342870Y-90762102D01*
X161413489Y-90994901D01*
X161528168Y-91209449D01*
X161682499Y-91397502D01*
X161870552Y-91551833D01*
X162085100Y-91666511D01*
X162317899Y-91737130D01*
X162560000Y-91760975D01*
X162802102Y-91737130D01*
X163034901Y-91666511D01*
X163249449Y-91551833D01*
X163437502Y-91397502D01*
X163591833Y-91209449D01*
X163706511Y-90994901D01*
X163777130Y-90762101D01*
X163795000Y-90580664D01*
X163795000Y-89659336D01*
X163865000Y-89659336D01*
X163865000Y-90580665D01*
X163882870Y-90762102D01*
X163953489Y-90994901D01*
X164068168Y-91209449D01*
X164222499Y-91397502D01*
X164410552Y-91551833D01*
X164625100Y-91666511D01*
X164857899Y-91737130D01*
X165100000Y-91760975D01*
X165342102Y-91737130D01*
X165574901Y-91666511D01*
X165789449Y-91551833D01*
X165977502Y-91397502D01*
X166131833Y-91209449D01*
X166246511Y-90994901D01*
X166317130Y-90762101D01*
X166335000Y-90580664D01*
X166335000Y-89659336D01*
X166405000Y-89659336D01*
X166405000Y-90580665D01*
X166422870Y-90762102D01*
X166493489Y-90994901D01*
X166608168Y-91209449D01*
X166762499Y-91397502D01*
X166950552Y-91551833D01*
X167165100Y-91666511D01*
X167397899Y-91737130D01*
X167640000Y-91760975D01*
X167882102Y-91737130D01*
X168114901Y-91666511D01*
X168329449Y-91551833D01*
X168517502Y-91397502D01*
X168671833Y-91209449D01*
X168786511Y-90994901D01*
X168857130Y-90762101D01*
X168875000Y-90580664D01*
X168875000Y-89659336D01*
X181645000Y-89659336D01*
X181645000Y-90580665D01*
X181662870Y-90762102D01*
X181733489Y-90994901D01*
X181848168Y-91209449D01*
X182002499Y-91397502D01*
X182190552Y-91551833D01*
X182405100Y-91666511D01*
X182637899Y-91737130D01*
X182880000Y-91760975D01*
X183122102Y-91737130D01*
X183354901Y-91666511D01*
X183569449Y-91551833D01*
X183757502Y-91397502D01*
X183911833Y-91209449D01*
X184026511Y-90994901D01*
X184097130Y-90762101D01*
X184115000Y-90580664D01*
X184115000Y-89659336D01*
X184185000Y-89659336D01*
X184185000Y-90580665D01*
X184202870Y-90762102D01*
X184273489Y-90994901D01*
X184388168Y-91209449D01*
X184542499Y-91397502D01*
X184730552Y-91551833D01*
X184945100Y-91666511D01*
X185177899Y-91737130D01*
X185420000Y-91760975D01*
X185662102Y-91737130D01*
X185894901Y-91666511D01*
X186109449Y-91551833D01*
X186297502Y-91397502D01*
X186451833Y-91209449D01*
X186566511Y-90994901D01*
X186637130Y-90762101D01*
X186655000Y-90580664D01*
X186655000Y-89659336D01*
X186725000Y-89659336D01*
X186725000Y-90580665D01*
X186742870Y-90762102D01*
X186813489Y-90994901D01*
X186928168Y-91209449D01*
X187082499Y-91397502D01*
X187270552Y-91551833D01*
X187485100Y-91666511D01*
X187717899Y-91737130D01*
X187960000Y-91760975D01*
X188202102Y-91737130D01*
X188434901Y-91666511D01*
X188649449Y-91551833D01*
X188837502Y-91397502D01*
X188991833Y-91209449D01*
X189106511Y-90994901D01*
X189177130Y-90762101D01*
X189195000Y-90580664D01*
X189195000Y-89659336D01*
X189265000Y-89659336D01*
X189265000Y-90580665D01*
X189282870Y-90762102D01*
X189353489Y-90994901D01*
X189468168Y-91209449D01*
X189622499Y-91397502D01*
X189810552Y-91551833D01*
X190025100Y-91666511D01*
X190257899Y-91737130D01*
X190500000Y-91760975D01*
X190742102Y-91737130D01*
X190974901Y-91666511D01*
X191189449Y-91551833D01*
X191377502Y-91397502D01*
X191531833Y-91209449D01*
X191646511Y-90994901D01*
X191717130Y-90762101D01*
X191735000Y-90580664D01*
X191735000Y-89659336D01*
X191805000Y-89659336D01*
X191805000Y-90580665D01*
X191822870Y-90762102D01*
X191893489Y-90994901D01*
X192008168Y-91209449D01*
X192162499Y-91397502D01*
X192350552Y-91551833D01*
X192565100Y-91666511D01*
X192797899Y-91737130D01*
X193040000Y-91760975D01*
X193282102Y-91737130D01*
X193514901Y-91666511D01*
X193729449Y-91551833D01*
X193917502Y-91397502D01*
X194071833Y-91209449D01*
X194186511Y-90994901D01*
X194257130Y-90762101D01*
X194275000Y-90580664D01*
X194275000Y-89659335D01*
X194257130Y-89477898D01*
X194186511Y-89245099D01*
X194071833Y-89030551D01*
X193917502Y-88842498D01*
X193729448Y-88688167D01*
X193514900Y-88573489D01*
X193282101Y-88502870D01*
X193040000Y-88479025D01*
X192797898Y-88502870D01*
X192565099Y-88573489D01*
X192350551Y-88688167D01*
X192162498Y-88842498D01*
X192008167Y-89030552D01*
X191893489Y-89245100D01*
X191822870Y-89477899D01*
X191805000Y-89659336D01*
X191735000Y-89659336D01*
X191735000Y-89659335D01*
X191717130Y-89477898D01*
X191646511Y-89245099D01*
X191531833Y-89030551D01*
X191377502Y-88842498D01*
X191189448Y-88688167D01*
X190974900Y-88573489D01*
X190742101Y-88502870D01*
X190500000Y-88479025D01*
X190257898Y-88502870D01*
X190025099Y-88573489D01*
X189810551Y-88688167D01*
X189622498Y-88842498D01*
X189468167Y-89030552D01*
X189353489Y-89245100D01*
X189282870Y-89477899D01*
X189265000Y-89659336D01*
X189195000Y-89659336D01*
X189195000Y-89659335D01*
X189177130Y-89477898D01*
X189106511Y-89245099D01*
X188991833Y-89030551D01*
X188837502Y-88842498D01*
X188649448Y-88688167D01*
X188434900Y-88573489D01*
X188202101Y-88502870D01*
X187960000Y-88479025D01*
X187717898Y-88502870D01*
X187485099Y-88573489D01*
X187270551Y-88688167D01*
X187082498Y-88842498D01*
X186928167Y-89030552D01*
X186813489Y-89245100D01*
X186742870Y-89477899D01*
X186725000Y-89659336D01*
X186655000Y-89659336D01*
X186655000Y-89659335D01*
X186637130Y-89477898D01*
X186566511Y-89245099D01*
X186451833Y-89030551D01*
X186297502Y-88842498D01*
X186109448Y-88688167D01*
X185894900Y-88573489D01*
X185662101Y-88502870D01*
X185420000Y-88479025D01*
X185177898Y-88502870D01*
X184945099Y-88573489D01*
X184730551Y-88688167D01*
X184542498Y-88842498D01*
X184388167Y-89030552D01*
X184273489Y-89245100D01*
X184202870Y-89477899D01*
X184185000Y-89659336D01*
X184115000Y-89659336D01*
X184115000Y-89659335D01*
X184097130Y-89477898D01*
X184026511Y-89245099D01*
X183911833Y-89030551D01*
X183757502Y-88842498D01*
X183569448Y-88688167D01*
X183354900Y-88573489D01*
X183122101Y-88502870D01*
X182880000Y-88479025D01*
X182637898Y-88502870D01*
X182405099Y-88573489D01*
X182190551Y-88688167D01*
X182002498Y-88842498D01*
X181848167Y-89030552D01*
X181733489Y-89245100D01*
X181662870Y-89477899D01*
X181645000Y-89659336D01*
X168875000Y-89659336D01*
X168875000Y-89659335D01*
X168857130Y-89477898D01*
X168786511Y-89245099D01*
X168671833Y-89030551D01*
X168517502Y-88842498D01*
X168329448Y-88688167D01*
X168114900Y-88573489D01*
X167882101Y-88502870D01*
X167640000Y-88479025D01*
X167397898Y-88502870D01*
X167165099Y-88573489D01*
X166950551Y-88688167D01*
X166762498Y-88842498D01*
X166608167Y-89030552D01*
X166493489Y-89245100D01*
X166422870Y-89477899D01*
X166405000Y-89659336D01*
X166335000Y-89659336D01*
X166335000Y-89659335D01*
X166317130Y-89477898D01*
X166246511Y-89245099D01*
X166131833Y-89030551D01*
X165977502Y-88842498D01*
X165789448Y-88688167D01*
X165574900Y-88573489D01*
X165342101Y-88502870D01*
X165100000Y-88479025D01*
X164857898Y-88502870D01*
X164625099Y-88573489D01*
X164410551Y-88688167D01*
X164222498Y-88842498D01*
X164068167Y-89030552D01*
X163953489Y-89245100D01*
X163882870Y-89477899D01*
X163865000Y-89659336D01*
X163795000Y-89659336D01*
X163795000Y-89659335D01*
X163777130Y-89477898D01*
X163706511Y-89245099D01*
X163591833Y-89030551D01*
X163437502Y-88842498D01*
X163249448Y-88688167D01*
X163034900Y-88573489D01*
X162802101Y-88502870D01*
X162560000Y-88479025D01*
X162317898Y-88502870D01*
X162085099Y-88573489D01*
X161870551Y-88688167D01*
X161682498Y-88842498D01*
X161528167Y-89030552D01*
X161413489Y-89245100D01*
X161342870Y-89477899D01*
X161325000Y-89659336D01*
X161255000Y-89659336D01*
X161255000Y-89659335D01*
X161237130Y-89477898D01*
X161166511Y-89245099D01*
X161051833Y-89030551D01*
X160897502Y-88842498D01*
X160709448Y-88688167D01*
X160494900Y-88573489D01*
X160262101Y-88502870D01*
X160020000Y-88479025D01*
X159777898Y-88502870D01*
X159545099Y-88573489D01*
X159330551Y-88688167D01*
X159142498Y-88842498D01*
X158988167Y-89030552D01*
X158873489Y-89245100D01*
X158802870Y-89477899D01*
X158785000Y-89659336D01*
X158715000Y-89659336D01*
X158715000Y-89659335D01*
X158697130Y-89477898D01*
X158626511Y-89245099D01*
X158511833Y-89030551D01*
X158488955Y-89002675D01*
X163072352Y-84419279D01*
X163101422Y-84395422D01*
X163196645Y-84279392D01*
X163245762Y-84187500D01*
X163270079Y-84217130D01*
X163334299Y-84295382D01*
X163340770Y-84300693D01*
X163340770Y-84404196D01*
X163332014Y-84493100D01*
X163346726Y-84642478D01*
X163390298Y-84786115D01*
X163461055Y-84918492D01*
X163556278Y-85034522D01*
X163672308Y-85129745D01*
X163804685Y-85200502D01*
X163948322Y-85244074D01*
X164060274Y-85255100D01*
X164060277Y-85255100D01*
X164097700Y-85258786D01*
X164135123Y-85255100D01*
X192870497Y-85255100D01*
X192907920Y-85258786D01*
X192945343Y-85255100D01*
X192945346Y-85255100D01*
X193057298Y-85244074D01*
X193200935Y-85200502D01*
X193333312Y-85129745D01*
X193449342Y-85034522D01*
X193451627Y-85031737D01*
X193454412Y-85029452D01*
X193549635Y-84913422D01*
X193620392Y-84781045D01*
X193663964Y-84637408D01*
X193674990Y-84525456D01*
X193674990Y-84525454D01*
X193678676Y-84488031D01*
X193674990Y-84450608D01*
X193674990Y-84281409D01*
X193676645Y-84279392D01*
X193747402Y-84147015D01*
X193790974Y-84003378D01*
X193793335Y-83979403D01*
X193917502Y-83877502D01*
X194071833Y-83689449D01*
X194186511Y-83474901D01*
X194257130Y-83242101D01*
X194275000Y-83060664D01*
X194275000Y-82139335D01*
X194257130Y-81957898D01*
X194186511Y-81725099D01*
X194071833Y-81510551D01*
X193917502Y-81322498D01*
X193729448Y-81168167D01*
X193514900Y-81053489D01*
X193282101Y-80982870D01*
X193040000Y-80959025D01*
X192797898Y-80982870D01*
X192565099Y-81053489D01*
X192350551Y-81168167D01*
X192162498Y-81322498D01*
X192008167Y-81510552D01*
X191893489Y-81725100D01*
X191822870Y-81957899D01*
X191805000Y-82139336D01*
X191805000Y-83060665D01*
X191822870Y-83242102D01*
X191893489Y-83474901D01*
X192008168Y-83689449D01*
X192042350Y-83731100D01*
X191497651Y-83731100D01*
X191531833Y-83689449D01*
X191646511Y-83474901D01*
X191717130Y-83242101D01*
X191735000Y-83060664D01*
X191735000Y-82139335D01*
X191717130Y-81957898D01*
X191646511Y-81725099D01*
X191531833Y-81510551D01*
X191377502Y-81322498D01*
X191189448Y-81168167D01*
X190974900Y-81053489D01*
X190742101Y-80982870D01*
X190500000Y-80959025D01*
X190257898Y-80982870D01*
X190025099Y-81053489D01*
X189810551Y-81168167D01*
X189622498Y-81322498D01*
X189468167Y-81510552D01*
X189353489Y-81725100D01*
X189282870Y-81957899D01*
X189265000Y-82139336D01*
X189265000Y-83060665D01*
X189282870Y-83242102D01*
X189353489Y-83474901D01*
X189468168Y-83689449D01*
X189502350Y-83731100D01*
X188957651Y-83731100D01*
X188991833Y-83689449D01*
X189106511Y-83474901D01*
X189177130Y-83242101D01*
X189195000Y-83060664D01*
X189195000Y-82139335D01*
X189177130Y-81957898D01*
X189106511Y-81725099D01*
X188991833Y-81510551D01*
X188837502Y-81322498D01*
X188649448Y-81168167D01*
X188434900Y-81053489D01*
X188202101Y-80982870D01*
X187960000Y-80959025D01*
X187717898Y-80982870D01*
X187485099Y-81053489D01*
X187270551Y-81168167D01*
X187082498Y-81322498D01*
X186928167Y-81510552D01*
X186813489Y-81725100D01*
X186742870Y-81957899D01*
X186725000Y-82139336D01*
X186725000Y-83060665D01*
X186742870Y-83242102D01*
X186813489Y-83474901D01*
X186928168Y-83689449D01*
X186962350Y-83731100D01*
X186417651Y-83731100D01*
X186451833Y-83689449D01*
X186566511Y-83474901D01*
X186637130Y-83242101D01*
X186655000Y-83060664D01*
X186655000Y-82139335D01*
X186637130Y-81957898D01*
X186566511Y-81725099D01*
X186451833Y-81510551D01*
X186297502Y-81322498D01*
X186173335Y-81220598D01*
X186170974Y-81196622D01*
X186127402Y-81052985D01*
X186081178Y-80966506D01*
X186056645Y-80920607D01*
X186010295Y-80864130D01*
X185961422Y-80804578D01*
X185932346Y-80780716D01*
X185065651Y-79914021D01*
X196220779Y-79914021D01*
X196220779Y-80360979D01*
X196307976Y-80799349D01*
X196479020Y-81212285D01*
X196727336Y-81583917D01*
X197043383Y-81899964D01*
X197415015Y-82148280D01*
X197827951Y-82319324D01*
X198266321Y-82406521D01*
X198713279Y-82406521D01*
X199151649Y-82319324D01*
X199564585Y-82148280D01*
X199936217Y-81899964D01*
X200252264Y-81583917D01*
X200500580Y-81212285D01*
X200671624Y-80799349D01*
X200758821Y-80360979D01*
X200758821Y-79914021D01*
X200671624Y-79475651D01*
X200500580Y-79062715D01*
X200252264Y-78691083D01*
X199936217Y-78375036D01*
X199564585Y-78126720D01*
X199151649Y-77955676D01*
X198713279Y-77868479D01*
X198266321Y-77868479D01*
X197827951Y-77955676D01*
X197415015Y-78126720D01*
X197043383Y-78375036D01*
X196727336Y-78691083D01*
X196479020Y-79062715D01*
X196307976Y-79475651D01*
X196220779Y-79914021D01*
X185065651Y-79914021D01*
X183958386Y-78806756D01*
X183934524Y-78777680D01*
X183818494Y-78682457D01*
X183686117Y-78611700D01*
X183542480Y-78568128D01*
X183430528Y-78557102D01*
X183430525Y-78557102D01*
X183393102Y-78553416D01*
X183355679Y-78557102D01*
X131070961Y-78557102D01*
X131033538Y-78553416D01*
X130996115Y-78557102D01*
X130996112Y-78557102D01*
X130884160Y-78568128D01*
X130740523Y-78611700D01*
X130678902Y-78644637D01*
X130608145Y-78682457D01*
X130565757Y-78717245D01*
X130492116Y-78777680D01*
X130468254Y-78806756D01*
X129129254Y-80145756D01*
X129129248Y-80145761D01*
X129109333Y-80165676D01*
X129088982Y-80185058D01*
X129082911Y-80192098D01*
X127911314Y-81363698D01*
X127877502Y-81322498D01*
X127689448Y-81168167D01*
X127474900Y-81053489D01*
X127242101Y-80982870D01*
X127000000Y-80959025D01*
X126757898Y-80982870D01*
X126525099Y-81053489D01*
X126310551Y-81168167D01*
X126122498Y-81322498D01*
X125968167Y-81510552D01*
X125853489Y-81725100D01*
X125782870Y-81957899D01*
X125765000Y-82139336D01*
X125765000Y-83060665D01*
X125782870Y-83242102D01*
X125853489Y-83474901D01*
X125968168Y-83689449D01*
X126122499Y-83877502D01*
X126310552Y-84031833D01*
X126525100Y-84146511D01*
X126757899Y-84217130D01*
X127000000Y-84240975D01*
X127242102Y-84217130D01*
X127474901Y-84146511D01*
X127655320Y-84050075D01*
X127655321Y-88669926D01*
X127474900Y-88573489D01*
X127242101Y-88502870D01*
X127000000Y-88479025D01*
X126757898Y-88502870D01*
X126525099Y-88573489D01*
X126310551Y-88688167D01*
X126203010Y-88776424D01*
X126203010Y-84872433D01*
X126206696Y-84835010D01*
X126196791Y-84734442D01*
X126191984Y-84685632D01*
X126148412Y-84541995D01*
X126077656Y-84409619D01*
X126077655Y-84409617D01*
X126042147Y-84366351D01*
X125982432Y-84293588D01*
X125953357Y-84269727D01*
X125438304Y-83754674D01*
X125491833Y-83689449D01*
X125606511Y-83474901D01*
X125677130Y-83242101D01*
X125695000Y-83060664D01*
X125695000Y-82139335D01*
X125677130Y-81957898D01*
X125606511Y-81725099D01*
X125491833Y-81510551D01*
X125337502Y-81322498D01*
X125149448Y-81168167D01*
X124934900Y-81053489D01*
X124702101Y-80982870D01*
X124460000Y-80959025D01*
X124217898Y-80982870D01*
X123985099Y-81053489D01*
X123770551Y-81168167D01*
X123582498Y-81322498D01*
X123428167Y-81510552D01*
X123313489Y-81725100D01*
X123242870Y-81957899D01*
X123225000Y-82139336D01*
X123225000Y-83060665D01*
X123242870Y-83242102D01*
X123313489Y-83474901D01*
X123428168Y-83689449D01*
X123582499Y-83877502D01*
X123706666Y-83979403D01*
X123709027Y-84003378D01*
X123752599Y-84147015D01*
X123823355Y-84279392D01*
X123858854Y-84322647D01*
X123918579Y-84395422D01*
X123947649Y-84419279D01*
X124679010Y-85150640D01*
X124679011Y-88500596D01*
X124460000Y-88479025D01*
X124217898Y-88502870D01*
X123985099Y-88573489D01*
X123770551Y-88688167D01*
X123582498Y-88842498D01*
X123428167Y-89030552D01*
X123313489Y-89245100D01*
X123242870Y-89477899D01*
X123225000Y-89659336D01*
X123225000Y-90580665D01*
X123242870Y-90762102D01*
X123313489Y-90994901D01*
X123428168Y-91209449D01*
X123582499Y-91397502D01*
X123770552Y-91551833D01*
X123985100Y-91666511D01*
X124217899Y-91737130D01*
X124460000Y-91760975D01*
X124689860Y-91738336D01*
X124689860Y-91847407D01*
X124728904Y-92043696D01*
X124805492Y-92228596D01*
X124916681Y-92395002D01*
X125058198Y-92536519D01*
X125224604Y-92647708D01*
X125409504Y-92724296D01*
X125605793Y-92763340D01*
X125705862Y-92763340D01*
X125705862Y-92868148D01*
X125702175Y-92905581D01*
X125716888Y-93054959D01*
X125760460Y-93198596D01*
X125831216Y-93330973D01*
X125897863Y-93412182D01*
X125926440Y-93447003D01*
X125955510Y-93470860D01*
X128575607Y-96090958D01*
X128573364Y-96091404D01*
X128388464Y-96167992D01*
X128222058Y-96279181D01*
X128080541Y-96420698D01*
X127969352Y-96587104D01*
X127892764Y-96772004D01*
X127853720Y-96968293D01*
X127853720Y-97168427D01*
X127892764Y-97364716D01*
X127969352Y-97549616D01*
X128080541Y-97716022D01*
X128142457Y-97777938D01*
X127969084Y-97849752D01*
X127802678Y-97960941D01*
X127696136Y-98067483D01*
X127568136Y-98014464D01*
X127371847Y-97975420D01*
X127171713Y-97975420D01*
X126975424Y-98014464D01*
X126790524Y-98091052D01*
X126624118Y-98202241D01*
X126482601Y-98343758D01*
X126371412Y-98510164D01*
X126294824Y-98695064D01*
X126255780Y-98891353D01*
X126255780Y-99091487D01*
X126294824Y-99287776D01*
X126371412Y-99472676D01*
X126482601Y-99639082D01*
X126624118Y-99780599D01*
X126790524Y-99891788D01*
X126975424Y-99968376D01*
X127064651Y-99986124D01*
X126901764Y-100018524D01*
X126716864Y-100095112D01*
X126550458Y-100206301D01*
X126408941Y-100347818D01*
X126297752Y-100514224D01*
X126221164Y-100699124D01*
X126182120Y-100895413D01*
X126182120Y-101095547D01*
X126221164Y-101291836D01*
X126297752Y-101476736D01*
X126408941Y-101643142D01*
X126550458Y-101784659D01*
X126716864Y-101895848D01*
X126901764Y-101972436D01*
X127098053Y-102011480D01*
X127298187Y-102011480D01*
X127382250Y-101994759D01*
X127382252Y-106102036D01*
X127378565Y-106139469D01*
X127393278Y-106288847D01*
X127436850Y-106432484D01*
X127507606Y-106564861D01*
X127573680Y-106645372D01*
X127602830Y-106680891D01*
X127631900Y-106704748D01*
X130569451Y-109642300D01*
X113647700Y-109642300D01*
X113647700Y-106314021D01*
X114432779Y-106314021D01*
X114432779Y-106760979D01*
X114519976Y-107199349D01*
X114691020Y-107612285D01*
X114939336Y-107983917D01*
X115255383Y-108299964D01*
X115627015Y-108548280D01*
X116039951Y-108719324D01*
X116478321Y-108806521D01*
X116925279Y-108806521D01*
X117363649Y-108719324D01*
X117776585Y-108548280D01*
X118148217Y-108299964D01*
X118464264Y-107983917D01*
X118712580Y-107612285D01*
X118883624Y-107199349D01*
X118970821Y-106760979D01*
X118970821Y-106314021D01*
X118883624Y-105875651D01*
X118712580Y-105462715D01*
X118464264Y-105091083D01*
X118148217Y-104775036D01*
X117776585Y-104526720D01*
X117363649Y-104355676D01*
X116925279Y-104268479D01*
X116478321Y-104268479D01*
X116039951Y-104355676D01*
X115627015Y-104526720D01*
X115255383Y-104775036D01*
X114939336Y-105091083D01*
X114691020Y-105462715D01*
X114519976Y-105875651D01*
X114432779Y-106314021D01*
X113647700Y-106314021D01*
X113647700Y-101271333D01*
X115585240Y-101271333D01*
X115585240Y-101471467D01*
X115624284Y-101667756D01*
X115700872Y-101852656D01*
X115812061Y-102019062D01*
X115953578Y-102160579D01*
X116119984Y-102271768D01*
X116304884Y-102348356D01*
X116408200Y-102368907D01*
X116408200Y-102423967D01*
X116447244Y-102620256D01*
X116523832Y-102805156D01*
X116635021Y-102971562D01*
X116776538Y-103113079D01*
X116942944Y-103224268D01*
X117127844Y-103300856D01*
X117324133Y-103339900D01*
X117464430Y-103339900D01*
X117464430Y-103420057D01*
X117503474Y-103616346D01*
X117580062Y-103801246D01*
X117691251Y-103967652D01*
X117832768Y-104109169D01*
X117999174Y-104220358D01*
X118184074Y-104296946D01*
X118380363Y-104335990D01*
X118580497Y-104335990D01*
X118776786Y-104296946D01*
X118961686Y-104220358D01*
X119128092Y-104109169D01*
X119269609Y-103967652D01*
X119380798Y-103801246D01*
X119457386Y-103616346D01*
X119496430Y-103420057D01*
X119496430Y-103219923D01*
X119457386Y-103023634D01*
X119380798Y-102838734D01*
X119269609Y-102672328D01*
X119128092Y-102530811D01*
X118961686Y-102419622D01*
X118776786Y-102343034D01*
X118580497Y-102303990D01*
X118440200Y-102303990D01*
X118440200Y-102223833D01*
X118401156Y-102027544D01*
X118324568Y-101842644D01*
X118213379Y-101676238D01*
X118071862Y-101534721D01*
X117905456Y-101423532D01*
X117720556Y-101346944D01*
X117617240Y-101326393D01*
X117617240Y-101271333D01*
X117578196Y-101075044D01*
X117501608Y-100890144D01*
X117390419Y-100723738D01*
X117248902Y-100582221D01*
X117082496Y-100471032D01*
X116897596Y-100394444D01*
X116701307Y-100355400D01*
X116501173Y-100355400D01*
X116304884Y-100394444D01*
X116119984Y-100471032D01*
X115953578Y-100582221D01*
X115812061Y-100723738D01*
X115700872Y-100890144D01*
X115624284Y-101075044D01*
X115585240Y-101271333D01*
X113647700Y-101271333D01*
X113647700Y-97501973D01*
X121376440Y-97501973D01*
X121376440Y-97702107D01*
X121415484Y-97898396D01*
X121492072Y-98083296D01*
X121603261Y-98249702D01*
X121744778Y-98391219D01*
X121911184Y-98502408D01*
X122096084Y-98578996D01*
X122292373Y-98618040D01*
X122492507Y-98618040D01*
X122688796Y-98578996D01*
X122873696Y-98502408D01*
X123040102Y-98391219D01*
X123181619Y-98249702D01*
X123292808Y-98083296D01*
X123369396Y-97898396D01*
X123408440Y-97702107D01*
X123408440Y-97501973D01*
X123369396Y-97305684D01*
X123292808Y-97120784D01*
X123181619Y-96954378D01*
X123040102Y-96812861D01*
X122873696Y-96701672D01*
X122688796Y-96625084D01*
X122492507Y-96586040D01*
X122292373Y-96586040D01*
X122096084Y-96625084D01*
X121911184Y-96701672D01*
X121744778Y-96812861D01*
X121603261Y-96954378D01*
X121492072Y-97120784D01*
X121415484Y-97305684D01*
X121376440Y-97501973D01*
X113647700Y-97501973D01*
X113647700Y-79914021D01*
X114432779Y-79914021D01*
X114432779Y-80360979D01*
X114519976Y-80799349D01*
X114691020Y-81212285D01*
X114939336Y-81583917D01*
X115255383Y-81899964D01*
X115627015Y-82148280D01*
X116039951Y-82319324D01*
X116478321Y-82406521D01*
X116925279Y-82406521D01*
X117363649Y-82319324D01*
X117776585Y-82148280D01*
X118148217Y-81899964D01*
X118464264Y-81583917D01*
X118712580Y-81212285D01*
X118883624Y-80799349D01*
X118970821Y-80360979D01*
X118970821Y-79914021D01*
X118883624Y-79475651D01*
X118712580Y-79062715D01*
X118464264Y-78691083D01*
X118148217Y-78375036D01*
X117776585Y-78126720D01*
X117363649Y-77955676D01*
X116925279Y-77868479D01*
X116478321Y-77868479D01*
X116039951Y-77955676D01*
X115627015Y-78126720D01*
X115255383Y-78375036D01*
X114939336Y-78691083D01*
X114691020Y-79062715D01*
X114519976Y-79475651D01*
X114432779Y-79914021D01*
X113647700Y-79914021D01*
X113647700Y-76647700D01*
X201240000Y-76647700D01*
X201240001Y-109642300D01*
G36*
X141849980Y-105160351D02*
G01*
X141873838Y-105189422D01*
X141989868Y-105284645D01*
X142122245Y-105355402D01*
X142265882Y-105398974D01*
X142377834Y-105410000D01*
X142377836Y-105410000D01*
X142415259Y-105413686D01*
X142452682Y-105410000D01*
X143503158Y-105410000D01*
X143626525Y-105594632D01*
X143758380Y-105726487D01*
X143685820Y-105748498D01*
X143575506Y-105807463D01*
X143478815Y-105886815D01*
X143399463Y-105983506D01*
X143340498Y-106093820D01*
X143304188Y-106213518D01*
X143291928Y-106338000D01*
X143295000Y-106902250D01*
X143453750Y-107061000D01*
X144653000Y-107061000D01*
X144653000Y-107041000D01*
X144907000Y-107041000D01*
X144907000Y-107061000D01*
X144927000Y-107061000D01*
X144927000Y-107315000D01*
X144907000Y-107315000D01*
X144907000Y-107335000D01*
X144653000Y-107335000D01*
X144653000Y-107315000D01*
X143453750Y-107315000D01*
X143295000Y-107473750D01*
X143294002Y-107657001D01*
X142457316Y-107657001D01*
X142493056Y-107570716D01*
X142532100Y-107374427D01*
X142532100Y-107174293D01*
X142493056Y-106978004D01*
X142416468Y-106793104D01*
X142305279Y-106626698D01*
X142163762Y-106485181D01*
X141997356Y-106373992D01*
X141812456Y-106297404D01*
X141616167Y-106258360D01*
X141416033Y-106258360D01*
X141219744Y-106297404D01*
X141034844Y-106373992D01*
X140868438Y-106485181D01*
X140726921Y-106626698D01*
X140615732Y-106793104D01*
X140539144Y-106978004D01*
X140530387Y-107022031D01*
X137230121Y-107022031D01*
X137639327Y-106612825D01*
X137668402Y-106588964D01*
X137734294Y-106508674D01*
X137763625Y-106472935D01*
X137812021Y-106382391D01*
X137834382Y-106340557D01*
X137877954Y-106196920D01*
X137888980Y-106084968D01*
X137888980Y-106084965D01*
X137892666Y-106047542D01*
X137888980Y-106010119D01*
X137888980Y-104691464D01*
X139635037Y-102945407D01*
X141849980Y-105160351D01*
G37*
X141849980Y-105160351D02*
X141873838Y-105189422D01*
X141989868Y-105284645D01*
X142122245Y-105355402D01*
X142265882Y-105398974D01*
X142377834Y-105410000D01*
X142377836Y-105410000D01*
X142415259Y-105413686D01*
X142452682Y-105410000D01*
X143503158Y-105410000D01*
X143626525Y-105594632D01*
X143758380Y-105726487D01*
X143685820Y-105748498D01*
X143575506Y-105807463D01*
X143478815Y-105886815D01*
X143399463Y-105983506D01*
X143340498Y-106093820D01*
X143304188Y-106213518D01*
X143291928Y-106338000D01*
X143295000Y-106902250D01*
X143453750Y-107061000D01*
X144653000Y-107061000D01*
X144653000Y-107041000D01*
X144907000Y-107041000D01*
X144907000Y-107061000D01*
X144927000Y-107061000D01*
X144927000Y-107315000D01*
X144907000Y-107315000D01*
X144907000Y-107335000D01*
X144653000Y-107335000D01*
X144653000Y-107315000D01*
X143453750Y-107315000D01*
X143295000Y-107473750D01*
X143294002Y-107657001D01*
X142457316Y-107657001D01*
X142493056Y-107570716D01*
X142532100Y-107374427D01*
X142532100Y-107174293D01*
X142493056Y-106978004D01*
X142416468Y-106793104D01*
X142305279Y-106626698D01*
X142163762Y-106485181D01*
X141997356Y-106373992D01*
X141812456Y-106297404D01*
X141616167Y-106258360D01*
X141416033Y-106258360D01*
X141219744Y-106297404D01*
X141034844Y-106373992D01*
X140868438Y-106485181D01*
X140726921Y-106626698D01*
X140615732Y-106793104D01*
X140539144Y-106978004D01*
X140530387Y-107022031D01*
X137230121Y-107022031D01*
X137639327Y-106612825D01*
X137668402Y-106588964D01*
X137734294Y-106508674D01*
X137763625Y-106472935D01*
X137812021Y-106382391D01*
X137834382Y-106340557D01*
X137877954Y-106196920D01*
X137888980Y-106084968D01*
X137888980Y-106084965D01*
X137892666Y-106047542D01*
X137888980Y-106010119D01*
X137888980Y-104691464D01*
X139635037Y-102945407D01*
X141849980Y-105160351D01*
G36*
X156245000Y-82139336D02*
G01*
X156245000Y-83060665D01*
X156262870Y-83242102D01*
X156333489Y-83474901D01*
X156448168Y-83689449D01*
X156602499Y-83877502D01*
X156790552Y-84031833D01*
X157005100Y-84146511D01*
X157237899Y-84217130D01*
X157480000Y-84240975D01*
X157722102Y-84217130D01*
X157954901Y-84146511D01*
X158169449Y-84031833D01*
X158357502Y-83877502D01*
X158511833Y-83689449D01*
X158626511Y-83474901D01*
X158697130Y-83242101D01*
X158715000Y-83060664D01*
X158715000Y-82139335D01*
X158699404Y-81980990D01*
X158800596Y-81980990D01*
X158785000Y-82139336D01*
X158785000Y-83060665D01*
X158802870Y-83242102D01*
X158873489Y-83474901D01*
X158988168Y-83689449D01*
X159142499Y-83877502D01*
X159330552Y-84031833D01*
X159545100Y-84146511D01*
X159777899Y-84217130D01*
X160020000Y-84240975D01*
X160262102Y-84217130D01*
X160494901Y-84146511D01*
X160709449Y-84031833D01*
X160897502Y-83877502D01*
X161051833Y-83689449D01*
X161166511Y-83474901D01*
X161237130Y-83242101D01*
X161255000Y-83060664D01*
X161255000Y-82139335D01*
X161239404Y-81980990D01*
X161340596Y-81980990D01*
X161325000Y-82139336D01*
X161325000Y-83060665D01*
X161342870Y-83242102D01*
X161413489Y-83474901D01*
X161528168Y-83689449D01*
X161581696Y-83754673D01*
X157359380Y-87976990D01*
X152082813Y-87976990D01*
X152045390Y-87973304D01*
X152007967Y-87976990D01*
X152007964Y-87976990D01*
X151896012Y-87988016D01*
X151752375Y-88031588D01*
X151690754Y-88064525D01*
X151619997Y-88102345D01*
X151591195Y-88125983D01*
X151503968Y-88197568D01*
X151480106Y-88226644D01*
X136204290Y-103502460D01*
X136165853Y-103502460D01*
X135969564Y-103541504D01*
X135784664Y-103618092D01*
X135618258Y-103729281D01*
X135476741Y-103870798D01*
X135453320Y-103905850D01*
X134475220Y-102927750D01*
X134475220Y-101960389D01*
X134478906Y-101922966D01*
X134477989Y-101913654D01*
X135055141Y-102490806D01*
X135079003Y-102519882D01*
X135137260Y-102567692D01*
X135195032Y-102615105D01*
X135265789Y-102652925D01*
X135327410Y-102685862D01*
X135471047Y-102729434D01*
X135473627Y-102729688D01*
X135511578Y-102767639D01*
X135677984Y-102878828D01*
X135862884Y-102955416D01*
X136059173Y-102994460D01*
X136259307Y-102994460D01*
X136455596Y-102955416D01*
X136640496Y-102878828D01*
X136806902Y-102767639D01*
X136948419Y-102626122D01*
X137059608Y-102459716D01*
X137136196Y-102274816D01*
X137175240Y-102078527D01*
X137175240Y-101878393D01*
X137136196Y-101682104D01*
X137059608Y-101497204D01*
X136961111Y-101349793D01*
X137069768Y-101187176D01*
X137146356Y-101002276D01*
X137185400Y-100805987D01*
X137185400Y-100605853D01*
X137146356Y-100409564D01*
X137069768Y-100224664D01*
X136986018Y-100099323D01*
X136999219Y-100086122D01*
X137110408Y-99919716D01*
X137186996Y-99734816D01*
X137226040Y-99538527D01*
X137226040Y-99500090D01*
X146244956Y-90481174D01*
X146215100Y-90631273D01*
X146215100Y-90831407D01*
X146254144Y-91027696D01*
X146330732Y-91212596D01*
X146441921Y-91379002D01*
X146583438Y-91520519D01*
X146749844Y-91631708D01*
X146934744Y-91708296D01*
X147131033Y-91747340D01*
X147331167Y-91747340D01*
X147527456Y-91708296D01*
X147712356Y-91631708D01*
X147878762Y-91520519D01*
X148020279Y-91379002D01*
X148131468Y-91212596D01*
X148208056Y-91027696D01*
X148247100Y-90831407D01*
X148247100Y-90631273D01*
X148208056Y-90434984D01*
X148131468Y-90250084D01*
X148020279Y-90083678D01*
X147878762Y-89942161D01*
X147712356Y-89830972D01*
X147527456Y-89754384D01*
X147331167Y-89715340D01*
X147131033Y-89715340D01*
X146980934Y-89745196D01*
X153364130Y-83362000D01*
X153759241Y-83362000D01*
X153793489Y-83474901D01*
X153908168Y-83689449D01*
X154062499Y-83877502D01*
X154250552Y-84031833D01*
X154465100Y-84146511D01*
X154697899Y-84217130D01*
X154940000Y-84240975D01*
X155182102Y-84217130D01*
X155414901Y-84146511D01*
X155629449Y-84031833D01*
X155817502Y-83877502D01*
X155971833Y-83689449D01*
X156086511Y-83474901D01*
X156157130Y-83242101D01*
X156175000Y-83060664D01*
X156175000Y-82139335D01*
X156159404Y-81980990D01*
X156260596Y-81980990D01*
X156245000Y-82139336D01*
G37*
X156245000Y-82139336D02*
X156245000Y-83060665D01*
X156262870Y-83242102D01*
X156333489Y-83474901D01*
X156448168Y-83689449D01*
X156602499Y-83877502D01*
X156790552Y-84031833D01*
X157005100Y-84146511D01*
X157237899Y-84217130D01*
X157480000Y-84240975D01*
X157722102Y-84217130D01*
X157954901Y-84146511D01*
X158169449Y-84031833D01*
X158357502Y-83877502D01*
X158511833Y-83689449D01*
X158626511Y-83474901D01*
X158697130Y-83242101D01*
X158715000Y-83060664D01*
X158715000Y-82139335D01*
X158699404Y-81980990D01*
X158800596Y-81980990D01*
X158785000Y-82139336D01*
X158785000Y-83060665D01*
X158802870Y-83242102D01*
X158873489Y-83474901D01*
X158988168Y-83689449D01*
X159142499Y-83877502D01*
X159330552Y-84031833D01*
X159545100Y-84146511D01*
X159777899Y-84217130D01*
X160020000Y-84240975D01*
X160262102Y-84217130D01*
X160494901Y-84146511D01*
X160709449Y-84031833D01*
X160897502Y-83877502D01*
X161051833Y-83689449D01*
X161166511Y-83474901D01*
X161237130Y-83242101D01*
X161255000Y-83060664D01*
X161255000Y-82139335D01*
X161239404Y-81980990D01*
X161340596Y-81980990D01*
X161325000Y-82139336D01*
X161325000Y-83060665D01*
X161342870Y-83242102D01*
X161413489Y-83474901D01*
X161528168Y-83689449D01*
X161581696Y-83754673D01*
X157359380Y-87976990D01*
X152082813Y-87976990D01*
X152045390Y-87973304D01*
X152007967Y-87976990D01*
X152007964Y-87976990D01*
X151896012Y-87988016D01*
X151752375Y-88031588D01*
X151690754Y-88064525D01*
X151619997Y-88102345D01*
X151591195Y-88125983D01*
X151503968Y-88197568D01*
X151480106Y-88226644D01*
X136204290Y-103502460D01*
X136165853Y-103502460D01*
X135969564Y-103541504D01*
X135784664Y-103618092D01*
X135618258Y-103729281D01*
X135476741Y-103870798D01*
X135453320Y-103905850D01*
X134475220Y-102927750D01*
X134475220Y-101960389D01*
X134478906Y-101922966D01*
X134477989Y-101913654D01*
X135055141Y-102490806D01*
X135079003Y-102519882D01*
X135137260Y-102567692D01*
X135195032Y-102615105D01*
X135265789Y-102652925D01*
X135327410Y-102685862D01*
X135471047Y-102729434D01*
X135473627Y-102729688D01*
X135511578Y-102767639D01*
X135677984Y-102878828D01*
X135862884Y-102955416D01*
X136059173Y-102994460D01*
X136259307Y-102994460D01*
X136455596Y-102955416D01*
X136640496Y-102878828D01*
X136806902Y-102767639D01*
X136948419Y-102626122D01*
X137059608Y-102459716D01*
X137136196Y-102274816D01*
X137175240Y-102078527D01*
X137175240Y-101878393D01*
X137136196Y-101682104D01*
X137059608Y-101497204D01*
X136961111Y-101349793D01*
X137069768Y-101187176D01*
X137146356Y-101002276D01*
X137185400Y-100805987D01*
X137185400Y-100605853D01*
X137146356Y-100409564D01*
X137069768Y-100224664D01*
X136986018Y-100099323D01*
X136999219Y-100086122D01*
X137110408Y-99919716D01*
X137186996Y-99734816D01*
X137226040Y-99538527D01*
X137226040Y-99500090D01*
X146244956Y-90481174D01*
X146215100Y-90631273D01*
X146215100Y-90831407D01*
X146254144Y-91027696D01*
X146330732Y-91212596D01*
X146441921Y-91379002D01*
X146583438Y-91520519D01*
X146749844Y-91631708D01*
X146934744Y-91708296D01*
X147131033Y-91747340D01*
X147331167Y-91747340D01*
X147527456Y-91708296D01*
X147712356Y-91631708D01*
X147878762Y-91520519D01*
X148020279Y-91379002D01*
X148131468Y-91212596D01*
X148208056Y-91027696D01*
X148247100Y-90831407D01*
X148247100Y-90631273D01*
X148208056Y-90434984D01*
X148131468Y-90250084D01*
X148020279Y-90083678D01*
X147878762Y-89942161D01*
X147712356Y-89830972D01*
X147527456Y-89754384D01*
X147331167Y-89715340D01*
X147131033Y-89715340D01*
X146980934Y-89745196D01*
X153364130Y-83362000D01*
X153759241Y-83362000D01*
X153793489Y-83474901D01*
X153908168Y-83689449D01*
X154062499Y-83877502D01*
X154250552Y-84031833D01*
X154465100Y-84146511D01*
X154697899Y-84217130D01*
X154940000Y-84240975D01*
X155182102Y-84217130D01*
X155414901Y-84146511D01*
X155629449Y-84031833D01*
X155817502Y-83877502D01*
X155971833Y-83689449D01*
X156086511Y-83474901D01*
X156157130Y-83242101D01*
X156175000Y-83060664D01*
X156175000Y-82139335D01*
X156159404Y-81980990D01*
X156260596Y-81980990D01*
X156245000Y-82139336D01*
G36*
X152686668Y-80677568D02*
G01*
X152662811Y-80706638D01*
X138903010Y-94466440D01*
X138903010Y-90562693D01*
X140098780Y-90562693D01*
X140098780Y-90762827D01*
X140137824Y-90959116D01*
X140214412Y-91144016D01*
X140325601Y-91310422D01*
X140467118Y-91451939D01*
X140633524Y-91563128D01*
X140818424Y-91639716D01*
X141014713Y-91678760D01*
X141214847Y-91678760D01*
X141411136Y-91639716D01*
X141596036Y-91563128D01*
X141762442Y-91451939D01*
X141903959Y-91310422D01*
X142015148Y-91144016D01*
X142091736Y-90959116D01*
X142130780Y-90762827D01*
X142130780Y-90562693D01*
X142091736Y-90366404D01*
X142015148Y-90181504D01*
X141903959Y-90015098D01*
X141762442Y-89873581D01*
X141596036Y-89762392D01*
X141411136Y-89685804D01*
X141214847Y-89646760D01*
X141014713Y-89646760D01*
X140818424Y-89685804D01*
X140633524Y-89762392D01*
X140467118Y-89873581D01*
X140325601Y-90015098D01*
X140214412Y-90181504D01*
X140137824Y-90366404D01*
X140098780Y-90562693D01*
X138903010Y-90562693D01*
X138903010Y-87412432D01*
X138906696Y-87375009D01*
X138900793Y-87315075D01*
X138891984Y-87225632D01*
X138848412Y-87081995D01*
X138777655Y-86949618D01*
X138682432Y-86833588D01*
X138653363Y-86809732D01*
X135598304Y-83754674D01*
X135651833Y-83689449D01*
X135766511Y-83474901D01*
X135837130Y-83242101D01*
X135855000Y-83060664D01*
X135855000Y-82139336D01*
X135925000Y-82139336D01*
X135925000Y-83060665D01*
X135942870Y-83242102D01*
X136013489Y-83474901D01*
X136128168Y-83689449D01*
X136282499Y-83877502D01*
X136470552Y-84031833D01*
X136685100Y-84146511D01*
X136917899Y-84217130D01*
X137160000Y-84240975D01*
X137402102Y-84217130D01*
X137634901Y-84146511D01*
X137679798Y-84122513D01*
X141174460Y-84122513D01*
X141174460Y-84322647D01*
X141213504Y-84518936D01*
X141290092Y-84703836D01*
X141401281Y-84870242D01*
X141542798Y-85011759D01*
X141709204Y-85122948D01*
X141894104Y-85199536D01*
X142090393Y-85238580D01*
X142290527Y-85238580D01*
X142486816Y-85199536D01*
X142671716Y-85122948D01*
X142838122Y-85011759D01*
X142979639Y-84870242D01*
X143090828Y-84703836D01*
X143167416Y-84518936D01*
X143206460Y-84322647D01*
X143206460Y-84122513D01*
X143179448Y-83986713D01*
X143809720Y-83986713D01*
X143809720Y-84186847D01*
X143848764Y-84383136D01*
X143925352Y-84568036D01*
X144036541Y-84734442D01*
X144178058Y-84875959D01*
X144344464Y-84987148D01*
X144529364Y-85063736D01*
X144725653Y-85102780D01*
X144925787Y-85102780D01*
X145122076Y-85063736D01*
X145306976Y-84987148D01*
X145473382Y-84875959D01*
X145614899Y-84734442D01*
X145726088Y-84568036D01*
X145802676Y-84383136D01*
X145841720Y-84186847D01*
X145841720Y-83986713D01*
X145827574Y-83915593D01*
X146420840Y-83915593D01*
X146420840Y-84115727D01*
X146459884Y-84312016D01*
X146536472Y-84496916D01*
X146647661Y-84663322D01*
X146789178Y-84804839D01*
X146955584Y-84916028D01*
X147140484Y-84992616D01*
X147336773Y-85031660D01*
X147536907Y-85031660D01*
X147733196Y-84992616D01*
X147918096Y-84916028D01*
X148084502Y-84804839D01*
X148226019Y-84663322D01*
X148337208Y-84496916D01*
X148413796Y-84312016D01*
X148452840Y-84115727D01*
X148452840Y-83915593D01*
X148413796Y-83719304D01*
X148337208Y-83534404D01*
X148226019Y-83367998D01*
X148084502Y-83226481D01*
X147918096Y-83115292D01*
X147733196Y-83038704D01*
X147536907Y-82999660D01*
X147336773Y-82999660D01*
X147140484Y-83038704D01*
X146955584Y-83115292D01*
X146789178Y-83226481D01*
X146647661Y-83367998D01*
X146536472Y-83534404D01*
X146459884Y-83719304D01*
X146420840Y-83915593D01*
X145827574Y-83915593D01*
X145802676Y-83790424D01*
X145726088Y-83605524D01*
X145614899Y-83439118D01*
X145473382Y-83297601D01*
X145306976Y-83186412D01*
X145122076Y-83109824D01*
X144925787Y-83070780D01*
X144725653Y-83070780D01*
X144529364Y-83109824D01*
X144344464Y-83186412D01*
X144178058Y-83297601D01*
X144036541Y-83439118D01*
X143925352Y-83605524D01*
X143848764Y-83790424D01*
X143809720Y-83986713D01*
X143179448Y-83986713D01*
X143167416Y-83926224D01*
X143090828Y-83741324D01*
X142979639Y-83574918D01*
X142838122Y-83433401D01*
X142671716Y-83322212D01*
X142486816Y-83245624D01*
X142290527Y-83206580D01*
X142090393Y-83206580D01*
X141894104Y-83245624D01*
X141709204Y-83322212D01*
X141542798Y-83433401D01*
X141401281Y-83574918D01*
X141290092Y-83741324D01*
X141213504Y-83926224D01*
X141174460Y-84122513D01*
X137679798Y-84122513D01*
X137849449Y-84031833D01*
X138037502Y-83877502D01*
X138191833Y-83689449D01*
X138306511Y-83474901D01*
X138377130Y-83242101D01*
X138395000Y-83060664D01*
X138395000Y-82139335D01*
X138377130Y-81957898D01*
X138306511Y-81725099D01*
X138191833Y-81510551D01*
X138037502Y-81322498D01*
X137849448Y-81168167D01*
X137634900Y-81053489D01*
X137402101Y-80982870D01*
X137160000Y-80959025D01*
X136917898Y-80982870D01*
X136685099Y-81053489D01*
X136470551Y-81168167D01*
X136282498Y-81322498D01*
X136128167Y-81510552D01*
X136013489Y-81725100D01*
X135942870Y-81957899D01*
X135925000Y-82139336D01*
X135855000Y-82139336D01*
X135855000Y-82139335D01*
X135837130Y-81957898D01*
X135766511Y-81725099D01*
X135651833Y-81510551D01*
X135497502Y-81322498D01*
X135309448Y-81168167D01*
X135094900Y-81053489D01*
X134862101Y-80982870D01*
X134620000Y-80959025D01*
X134377898Y-80982870D01*
X134145099Y-81053489D01*
X133930551Y-81168167D01*
X133742498Y-81322498D01*
X133588167Y-81510552D01*
X133473489Y-81725100D01*
X133402870Y-81957899D01*
X133385000Y-82139336D01*
X133385000Y-83060665D01*
X133402870Y-83242102D01*
X133473489Y-83474901D01*
X133588168Y-83689449D01*
X133742499Y-83877502D01*
X133866666Y-83979403D01*
X133869027Y-84003378D01*
X133912599Y-84147015D01*
X133983355Y-84279392D01*
X134018854Y-84322647D01*
X134078579Y-84395422D01*
X134107649Y-84419279D01*
X137379010Y-87690641D01*
X137379010Y-88500596D01*
X137160000Y-88479025D01*
X136917898Y-88502870D01*
X136685099Y-88573489D01*
X136470551Y-88688167D01*
X136282498Y-88842498D01*
X136248686Y-88883698D01*
X132842000Y-85477013D01*
X132842000Y-83972292D01*
X132957502Y-83877502D01*
X133111833Y-83689449D01*
X133226511Y-83474901D01*
X133297130Y-83242101D01*
X133315000Y-83060664D01*
X133315000Y-82139335D01*
X133297130Y-81957898D01*
X133226511Y-81725099D01*
X133111833Y-81510551D01*
X132957502Y-81322498D01*
X132787386Y-81182888D01*
X133381162Y-80589112D01*
X152794452Y-80589112D01*
X152686668Y-80677568D01*
G37*
X152686668Y-80677568D02*
X152662811Y-80706638D01*
X138903010Y-94466440D01*
X138903010Y-90562693D01*
X140098780Y-90562693D01*
X140098780Y-90762827D01*
X140137824Y-90959116D01*
X140214412Y-91144016D01*
X140325601Y-91310422D01*
X140467118Y-91451939D01*
X140633524Y-91563128D01*
X140818424Y-91639716D01*
X141014713Y-91678760D01*
X141214847Y-91678760D01*
X141411136Y-91639716D01*
X141596036Y-91563128D01*
X141762442Y-91451939D01*
X141903959Y-91310422D01*
X142015148Y-91144016D01*
X142091736Y-90959116D01*
X142130780Y-90762827D01*
X142130780Y-90562693D01*
X142091736Y-90366404D01*
X142015148Y-90181504D01*
X141903959Y-90015098D01*
X141762442Y-89873581D01*
X141596036Y-89762392D01*
X141411136Y-89685804D01*
X141214847Y-89646760D01*
X141014713Y-89646760D01*
X140818424Y-89685804D01*
X140633524Y-89762392D01*
X140467118Y-89873581D01*
X140325601Y-90015098D01*
X140214412Y-90181504D01*
X140137824Y-90366404D01*
X140098780Y-90562693D01*
X138903010Y-90562693D01*
X138903010Y-87412432D01*
X138906696Y-87375009D01*
X138900793Y-87315075D01*
X138891984Y-87225632D01*
X138848412Y-87081995D01*
X138777655Y-86949618D01*
X138682432Y-86833588D01*
X138653363Y-86809732D01*
X135598304Y-83754674D01*
X135651833Y-83689449D01*
X135766511Y-83474901D01*
X135837130Y-83242101D01*
X135855000Y-83060664D01*
X135855000Y-82139336D01*
X135925000Y-82139336D01*
X135925000Y-83060665D01*
X135942870Y-83242102D01*
X136013489Y-83474901D01*
X136128168Y-83689449D01*
X136282499Y-83877502D01*
X136470552Y-84031833D01*
X136685100Y-84146511D01*
X136917899Y-84217130D01*
X137160000Y-84240975D01*
X137402102Y-84217130D01*
X137634901Y-84146511D01*
X137679798Y-84122513D01*
X141174460Y-84122513D01*
X141174460Y-84322647D01*
X141213504Y-84518936D01*
X141290092Y-84703836D01*
X141401281Y-84870242D01*
X141542798Y-85011759D01*
X141709204Y-85122948D01*
X141894104Y-85199536D01*
X142090393Y-85238580D01*
X142290527Y-85238580D01*
X142486816Y-85199536D01*
X142671716Y-85122948D01*
X142838122Y-85011759D01*
X142979639Y-84870242D01*
X143090828Y-84703836D01*
X143167416Y-84518936D01*
X143206460Y-84322647D01*
X143206460Y-84122513D01*
X143179448Y-83986713D01*
X143809720Y-83986713D01*
X143809720Y-84186847D01*
X143848764Y-84383136D01*
X143925352Y-84568036D01*
X144036541Y-84734442D01*
X144178058Y-84875959D01*
X144344464Y-84987148D01*
X144529364Y-85063736D01*
X144725653Y-85102780D01*
X144925787Y-85102780D01*
X145122076Y-85063736D01*
X145306976Y-84987148D01*
X145473382Y-84875959D01*
X145614899Y-84734442D01*
X145726088Y-84568036D01*
X145802676Y-84383136D01*
X145841720Y-84186847D01*
X145841720Y-83986713D01*
X145827574Y-83915593D01*
X146420840Y-83915593D01*
X146420840Y-84115727D01*
X146459884Y-84312016D01*
X146536472Y-84496916D01*
X146647661Y-84663322D01*
X146789178Y-84804839D01*
X146955584Y-84916028D01*
X147140484Y-84992616D01*
X147336773Y-85031660D01*
X147536907Y-85031660D01*
X147733196Y-84992616D01*
X147918096Y-84916028D01*
X148084502Y-84804839D01*
X148226019Y-84663322D01*
X148337208Y-84496916D01*
X148413796Y-84312016D01*
X148452840Y-84115727D01*
X148452840Y-83915593D01*
X148413796Y-83719304D01*
X148337208Y-83534404D01*
X148226019Y-83367998D01*
X148084502Y-83226481D01*
X147918096Y-83115292D01*
X147733196Y-83038704D01*
X147536907Y-82999660D01*
X147336773Y-82999660D01*
X147140484Y-83038704D01*
X146955584Y-83115292D01*
X146789178Y-83226481D01*
X146647661Y-83367998D01*
X146536472Y-83534404D01*
X146459884Y-83719304D01*
X146420840Y-83915593D01*
X145827574Y-83915593D01*
X145802676Y-83790424D01*
X145726088Y-83605524D01*
X145614899Y-83439118D01*
X145473382Y-83297601D01*
X145306976Y-83186412D01*
X145122076Y-83109824D01*
X144925787Y-83070780D01*
X144725653Y-83070780D01*
X144529364Y-83109824D01*
X144344464Y-83186412D01*
X144178058Y-83297601D01*
X144036541Y-83439118D01*
X143925352Y-83605524D01*
X143848764Y-83790424D01*
X143809720Y-83986713D01*
X143179448Y-83986713D01*
X143167416Y-83926224D01*
X143090828Y-83741324D01*
X142979639Y-83574918D01*
X142838122Y-83433401D01*
X142671716Y-83322212D01*
X142486816Y-83245624D01*
X142290527Y-83206580D01*
X142090393Y-83206580D01*
X141894104Y-83245624D01*
X141709204Y-83322212D01*
X141542798Y-83433401D01*
X141401281Y-83574918D01*
X141290092Y-83741324D01*
X141213504Y-83926224D01*
X141174460Y-84122513D01*
X137679798Y-84122513D01*
X137849449Y-84031833D01*
X138037502Y-83877502D01*
X138191833Y-83689449D01*
X138306511Y-83474901D01*
X138377130Y-83242101D01*
X138395000Y-83060664D01*
X138395000Y-82139335D01*
X138377130Y-81957898D01*
X138306511Y-81725099D01*
X138191833Y-81510551D01*
X138037502Y-81322498D01*
X137849448Y-81168167D01*
X137634900Y-81053489D01*
X137402101Y-80982870D01*
X137160000Y-80959025D01*
X136917898Y-80982870D01*
X136685099Y-81053489D01*
X136470551Y-81168167D01*
X136282498Y-81322498D01*
X136128167Y-81510552D01*
X136013489Y-81725100D01*
X135942870Y-81957899D01*
X135925000Y-82139336D01*
X135855000Y-82139336D01*
X135855000Y-82139335D01*
X135837130Y-81957898D01*
X135766511Y-81725099D01*
X135651833Y-81510551D01*
X135497502Y-81322498D01*
X135309448Y-81168167D01*
X135094900Y-81053489D01*
X134862101Y-80982870D01*
X134620000Y-80959025D01*
X134377898Y-80982870D01*
X134145099Y-81053489D01*
X133930551Y-81168167D01*
X133742498Y-81322498D01*
X133588167Y-81510552D01*
X133473489Y-81725100D01*
X133402870Y-81957899D01*
X133385000Y-82139336D01*
X133385000Y-83060665D01*
X133402870Y-83242102D01*
X133473489Y-83474901D01*
X133588168Y-83689449D01*
X133742499Y-83877502D01*
X133866666Y-83979403D01*
X133869027Y-84003378D01*
X133912599Y-84147015D01*
X133983355Y-84279392D01*
X134018854Y-84322647D01*
X134078579Y-84395422D01*
X134107649Y-84419279D01*
X137379010Y-87690641D01*
X137379010Y-88500596D01*
X137160000Y-88479025D01*
X136917898Y-88502870D01*
X136685099Y-88573489D01*
X136470551Y-88688167D01*
X136282498Y-88842498D01*
X136248686Y-88883698D01*
X132842000Y-85477013D01*
X132842000Y-83972292D01*
X132957502Y-83877502D01*
X133111833Y-83689449D01*
X133226511Y-83474901D01*
X133297130Y-83242101D01*
X133315000Y-83060664D01*
X133315000Y-82139335D01*
X133297130Y-81957898D01*
X133226511Y-81725099D01*
X133111833Y-81510551D01*
X132957502Y-81322498D01*
X132787386Y-81182888D01*
X133381162Y-80589112D01*
X152794452Y-80589112D01*
X152686668Y-80677568D01*
G36*
X180747224Y-80110004D02*
G01*
X180562324Y-80186592D01*
X180395918Y-80297781D01*
X180254401Y-80439298D01*
X180143212Y-80605704D01*
X180066624Y-80790604D01*
X180027580Y-80986893D01*
X180027580Y-81187027D01*
X180066624Y-81383316D01*
X180143212Y-81568216D01*
X180254401Y-81734622D01*
X180395918Y-81876139D01*
X180562324Y-81987328D01*
X180747224Y-82063916D01*
X180943513Y-82102960D01*
X181143647Y-82102960D01*
X181339936Y-82063916D01*
X181524836Y-81987328D01*
X181686764Y-81879131D01*
X181662870Y-81957899D01*
X181645000Y-82139336D01*
X181645000Y-83060665D01*
X181662870Y-83242102D01*
X181733489Y-83474901D01*
X181848168Y-83689449D01*
X181882350Y-83731100D01*
X175812871Y-83731100D01*
X175958462Y-83633819D01*
X176099979Y-83492302D01*
X176211168Y-83325896D01*
X176287756Y-83140996D01*
X176326800Y-82944707D01*
X176326800Y-82744573D01*
X176287756Y-82548284D01*
X176211168Y-82363384D01*
X176099979Y-82196978D01*
X175958462Y-82055461D01*
X175792056Y-81944272D01*
X175607156Y-81867684D01*
X175410867Y-81828640D01*
X175210733Y-81828640D01*
X175014444Y-81867684D01*
X174829544Y-81944272D01*
X174663138Y-82055461D01*
X174521621Y-82196978D01*
X174410432Y-82363384D01*
X174333844Y-82548284D01*
X174294800Y-82744573D01*
X174294800Y-82944707D01*
X174333844Y-83140996D01*
X174410432Y-83325896D01*
X174521621Y-83492302D01*
X174663138Y-83633819D01*
X174808729Y-83731100D01*
X170928501Y-83731100D01*
X170956479Y-83703122D01*
X171067668Y-83536716D01*
X171144256Y-83351816D01*
X171183300Y-83155527D01*
X171183300Y-82955393D01*
X171144256Y-82759104D01*
X171067668Y-82574204D01*
X170956479Y-82407798D01*
X170814962Y-82266281D01*
X170648556Y-82155092D01*
X170463656Y-82078504D01*
X170267367Y-82039460D01*
X170067233Y-82039460D01*
X169870944Y-82078504D01*
X169686044Y-82155092D01*
X169519638Y-82266281D01*
X169378121Y-82407798D01*
X169266932Y-82574204D01*
X169190344Y-82759104D01*
X169151300Y-82955393D01*
X169151300Y-83155527D01*
X169190344Y-83351816D01*
X169266932Y-83536716D01*
X169378121Y-83703122D01*
X169406099Y-83731100D01*
X168637651Y-83731100D01*
X168671833Y-83689449D01*
X168786511Y-83474901D01*
X168857130Y-83242101D01*
X168875000Y-83060664D01*
X168875000Y-82139335D01*
X168857130Y-81957898D01*
X168786511Y-81725099D01*
X168671833Y-81510551D01*
X168517502Y-81322498D01*
X168329448Y-81168167D01*
X168114900Y-81053489D01*
X167882101Y-80982870D01*
X167640000Y-80959025D01*
X167397898Y-80982870D01*
X167165099Y-81053489D01*
X166950551Y-81168167D01*
X166762498Y-81322498D01*
X166608167Y-81510552D01*
X166493489Y-81725100D01*
X166422870Y-81957899D01*
X166405000Y-82139336D01*
X166405000Y-83060665D01*
X166422870Y-83242102D01*
X166493489Y-83474901D01*
X166608168Y-83689449D01*
X166642350Y-83731100D01*
X166097651Y-83731100D01*
X166131833Y-83689449D01*
X166246511Y-83474901D01*
X166317130Y-83242101D01*
X166335000Y-83060664D01*
X166335000Y-82139335D01*
X166317130Y-81957898D01*
X166246511Y-81725099D01*
X166131833Y-81510551D01*
X165977502Y-81322498D01*
X165853335Y-81220598D01*
X165850974Y-81196622D01*
X165807402Y-81052985D01*
X165736645Y-80920608D01*
X165641422Y-80804578D01*
X165612352Y-80780721D01*
X164912733Y-80081102D01*
X180892525Y-80081102D01*
X180747224Y-80110004D01*
G37*
X180747224Y-80110004D02*
X180562324Y-80186592D01*
X180395918Y-80297781D01*
X180254401Y-80439298D01*
X180143212Y-80605704D01*
X180066624Y-80790604D01*
X180027580Y-80986893D01*
X180027580Y-81187027D01*
X180066624Y-81383316D01*
X180143212Y-81568216D01*
X180254401Y-81734622D01*
X180395918Y-81876139D01*
X180562324Y-81987328D01*
X180747224Y-82063916D01*
X180943513Y-82102960D01*
X181143647Y-82102960D01*
X181339936Y-82063916D01*
X181524836Y-81987328D01*
X181686764Y-81879131D01*
X181662870Y-81957899D01*
X181645000Y-82139336D01*
X181645000Y-83060665D01*
X181662870Y-83242102D01*
X181733489Y-83474901D01*
X181848168Y-83689449D01*
X181882350Y-83731100D01*
X175812871Y-83731100D01*
X175958462Y-83633819D01*
X176099979Y-83492302D01*
X176211168Y-83325896D01*
X176287756Y-83140996D01*
X176326800Y-82944707D01*
X176326800Y-82744573D01*
X176287756Y-82548284D01*
X176211168Y-82363384D01*
X176099979Y-82196978D01*
X175958462Y-82055461D01*
X175792056Y-81944272D01*
X175607156Y-81867684D01*
X175410867Y-81828640D01*
X175210733Y-81828640D01*
X175014444Y-81867684D01*
X174829544Y-81944272D01*
X174663138Y-82055461D01*
X174521621Y-82196978D01*
X174410432Y-82363384D01*
X174333844Y-82548284D01*
X174294800Y-82744573D01*
X174294800Y-82944707D01*
X174333844Y-83140996D01*
X174410432Y-83325896D01*
X174521621Y-83492302D01*
X174663138Y-83633819D01*
X174808729Y-83731100D01*
X170928501Y-83731100D01*
X170956479Y-83703122D01*
X171067668Y-83536716D01*
X171144256Y-83351816D01*
X171183300Y-83155527D01*
X171183300Y-82955393D01*
X171144256Y-82759104D01*
X171067668Y-82574204D01*
X170956479Y-82407798D01*
X170814962Y-82266281D01*
X170648556Y-82155092D01*
X170463656Y-82078504D01*
X170267367Y-82039460D01*
X170067233Y-82039460D01*
X169870944Y-82078504D01*
X169686044Y-82155092D01*
X169519638Y-82266281D01*
X169378121Y-82407798D01*
X169266932Y-82574204D01*
X169190344Y-82759104D01*
X169151300Y-82955393D01*
X169151300Y-83155527D01*
X169190344Y-83351816D01*
X169266932Y-83536716D01*
X169378121Y-83703122D01*
X169406099Y-83731100D01*
X168637651Y-83731100D01*
X168671833Y-83689449D01*
X168786511Y-83474901D01*
X168857130Y-83242101D01*
X168875000Y-83060664D01*
X168875000Y-82139335D01*
X168857130Y-81957898D01*
X168786511Y-81725099D01*
X168671833Y-81510551D01*
X168517502Y-81322498D01*
X168329448Y-81168167D01*
X168114900Y-81053489D01*
X167882101Y-80982870D01*
X167640000Y-80959025D01*
X167397898Y-80982870D01*
X167165099Y-81053489D01*
X166950551Y-81168167D01*
X166762498Y-81322498D01*
X166608167Y-81510552D01*
X166493489Y-81725100D01*
X166422870Y-81957899D01*
X166405000Y-82139336D01*
X166405000Y-83060665D01*
X166422870Y-83242102D01*
X166493489Y-83474901D01*
X166608168Y-83689449D01*
X166642350Y-83731100D01*
X166097651Y-83731100D01*
X166131833Y-83689449D01*
X166246511Y-83474901D01*
X166317130Y-83242101D01*
X166335000Y-83060664D01*
X166335000Y-82139335D01*
X166317130Y-81957898D01*
X166246511Y-81725099D01*
X166131833Y-81510551D01*
X165977502Y-81322498D01*
X165853335Y-81220598D01*
X165850974Y-81196622D01*
X165807402Y-81052985D01*
X165736645Y-80920608D01*
X165641422Y-80804578D01*
X165612352Y-80780721D01*
X164912733Y-80081102D01*
X180892525Y-80081102D01*
X180747224Y-80110004D01*
M02*
