G04 #@! TF.GenerationSoftware,KiCad,Pcbnew,5.1.5*
G04 #@! TF.CreationDate,2020-05-20T18:02:06-05:00*
G04 #@! TF.ProjectId,kdi574,6b646935-3734-42e6-9b69-6361645f7063,v01*
G04 #@! TF.SameCoordinates,Original*
G04 #@! TF.FileFunction,Copper,L2,Inr*
G04 #@! TF.FilePolarity,Positive*
%FSLAX46Y46*%
G04 Gerber Fmt 4.6, Leading zero omitted, Abs format (unit mm)*
G04 Created by KiCad (PCBNEW 5.1.5) date 2020-05-20 18:02:06*
%MOMM*%
%LPD*%
G04 APERTURE LIST*
%ADD10O,1.200000X2.000000*%
%ADD11O,1.700000X1.700000*%
%ADD12R,1.700000X1.700000*%
%ADD13R,1.520000X1.520000*%
%ADD14C,1.520000*%
%ADD15C,0.762000*%
%ADD16C,0.254000*%
G04 APERTURE END LIST*
D10*
X182880000Y-82600000D03*
X182880000Y-90120000D03*
X185420000Y-82600000D03*
X185420000Y-90120000D03*
X187960000Y-82600000D03*
X187960000Y-90120000D03*
X190500000Y-82600000D03*
X190500000Y-90120000D03*
X193040000Y-82600000D03*
X193040000Y-90120000D03*
D11*
X147320000Y-102108000D03*
X144780000Y-102108000D03*
X147320000Y-104648000D03*
X144780000Y-104648000D03*
X147320000Y-107188000D03*
D12*
X144780000Y-107188000D03*
D10*
X137160000Y-90120000D03*
X137160000Y-82600000D03*
X134620000Y-90120000D03*
X134620000Y-82600000D03*
X132080000Y-90120000D03*
X132080000Y-82600000D03*
X129540000Y-90120000D03*
X129540000Y-82600000D03*
X127000000Y-90120000D03*
X127000000Y-82600000D03*
X124460000Y-90120000D03*
X124460000Y-82600000D03*
X154940000Y-82600000D03*
X154940000Y-90120000D03*
X157480000Y-82600000D03*
X157480000Y-90120000D03*
X160020000Y-82600000D03*
X160020000Y-90120000D03*
X162560000Y-82600000D03*
X162560000Y-90120000D03*
X165100000Y-82600000D03*
X165100000Y-90120000D03*
X167640000Y-82600000D03*
X167640000Y-90120000D03*
D13*
X192201800Y-98552000D03*
D14*
X190931800Y-101092000D03*
X189661800Y-98552000D03*
X188391800Y-101092000D03*
X187121800Y-98552000D03*
X185851800Y-101092000D03*
D12*
X165798500Y-101231700D03*
D11*
X168338500Y-101231700D03*
X165798500Y-103771700D03*
X168338500Y-103771700D03*
X165798500Y-106311700D03*
X168338500Y-106311700D03*
D15*
X122392440Y-97602040D03*
X181233460Y-96078040D03*
X166367460Y-96088200D03*
X177960020Y-80787240D03*
X198412100Y-84980780D03*
X139049760Y-91752420D03*
X140200380Y-82349340D03*
X184670700Y-96062800D03*
X158460440Y-94472760D03*
X138638280Y-98447860D03*
X142190460Y-84222580D03*
X144825720Y-84086780D03*
X147436840Y-84015660D03*
X170167300Y-83055460D03*
X175310800Y-82844640D03*
X181043580Y-81086960D03*
X141114780Y-90662760D03*
X196855080Y-92100400D03*
X172090080Y-92100400D03*
X172323760Y-100898960D03*
X147231100Y-90731340D03*
X169489120Y-92897960D03*
X195996560Y-92897960D03*
X136169400Y-100705920D03*
X136298940Y-94358460D03*
X136258300Y-105788460D03*
X136210040Y-99438460D03*
X136265920Y-104518460D03*
X136237980Y-95625920D03*
X136159240Y-101978460D03*
X136278620Y-98168460D03*
X125705860Y-91747340D03*
X128869720Y-97068360D03*
X128869720Y-97068360D03*
X132520300Y-106514020D03*
X131701540Y-100629720D03*
X128450340Y-98750120D03*
X132445760Y-97368360D03*
X127271780Y-98991420D03*
X127198120Y-100995480D03*
X118480430Y-103319990D03*
X152204420Y-93205300D03*
X117424200Y-102323900D03*
X151450040Y-94315280D03*
X116601240Y-101371400D03*
X152138380Y-95760540D03*
X129922270Y-102883970D03*
X188471810Y-95510350D03*
X131042410Y-102922070D03*
X141516100Y-107274360D03*
X132427980Y-102900480D03*
X131645660Y-99443540D03*
X129716530Y-101078030D03*
X129446020Y-99885500D03*
D16*
X196855080Y-92100400D02*
X172090080Y-92100400D01*
X171653200Y-92100400D02*
X148600160Y-92100400D01*
X148600160Y-92100400D02*
X147231100Y-90731340D01*
X196855080Y-92100400D02*
X196855080Y-96104522D01*
X193008603Y-99950999D02*
X172794201Y-99950999D01*
X196855080Y-96104522D02*
X193008603Y-99950999D01*
X172794201Y-99950999D02*
X172323760Y-100421440D01*
X172323760Y-100421440D02*
X172323760Y-100898960D01*
X172090080Y-92100400D02*
X171653200Y-92100400D01*
X172323760Y-100898960D02*
X172323760Y-100898960D01*
X147231100Y-90731340D02*
X147172680Y-90672920D01*
X169489120Y-92897960D02*
X194919600Y-92897960D01*
X194919600Y-92897960D02*
X195996560Y-92897960D01*
X195996560Y-92897960D02*
X195996560Y-92897960D01*
X167029501Y-107542701D02*
X177739939Y-107542701D01*
X165798500Y-106311700D02*
X167029501Y-107542701D01*
X177739939Y-107542701D02*
X181874160Y-103408480D01*
X186075320Y-103408480D02*
X188391800Y-101092000D01*
X181874160Y-103408480D02*
X186075320Y-103408480D01*
X128597671Y-97340409D02*
X128869720Y-97068360D01*
X126535575Y-97340409D02*
X128597671Y-97340409D01*
X125785870Y-98090114D02*
X126535575Y-97340409D01*
X152265153Y-101524729D02*
X147910881Y-105879001D01*
X161659615Y-101524729D02*
X152265153Y-101524729D01*
X162062160Y-101927274D02*
X161659615Y-101524729D01*
X165798500Y-106311700D02*
X165720146Y-106311700D01*
X147910881Y-105879001D02*
X138732389Y-105879001D01*
X165720146Y-106311700D02*
X162062160Y-102653714D01*
X138732389Y-105879001D02*
X136319350Y-108292040D01*
X136319350Y-108292040D02*
X131733689Y-108292039D01*
X131733689Y-108292039D02*
X125785869Y-102344219D01*
X162062160Y-102653714D02*
X162062160Y-101927274D01*
X125785869Y-102344219D02*
X125785870Y-98090114D01*
X126535575Y-92577055D02*
X125705860Y-91747340D01*
X126535575Y-97340409D02*
X126535575Y-92577055D01*
X169188499Y-100381701D02*
X168338500Y-101231700D01*
X172159201Y-97410999D02*
X169188499Y-100381701D01*
X188520799Y-97410999D02*
X172159201Y-97410999D01*
X189661800Y-98552000D02*
X188520799Y-97410999D01*
X133059115Y-106514020D02*
X132520300Y-106514020D01*
X139572436Y-100000699D02*
X133059115Y-106514020D01*
X167107499Y-100000699D02*
X139572436Y-100000699D01*
X168338500Y-101231700D02*
X167107499Y-100000699D01*
X164773981Y-102462701D02*
X162819989Y-100508709D01*
X168338500Y-103771700D02*
X167029501Y-102462701D01*
X167029501Y-102462701D02*
X164773981Y-102462701D01*
X162819989Y-100508709D02*
X139782860Y-100508709D01*
X135898501Y-107276021D02*
X132154539Y-107276021D01*
X139782860Y-100508709D02*
X139782860Y-103391662D01*
X139782860Y-103391662D02*
X135898501Y-107276021D01*
X131877679Y-106999161D02*
X128564640Y-103686122D01*
X131877679Y-106999161D02*
X131758299Y-106879781D01*
X132154539Y-107276021D02*
X131877679Y-106999161D01*
X128564640Y-103686122D02*
X128564640Y-98699320D01*
X128564640Y-98699320D02*
X128564640Y-98699320D01*
X132445760Y-97368360D02*
X132445760Y-97368360D01*
X130566158Y-97368360D02*
X132445760Y-97368360D01*
X126745999Y-97848419D02*
X130086099Y-97848419D01*
X126293879Y-102133795D02*
X126293879Y-98300539D01*
X126293879Y-98300539D02*
X126745999Y-97848419D01*
X162692080Y-101838760D02*
X161870039Y-101016719D01*
X147910881Y-103339001D02*
X140553955Y-103339001D01*
X140553955Y-103339001D02*
X136108926Y-107784030D01*
X130086099Y-97848419D02*
X130566158Y-97368360D01*
X168338500Y-106311700D02*
X167107499Y-105080699D01*
X165207579Y-105080699D02*
X162692080Y-102565200D01*
X167107499Y-105080699D02*
X165207579Y-105080699D01*
X150233163Y-101016719D02*
X147910881Y-103339001D01*
X162692080Y-102565200D02*
X162692080Y-101838760D01*
X161870039Y-101016719D02*
X150233163Y-101016719D01*
X136108926Y-107784030D02*
X131944114Y-107784030D01*
X131944114Y-107784030D02*
X126293879Y-102133795D01*
X115836700Y-96121220D02*
X115952989Y-96121220D01*
X115331229Y-96626691D02*
X115836700Y-96121220D01*
X118480430Y-103319990D02*
X116703634Y-103319990D01*
X115331229Y-101947585D02*
X115331229Y-96626691D01*
X116703634Y-103319990D02*
X115331229Y-101947585D01*
X115952989Y-96121220D02*
X123843228Y-88230981D01*
X151665605Y-93205300D02*
X152204420Y-93205300D01*
X142529558Y-93205300D02*
X151665605Y-93205300D01*
X140352779Y-90296999D02*
X140352779Y-91028521D01*
X138286761Y-88230981D02*
X140352779Y-90296999D01*
X140352779Y-91028521D02*
X142529558Y-93205300D01*
X123843228Y-88230981D02*
X138286761Y-88230981D01*
X137753370Y-88738990D02*
X139263120Y-90248740D01*
X116425978Y-102323900D02*
X115839239Y-101737161D01*
X115839239Y-101737161D02*
X115839239Y-96953404D01*
X124053653Y-88738990D02*
X137753370Y-88738990D01*
X117424200Y-102323900D02*
X116425978Y-102323900D01*
X115839239Y-96953404D02*
X124053653Y-88738990D01*
X139263120Y-90794840D02*
X144348191Y-95879911D01*
X139263120Y-90248740D02*
X139263120Y-90794840D01*
X144348191Y-95879911D02*
X150162269Y-95879911D01*
X150162269Y-95879911D02*
X151279860Y-94762320D01*
X151279860Y-94762320D02*
X151279860Y-94485460D01*
X151279860Y-94485460D02*
X151450040Y-94315280D01*
X151450040Y-94315280D02*
X151450040Y-94315280D01*
X151757381Y-96141539D02*
X152138380Y-95760540D01*
X151510999Y-96387921D02*
X151757381Y-96141539D01*
X131480564Y-96387921D02*
X151510999Y-96387921D01*
X125382018Y-90985339D02*
X126077982Y-90985339D01*
X116601240Y-99766117D02*
X125382018Y-90985339D01*
X126077982Y-90985339D02*
X131480564Y-96387921D01*
X116601240Y-101371400D02*
X116601240Y-99766117D01*
G36*
X201240001Y-109642300D02*
G01*
X194634521Y-109642300D01*
X194771018Y-109615149D01*
X195182311Y-109444786D01*
X195552466Y-109197456D01*
X195867256Y-108882666D01*
X196114586Y-108512511D01*
X196284949Y-108101218D01*
X196371800Y-107664591D01*
X196371800Y-107353433D01*
X196479020Y-107612285D01*
X196727336Y-107983917D01*
X197043383Y-108299964D01*
X197415015Y-108548280D01*
X197827951Y-108719324D01*
X198266321Y-108806521D01*
X198713279Y-108806521D01*
X199151649Y-108719324D01*
X199564585Y-108548280D01*
X199936217Y-108299964D01*
X200252264Y-107983917D01*
X200500580Y-107612285D01*
X200671624Y-107199349D01*
X200758821Y-106760979D01*
X200758821Y-106314021D01*
X200671624Y-105875651D01*
X200500580Y-105462715D01*
X200252264Y-105091083D01*
X199936217Y-104775036D01*
X199564585Y-104526720D01*
X199151649Y-104355676D01*
X198713279Y-104268479D01*
X198266321Y-104268479D01*
X197827951Y-104355676D01*
X197415015Y-104526720D01*
X197043383Y-104775036D01*
X196727336Y-105091083D01*
X196479020Y-105462715D01*
X196307976Y-105875651D01*
X196220779Y-106314021D01*
X196220779Y-106627862D01*
X196114586Y-106371489D01*
X195867256Y-106001334D01*
X195552466Y-105686544D01*
X195182311Y-105439214D01*
X194771018Y-105268851D01*
X194334391Y-105182000D01*
X193889209Y-105182000D01*
X193452582Y-105268851D01*
X193041289Y-105439214D01*
X192671134Y-105686544D01*
X192356344Y-106001334D01*
X192109014Y-106371489D01*
X191938651Y-106782782D01*
X191851800Y-107219409D01*
X191851800Y-107664591D01*
X191938651Y-108101218D01*
X192109014Y-108512511D01*
X192356344Y-108882666D01*
X192671134Y-109197456D01*
X193041289Y-109444786D01*
X193452582Y-109615149D01*
X193589079Y-109642300D01*
X184474521Y-109642300D01*
X184611018Y-109615149D01*
X185022311Y-109444786D01*
X185392466Y-109197456D01*
X185707256Y-108882666D01*
X185954586Y-108512511D01*
X186124949Y-108101218D01*
X186211800Y-107664591D01*
X186211800Y-107219409D01*
X186124949Y-106782782D01*
X185954586Y-106371489D01*
X185707256Y-106001334D01*
X185392466Y-105686544D01*
X185022311Y-105439214D01*
X184611018Y-105268851D01*
X184174391Y-105182000D01*
X183729209Y-105182000D01*
X183292582Y-105268851D01*
X182881289Y-105439214D01*
X182511134Y-105686544D01*
X182196344Y-106001334D01*
X181949014Y-106371489D01*
X181778651Y-106782782D01*
X181691800Y-107219409D01*
X181691800Y-107664591D01*
X181778651Y-108101218D01*
X181949014Y-108512511D01*
X182196344Y-108882666D01*
X182511134Y-109197456D01*
X182881289Y-109444786D01*
X183292582Y-109615149D01*
X183429079Y-109642300D01*
X113647700Y-109642300D01*
X113647700Y-106314021D01*
X114432779Y-106314021D01*
X114432779Y-106760979D01*
X114519976Y-107199349D01*
X114691020Y-107612285D01*
X114939336Y-107983917D01*
X115255383Y-108299964D01*
X115627015Y-108548280D01*
X116039951Y-108719324D01*
X116478321Y-108806521D01*
X116925279Y-108806521D01*
X117363649Y-108719324D01*
X117776585Y-108548280D01*
X118148217Y-108299964D01*
X118464264Y-107983917D01*
X118712580Y-107612285D01*
X118883624Y-107199349D01*
X118970821Y-106760979D01*
X118970821Y-106314021D01*
X118883624Y-105875651D01*
X118712580Y-105462715D01*
X118464264Y-105091083D01*
X118148217Y-104775036D01*
X117776585Y-104526720D01*
X117363649Y-104355676D01*
X116925279Y-104268479D01*
X116478321Y-104268479D01*
X116039951Y-104355676D01*
X115627015Y-104526720D01*
X115255383Y-104775036D01*
X114939336Y-105091083D01*
X114691020Y-105462715D01*
X114519976Y-105875651D01*
X114432779Y-106314021D01*
X113647700Y-106314021D01*
X113647700Y-96626691D01*
X114565543Y-96626691D01*
X114569230Y-96664124D01*
X114569229Y-101910162D01*
X114565543Y-101947585D01*
X114569229Y-101985008D01*
X114569229Y-101985010D01*
X114580255Y-102096962D01*
X114623827Y-102240599D01*
X114644130Y-102278583D01*
X114694584Y-102372977D01*
X114701698Y-102381645D01*
X114789807Y-102489007D01*
X114818883Y-102512869D01*
X116138355Y-103832342D01*
X116162212Y-103861412D01*
X116191282Y-103885269D01*
X116278241Y-103956635D01*
X116313809Y-103975646D01*
X116410619Y-104027392D01*
X116554256Y-104070964D01*
X116666208Y-104081990D01*
X116666211Y-104081990D01*
X116703634Y-104085676D01*
X116741057Y-104081990D01*
X117805589Y-104081990D01*
X117832768Y-104109169D01*
X117999174Y-104220358D01*
X118184074Y-104296946D01*
X118380363Y-104335990D01*
X118580497Y-104335990D01*
X118776786Y-104296946D01*
X118961686Y-104220358D01*
X119128092Y-104109169D01*
X119269609Y-103967652D01*
X119380798Y-103801246D01*
X119457386Y-103616346D01*
X119496430Y-103420057D01*
X119496430Y-103219923D01*
X119457386Y-103023634D01*
X119380798Y-102838734D01*
X119269609Y-102672328D01*
X119128092Y-102530811D01*
X118961686Y-102419622D01*
X118776786Y-102343034D01*
X118580497Y-102303990D01*
X118440200Y-102303990D01*
X118440200Y-102223833D01*
X118401156Y-102027544D01*
X118324568Y-101842644D01*
X118213379Y-101676238D01*
X118071862Y-101534721D01*
X117905456Y-101423532D01*
X117720556Y-101346944D01*
X117617240Y-101326393D01*
X117617240Y-101271333D01*
X117578196Y-101075044D01*
X117501608Y-100890144D01*
X117390419Y-100723738D01*
X117363240Y-100696559D01*
X117363240Y-100081747D01*
X119943014Y-97501973D01*
X121376440Y-97501973D01*
X121376440Y-97702107D01*
X121415484Y-97898396D01*
X121492072Y-98083296D01*
X121603261Y-98249702D01*
X121744778Y-98391219D01*
X121911184Y-98502408D01*
X122096084Y-98578996D01*
X122292373Y-98618040D01*
X122492507Y-98618040D01*
X122688796Y-98578996D01*
X122873696Y-98502408D01*
X123040102Y-98391219D01*
X123181619Y-98249702D01*
X123292808Y-98083296D01*
X123369396Y-97898396D01*
X123408440Y-97702107D01*
X123408440Y-97501973D01*
X123369396Y-97305684D01*
X123292808Y-97120784D01*
X123181619Y-96954378D01*
X123040102Y-96812861D01*
X122873696Y-96701672D01*
X122688796Y-96625084D01*
X122492507Y-96586040D01*
X122292373Y-96586040D01*
X122096084Y-96625084D01*
X121911184Y-96701672D01*
X121744778Y-96812861D01*
X121603261Y-96954378D01*
X121492072Y-97120784D01*
X121415484Y-97305684D01*
X121376440Y-97501973D01*
X119943014Y-97501973D01*
X124983333Y-92461654D01*
X125058198Y-92536519D01*
X125224604Y-92647708D01*
X125409504Y-92724296D01*
X125605793Y-92763340D01*
X125644229Y-92763340D01*
X125773576Y-92892687D01*
X125773575Y-97024778D01*
X125273519Y-97524835D01*
X125244449Y-97548692D01*
X125220592Y-97577762D01*
X125220591Y-97577763D01*
X125149225Y-97664722D01*
X125078469Y-97797099D01*
X125034897Y-97940736D01*
X125020184Y-98090114D01*
X125023871Y-98127547D01*
X125023869Y-102306795D01*
X125020183Y-102344219D01*
X125023869Y-102381642D01*
X125023869Y-102381644D01*
X125034895Y-102493596D01*
X125078467Y-102637233D01*
X125103604Y-102684261D01*
X125149224Y-102769611D01*
X125194737Y-102825068D01*
X125244447Y-102885640D01*
X125273517Y-102909497D01*
X131168410Y-108804390D01*
X131192267Y-108833460D01*
X131221337Y-108857317D01*
X131221338Y-108857318D01*
X131308296Y-108928684D01*
X131440673Y-108999440D01*
X131584310Y-109043012D01*
X131733689Y-109057725D01*
X131771122Y-109054038D01*
X136281926Y-109054040D01*
X136319350Y-109057726D01*
X136356773Y-109054040D01*
X136356775Y-109054040D01*
X136468727Y-109043014D01*
X136612364Y-108999442D01*
X136673985Y-108966505D01*
X136744742Y-108928685D01*
X136831701Y-108857319D01*
X136831702Y-108857318D01*
X136860771Y-108833462D01*
X136884628Y-108804392D01*
X139048020Y-106641001D01*
X140717364Y-106641001D01*
X140615732Y-106793104D01*
X140539144Y-106978004D01*
X140500100Y-107174293D01*
X140500100Y-107374427D01*
X140539144Y-107570716D01*
X140615732Y-107755616D01*
X140726921Y-107922022D01*
X140868438Y-108063539D01*
X141034844Y-108174728D01*
X141219744Y-108251316D01*
X141416033Y-108290360D01*
X141616167Y-108290360D01*
X141812456Y-108251316D01*
X141997356Y-108174728D01*
X142163762Y-108063539D01*
X142189301Y-108038000D01*
X143291928Y-108038000D01*
X143304188Y-108162482D01*
X143340498Y-108282180D01*
X143399463Y-108392494D01*
X143478815Y-108489185D01*
X143575506Y-108568537D01*
X143685820Y-108627502D01*
X143805518Y-108663812D01*
X143930000Y-108676072D01*
X144494250Y-108673000D01*
X144653000Y-108514250D01*
X144653000Y-107315000D01*
X143453750Y-107315000D01*
X143295000Y-107473750D01*
X143291928Y-108038000D01*
X142189301Y-108038000D01*
X142305279Y-107922022D01*
X142416468Y-107755616D01*
X142493056Y-107570716D01*
X142532100Y-107374427D01*
X142532100Y-107174293D01*
X142493056Y-106978004D01*
X142416468Y-106793104D01*
X142314836Y-106641001D01*
X143293578Y-106641001D01*
X143295000Y-106902250D01*
X143453750Y-107061000D01*
X144653000Y-107061000D01*
X144653000Y-107041000D01*
X144907000Y-107041000D01*
X144907000Y-107061000D01*
X144927000Y-107061000D01*
X144927000Y-107315000D01*
X144907000Y-107315000D01*
X144907000Y-108514250D01*
X145065750Y-108673000D01*
X145630000Y-108676072D01*
X145754482Y-108663812D01*
X145874180Y-108627502D01*
X145984494Y-108568537D01*
X146081185Y-108489185D01*
X146160537Y-108392494D01*
X146219502Y-108282180D01*
X146241513Y-108209620D01*
X146373368Y-108341475D01*
X146616589Y-108503990D01*
X146886842Y-108615932D01*
X147173740Y-108673000D01*
X147466260Y-108673000D01*
X147753158Y-108615932D01*
X148023411Y-108503990D01*
X148266632Y-108341475D01*
X148473475Y-108134632D01*
X148635990Y-107891411D01*
X148747932Y-107621158D01*
X148805000Y-107334260D01*
X148805000Y-107041740D01*
X148747932Y-106754842D01*
X148635990Y-106484589D01*
X148534626Y-106332886D01*
X152580783Y-102286729D01*
X155020931Y-102286729D01*
X154508307Y-102499065D01*
X153923364Y-102889911D01*
X153425911Y-103387364D01*
X153035065Y-103972307D01*
X152765845Y-104622261D01*
X152628598Y-105312248D01*
X152628598Y-106015752D01*
X152765845Y-106705739D01*
X153035065Y-107355693D01*
X153425911Y-107940636D01*
X153923364Y-108438089D01*
X154508307Y-108828935D01*
X155158261Y-109098155D01*
X155848248Y-109235402D01*
X156551752Y-109235402D01*
X157241739Y-109098155D01*
X157891693Y-108828935D01*
X158476636Y-108438089D01*
X158974089Y-107940636D01*
X159364935Y-107355693D01*
X159634155Y-106705739D01*
X159771402Y-106015752D01*
X159771402Y-105312248D01*
X159634155Y-104622261D01*
X159364935Y-103972307D01*
X158974089Y-103387364D01*
X158476636Y-102889911D01*
X157891693Y-102499065D01*
X157379069Y-102286729D01*
X161300160Y-102286729D01*
X161300160Y-102616291D01*
X161296474Y-102653714D01*
X161300160Y-102691137D01*
X161300160Y-102691139D01*
X161311186Y-102803091D01*
X161354758Y-102946728D01*
X161371859Y-102978721D01*
X161425515Y-103079106D01*
X161459768Y-103120843D01*
X161520738Y-103195136D01*
X161549814Y-103218998D01*
X164343821Y-106013006D01*
X164313500Y-106165440D01*
X164313500Y-106457960D01*
X164370568Y-106744858D01*
X164482510Y-107015111D01*
X164645025Y-107258332D01*
X164851868Y-107465175D01*
X165095089Y-107627690D01*
X165365342Y-107739632D01*
X165652240Y-107796700D01*
X165944760Y-107796700D01*
X166162548Y-107753379D01*
X166464222Y-108055053D01*
X166488079Y-108084123D01*
X166604109Y-108179346D01*
X166736486Y-108250103D01*
X166880123Y-108293675D01*
X166992075Y-108304701D01*
X166992077Y-108304701D01*
X167029500Y-108308387D01*
X167066923Y-108304701D01*
X177702516Y-108304701D01*
X177739939Y-108308387D01*
X177777362Y-108304701D01*
X177777365Y-108304701D01*
X177889317Y-108293675D01*
X178032954Y-108250103D01*
X178165331Y-108179346D01*
X178281361Y-108084123D01*
X178305223Y-108055047D01*
X182189791Y-104170480D01*
X186037897Y-104170480D01*
X186075320Y-104174166D01*
X186112743Y-104170480D01*
X186112746Y-104170480D01*
X186224698Y-104159454D01*
X186368335Y-104115882D01*
X186500712Y-104045125D01*
X186616742Y-103949902D01*
X186640604Y-103920826D01*
X188104290Y-102457141D01*
X188254404Y-102487000D01*
X188529196Y-102487000D01*
X188798707Y-102433391D01*
X189052580Y-102328233D01*
X189281061Y-102175567D01*
X189475367Y-101981261D01*
X189628033Y-101752780D01*
X189661800Y-101671260D01*
X189695567Y-101752780D01*
X189848233Y-101981261D01*
X190042539Y-102175567D01*
X190271020Y-102328233D01*
X190524893Y-102433391D01*
X190794404Y-102487000D01*
X191069196Y-102487000D01*
X191338707Y-102433391D01*
X191592580Y-102328233D01*
X191821061Y-102175567D01*
X192015367Y-101981261D01*
X192168033Y-101752780D01*
X192273191Y-101498907D01*
X192326800Y-101229396D01*
X192326800Y-100954604D01*
X192278742Y-100712999D01*
X192971180Y-100712999D01*
X193008603Y-100716685D01*
X193046026Y-100712999D01*
X193046029Y-100712999D01*
X193157981Y-100701973D01*
X193301618Y-100658401D01*
X193433995Y-100587644D01*
X193550025Y-100492421D01*
X193573887Y-100463345D01*
X197367432Y-96669801D01*
X197396502Y-96645944D01*
X197451293Y-96579181D01*
X197491725Y-96529915D01*
X197544213Y-96431716D01*
X197562482Y-96397537D01*
X197606054Y-96253900D01*
X197617080Y-96141948D01*
X197617080Y-96141945D01*
X197620766Y-96104522D01*
X197617080Y-96067099D01*
X197617080Y-92775241D01*
X197644259Y-92748062D01*
X197755448Y-92581656D01*
X197832036Y-92396756D01*
X197871080Y-92200467D01*
X197871080Y-92000333D01*
X197832036Y-91804044D01*
X197755448Y-91619144D01*
X197644259Y-91452738D01*
X197502742Y-91311221D01*
X197336336Y-91200032D01*
X197151436Y-91123444D01*
X196955147Y-91084400D01*
X196755013Y-91084400D01*
X196558724Y-91123444D01*
X196373824Y-91200032D01*
X196207418Y-91311221D01*
X196180239Y-91338400D01*
X193966006Y-91338400D01*
X194071833Y-91209449D01*
X194186511Y-90994901D01*
X194257130Y-90762101D01*
X194275000Y-90580664D01*
X194275000Y-89659335D01*
X194257130Y-89477898D01*
X194186511Y-89245099D01*
X194071833Y-89030551D01*
X193917502Y-88842498D01*
X193729448Y-88688167D01*
X193514900Y-88573489D01*
X193282101Y-88502870D01*
X193040000Y-88479025D01*
X192797898Y-88502870D01*
X192565099Y-88573489D01*
X192350551Y-88688167D01*
X192162498Y-88842498D01*
X192008167Y-89030552D01*
X191893489Y-89245100D01*
X191822870Y-89477899D01*
X191805000Y-89659336D01*
X191805000Y-90580665D01*
X191822870Y-90762102D01*
X191893489Y-90994901D01*
X192008168Y-91209449D01*
X192113995Y-91338400D01*
X191426006Y-91338400D01*
X191531833Y-91209449D01*
X191646511Y-90994901D01*
X191717130Y-90762101D01*
X191735000Y-90580664D01*
X191735000Y-89659335D01*
X191717130Y-89477898D01*
X191646511Y-89245099D01*
X191531833Y-89030551D01*
X191377502Y-88842498D01*
X191189448Y-88688167D01*
X190974900Y-88573489D01*
X190742101Y-88502870D01*
X190500000Y-88479025D01*
X190257898Y-88502870D01*
X190025099Y-88573489D01*
X189810551Y-88688167D01*
X189622498Y-88842498D01*
X189468167Y-89030552D01*
X189353489Y-89245100D01*
X189282870Y-89477899D01*
X189265000Y-89659336D01*
X189265000Y-90580665D01*
X189282870Y-90762102D01*
X189353489Y-90994901D01*
X189468168Y-91209449D01*
X189573995Y-91338400D01*
X188886006Y-91338400D01*
X188991833Y-91209449D01*
X189106511Y-90994901D01*
X189177130Y-90762101D01*
X189195000Y-90580664D01*
X189195000Y-89659335D01*
X189177130Y-89477898D01*
X189106511Y-89245099D01*
X188991833Y-89030551D01*
X188837502Y-88842498D01*
X188649448Y-88688167D01*
X188434900Y-88573489D01*
X188202101Y-88502870D01*
X187960000Y-88479025D01*
X187717898Y-88502870D01*
X187485099Y-88573489D01*
X187270551Y-88688167D01*
X187082498Y-88842498D01*
X186928167Y-89030552D01*
X186813489Y-89245100D01*
X186742870Y-89477899D01*
X186725000Y-89659336D01*
X186725000Y-90580665D01*
X186742870Y-90762102D01*
X186813489Y-90994901D01*
X186928168Y-91209449D01*
X187033995Y-91338400D01*
X186346006Y-91338400D01*
X186451833Y-91209449D01*
X186566511Y-90994901D01*
X186637130Y-90762101D01*
X186655000Y-90580664D01*
X186655000Y-89659335D01*
X186637130Y-89477898D01*
X186566511Y-89245099D01*
X186451833Y-89030551D01*
X186297502Y-88842498D01*
X186109448Y-88688167D01*
X185894900Y-88573489D01*
X185662101Y-88502870D01*
X185420000Y-88479025D01*
X185177898Y-88502870D01*
X184945099Y-88573489D01*
X184730551Y-88688167D01*
X184542498Y-88842498D01*
X184388167Y-89030552D01*
X184273489Y-89245100D01*
X184202870Y-89477899D01*
X184185000Y-89659336D01*
X184185000Y-90580665D01*
X184202870Y-90762102D01*
X184273489Y-90994901D01*
X184388168Y-91209449D01*
X184493995Y-91338400D01*
X183806006Y-91338400D01*
X183911833Y-91209449D01*
X184026511Y-90994901D01*
X184097130Y-90762101D01*
X184115000Y-90580664D01*
X184115000Y-89659335D01*
X184097130Y-89477898D01*
X184026511Y-89245099D01*
X183911833Y-89030551D01*
X183757502Y-88842498D01*
X183569448Y-88688167D01*
X183354900Y-88573489D01*
X183122101Y-88502870D01*
X182880000Y-88479025D01*
X182637898Y-88502870D01*
X182405099Y-88573489D01*
X182190551Y-88688167D01*
X182002498Y-88842498D01*
X181848167Y-89030552D01*
X181733489Y-89245100D01*
X181662870Y-89477899D01*
X181645000Y-89659336D01*
X181645000Y-90580665D01*
X181662870Y-90762102D01*
X181733489Y-90994901D01*
X181848168Y-91209449D01*
X181953995Y-91338400D01*
X172764921Y-91338400D01*
X172737742Y-91311221D01*
X172571336Y-91200032D01*
X172386436Y-91123444D01*
X172190147Y-91084400D01*
X171990013Y-91084400D01*
X171793724Y-91123444D01*
X171608824Y-91200032D01*
X171442418Y-91311221D01*
X171415239Y-91338400D01*
X168566006Y-91338400D01*
X168671833Y-91209449D01*
X168786511Y-90994901D01*
X168857130Y-90762101D01*
X168875000Y-90580664D01*
X168875000Y-89659335D01*
X168857130Y-89477898D01*
X168786511Y-89245099D01*
X168671833Y-89030551D01*
X168517502Y-88842498D01*
X168329448Y-88688167D01*
X168114900Y-88573489D01*
X167882101Y-88502870D01*
X167640000Y-88479025D01*
X167397898Y-88502870D01*
X167165099Y-88573489D01*
X166950551Y-88688167D01*
X166762498Y-88842498D01*
X166608167Y-89030552D01*
X166493489Y-89245100D01*
X166422870Y-89477899D01*
X166405000Y-89659336D01*
X166405000Y-90580665D01*
X166422870Y-90762102D01*
X166493489Y-90994901D01*
X166608168Y-91209449D01*
X166713995Y-91338400D01*
X166026006Y-91338400D01*
X166131833Y-91209449D01*
X166246511Y-90994901D01*
X166317130Y-90762101D01*
X166335000Y-90580664D01*
X166335000Y-89659335D01*
X166317130Y-89477898D01*
X166246511Y-89245099D01*
X166131833Y-89030551D01*
X165977502Y-88842498D01*
X165789448Y-88688167D01*
X165574900Y-88573489D01*
X165342101Y-88502870D01*
X165100000Y-88479025D01*
X164857898Y-88502870D01*
X164625099Y-88573489D01*
X164410551Y-88688167D01*
X164222498Y-88842498D01*
X164068167Y-89030552D01*
X163953489Y-89245100D01*
X163882870Y-89477899D01*
X163865000Y-89659336D01*
X163865000Y-90580665D01*
X163882870Y-90762102D01*
X163953489Y-90994901D01*
X164068168Y-91209449D01*
X164173995Y-91338400D01*
X163486006Y-91338400D01*
X163591833Y-91209449D01*
X163706511Y-90994901D01*
X163777130Y-90762101D01*
X163795000Y-90580664D01*
X163795000Y-89659335D01*
X163777130Y-89477898D01*
X163706511Y-89245099D01*
X163591833Y-89030551D01*
X163437502Y-88842498D01*
X163249448Y-88688167D01*
X163034900Y-88573489D01*
X162802101Y-88502870D01*
X162560000Y-88479025D01*
X162317898Y-88502870D01*
X162085099Y-88573489D01*
X161870551Y-88688167D01*
X161682498Y-88842498D01*
X161528167Y-89030552D01*
X161413489Y-89245100D01*
X161342870Y-89477899D01*
X161325000Y-89659336D01*
X161325000Y-90580665D01*
X161342870Y-90762102D01*
X161413489Y-90994901D01*
X161528168Y-91209449D01*
X161633995Y-91338400D01*
X160946006Y-91338400D01*
X161051833Y-91209449D01*
X161166511Y-90994901D01*
X161237130Y-90762101D01*
X161255000Y-90580664D01*
X161255000Y-89659335D01*
X161237130Y-89477898D01*
X161166511Y-89245099D01*
X161051833Y-89030551D01*
X160897502Y-88842498D01*
X160709448Y-88688167D01*
X160494900Y-88573489D01*
X160262101Y-88502870D01*
X160020000Y-88479025D01*
X159777898Y-88502870D01*
X159545099Y-88573489D01*
X159330551Y-88688167D01*
X159142498Y-88842498D01*
X158988167Y-89030552D01*
X158873489Y-89245100D01*
X158802870Y-89477899D01*
X158785000Y-89659336D01*
X158785000Y-90580665D01*
X158802870Y-90762102D01*
X158873489Y-90994901D01*
X158988168Y-91209449D01*
X159093995Y-91338400D01*
X158406006Y-91338400D01*
X158511833Y-91209449D01*
X158626511Y-90994901D01*
X158697130Y-90762101D01*
X158715000Y-90580664D01*
X158715000Y-89659335D01*
X158697130Y-89477898D01*
X158626511Y-89245099D01*
X158511833Y-89030551D01*
X158357502Y-88842498D01*
X158169448Y-88688167D01*
X157954900Y-88573489D01*
X157722101Y-88502870D01*
X157480000Y-88479025D01*
X157237898Y-88502870D01*
X157005099Y-88573489D01*
X156790551Y-88688167D01*
X156602498Y-88842498D01*
X156448167Y-89030552D01*
X156333489Y-89245100D01*
X156262870Y-89477899D01*
X156245000Y-89659336D01*
X156245000Y-90580665D01*
X156262870Y-90762102D01*
X156333489Y-90994901D01*
X156448168Y-91209449D01*
X156553995Y-91338400D01*
X155866006Y-91338400D01*
X155971833Y-91209449D01*
X156086511Y-90994901D01*
X156157130Y-90762101D01*
X156175000Y-90580664D01*
X156175000Y-89659335D01*
X156157130Y-89477898D01*
X156086511Y-89245099D01*
X155971833Y-89030551D01*
X155817502Y-88842498D01*
X155629448Y-88688167D01*
X155414900Y-88573489D01*
X155182101Y-88502870D01*
X154940000Y-88479025D01*
X154697898Y-88502870D01*
X154465099Y-88573489D01*
X154250551Y-88688167D01*
X154062498Y-88842498D01*
X153908167Y-89030552D01*
X153793489Y-89245100D01*
X153722870Y-89477899D01*
X153705000Y-89659336D01*
X153705000Y-90580665D01*
X153722870Y-90762102D01*
X153793489Y-90994901D01*
X153908168Y-91209449D01*
X154013995Y-91338400D01*
X148915791Y-91338400D01*
X148247100Y-90669710D01*
X148247100Y-90631273D01*
X148208056Y-90434984D01*
X148131468Y-90250084D01*
X148020279Y-90083678D01*
X147878762Y-89942161D01*
X147712356Y-89830972D01*
X147527456Y-89754384D01*
X147331167Y-89715340D01*
X147131033Y-89715340D01*
X146934744Y-89754384D01*
X146749844Y-89830972D01*
X146583438Y-89942161D01*
X146441921Y-90083678D01*
X146330732Y-90250084D01*
X146254144Y-90434984D01*
X146215100Y-90631273D01*
X146215100Y-90831407D01*
X146254144Y-91027696D01*
X146330732Y-91212596D01*
X146441921Y-91379002D01*
X146583438Y-91520519D01*
X146749844Y-91631708D01*
X146934744Y-91708296D01*
X147131033Y-91747340D01*
X147169470Y-91747340D01*
X147865429Y-92443300D01*
X142845189Y-92443300D01*
X141808135Y-91406246D01*
X141903959Y-91310422D01*
X142015148Y-91144016D01*
X142091736Y-90959116D01*
X142130780Y-90762827D01*
X142130780Y-90562693D01*
X142091736Y-90366404D01*
X142015148Y-90181504D01*
X141903959Y-90015098D01*
X141762442Y-89873581D01*
X141596036Y-89762392D01*
X141411136Y-89685804D01*
X141214847Y-89646760D01*
X141014713Y-89646760D01*
X140819083Y-89685673D01*
X138852045Y-87718635D01*
X138828183Y-87689559D01*
X138712153Y-87594336D01*
X138579776Y-87523579D01*
X138436139Y-87480007D01*
X138324187Y-87468981D01*
X138324184Y-87468981D01*
X138286761Y-87465295D01*
X138249338Y-87468981D01*
X123880650Y-87468981D01*
X123843227Y-87465295D01*
X123805804Y-87468981D01*
X123805802Y-87468981D01*
X123693850Y-87480007D01*
X123550213Y-87523579D01*
X123488592Y-87556516D01*
X123417835Y-87594336D01*
X123335132Y-87662209D01*
X123301806Y-87689559D01*
X123277949Y-87718629D01*
X115599776Y-95396803D01*
X115543685Y-95413818D01*
X115482064Y-95446755D01*
X115411307Y-95484575D01*
X115368919Y-95519363D01*
X115295278Y-95579798D01*
X115271416Y-95608874D01*
X114818878Y-96061412D01*
X114789808Y-96085269D01*
X114765951Y-96114339D01*
X114765950Y-96114340D01*
X114694584Y-96201299D01*
X114623828Y-96333676D01*
X114580256Y-96477313D01*
X114565543Y-96626691D01*
X113647700Y-96626691D01*
X113647700Y-79914021D01*
X114432779Y-79914021D01*
X114432779Y-80360979D01*
X114519976Y-80799349D01*
X114691020Y-81212285D01*
X114939336Y-81583917D01*
X115255383Y-81899964D01*
X115627015Y-82148280D01*
X116039951Y-82319324D01*
X116478321Y-82406521D01*
X116925279Y-82406521D01*
X117363649Y-82319324D01*
X117776585Y-82148280D01*
X117789970Y-82139336D01*
X123225000Y-82139336D01*
X123225000Y-83060665D01*
X123242870Y-83242102D01*
X123313489Y-83474901D01*
X123428168Y-83689449D01*
X123582499Y-83877502D01*
X123770552Y-84031833D01*
X123985100Y-84146511D01*
X124217899Y-84217130D01*
X124460000Y-84240975D01*
X124702102Y-84217130D01*
X124934901Y-84146511D01*
X125149449Y-84031833D01*
X125337502Y-83877502D01*
X125491833Y-83689449D01*
X125606511Y-83474901D01*
X125677130Y-83242101D01*
X125695000Y-83060664D01*
X125695000Y-82139336D01*
X125765000Y-82139336D01*
X125765000Y-83060665D01*
X125782870Y-83242102D01*
X125853489Y-83474901D01*
X125968168Y-83689449D01*
X126122499Y-83877502D01*
X126310552Y-84031833D01*
X126525100Y-84146511D01*
X126757899Y-84217130D01*
X127000000Y-84240975D01*
X127242102Y-84217130D01*
X127474901Y-84146511D01*
X127689449Y-84031833D01*
X127877502Y-83877502D01*
X128031833Y-83689449D01*
X128146511Y-83474901D01*
X128217130Y-83242101D01*
X128235000Y-83060664D01*
X128235000Y-82139336D01*
X128305000Y-82139336D01*
X128305000Y-83060665D01*
X128322870Y-83242102D01*
X128393489Y-83474901D01*
X128508168Y-83689449D01*
X128662499Y-83877502D01*
X128850552Y-84031833D01*
X129065100Y-84146511D01*
X129297899Y-84217130D01*
X129540000Y-84240975D01*
X129782102Y-84217130D01*
X130014901Y-84146511D01*
X130229449Y-84031833D01*
X130417502Y-83877502D01*
X130571833Y-83689449D01*
X130686511Y-83474901D01*
X130757130Y-83242101D01*
X130775000Y-83060664D01*
X130775000Y-82139336D01*
X130845000Y-82139336D01*
X130845000Y-83060665D01*
X130862870Y-83242102D01*
X130933489Y-83474901D01*
X131048168Y-83689449D01*
X131202499Y-83877502D01*
X131390552Y-84031833D01*
X131605100Y-84146511D01*
X131837899Y-84217130D01*
X132080000Y-84240975D01*
X132322102Y-84217130D01*
X132554901Y-84146511D01*
X132769449Y-84031833D01*
X132957502Y-83877502D01*
X133111833Y-83689449D01*
X133226511Y-83474901D01*
X133297130Y-83242101D01*
X133315000Y-83060664D01*
X133315000Y-82139336D01*
X133385000Y-82139336D01*
X133385000Y-83060665D01*
X133402870Y-83242102D01*
X133473489Y-83474901D01*
X133588168Y-83689449D01*
X133742499Y-83877502D01*
X133930552Y-84031833D01*
X134145100Y-84146511D01*
X134377899Y-84217130D01*
X134620000Y-84240975D01*
X134862102Y-84217130D01*
X135094901Y-84146511D01*
X135309449Y-84031833D01*
X135497502Y-83877502D01*
X135651833Y-83689449D01*
X135766511Y-83474901D01*
X135837130Y-83242101D01*
X135855000Y-83060664D01*
X135855000Y-82139336D01*
X135925000Y-82139336D01*
X135925000Y-83060665D01*
X135942870Y-83242102D01*
X136013489Y-83474901D01*
X136128168Y-83689449D01*
X136282499Y-83877502D01*
X136470552Y-84031833D01*
X136685100Y-84146511D01*
X136917899Y-84217130D01*
X137160000Y-84240975D01*
X137402102Y-84217130D01*
X137634901Y-84146511D01*
X137679798Y-84122513D01*
X141174460Y-84122513D01*
X141174460Y-84322647D01*
X141213504Y-84518936D01*
X141290092Y-84703836D01*
X141401281Y-84870242D01*
X141542798Y-85011759D01*
X141709204Y-85122948D01*
X141894104Y-85199536D01*
X142090393Y-85238580D01*
X142290527Y-85238580D01*
X142486816Y-85199536D01*
X142671716Y-85122948D01*
X142838122Y-85011759D01*
X142979639Y-84870242D01*
X143090828Y-84703836D01*
X143167416Y-84518936D01*
X143206460Y-84322647D01*
X143206460Y-84122513D01*
X143179448Y-83986713D01*
X143809720Y-83986713D01*
X143809720Y-84186847D01*
X143848764Y-84383136D01*
X143925352Y-84568036D01*
X144036541Y-84734442D01*
X144178058Y-84875959D01*
X144344464Y-84987148D01*
X144529364Y-85063736D01*
X144725653Y-85102780D01*
X144925787Y-85102780D01*
X145122076Y-85063736D01*
X145306976Y-84987148D01*
X145473382Y-84875959D01*
X145614899Y-84734442D01*
X145726088Y-84568036D01*
X145802676Y-84383136D01*
X145841720Y-84186847D01*
X145841720Y-83986713D01*
X145827574Y-83915593D01*
X146420840Y-83915593D01*
X146420840Y-84115727D01*
X146459884Y-84312016D01*
X146536472Y-84496916D01*
X146647661Y-84663322D01*
X146789178Y-84804839D01*
X146955584Y-84916028D01*
X147140484Y-84992616D01*
X147336773Y-85031660D01*
X147536907Y-85031660D01*
X147733196Y-84992616D01*
X147918096Y-84916028D01*
X148084502Y-84804839D01*
X148226019Y-84663322D01*
X148337208Y-84496916D01*
X148413796Y-84312016D01*
X148452840Y-84115727D01*
X148452840Y-83915593D01*
X148413796Y-83719304D01*
X148337208Y-83534404D01*
X148226019Y-83367998D01*
X148084502Y-83226481D01*
X147918096Y-83115292D01*
X147733196Y-83038704D01*
X147536907Y-82999660D01*
X147336773Y-82999660D01*
X147140484Y-83038704D01*
X146955584Y-83115292D01*
X146789178Y-83226481D01*
X146647661Y-83367998D01*
X146536472Y-83534404D01*
X146459884Y-83719304D01*
X146420840Y-83915593D01*
X145827574Y-83915593D01*
X145802676Y-83790424D01*
X145726088Y-83605524D01*
X145614899Y-83439118D01*
X145473382Y-83297601D01*
X145306976Y-83186412D01*
X145122076Y-83109824D01*
X144925787Y-83070780D01*
X144725653Y-83070780D01*
X144529364Y-83109824D01*
X144344464Y-83186412D01*
X144178058Y-83297601D01*
X144036541Y-83439118D01*
X143925352Y-83605524D01*
X143848764Y-83790424D01*
X143809720Y-83986713D01*
X143179448Y-83986713D01*
X143167416Y-83926224D01*
X143090828Y-83741324D01*
X142979639Y-83574918D01*
X142838122Y-83433401D01*
X142671716Y-83322212D01*
X142486816Y-83245624D01*
X142290527Y-83206580D01*
X142090393Y-83206580D01*
X141894104Y-83245624D01*
X141709204Y-83322212D01*
X141542798Y-83433401D01*
X141401281Y-83574918D01*
X141290092Y-83741324D01*
X141213504Y-83926224D01*
X141174460Y-84122513D01*
X137679798Y-84122513D01*
X137849449Y-84031833D01*
X138037502Y-83877502D01*
X138191833Y-83689449D01*
X138306511Y-83474901D01*
X138377130Y-83242101D01*
X138395000Y-83060664D01*
X138395000Y-82139336D01*
X153705000Y-82139336D01*
X153705000Y-83060665D01*
X153722870Y-83242102D01*
X153793489Y-83474901D01*
X153908168Y-83689449D01*
X154062499Y-83877502D01*
X154250552Y-84031833D01*
X154465100Y-84146511D01*
X154697899Y-84217130D01*
X154940000Y-84240975D01*
X155182102Y-84217130D01*
X155414901Y-84146511D01*
X155629449Y-84031833D01*
X155817502Y-83877502D01*
X155971833Y-83689449D01*
X156086511Y-83474901D01*
X156157130Y-83242101D01*
X156175000Y-83060664D01*
X156175000Y-82139336D01*
X156245000Y-82139336D01*
X156245000Y-83060665D01*
X156262870Y-83242102D01*
X156333489Y-83474901D01*
X156448168Y-83689449D01*
X156602499Y-83877502D01*
X156790552Y-84031833D01*
X157005100Y-84146511D01*
X157237899Y-84217130D01*
X157480000Y-84240975D01*
X157722102Y-84217130D01*
X157954901Y-84146511D01*
X158169449Y-84031833D01*
X158357502Y-83877502D01*
X158511833Y-83689449D01*
X158626511Y-83474901D01*
X158697130Y-83242101D01*
X158715000Y-83060664D01*
X158715000Y-82139336D01*
X158785000Y-82139336D01*
X158785000Y-83060665D01*
X158802870Y-83242102D01*
X158873489Y-83474901D01*
X158988168Y-83689449D01*
X159142499Y-83877502D01*
X159330552Y-84031833D01*
X159545100Y-84146511D01*
X159777899Y-84217130D01*
X160020000Y-84240975D01*
X160262102Y-84217130D01*
X160494901Y-84146511D01*
X160709449Y-84031833D01*
X160897502Y-83877502D01*
X161051833Y-83689449D01*
X161166511Y-83474901D01*
X161237130Y-83242101D01*
X161255000Y-83060664D01*
X161255000Y-82139336D01*
X161325000Y-82139336D01*
X161325000Y-83060665D01*
X161342870Y-83242102D01*
X161413489Y-83474901D01*
X161528168Y-83689449D01*
X161682499Y-83877502D01*
X161870552Y-84031833D01*
X162085100Y-84146511D01*
X162317899Y-84217130D01*
X162560000Y-84240975D01*
X162802102Y-84217130D01*
X163034901Y-84146511D01*
X163249449Y-84031833D01*
X163437502Y-83877502D01*
X163591833Y-83689449D01*
X163706511Y-83474901D01*
X163777130Y-83242101D01*
X163795000Y-83060664D01*
X163795000Y-82139336D01*
X163865000Y-82139336D01*
X163865000Y-83060665D01*
X163882870Y-83242102D01*
X163953489Y-83474901D01*
X164068168Y-83689449D01*
X164222499Y-83877502D01*
X164410552Y-84031833D01*
X164625100Y-84146511D01*
X164857899Y-84217130D01*
X165100000Y-84240975D01*
X165342102Y-84217130D01*
X165574901Y-84146511D01*
X165789449Y-84031833D01*
X165977502Y-83877502D01*
X166131833Y-83689449D01*
X166246511Y-83474901D01*
X166317130Y-83242101D01*
X166335000Y-83060664D01*
X166335000Y-82139336D01*
X166405000Y-82139336D01*
X166405000Y-83060665D01*
X166422870Y-83242102D01*
X166493489Y-83474901D01*
X166608168Y-83689449D01*
X166762499Y-83877502D01*
X166950552Y-84031833D01*
X167165100Y-84146511D01*
X167397899Y-84217130D01*
X167640000Y-84240975D01*
X167882102Y-84217130D01*
X168114901Y-84146511D01*
X168329449Y-84031833D01*
X168517502Y-83877502D01*
X168671833Y-83689449D01*
X168786511Y-83474901D01*
X168857130Y-83242101D01*
X168875000Y-83060664D01*
X168875000Y-82955393D01*
X169151300Y-82955393D01*
X169151300Y-83155527D01*
X169190344Y-83351816D01*
X169266932Y-83536716D01*
X169378121Y-83703122D01*
X169519638Y-83844639D01*
X169686044Y-83955828D01*
X169870944Y-84032416D01*
X170067233Y-84071460D01*
X170267367Y-84071460D01*
X170463656Y-84032416D01*
X170648556Y-83955828D01*
X170814962Y-83844639D01*
X170956479Y-83703122D01*
X171067668Y-83536716D01*
X171144256Y-83351816D01*
X171183300Y-83155527D01*
X171183300Y-82955393D01*
X171144256Y-82759104D01*
X171138238Y-82744573D01*
X174294800Y-82744573D01*
X174294800Y-82944707D01*
X174333844Y-83140996D01*
X174410432Y-83325896D01*
X174521621Y-83492302D01*
X174663138Y-83633819D01*
X174829544Y-83745008D01*
X175014444Y-83821596D01*
X175210733Y-83860640D01*
X175410867Y-83860640D01*
X175607156Y-83821596D01*
X175792056Y-83745008D01*
X175958462Y-83633819D01*
X176099979Y-83492302D01*
X176211168Y-83325896D01*
X176287756Y-83140996D01*
X176326800Y-82944707D01*
X176326800Y-82744573D01*
X176287756Y-82548284D01*
X176211168Y-82363384D01*
X176099979Y-82196978D01*
X175958462Y-82055461D01*
X175792056Y-81944272D01*
X175607156Y-81867684D01*
X175410867Y-81828640D01*
X175210733Y-81828640D01*
X175014444Y-81867684D01*
X174829544Y-81944272D01*
X174663138Y-82055461D01*
X174521621Y-82196978D01*
X174410432Y-82363384D01*
X174333844Y-82548284D01*
X174294800Y-82744573D01*
X171138238Y-82744573D01*
X171067668Y-82574204D01*
X170956479Y-82407798D01*
X170814962Y-82266281D01*
X170648556Y-82155092D01*
X170463656Y-82078504D01*
X170267367Y-82039460D01*
X170067233Y-82039460D01*
X169870944Y-82078504D01*
X169686044Y-82155092D01*
X169519638Y-82266281D01*
X169378121Y-82407798D01*
X169266932Y-82574204D01*
X169190344Y-82759104D01*
X169151300Y-82955393D01*
X168875000Y-82955393D01*
X168875000Y-82139335D01*
X168857130Y-81957898D01*
X168786511Y-81725099D01*
X168671833Y-81510551D01*
X168517502Y-81322498D01*
X168329448Y-81168167D01*
X168114900Y-81053489D01*
X167895364Y-80986893D01*
X180027580Y-80986893D01*
X180027580Y-81187027D01*
X180066624Y-81383316D01*
X180143212Y-81568216D01*
X180254401Y-81734622D01*
X180395918Y-81876139D01*
X180562324Y-81987328D01*
X180747224Y-82063916D01*
X180943513Y-82102960D01*
X181143647Y-82102960D01*
X181339936Y-82063916D01*
X181524836Y-81987328D01*
X181686764Y-81879131D01*
X181662870Y-81957899D01*
X181645000Y-82139336D01*
X181645000Y-83060665D01*
X181662870Y-83242102D01*
X181733489Y-83474901D01*
X181848168Y-83689449D01*
X182002499Y-83877502D01*
X182190552Y-84031833D01*
X182405100Y-84146511D01*
X182637899Y-84217130D01*
X182880000Y-84240975D01*
X183122102Y-84217130D01*
X183354901Y-84146511D01*
X183569449Y-84031833D01*
X183757502Y-83877502D01*
X183911833Y-83689449D01*
X184026511Y-83474901D01*
X184097130Y-83242101D01*
X184115000Y-83060664D01*
X184115000Y-82139336D01*
X184185000Y-82139336D01*
X184185000Y-83060665D01*
X184202870Y-83242102D01*
X184273489Y-83474901D01*
X184388168Y-83689449D01*
X184542499Y-83877502D01*
X184730552Y-84031833D01*
X184945100Y-84146511D01*
X185177899Y-84217130D01*
X185420000Y-84240975D01*
X185662102Y-84217130D01*
X185894901Y-84146511D01*
X186109449Y-84031833D01*
X186297502Y-83877502D01*
X186451833Y-83689449D01*
X186566511Y-83474901D01*
X186637130Y-83242101D01*
X186655000Y-83060664D01*
X186655000Y-82139336D01*
X186725000Y-82139336D01*
X186725000Y-83060665D01*
X186742870Y-83242102D01*
X186813489Y-83474901D01*
X186928168Y-83689449D01*
X187082499Y-83877502D01*
X187270552Y-84031833D01*
X187485100Y-84146511D01*
X187717899Y-84217130D01*
X187960000Y-84240975D01*
X188202102Y-84217130D01*
X188434901Y-84146511D01*
X188649449Y-84031833D01*
X188837502Y-83877502D01*
X188991833Y-83689449D01*
X189106511Y-83474901D01*
X189177130Y-83242101D01*
X189195000Y-83060664D01*
X189195000Y-82139336D01*
X189265000Y-82139336D01*
X189265000Y-83060665D01*
X189282870Y-83242102D01*
X189353489Y-83474901D01*
X189468168Y-83689449D01*
X189622499Y-83877502D01*
X189810552Y-84031833D01*
X190025100Y-84146511D01*
X190257899Y-84217130D01*
X190500000Y-84240975D01*
X190742102Y-84217130D01*
X190974901Y-84146511D01*
X191189449Y-84031833D01*
X191377502Y-83877502D01*
X191531833Y-83689449D01*
X191646511Y-83474901D01*
X191717130Y-83242101D01*
X191735000Y-83060664D01*
X191735000Y-82139336D01*
X191805000Y-82139336D01*
X191805000Y-83060665D01*
X191822870Y-83242102D01*
X191893489Y-83474901D01*
X192008168Y-83689449D01*
X192162499Y-83877502D01*
X192350552Y-84031833D01*
X192565100Y-84146511D01*
X192797899Y-84217130D01*
X193040000Y-84240975D01*
X193282102Y-84217130D01*
X193514901Y-84146511D01*
X193729449Y-84031833D01*
X193917502Y-83877502D01*
X194071833Y-83689449D01*
X194186511Y-83474901D01*
X194257130Y-83242101D01*
X194275000Y-83060664D01*
X194275000Y-82139335D01*
X194257130Y-81957898D01*
X194186511Y-81725099D01*
X194071833Y-81510551D01*
X193917502Y-81322498D01*
X193729448Y-81168167D01*
X193514900Y-81053489D01*
X193282101Y-80982870D01*
X193040000Y-80959025D01*
X192797898Y-80982870D01*
X192565099Y-81053489D01*
X192350551Y-81168167D01*
X192162498Y-81322498D01*
X192008167Y-81510552D01*
X191893489Y-81725100D01*
X191822870Y-81957899D01*
X191805000Y-82139336D01*
X191735000Y-82139336D01*
X191735000Y-82139335D01*
X191717130Y-81957898D01*
X191646511Y-81725099D01*
X191531833Y-81510551D01*
X191377502Y-81322498D01*
X191189448Y-81168167D01*
X190974900Y-81053489D01*
X190742101Y-80982870D01*
X190500000Y-80959025D01*
X190257898Y-80982870D01*
X190025099Y-81053489D01*
X189810551Y-81168167D01*
X189622498Y-81322498D01*
X189468167Y-81510552D01*
X189353489Y-81725100D01*
X189282870Y-81957899D01*
X189265000Y-82139336D01*
X189195000Y-82139336D01*
X189195000Y-82139335D01*
X189177130Y-81957898D01*
X189106511Y-81725099D01*
X188991833Y-81510551D01*
X188837502Y-81322498D01*
X188649448Y-81168167D01*
X188434900Y-81053489D01*
X188202101Y-80982870D01*
X187960000Y-80959025D01*
X187717898Y-80982870D01*
X187485099Y-81053489D01*
X187270551Y-81168167D01*
X187082498Y-81322498D01*
X186928167Y-81510552D01*
X186813489Y-81725100D01*
X186742870Y-81957899D01*
X186725000Y-82139336D01*
X186655000Y-82139336D01*
X186655000Y-82139335D01*
X186637130Y-81957898D01*
X186566511Y-81725099D01*
X186451833Y-81510551D01*
X186297502Y-81322498D01*
X186109448Y-81168167D01*
X185894900Y-81053489D01*
X185662101Y-80982870D01*
X185420000Y-80959025D01*
X185177898Y-80982870D01*
X184945099Y-81053489D01*
X184730551Y-81168167D01*
X184542498Y-81322498D01*
X184388167Y-81510552D01*
X184273489Y-81725100D01*
X184202870Y-81957899D01*
X184185000Y-82139336D01*
X184115000Y-82139336D01*
X184115000Y-82139335D01*
X184097130Y-81957898D01*
X184026511Y-81725099D01*
X183911833Y-81510551D01*
X183757502Y-81322498D01*
X183569448Y-81168167D01*
X183354900Y-81053489D01*
X183122101Y-80982870D01*
X182880000Y-80959025D01*
X182637898Y-80982870D01*
X182405099Y-81053489D01*
X182190551Y-81168167D01*
X182038512Y-81292942D01*
X182059580Y-81187027D01*
X182059580Y-80986893D01*
X182020536Y-80790604D01*
X181943948Y-80605704D01*
X181832759Y-80439298D01*
X181691242Y-80297781D01*
X181524836Y-80186592D01*
X181339936Y-80110004D01*
X181143647Y-80070960D01*
X180943513Y-80070960D01*
X180747224Y-80110004D01*
X180562324Y-80186592D01*
X180395918Y-80297781D01*
X180254401Y-80439298D01*
X180143212Y-80605704D01*
X180066624Y-80790604D01*
X180027580Y-80986893D01*
X167895364Y-80986893D01*
X167882101Y-80982870D01*
X167640000Y-80959025D01*
X167397898Y-80982870D01*
X167165099Y-81053489D01*
X166950551Y-81168167D01*
X166762498Y-81322498D01*
X166608167Y-81510552D01*
X166493489Y-81725100D01*
X166422870Y-81957899D01*
X166405000Y-82139336D01*
X166335000Y-82139336D01*
X166335000Y-82139335D01*
X166317130Y-81957898D01*
X166246511Y-81725099D01*
X166131833Y-81510551D01*
X165977502Y-81322498D01*
X165789448Y-81168167D01*
X165574900Y-81053489D01*
X165342101Y-80982870D01*
X165100000Y-80959025D01*
X164857898Y-80982870D01*
X164625099Y-81053489D01*
X164410551Y-81168167D01*
X164222498Y-81322498D01*
X164068167Y-81510552D01*
X163953489Y-81725100D01*
X163882870Y-81957899D01*
X163865000Y-82139336D01*
X163795000Y-82139336D01*
X163795000Y-82139335D01*
X163777130Y-81957898D01*
X163706511Y-81725099D01*
X163591833Y-81510551D01*
X163437502Y-81322498D01*
X163249448Y-81168167D01*
X163034900Y-81053489D01*
X162802101Y-80982870D01*
X162560000Y-80959025D01*
X162317898Y-80982870D01*
X162085099Y-81053489D01*
X161870551Y-81168167D01*
X161682498Y-81322498D01*
X161528167Y-81510552D01*
X161413489Y-81725100D01*
X161342870Y-81957899D01*
X161325000Y-82139336D01*
X161255000Y-82139336D01*
X161255000Y-82139335D01*
X161237130Y-81957898D01*
X161166511Y-81725099D01*
X161051833Y-81510551D01*
X160897502Y-81322498D01*
X160709448Y-81168167D01*
X160494900Y-81053489D01*
X160262101Y-80982870D01*
X160020000Y-80959025D01*
X159777898Y-80982870D01*
X159545099Y-81053489D01*
X159330551Y-81168167D01*
X159142498Y-81322498D01*
X158988167Y-81510552D01*
X158873489Y-81725100D01*
X158802870Y-81957899D01*
X158785000Y-82139336D01*
X158715000Y-82139336D01*
X158715000Y-82139335D01*
X158697130Y-81957898D01*
X158626511Y-81725099D01*
X158511833Y-81510551D01*
X158357502Y-81322498D01*
X158169448Y-81168167D01*
X157954900Y-81053489D01*
X157722101Y-80982870D01*
X157480000Y-80959025D01*
X157237898Y-80982870D01*
X157005099Y-81053489D01*
X156790551Y-81168167D01*
X156602498Y-81322498D01*
X156448167Y-81510552D01*
X156333489Y-81725100D01*
X156262870Y-81957899D01*
X156245000Y-82139336D01*
X156175000Y-82139336D01*
X156175000Y-82139335D01*
X156157130Y-81957898D01*
X156086511Y-81725099D01*
X155971833Y-81510551D01*
X155817502Y-81322498D01*
X155629448Y-81168167D01*
X155414900Y-81053489D01*
X155182101Y-80982870D01*
X154940000Y-80959025D01*
X154697898Y-80982870D01*
X154465099Y-81053489D01*
X154250551Y-81168167D01*
X154062498Y-81322498D01*
X153908167Y-81510552D01*
X153793489Y-81725100D01*
X153722870Y-81957899D01*
X153705000Y-82139336D01*
X138395000Y-82139336D01*
X138395000Y-82139335D01*
X138377130Y-81957898D01*
X138306511Y-81725099D01*
X138191833Y-81510551D01*
X138037502Y-81322498D01*
X137849448Y-81168167D01*
X137634900Y-81053489D01*
X137402101Y-80982870D01*
X137160000Y-80959025D01*
X136917898Y-80982870D01*
X136685099Y-81053489D01*
X136470551Y-81168167D01*
X136282498Y-81322498D01*
X136128167Y-81510552D01*
X136013489Y-81725100D01*
X135942870Y-81957899D01*
X135925000Y-82139336D01*
X135855000Y-82139336D01*
X135855000Y-82139335D01*
X135837130Y-81957898D01*
X135766511Y-81725099D01*
X135651833Y-81510551D01*
X135497502Y-81322498D01*
X135309448Y-81168167D01*
X135094900Y-81053489D01*
X134862101Y-80982870D01*
X134620000Y-80959025D01*
X134377898Y-80982870D01*
X134145099Y-81053489D01*
X133930551Y-81168167D01*
X133742498Y-81322498D01*
X133588167Y-81510552D01*
X133473489Y-81725100D01*
X133402870Y-81957899D01*
X133385000Y-82139336D01*
X133315000Y-82139336D01*
X133315000Y-82139335D01*
X133297130Y-81957898D01*
X133226511Y-81725099D01*
X133111833Y-81510551D01*
X132957502Y-81322498D01*
X132769448Y-81168167D01*
X132554900Y-81053489D01*
X132322101Y-80982870D01*
X132080000Y-80959025D01*
X131837898Y-80982870D01*
X131605099Y-81053489D01*
X131390551Y-81168167D01*
X131202498Y-81322498D01*
X131048167Y-81510552D01*
X130933489Y-81725100D01*
X130862870Y-81957899D01*
X130845000Y-82139336D01*
X130775000Y-82139336D01*
X130775000Y-82139335D01*
X130757130Y-81957898D01*
X130686511Y-81725099D01*
X130571833Y-81510551D01*
X130417502Y-81322498D01*
X130229448Y-81168167D01*
X130014900Y-81053489D01*
X129782101Y-80982870D01*
X129540000Y-80959025D01*
X129297898Y-80982870D01*
X129065099Y-81053489D01*
X128850551Y-81168167D01*
X128662498Y-81322498D01*
X128508167Y-81510552D01*
X128393489Y-81725100D01*
X128322870Y-81957899D01*
X128305000Y-82139336D01*
X128235000Y-82139336D01*
X128235000Y-82139335D01*
X128217130Y-81957898D01*
X128146511Y-81725099D01*
X128031833Y-81510551D01*
X127877502Y-81322498D01*
X127689448Y-81168167D01*
X127474900Y-81053489D01*
X127242101Y-80982870D01*
X127000000Y-80959025D01*
X126757898Y-80982870D01*
X126525099Y-81053489D01*
X126310551Y-81168167D01*
X126122498Y-81322498D01*
X125968167Y-81510552D01*
X125853489Y-81725100D01*
X125782870Y-81957899D01*
X125765000Y-82139336D01*
X125695000Y-82139336D01*
X125695000Y-82139335D01*
X125677130Y-81957898D01*
X125606511Y-81725099D01*
X125491833Y-81510551D01*
X125337502Y-81322498D01*
X125149448Y-81168167D01*
X124934900Y-81053489D01*
X124702101Y-80982870D01*
X124460000Y-80959025D01*
X124217898Y-80982870D01*
X123985099Y-81053489D01*
X123770551Y-81168167D01*
X123582498Y-81322498D01*
X123428167Y-81510552D01*
X123313489Y-81725100D01*
X123242870Y-81957899D01*
X123225000Y-82139336D01*
X117789970Y-82139336D01*
X118148217Y-81899964D01*
X118464264Y-81583917D01*
X118712580Y-81212285D01*
X118883624Y-80799349D01*
X118970821Y-80360979D01*
X118970821Y-79914021D01*
X196220779Y-79914021D01*
X196220779Y-80360979D01*
X196307976Y-80799349D01*
X196479020Y-81212285D01*
X196727336Y-81583917D01*
X197043383Y-81899964D01*
X197415015Y-82148280D01*
X197827951Y-82319324D01*
X198266321Y-82406521D01*
X198713279Y-82406521D01*
X199151649Y-82319324D01*
X199564585Y-82148280D01*
X199936217Y-81899964D01*
X200252264Y-81583917D01*
X200500580Y-81212285D01*
X200671624Y-80799349D01*
X200758821Y-80360979D01*
X200758821Y-79914021D01*
X200671624Y-79475651D01*
X200500580Y-79062715D01*
X200252264Y-78691083D01*
X199936217Y-78375036D01*
X199564585Y-78126720D01*
X199151649Y-77955676D01*
X198713279Y-77868479D01*
X198266321Y-77868479D01*
X197827951Y-77955676D01*
X197415015Y-78126720D01*
X197043383Y-78375036D01*
X196727336Y-78691083D01*
X196479020Y-79062715D01*
X196307976Y-79475651D01*
X196220779Y-79914021D01*
X118970821Y-79914021D01*
X118883624Y-79475651D01*
X118712580Y-79062715D01*
X118464264Y-78691083D01*
X118148217Y-78375036D01*
X117776585Y-78126720D01*
X117363649Y-77955676D01*
X116925279Y-77868479D01*
X116478321Y-77868479D01*
X116039951Y-77955676D01*
X115627015Y-78126720D01*
X115255383Y-78375036D01*
X114939336Y-78691083D01*
X114691020Y-79062715D01*
X114519976Y-79475651D01*
X114432779Y-79914021D01*
X113647700Y-79914021D01*
X113647700Y-76647700D01*
X201240000Y-76647700D01*
X201240001Y-109642300D01*
G37*
X201240001Y-109642300D02*
X194634521Y-109642300D01*
X194771018Y-109615149D01*
X195182311Y-109444786D01*
X195552466Y-109197456D01*
X195867256Y-108882666D01*
X196114586Y-108512511D01*
X196284949Y-108101218D01*
X196371800Y-107664591D01*
X196371800Y-107353433D01*
X196479020Y-107612285D01*
X196727336Y-107983917D01*
X197043383Y-108299964D01*
X197415015Y-108548280D01*
X197827951Y-108719324D01*
X198266321Y-108806521D01*
X198713279Y-108806521D01*
X199151649Y-108719324D01*
X199564585Y-108548280D01*
X199936217Y-108299964D01*
X200252264Y-107983917D01*
X200500580Y-107612285D01*
X200671624Y-107199349D01*
X200758821Y-106760979D01*
X200758821Y-106314021D01*
X200671624Y-105875651D01*
X200500580Y-105462715D01*
X200252264Y-105091083D01*
X199936217Y-104775036D01*
X199564585Y-104526720D01*
X199151649Y-104355676D01*
X198713279Y-104268479D01*
X198266321Y-104268479D01*
X197827951Y-104355676D01*
X197415015Y-104526720D01*
X197043383Y-104775036D01*
X196727336Y-105091083D01*
X196479020Y-105462715D01*
X196307976Y-105875651D01*
X196220779Y-106314021D01*
X196220779Y-106627862D01*
X196114586Y-106371489D01*
X195867256Y-106001334D01*
X195552466Y-105686544D01*
X195182311Y-105439214D01*
X194771018Y-105268851D01*
X194334391Y-105182000D01*
X193889209Y-105182000D01*
X193452582Y-105268851D01*
X193041289Y-105439214D01*
X192671134Y-105686544D01*
X192356344Y-106001334D01*
X192109014Y-106371489D01*
X191938651Y-106782782D01*
X191851800Y-107219409D01*
X191851800Y-107664591D01*
X191938651Y-108101218D01*
X192109014Y-108512511D01*
X192356344Y-108882666D01*
X192671134Y-109197456D01*
X193041289Y-109444786D01*
X193452582Y-109615149D01*
X193589079Y-109642300D01*
X184474521Y-109642300D01*
X184611018Y-109615149D01*
X185022311Y-109444786D01*
X185392466Y-109197456D01*
X185707256Y-108882666D01*
X185954586Y-108512511D01*
X186124949Y-108101218D01*
X186211800Y-107664591D01*
X186211800Y-107219409D01*
X186124949Y-106782782D01*
X185954586Y-106371489D01*
X185707256Y-106001334D01*
X185392466Y-105686544D01*
X185022311Y-105439214D01*
X184611018Y-105268851D01*
X184174391Y-105182000D01*
X183729209Y-105182000D01*
X183292582Y-105268851D01*
X182881289Y-105439214D01*
X182511134Y-105686544D01*
X182196344Y-106001334D01*
X181949014Y-106371489D01*
X181778651Y-106782782D01*
X181691800Y-107219409D01*
X181691800Y-107664591D01*
X181778651Y-108101218D01*
X181949014Y-108512511D01*
X182196344Y-108882666D01*
X182511134Y-109197456D01*
X182881289Y-109444786D01*
X183292582Y-109615149D01*
X183429079Y-109642300D01*
X113647700Y-109642300D01*
X113647700Y-106314021D01*
X114432779Y-106314021D01*
X114432779Y-106760979D01*
X114519976Y-107199349D01*
X114691020Y-107612285D01*
X114939336Y-107983917D01*
X115255383Y-108299964D01*
X115627015Y-108548280D01*
X116039951Y-108719324D01*
X116478321Y-108806521D01*
X116925279Y-108806521D01*
X117363649Y-108719324D01*
X117776585Y-108548280D01*
X118148217Y-108299964D01*
X118464264Y-107983917D01*
X118712580Y-107612285D01*
X118883624Y-107199349D01*
X118970821Y-106760979D01*
X118970821Y-106314021D01*
X118883624Y-105875651D01*
X118712580Y-105462715D01*
X118464264Y-105091083D01*
X118148217Y-104775036D01*
X117776585Y-104526720D01*
X117363649Y-104355676D01*
X116925279Y-104268479D01*
X116478321Y-104268479D01*
X116039951Y-104355676D01*
X115627015Y-104526720D01*
X115255383Y-104775036D01*
X114939336Y-105091083D01*
X114691020Y-105462715D01*
X114519976Y-105875651D01*
X114432779Y-106314021D01*
X113647700Y-106314021D01*
X113647700Y-96626691D01*
X114565543Y-96626691D01*
X114569230Y-96664124D01*
X114569229Y-101910162D01*
X114565543Y-101947585D01*
X114569229Y-101985008D01*
X114569229Y-101985010D01*
X114580255Y-102096962D01*
X114623827Y-102240599D01*
X114644130Y-102278583D01*
X114694584Y-102372977D01*
X114701698Y-102381645D01*
X114789807Y-102489007D01*
X114818883Y-102512869D01*
X116138355Y-103832342D01*
X116162212Y-103861412D01*
X116191282Y-103885269D01*
X116278241Y-103956635D01*
X116313809Y-103975646D01*
X116410619Y-104027392D01*
X116554256Y-104070964D01*
X116666208Y-104081990D01*
X116666211Y-104081990D01*
X116703634Y-104085676D01*
X116741057Y-104081990D01*
X117805589Y-104081990D01*
X117832768Y-104109169D01*
X117999174Y-104220358D01*
X118184074Y-104296946D01*
X118380363Y-104335990D01*
X118580497Y-104335990D01*
X118776786Y-104296946D01*
X118961686Y-104220358D01*
X119128092Y-104109169D01*
X119269609Y-103967652D01*
X119380798Y-103801246D01*
X119457386Y-103616346D01*
X119496430Y-103420057D01*
X119496430Y-103219923D01*
X119457386Y-103023634D01*
X119380798Y-102838734D01*
X119269609Y-102672328D01*
X119128092Y-102530811D01*
X118961686Y-102419622D01*
X118776786Y-102343034D01*
X118580497Y-102303990D01*
X118440200Y-102303990D01*
X118440200Y-102223833D01*
X118401156Y-102027544D01*
X118324568Y-101842644D01*
X118213379Y-101676238D01*
X118071862Y-101534721D01*
X117905456Y-101423532D01*
X117720556Y-101346944D01*
X117617240Y-101326393D01*
X117617240Y-101271333D01*
X117578196Y-101075044D01*
X117501608Y-100890144D01*
X117390419Y-100723738D01*
X117363240Y-100696559D01*
X117363240Y-100081747D01*
X119943014Y-97501973D01*
X121376440Y-97501973D01*
X121376440Y-97702107D01*
X121415484Y-97898396D01*
X121492072Y-98083296D01*
X121603261Y-98249702D01*
X121744778Y-98391219D01*
X121911184Y-98502408D01*
X122096084Y-98578996D01*
X122292373Y-98618040D01*
X122492507Y-98618040D01*
X122688796Y-98578996D01*
X122873696Y-98502408D01*
X123040102Y-98391219D01*
X123181619Y-98249702D01*
X123292808Y-98083296D01*
X123369396Y-97898396D01*
X123408440Y-97702107D01*
X123408440Y-97501973D01*
X123369396Y-97305684D01*
X123292808Y-97120784D01*
X123181619Y-96954378D01*
X123040102Y-96812861D01*
X122873696Y-96701672D01*
X122688796Y-96625084D01*
X122492507Y-96586040D01*
X122292373Y-96586040D01*
X122096084Y-96625084D01*
X121911184Y-96701672D01*
X121744778Y-96812861D01*
X121603261Y-96954378D01*
X121492072Y-97120784D01*
X121415484Y-97305684D01*
X121376440Y-97501973D01*
X119943014Y-97501973D01*
X124983333Y-92461654D01*
X125058198Y-92536519D01*
X125224604Y-92647708D01*
X125409504Y-92724296D01*
X125605793Y-92763340D01*
X125644229Y-92763340D01*
X125773576Y-92892687D01*
X125773575Y-97024778D01*
X125273519Y-97524835D01*
X125244449Y-97548692D01*
X125220592Y-97577762D01*
X125220591Y-97577763D01*
X125149225Y-97664722D01*
X125078469Y-97797099D01*
X125034897Y-97940736D01*
X125020184Y-98090114D01*
X125023871Y-98127547D01*
X125023869Y-102306795D01*
X125020183Y-102344219D01*
X125023869Y-102381642D01*
X125023869Y-102381644D01*
X125034895Y-102493596D01*
X125078467Y-102637233D01*
X125103604Y-102684261D01*
X125149224Y-102769611D01*
X125194737Y-102825068D01*
X125244447Y-102885640D01*
X125273517Y-102909497D01*
X131168410Y-108804390D01*
X131192267Y-108833460D01*
X131221337Y-108857317D01*
X131221338Y-108857318D01*
X131308296Y-108928684D01*
X131440673Y-108999440D01*
X131584310Y-109043012D01*
X131733689Y-109057725D01*
X131771122Y-109054038D01*
X136281926Y-109054040D01*
X136319350Y-109057726D01*
X136356773Y-109054040D01*
X136356775Y-109054040D01*
X136468727Y-109043014D01*
X136612364Y-108999442D01*
X136673985Y-108966505D01*
X136744742Y-108928685D01*
X136831701Y-108857319D01*
X136831702Y-108857318D01*
X136860771Y-108833462D01*
X136884628Y-108804392D01*
X139048020Y-106641001D01*
X140717364Y-106641001D01*
X140615732Y-106793104D01*
X140539144Y-106978004D01*
X140500100Y-107174293D01*
X140500100Y-107374427D01*
X140539144Y-107570716D01*
X140615732Y-107755616D01*
X140726921Y-107922022D01*
X140868438Y-108063539D01*
X141034844Y-108174728D01*
X141219744Y-108251316D01*
X141416033Y-108290360D01*
X141616167Y-108290360D01*
X141812456Y-108251316D01*
X141997356Y-108174728D01*
X142163762Y-108063539D01*
X142189301Y-108038000D01*
X143291928Y-108038000D01*
X143304188Y-108162482D01*
X143340498Y-108282180D01*
X143399463Y-108392494D01*
X143478815Y-108489185D01*
X143575506Y-108568537D01*
X143685820Y-108627502D01*
X143805518Y-108663812D01*
X143930000Y-108676072D01*
X144494250Y-108673000D01*
X144653000Y-108514250D01*
X144653000Y-107315000D01*
X143453750Y-107315000D01*
X143295000Y-107473750D01*
X143291928Y-108038000D01*
X142189301Y-108038000D01*
X142305279Y-107922022D01*
X142416468Y-107755616D01*
X142493056Y-107570716D01*
X142532100Y-107374427D01*
X142532100Y-107174293D01*
X142493056Y-106978004D01*
X142416468Y-106793104D01*
X142314836Y-106641001D01*
X143293578Y-106641001D01*
X143295000Y-106902250D01*
X143453750Y-107061000D01*
X144653000Y-107061000D01*
X144653000Y-107041000D01*
X144907000Y-107041000D01*
X144907000Y-107061000D01*
X144927000Y-107061000D01*
X144927000Y-107315000D01*
X144907000Y-107315000D01*
X144907000Y-108514250D01*
X145065750Y-108673000D01*
X145630000Y-108676072D01*
X145754482Y-108663812D01*
X145874180Y-108627502D01*
X145984494Y-108568537D01*
X146081185Y-108489185D01*
X146160537Y-108392494D01*
X146219502Y-108282180D01*
X146241513Y-108209620D01*
X146373368Y-108341475D01*
X146616589Y-108503990D01*
X146886842Y-108615932D01*
X147173740Y-108673000D01*
X147466260Y-108673000D01*
X147753158Y-108615932D01*
X148023411Y-108503990D01*
X148266632Y-108341475D01*
X148473475Y-108134632D01*
X148635990Y-107891411D01*
X148747932Y-107621158D01*
X148805000Y-107334260D01*
X148805000Y-107041740D01*
X148747932Y-106754842D01*
X148635990Y-106484589D01*
X148534626Y-106332886D01*
X152580783Y-102286729D01*
X155020931Y-102286729D01*
X154508307Y-102499065D01*
X153923364Y-102889911D01*
X153425911Y-103387364D01*
X153035065Y-103972307D01*
X152765845Y-104622261D01*
X152628598Y-105312248D01*
X152628598Y-106015752D01*
X152765845Y-106705739D01*
X153035065Y-107355693D01*
X153425911Y-107940636D01*
X153923364Y-108438089D01*
X154508307Y-108828935D01*
X155158261Y-109098155D01*
X155848248Y-109235402D01*
X156551752Y-109235402D01*
X157241739Y-109098155D01*
X157891693Y-108828935D01*
X158476636Y-108438089D01*
X158974089Y-107940636D01*
X159364935Y-107355693D01*
X159634155Y-106705739D01*
X159771402Y-106015752D01*
X159771402Y-105312248D01*
X159634155Y-104622261D01*
X159364935Y-103972307D01*
X158974089Y-103387364D01*
X158476636Y-102889911D01*
X157891693Y-102499065D01*
X157379069Y-102286729D01*
X161300160Y-102286729D01*
X161300160Y-102616291D01*
X161296474Y-102653714D01*
X161300160Y-102691137D01*
X161300160Y-102691139D01*
X161311186Y-102803091D01*
X161354758Y-102946728D01*
X161371859Y-102978721D01*
X161425515Y-103079106D01*
X161459768Y-103120843D01*
X161520738Y-103195136D01*
X161549814Y-103218998D01*
X164343821Y-106013006D01*
X164313500Y-106165440D01*
X164313500Y-106457960D01*
X164370568Y-106744858D01*
X164482510Y-107015111D01*
X164645025Y-107258332D01*
X164851868Y-107465175D01*
X165095089Y-107627690D01*
X165365342Y-107739632D01*
X165652240Y-107796700D01*
X165944760Y-107796700D01*
X166162548Y-107753379D01*
X166464222Y-108055053D01*
X166488079Y-108084123D01*
X166604109Y-108179346D01*
X166736486Y-108250103D01*
X166880123Y-108293675D01*
X166992075Y-108304701D01*
X166992077Y-108304701D01*
X167029500Y-108308387D01*
X167066923Y-108304701D01*
X177702516Y-108304701D01*
X177739939Y-108308387D01*
X177777362Y-108304701D01*
X177777365Y-108304701D01*
X177889317Y-108293675D01*
X178032954Y-108250103D01*
X178165331Y-108179346D01*
X178281361Y-108084123D01*
X178305223Y-108055047D01*
X182189791Y-104170480D01*
X186037897Y-104170480D01*
X186075320Y-104174166D01*
X186112743Y-104170480D01*
X186112746Y-104170480D01*
X186224698Y-104159454D01*
X186368335Y-104115882D01*
X186500712Y-104045125D01*
X186616742Y-103949902D01*
X186640604Y-103920826D01*
X188104290Y-102457141D01*
X188254404Y-102487000D01*
X188529196Y-102487000D01*
X188798707Y-102433391D01*
X189052580Y-102328233D01*
X189281061Y-102175567D01*
X189475367Y-101981261D01*
X189628033Y-101752780D01*
X189661800Y-101671260D01*
X189695567Y-101752780D01*
X189848233Y-101981261D01*
X190042539Y-102175567D01*
X190271020Y-102328233D01*
X190524893Y-102433391D01*
X190794404Y-102487000D01*
X191069196Y-102487000D01*
X191338707Y-102433391D01*
X191592580Y-102328233D01*
X191821061Y-102175567D01*
X192015367Y-101981261D01*
X192168033Y-101752780D01*
X192273191Y-101498907D01*
X192326800Y-101229396D01*
X192326800Y-100954604D01*
X192278742Y-100712999D01*
X192971180Y-100712999D01*
X193008603Y-100716685D01*
X193046026Y-100712999D01*
X193046029Y-100712999D01*
X193157981Y-100701973D01*
X193301618Y-100658401D01*
X193433995Y-100587644D01*
X193550025Y-100492421D01*
X193573887Y-100463345D01*
X197367432Y-96669801D01*
X197396502Y-96645944D01*
X197451293Y-96579181D01*
X197491725Y-96529915D01*
X197544213Y-96431716D01*
X197562482Y-96397537D01*
X197606054Y-96253900D01*
X197617080Y-96141948D01*
X197617080Y-96141945D01*
X197620766Y-96104522D01*
X197617080Y-96067099D01*
X197617080Y-92775241D01*
X197644259Y-92748062D01*
X197755448Y-92581656D01*
X197832036Y-92396756D01*
X197871080Y-92200467D01*
X197871080Y-92000333D01*
X197832036Y-91804044D01*
X197755448Y-91619144D01*
X197644259Y-91452738D01*
X197502742Y-91311221D01*
X197336336Y-91200032D01*
X197151436Y-91123444D01*
X196955147Y-91084400D01*
X196755013Y-91084400D01*
X196558724Y-91123444D01*
X196373824Y-91200032D01*
X196207418Y-91311221D01*
X196180239Y-91338400D01*
X193966006Y-91338400D01*
X194071833Y-91209449D01*
X194186511Y-90994901D01*
X194257130Y-90762101D01*
X194275000Y-90580664D01*
X194275000Y-89659335D01*
X194257130Y-89477898D01*
X194186511Y-89245099D01*
X194071833Y-89030551D01*
X193917502Y-88842498D01*
X193729448Y-88688167D01*
X193514900Y-88573489D01*
X193282101Y-88502870D01*
X193040000Y-88479025D01*
X192797898Y-88502870D01*
X192565099Y-88573489D01*
X192350551Y-88688167D01*
X192162498Y-88842498D01*
X192008167Y-89030552D01*
X191893489Y-89245100D01*
X191822870Y-89477899D01*
X191805000Y-89659336D01*
X191805000Y-90580665D01*
X191822870Y-90762102D01*
X191893489Y-90994901D01*
X192008168Y-91209449D01*
X192113995Y-91338400D01*
X191426006Y-91338400D01*
X191531833Y-91209449D01*
X191646511Y-90994901D01*
X191717130Y-90762101D01*
X191735000Y-90580664D01*
X191735000Y-89659335D01*
X191717130Y-89477898D01*
X191646511Y-89245099D01*
X191531833Y-89030551D01*
X191377502Y-88842498D01*
X191189448Y-88688167D01*
X190974900Y-88573489D01*
X190742101Y-88502870D01*
X190500000Y-88479025D01*
X190257898Y-88502870D01*
X190025099Y-88573489D01*
X189810551Y-88688167D01*
X189622498Y-88842498D01*
X189468167Y-89030552D01*
X189353489Y-89245100D01*
X189282870Y-89477899D01*
X189265000Y-89659336D01*
X189265000Y-90580665D01*
X189282870Y-90762102D01*
X189353489Y-90994901D01*
X189468168Y-91209449D01*
X189573995Y-91338400D01*
X188886006Y-91338400D01*
X188991833Y-91209449D01*
X189106511Y-90994901D01*
X189177130Y-90762101D01*
X189195000Y-90580664D01*
X189195000Y-89659335D01*
X189177130Y-89477898D01*
X189106511Y-89245099D01*
X188991833Y-89030551D01*
X188837502Y-88842498D01*
X188649448Y-88688167D01*
X188434900Y-88573489D01*
X188202101Y-88502870D01*
X187960000Y-88479025D01*
X187717898Y-88502870D01*
X187485099Y-88573489D01*
X187270551Y-88688167D01*
X187082498Y-88842498D01*
X186928167Y-89030552D01*
X186813489Y-89245100D01*
X186742870Y-89477899D01*
X186725000Y-89659336D01*
X186725000Y-90580665D01*
X186742870Y-90762102D01*
X186813489Y-90994901D01*
X186928168Y-91209449D01*
X187033995Y-91338400D01*
X186346006Y-91338400D01*
X186451833Y-91209449D01*
X186566511Y-90994901D01*
X186637130Y-90762101D01*
X186655000Y-90580664D01*
X186655000Y-89659335D01*
X186637130Y-89477898D01*
X186566511Y-89245099D01*
X186451833Y-89030551D01*
X186297502Y-88842498D01*
X186109448Y-88688167D01*
X185894900Y-88573489D01*
X185662101Y-88502870D01*
X185420000Y-88479025D01*
X185177898Y-88502870D01*
X184945099Y-88573489D01*
X184730551Y-88688167D01*
X184542498Y-88842498D01*
X184388167Y-89030552D01*
X184273489Y-89245100D01*
X184202870Y-89477899D01*
X184185000Y-89659336D01*
X184185000Y-90580665D01*
X184202870Y-90762102D01*
X184273489Y-90994901D01*
X184388168Y-91209449D01*
X184493995Y-91338400D01*
X183806006Y-91338400D01*
X183911833Y-91209449D01*
X184026511Y-90994901D01*
X184097130Y-90762101D01*
X184115000Y-90580664D01*
X184115000Y-89659335D01*
X184097130Y-89477898D01*
X184026511Y-89245099D01*
X183911833Y-89030551D01*
X183757502Y-88842498D01*
X183569448Y-88688167D01*
X183354900Y-88573489D01*
X183122101Y-88502870D01*
X182880000Y-88479025D01*
X182637898Y-88502870D01*
X182405099Y-88573489D01*
X182190551Y-88688167D01*
X182002498Y-88842498D01*
X181848167Y-89030552D01*
X181733489Y-89245100D01*
X181662870Y-89477899D01*
X181645000Y-89659336D01*
X181645000Y-90580665D01*
X181662870Y-90762102D01*
X181733489Y-90994901D01*
X181848168Y-91209449D01*
X181953995Y-91338400D01*
X172764921Y-91338400D01*
X172737742Y-91311221D01*
X172571336Y-91200032D01*
X172386436Y-91123444D01*
X172190147Y-91084400D01*
X171990013Y-91084400D01*
X171793724Y-91123444D01*
X171608824Y-91200032D01*
X171442418Y-91311221D01*
X171415239Y-91338400D01*
X168566006Y-91338400D01*
X168671833Y-91209449D01*
X168786511Y-90994901D01*
X168857130Y-90762101D01*
X168875000Y-90580664D01*
X168875000Y-89659335D01*
X168857130Y-89477898D01*
X168786511Y-89245099D01*
X168671833Y-89030551D01*
X168517502Y-88842498D01*
X168329448Y-88688167D01*
X168114900Y-88573489D01*
X167882101Y-88502870D01*
X167640000Y-88479025D01*
X167397898Y-88502870D01*
X167165099Y-88573489D01*
X166950551Y-88688167D01*
X166762498Y-88842498D01*
X166608167Y-89030552D01*
X166493489Y-89245100D01*
X166422870Y-89477899D01*
X166405000Y-89659336D01*
X166405000Y-90580665D01*
X166422870Y-90762102D01*
X166493489Y-90994901D01*
X166608168Y-91209449D01*
X166713995Y-91338400D01*
X166026006Y-91338400D01*
X166131833Y-91209449D01*
X166246511Y-90994901D01*
X166317130Y-90762101D01*
X166335000Y-90580664D01*
X166335000Y-89659335D01*
X166317130Y-89477898D01*
X166246511Y-89245099D01*
X166131833Y-89030551D01*
X165977502Y-88842498D01*
X165789448Y-88688167D01*
X165574900Y-88573489D01*
X165342101Y-88502870D01*
X165100000Y-88479025D01*
X164857898Y-88502870D01*
X164625099Y-88573489D01*
X164410551Y-88688167D01*
X164222498Y-88842498D01*
X164068167Y-89030552D01*
X163953489Y-89245100D01*
X163882870Y-89477899D01*
X163865000Y-89659336D01*
X163865000Y-90580665D01*
X163882870Y-90762102D01*
X163953489Y-90994901D01*
X164068168Y-91209449D01*
X164173995Y-91338400D01*
X163486006Y-91338400D01*
X163591833Y-91209449D01*
X163706511Y-90994901D01*
X163777130Y-90762101D01*
X163795000Y-90580664D01*
X163795000Y-89659335D01*
X163777130Y-89477898D01*
X163706511Y-89245099D01*
X163591833Y-89030551D01*
X163437502Y-88842498D01*
X163249448Y-88688167D01*
X163034900Y-88573489D01*
X162802101Y-88502870D01*
X162560000Y-88479025D01*
X162317898Y-88502870D01*
X162085099Y-88573489D01*
X161870551Y-88688167D01*
X161682498Y-88842498D01*
X161528167Y-89030552D01*
X161413489Y-89245100D01*
X161342870Y-89477899D01*
X161325000Y-89659336D01*
X161325000Y-90580665D01*
X161342870Y-90762102D01*
X161413489Y-90994901D01*
X161528168Y-91209449D01*
X161633995Y-91338400D01*
X160946006Y-91338400D01*
X161051833Y-91209449D01*
X161166511Y-90994901D01*
X161237130Y-90762101D01*
X161255000Y-90580664D01*
X161255000Y-89659335D01*
X161237130Y-89477898D01*
X161166511Y-89245099D01*
X161051833Y-89030551D01*
X160897502Y-88842498D01*
X160709448Y-88688167D01*
X160494900Y-88573489D01*
X160262101Y-88502870D01*
X160020000Y-88479025D01*
X159777898Y-88502870D01*
X159545099Y-88573489D01*
X159330551Y-88688167D01*
X159142498Y-88842498D01*
X158988167Y-89030552D01*
X158873489Y-89245100D01*
X158802870Y-89477899D01*
X158785000Y-89659336D01*
X158785000Y-90580665D01*
X158802870Y-90762102D01*
X158873489Y-90994901D01*
X158988168Y-91209449D01*
X159093995Y-91338400D01*
X158406006Y-91338400D01*
X158511833Y-91209449D01*
X158626511Y-90994901D01*
X158697130Y-90762101D01*
X158715000Y-90580664D01*
X158715000Y-89659335D01*
X158697130Y-89477898D01*
X158626511Y-89245099D01*
X158511833Y-89030551D01*
X158357502Y-88842498D01*
X158169448Y-88688167D01*
X157954900Y-88573489D01*
X157722101Y-88502870D01*
X157480000Y-88479025D01*
X157237898Y-88502870D01*
X157005099Y-88573489D01*
X156790551Y-88688167D01*
X156602498Y-88842498D01*
X156448167Y-89030552D01*
X156333489Y-89245100D01*
X156262870Y-89477899D01*
X156245000Y-89659336D01*
X156245000Y-90580665D01*
X156262870Y-90762102D01*
X156333489Y-90994901D01*
X156448168Y-91209449D01*
X156553995Y-91338400D01*
X155866006Y-91338400D01*
X155971833Y-91209449D01*
X156086511Y-90994901D01*
X156157130Y-90762101D01*
X156175000Y-90580664D01*
X156175000Y-89659335D01*
X156157130Y-89477898D01*
X156086511Y-89245099D01*
X155971833Y-89030551D01*
X155817502Y-88842498D01*
X155629448Y-88688167D01*
X155414900Y-88573489D01*
X155182101Y-88502870D01*
X154940000Y-88479025D01*
X154697898Y-88502870D01*
X154465099Y-88573489D01*
X154250551Y-88688167D01*
X154062498Y-88842498D01*
X153908167Y-89030552D01*
X153793489Y-89245100D01*
X153722870Y-89477899D01*
X153705000Y-89659336D01*
X153705000Y-90580665D01*
X153722870Y-90762102D01*
X153793489Y-90994901D01*
X153908168Y-91209449D01*
X154013995Y-91338400D01*
X148915791Y-91338400D01*
X148247100Y-90669710D01*
X148247100Y-90631273D01*
X148208056Y-90434984D01*
X148131468Y-90250084D01*
X148020279Y-90083678D01*
X147878762Y-89942161D01*
X147712356Y-89830972D01*
X147527456Y-89754384D01*
X147331167Y-89715340D01*
X147131033Y-89715340D01*
X146934744Y-89754384D01*
X146749844Y-89830972D01*
X146583438Y-89942161D01*
X146441921Y-90083678D01*
X146330732Y-90250084D01*
X146254144Y-90434984D01*
X146215100Y-90631273D01*
X146215100Y-90831407D01*
X146254144Y-91027696D01*
X146330732Y-91212596D01*
X146441921Y-91379002D01*
X146583438Y-91520519D01*
X146749844Y-91631708D01*
X146934744Y-91708296D01*
X147131033Y-91747340D01*
X147169470Y-91747340D01*
X147865429Y-92443300D01*
X142845189Y-92443300D01*
X141808135Y-91406246D01*
X141903959Y-91310422D01*
X142015148Y-91144016D01*
X142091736Y-90959116D01*
X142130780Y-90762827D01*
X142130780Y-90562693D01*
X142091736Y-90366404D01*
X142015148Y-90181504D01*
X141903959Y-90015098D01*
X141762442Y-89873581D01*
X141596036Y-89762392D01*
X141411136Y-89685804D01*
X141214847Y-89646760D01*
X141014713Y-89646760D01*
X140819083Y-89685673D01*
X138852045Y-87718635D01*
X138828183Y-87689559D01*
X138712153Y-87594336D01*
X138579776Y-87523579D01*
X138436139Y-87480007D01*
X138324187Y-87468981D01*
X138324184Y-87468981D01*
X138286761Y-87465295D01*
X138249338Y-87468981D01*
X123880650Y-87468981D01*
X123843227Y-87465295D01*
X123805804Y-87468981D01*
X123805802Y-87468981D01*
X123693850Y-87480007D01*
X123550213Y-87523579D01*
X123488592Y-87556516D01*
X123417835Y-87594336D01*
X123335132Y-87662209D01*
X123301806Y-87689559D01*
X123277949Y-87718629D01*
X115599776Y-95396803D01*
X115543685Y-95413818D01*
X115482064Y-95446755D01*
X115411307Y-95484575D01*
X115368919Y-95519363D01*
X115295278Y-95579798D01*
X115271416Y-95608874D01*
X114818878Y-96061412D01*
X114789808Y-96085269D01*
X114765951Y-96114339D01*
X114765950Y-96114340D01*
X114694584Y-96201299D01*
X114623828Y-96333676D01*
X114580256Y-96477313D01*
X114565543Y-96626691D01*
X113647700Y-96626691D01*
X113647700Y-79914021D01*
X114432779Y-79914021D01*
X114432779Y-80360979D01*
X114519976Y-80799349D01*
X114691020Y-81212285D01*
X114939336Y-81583917D01*
X115255383Y-81899964D01*
X115627015Y-82148280D01*
X116039951Y-82319324D01*
X116478321Y-82406521D01*
X116925279Y-82406521D01*
X117363649Y-82319324D01*
X117776585Y-82148280D01*
X117789970Y-82139336D01*
X123225000Y-82139336D01*
X123225000Y-83060665D01*
X123242870Y-83242102D01*
X123313489Y-83474901D01*
X123428168Y-83689449D01*
X123582499Y-83877502D01*
X123770552Y-84031833D01*
X123985100Y-84146511D01*
X124217899Y-84217130D01*
X124460000Y-84240975D01*
X124702102Y-84217130D01*
X124934901Y-84146511D01*
X125149449Y-84031833D01*
X125337502Y-83877502D01*
X125491833Y-83689449D01*
X125606511Y-83474901D01*
X125677130Y-83242101D01*
X125695000Y-83060664D01*
X125695000Y-82139336D01*
X125765000Y-82139336D01*
X125765000Y-83060665D01*
X125782870Y-83242102D01*
X125853489Y-83474901D01*
X125968168Y-83689449D01*
X126122499Y-83877502D01*
X126310552Y-84031833D01*
X126525100Y-84146511D01*
X126757899Y-84217130D01*
X127000000Y-84240975D01*
X127242102Y-84217130D01*
X127474901Y-84146511D01*
X127689449Y-84031833D01*
X127877502Y-83877502D01*
X128031833Y-83689449D01*
X128146511Y-83474901D01*
X128217130Y-83242101D01*
X128235000Y-83060664D01*
X128235000Y-82139336D01*
X128305000Y-82139336D01*
X128305000Y-83060665D01*
X128322870Y-83242102D01*
X128393489Y-83474901D01*
X128508168Y-83689449D01*
X128662499Y-83877502D01*
X128850552Y-84031833D01*
X129065100Y-84146511D01*
X129297899Y-84217130D01*
X129540000Y-84240975D01*
X129782102Y-84217130D01*
X130014901Y-84146511D01*
X130229449Y-84031833D01*
X130417502Y-83877502D01*
X130571833Y-83689449D01*
X130686511Y-83474901D01*
X130757130Y-83242101D01*
X130775000Y-83060664D01*
X130775000Y-82139336D01*
X130845000Y-82139336D01*
X130845000Y-83060665D01*
X130862870Y-83242102D01*
X130933489Y-83474901D01*
X131048168Y-83689449D01*
X131202499Y-83877502D01*
X131390552Y-84031833D01*
X131605100Y-84146511D01*
X131837899Y-84217130D01*
X132080000Y-84240975D01*
X132322102Y-84217130D01*
X132554901Y-84146511D01*
X132769449Y-84031833D01*
X132957502Y-83877502D01*
X133111833Y-83689449D01*
X133226511Y-83474901D01*
X133297130Y-83242101D01*
X133315000Y-83060664D01*
X133315000Y-82139336D01*
X133385000Y-82139336D01*
X133385000Y-83060665D01*
X133402870Y-83242102D01*
X133473489Y-83474901D01*
X133588168Y-83689449D01*
X133742499Y-83877502D01*
X133930552Y-84031833D01*
X134145100Y-84146511D01*
X134377899Y-84217130D01*
X134620000Y-84240975D01*
X134862102Y-84217130D01*
X135094901Y-84146511D01*
X135309449Y-84031833D01*
X135497502Y-83877502D01*
X135651833Y-83689449D01*
X135766511Y-83474901D01*
X135837130Y-83242101D01*
X135855000Y-83060664D01*
X135855000Y-82139336D01*
X135925000Y-82139336D01*
X135925000Y-83060665D01*
X135942870Y-83242102D01*
X136013489Y-83474901D01*
X136128168Y-83689449D01*
X136282499Y-83877502D01*
X136470552Y-84031833D01*
X136685100Y-84146511D01*
X136917899Y-84217130D01*
X137160000Y-84240975D01*
X137402102Y-84217130D01*
X137634901Y-84146511D01*
X137679798Y-84122513D01*
X141174460Y-84122513D01*
X141174460Y-84322647D01*
X141213504Y-84518936D01*
X141290092Y-84703836D01*
X141401281Y-84870242D01*
X141542798Y-85011759D01*
X141709204Y-85122948D01*
X141894104Y-85199536D01*
X142090393Y-85238580D01*
X142290527Y-85238580D01*
X142486816Y-85199536D01*
X142671716Y-85122948D01*
X142838122Y-85011759D01*
X142979639Y-84870242D01*
X143090828Y-84703836D01*
X143167416Y-84518936D01*
X143206460Y-84322647D01*
X143206460Y-84122513D01*
X143179448Y-83986713D01*
X143809720Y-83986713D01*
X143809720Y-84186847D01*
X143848764Y-84383136D01*
X143925352Y-84568036D01*
X144036541Y-84734442D01*
X144178058Y-84875959D01*
X144344464Y-84987148D01*
X144529364Y-85063736D01*
X144725653Y-85102780D01*
X144925787Y-85102780D01*
X145122076Y-85063736D01*
X145306976Y-84987148D01*
X145473382Y-84875959D01*
X145614899Y-84734442D01*
X145726088Y-84568036D01*
X145802676Y-84383136D01*
X145841720Y-84186847D01*
X145841720Y-83986713D01*
X145827574Y-83915593D01*
X146420840Y-83915593D01*
X146420840Y-84115727D01*
X146459884Y-84312016D01*
X146536472Y-84496916D01*
X146647661Y-84663322D01*
X146789178Y-84804839D01*
X146955584Y-84916028D01*
X147140484Y-84992616D01*
X147336773Y-85031660D01*
X147536907Y-85031660D01*
X147733196Y-84992616D01*
X147918096Y-84916028D01*
X148084502Y-84804839D01*
X148226019Y-84663322D01*
X148337208Y-84496916D01*
X148413796Y-84312016D01*
X148452840Y-84115727D01*
X148452840Y-83915593D01*
X148413796Y-83719304D01*
X148337208Y-83534404D01*
X148226019Y-83367998D01*
X148084502Y-83226481D01*
X147918096Y-83115292D01*
X147733196Y-83038704D01*
X147536907Y-82999660D01*
X147336773Y-82999660D01*
X147140484Y-83038704D01*
X146955584Y-83115292D01*
X146789178Y-83226481D01*
X146647661Y-83367998D01*
X146536472Y-83534404D01*
X146459884Y-83719304D01*
X146420840Y-83915593D01*
X145827574Y-83915593D01*
X145802676Y-83790424D01*
X145726088Y-83605524D01*
X145614899Y-83439118D01*
X145473382Y-83297601D01*
X145306976Y-83186412D01*
X145122076Y-83109824D01*
X144925787Y-83070780D01*
X144725653Y-83070780D01*
X144529364Y-83109824D01*
X144344464Y-83186412D01*
X144178058Y-83297601D01*
X144036541Y-83439118D01*
X143925352Y-83605524D01*
X143848764Y-83790424D01*
X143809720Y-83986713D01*
X143179448Y-83986713D01*
X143167416Y-83926224D01*
X143090828Y-83741324D01*
X142979639Y-83574918D01*
X142838122Y-83433401D01*
X142671716Y-83322212D01*
X142486816Y-83245624D01*
X142290527Y-83206580D01*
X142090393Y-83206580D01*
X141894104Y-83245624D01*
X141709204Y-83322212D01*
X141542798Y-83433401D01*
X141401281Y-83574918D01*
X141290092Y-83741324D01*
X141213504Y-83926224D01*
X141174460Y-84122513D01*
X137679798Y-84122513D01*
X137849449Y-84031833D01*
X138037502Y-83877502D01*
X138191833Y-83689449D01*
X138306511Y-83474901D01*
X138377130Y-83242101D01*
X138395000Y-83060664D01*
X138395000Y-82139336D01*
X153705000Y-82139336D01*
X153705000Y-83060665D01*
X153722870Y-83242102D01*
X153793489Y-83474901D01*
X153908168Y-83689449D01*
X154062499Y-83877502D01*
X154250552Y-84031833D01*
X154465100Y-84146511D01*
X154697899Y-84217130D01*
X154940000Y-84240975D01*
X155182102Y-84217130D01*
X155414901Y-84146511D01*
X155629449Y-84031833D01*
X155817502Y-83877502D01*
X155971833Y-83689449D01*
X156086511Y-83474901D01*
X156157130Y-83242101D01*
X156175000Y-83060664D01*
X156175000Y-82139336D01*
X156245000Y-82139336D01*
X156245000Y-83060665D01*
X156262870Y-83242102D01*
X156333489Y-83474901D01*
X156448168Y-83689449D01*
X156602499Y-83877502D01*
X156790552Y-84031833D01*
X157005100Y-84146511D01*
X157237899Y-84217130D01*
X157480000Y-84240975D01*
X157722102Y-84217130D01*
X157954901Y-84146511D01*
X158169449Y-84031833D01*
X158357502Y-83877502D01*
X158511833Y-83689449D01*
X158626511Y-83474901D01*
X158697130Y-83242101D01*
X158715000Y-83060664D01*
X158715000Y-82139336D01*
X158785000Y-82139336D01*
X158785000Y-83060665D01*
X158802870Y-83242102D01*
X158873489Y-83474901D01*
X158988168Y-83689449D01*
X159142499Y-83877502D01*
X159330552Y-84031833D01*
X159545100Y-84146511D01*
X159777899Y-84217130D01*
X160020000Y-84240975D01*
X160262102Y-84217130D01*
X160494901Y-84146511D01*
X160709449Y-84031833D01*
X160897502Y-83877502D01*
X161051833Y-83689449D01*
X161166511Y-83474901D01*
X161237130Y-83242101D01*
X161255000Y-83060664D01*
X161255000Y-82139336D01*
X161325000Y-82139336D01*
X161325000Y-83060665D01*
X161342870Y-83242102D01*
X161413489Y-83474901D01*
X161528168Y-83689449D01*
X161682499Y-83877502D01*
X161870552Y-84031833D01*
X162085100Y-84146511D01*
X162317899Y-84217130D01*
X162560000Y-84240975D01*
X162802102Y-84217130D01*
X163034901Y-84146511D01*
X163249449Y-84031833D01*
X163437502Y-83877502D01*
X163591833Y-83689449D01*
X163706511Y-83474901D01*
X163777130Y-83242101D01*
X163795000Y-83060664D01*
X163795000Y-82139336D01*
X163865000Y-82139336D01*
X163865000Y-83060665D01*
X163882870Y-83242102D01*
X163953489Y-83474901D01*
X164068168Y-83689449D01*
X164222499Y-83877502D01*
X164410552Y-84031833D01*
X164625100Y-84146511D01*
X164857899Y-84217130D01*
X165100000Y-84240975D01*
X165342102Y-84217130D01*
X165574901Y-84146511D01*
X165789449Y-84031833D01*
X165977502Y-83877502D01*
X166131833Y-83689449D01*
X166246511Y-83474901D01*
X166317130Y-83242101D01*
X166335000Y-83060664D01*
X166335000Y-82139336D01*
X166405000Y-82139336D01*
X166405000Y-83060665D01*
X166422870Y-83242102D01*
X166493489Y-83474901D01*
X166608168Y-83689449D01*
X166762499Y-83877502D01*
X166950552Y-84031833D01*
X167165100Y-84146511D01*
X167397899Y-84217130D01*
X167640000Y-84240975D01*
X167882102Y-84217130D01*
X168114901Y-84146511D01*
X168329449Y-84031833D01*
X168517502Y-83877502D01*
X168671833Y-83689449D01*
X168786511Y-83474901D01*
X168857130Y-83242101D01*
X168875000Y-83060664D01*
X168875000Y-82955393D01*
X169151300Y-82955393D01*
X169151300Y-83155527D01*
X169190344Y-83351816D01*
X169266932Y-83536716D01*
X169378121Y-83703122D01*
X169519638Y-83844639D01*
X169686044Y-83955828D01*
X169870944Y-84032416D01*
X170067233Y-84071460D01*
X170267367Y-84071460D01*
X170463656Y-84032416D01*
X170648556Y-83955828D01*
X170814962Y-83844639D01*
X170956479Y-83703122D01*
X171067668Y-83536716D01*
X171144256Y-83351816D01*
X171183300Y-83155527D01*
X171183300Y-82955393D01*
X171144256Y-82759104D01*
X171138238Y-82744573D01*
X174294800Y-82744573D01*
X174294800Y-82944707D01*
X174333844Y-83140996D01*
X174410432Y-83325896D01*
X174521621Y-83492302D01*
X174663138Y-83633819D01*
X174829544Y-83745008D01*
X175014444Y-83821596D01*
X175210733Y-83860640D01*
X175410867Y-83860640D01*
X175607156Y-83821596D01*
X175792056Y-83745008D01*
X175958462Y-83633819D01*
X176099979Y-83492302D01*
X176211168Y-83325896D01*
X176287756Y-83140996D01*
X176326800Y-82944707D01*
X176326800Y-82744573D01*
X176287756Y-82548284D01*
X176211168Y-82363384D01*
X176099979Y-82196978D01*
X175958462Y-82055461D01*
X175792056Y-81944272D01*
X175607156Y-81867684D01*
X175410867Y-81828640D01*
X175210733Y-81828640D01*
X175014444Y-81867684D01*
X174829544Y-81944272D01*
X174663138Y-82055461D01*
X174521621Y-82196978D01*
X174410432Y-82363384D01*
X174333844Y-82548284D01*
X174294800Y-82744573D01*
X171138238Y-82744573D01*
X171067668Y-82574204D01*
X170956479Y-82407798D01*
X170814962Y-82266281D01*
X170648556Y-82155092D01*
X170463656Y-82078504D01*
X170267367Y-82039460D01*
X170067233Y-82039460D01*
X169870944Y-82078504D01*
X169686044Y-82155092D01*
X169519638Y-82266281D01*
X169378121Y-82407798D01*
X169266932Y-82574204D01*
X169190344Y-82759104D01*
X169151300Y-82955393D01*
X168875000Y-82955393D01*
X168875000Y-82139335D01*
X168857130Y-81957898D01*
X168786511Y-81725099D01*
X168671833Y-81510551D01*
X168517502Y-81322498D01*
X168329448Y-81168167D01*
X168114900Y-81053489D01*
X167895364Y-80986893D01*
X180027580Y-80986893D01*
X180027580Y-81187027D01*
X180066624Y-81383316D01*
X180143212Y-81568216D01*
X180254401Y-81734622D01*
X180395918Y-81876139D01*
X180562324Y-81987328D01*
X180747224Y-82063916D01*
X180943513Y-82102960D01*
X181143647Y-82102960D01*
X181339936Y-82063916D01*
X181524836Y-81987328D01*
X181686764Y-81879131D01*
X181662870Y-81957899D01*
X181645000Y-82139336D01*
X181645000Y-83060665D01*
X181662870Y-83242102D01*
X181733489Y-83474901D01*
X181848168Y-83689449D01*
X182002499Y-83877502D01*
X182190552Y-84031833D01*
X182405100Y-84146511D01*
X182637899Y-84217130D01*
X182880000Y-84240975D01*
X183122102Y-84217130D01*
X183354901Y-84146511D01*
X183569449Y-84031833D01*
X183757502Y-83877502D01*
X183911833Y-83689449D01*
X184026511Y-83474901D01*
X184097130Y-83242101D01*
X184115000Y-83060664D01*
X184115000Y-82139336D01*
X184185000Y-82139336D01*
X184185000Y-83060665D01*
X184202870Y-83242102D01*
X184273489Y-83474901D01*
X184388168Y-83689449D01*
X184542499Y-83877502D01*
X184730552Y-84031833D01*
X184945100Y-84146511D01*
X185177899Y-84217130D01*
X185420000Y-84240975D01*
X185662102Y-84217130D01*
X185894901Y-84146511D01*
X186109449Y-84031833D01*
X186297502Y-83877502D01*
X186451833Y-83689449D01*
X186566511Y-83474901D01*
X186637130Y-83242101D01*
X186655000Y-83060664D01*
X186655000Y-82139336D01*
X186725000Y-82139336D01*
X186725000Y-83060665D01*
X186742870Y-83242102D01*
X186813489Y-83474901D01*
X186928168Y-83689449D01*
X187082499Y-83877502D01*
X187270552Y-84031833D01*
X187485100Y-84146511D01*
X187717899Y-84217130D01*
X187960000Y-84240975D01*
X188202102Y-84217130D01*
X188434901Y-84146511D01*
X188649449Y-84031833D01*
X188837502Y-83877502D01*
X188991833Y-83689449D01*
X189106511Y-83474901D01*
X189177130Y-83242101D01*
X189195000Y-83060664D01*
X189195000Y-82139336D01*
X189265000Y-82139336D01*
X189265000Y-83060665D01*
X189282870Y-83242102D01*
X189353489Y-83474901D01*
X189468168Y-83689449D01*
X189622499Y-83877502D01*
X189810552Y-84031833D01*
X190025100Y-84146511D01*
X190257899Y-84217130D01*
X190500000Y-84240975D01*
X190742102Y-84217130D01*
X190974901Y-84146511D01*
X191189449Y-84031833D01*
X191377502Y-83877502D01*
X191531833Y-83689449D01*
X191646511Y-83474901D01*
X191717130Y-83242101D01*
X191735000Y-83060664D01*
X191735000Y-82139336D01*
X191805000Y-82139336D01*
X191805000Y-83060665D01*
X191822870Y-83242102D01*
X191893489Y-83474901D01*
X192008168Y-83689449D01*
X192162499Y-83877502D01*
X192350552Y-84031833D01*
X192565100Y-84146511D01*
X192797899Y-84217130D01*
X193040000Y-84240975D01*
X193282102Y-84217130D01*
X193514901Y-84146511D01*
X193729449Y-84031833D01*
X193917502Y-83877502D01*
X194071833Y-83689449D01*
X194186511Y-83474901D01*
X194257130Y-83242101D01*
X194275000Y-83060664D01*
X194275000Y-82139335D01*
X194257130Y-81957898D01*
X194186511Y-81725099D01*
X194071833Y-81510551D01*
X193917502Y-81322498D01*
X193729448Y-81168167D01*
X193514900Y-81053489D01*
X193282101Y-80982870D01*
X193040000Y-80959025D01*
X192797898Y-80982870D01*
X192565099Y-81053489D01*
X192350551Y-81168167D01*
X192162498Y-81322498D01*
X192008167Y-81510552D01*
X191893489Y-81725100D01*
X191822870Y-81957899D01*
X191805000Y-82139336D01*
X191735000Y-82139336D01*
X191735000Y-82139335D01*
X191717130Y-81957898D01*
X191646511Y-81725099D01*
X191531833Y-81510551D01*
X191377502Y-81322498D01*
X191189448Y-81168167D01*
X190974900Y-81053489D01*
X190742101Y-80982870D01*
X190500000Y-80959025D01*
X190257898Y-80982870D01*
X190025099Y-81053489D01*
X189810551Y-81168167D01*
X189622498Y-81322498D01*
X189468167Y-81510552D01*
X189353489Y-81725100D01*
X189282870Y-81957899D01*
X189265000Y-82139336D01*
X189195000Y-82139336D01*
X189195000Y-82139335D01*
X189177130Y-81957898D01*
X189106511Y-81725099D01*
X188991833Y-81510551D01*
X188837502Y-81322498D01*
X188649448Y-81168167D01*
X188434900Y-81053489D01*
X188202101Y-80982870D01*
X187960000Y-80959025D01*
X187717898Y-80982870D01*
X187485099Y-81053489D01*
X187270551Y-81168167D01*
X187082498Y-81322498D01*
X186928167Y-81510552D01*
X186813489Y-81725100D01*
X186742870Y-81957899D01*
X186725000Y-82139336D01*
X186655000Y-82139336D01*
X186655000Y-82139335D01*
X186637130Y-81957898D01*
X186566511Y-81725099D01*
X186451833Y-81510551D01*
X186297502Y-81322498D01*
X186109448Y-81168167D01*
X185894900Y-81053489D01*
X185662101Y-80982870D01*
X185420000Y-80959025D01*
X185177898Y-80982870D01*
X184945099Y-81053489D01*
X184730551Y-81168167D01*
X184542498Y-81322498D01*
X184388167Y-81510552D01*
X184273489Y-81725100D01*
X184202870Y-81957899D01*
X184185000Y-82139336D01*
X184115000Y-82139336D01*
X184115000Y-82139335D01*
X184097130Y-81957898D01*
X184026511Y-81725099D01*
X183911833Y-81510551D01*
X183757502Y-81322498D01*
X183569448Y-81168167D01*
X183354900Y-81053489D01*
X183122101Y-80982870D01*
X182880000Y-80959025D01*
X182637898Y-80982870D01*
X182405099Y-81053489D01*
X182190551Y-81168167D01*
X182038512Y-81292942D01*
X182059580Y-81187027D01*
X182059580Y-80986893D01*
X182020536Y-80790604D01*
X181943948Y-80605704D01*
X181832759Y-80439298D01*
X181691242Y-80297781D01*
X181524836Y-80186592D01*
X181339936Y-80110004D01*
X181143647Y-80070960D01*
X180943513Y-80070960D01*
X180747224Y-80110004D01*
X180562324Y-80186592D01*
X180395918Y-80297781D01*
X180254401Y-80439298D01*
X180143212Y-80605704D01*
X180066624Y-80790604D01*
X180027580Y-80986893D01*
X167895364Y-80986893D01*
X167882101Y-80982870D01*
X167640000Y-80959025D01*
X167397898Y-80982870D01*
X167165099Y-81053489D01*
X166950551Y-81168167D01*
X166762498Y-81322498D01*
X166608167Y-81510552D01*
X166493489Y-81725100D01*
X166422870Y-81957899D01*
X166405000Y-82139336D01*
X166335000Y-82139336D01*
X166335000Y-82139335D01*
X166317130Y-81957898D01*
X166246511Y-81725099D01*
X166131833Y-81510551D01*
X165977502Y-81322498D01*
X165789448Y-81168167D01*
X165574900Y-81053489D01*
X165342101Y-80982870D01*
X165100000Y-80959025D01*
X164857898Y-80982870D01*
X164625099Y-81053489D01*
X164410551Y-81168167D01*
X164222498Y-81322498D01*
X164068167Y-81510552D01*
X163953489Y-81725100D01*
X163882870Y-81957899D01*
X163865000Y-82139336D01*
X163795000Y-82139336D01*
X163795000Y-82139335D01*
X163777130Y-81957898D01*
X163706511Y-81725099D01*
X163591833Y-81510551D01*
X163437502Y-81322498D01*
X163249448Y-81168167D01*
X163034900Y-81053489D01*
X162802101Y-80982870D01*
X162560000Y-80959025D01*
X162317898Y-80982870D01*
X162085099Y-81053489D01*
X161870551Y-81168167D01*
X161682498Y-81322498D01*
X161528167Y-81510552D01*
X161413489Y-81725100D01*
X161342870Y-81957899D01*
X161325000Y-82139336D01*
X161255000Y-82139336D01*
X161255000Y-82139335D01*
X161237130Y-81957898D01*
X161166511Y-81725099D01*
X161051833Y-81510551D01*
X160897502Y-81322498D01*
X160709448Y-81168167D01*
X160494900Y-81053489D01*
X160262101Y-80982870D01*
X160020000Y-80959025D01*
X159777898Y-80982870D01*
X159545099Y-81053489D01*
X159330551Y-81168167D01*
X159142498Y-81322498D01*
X158988167Y-81510552D01*
X158873489Y-81725100D01*
X158802870Y-81957899D01*
X158785000Y-82139336D01*
X158715000Y-82139336D01*
X158715000Y-82139335D01*
X158697130Y-81957898D01*
X158626511Y-81725099D01*
X158511833Y-81510551D01*
X158357502Y-81322498D01*
X158169448Y-81168167D01*
X157954900Y-81053489D01*
X157722101Y-80982870D01*
X157480000Y-80959025D01*
X157237898Y-80982870D01*
X157005099Y-81053489D01*
X156790551Y-81168167D01*
X156602498Y-81322498D01*
X156448167Y-81510552D01*
X156333489Y-81725100D01*
X156262870Y-81957899D01*
X156245000Y-82139336D01*
X156175000Y-82139336D01*
X156175000Y-82139335D01*
X156157130Y-81957898D01*
X156086511Y-81725099D01*
X155971833Y-81510551D01*
X155817502Y-81322498D01*
X155629448Y-81168167D01*
X155414900Y-81053489D01*
X155182101Y-80982870D01*
X154940000Y-80959025D01*
X154697898Y-80982870D01*
X154465099Y-81053489D01*
X154250551Y-81168167D01*
X154062498Y-81322498D01*
X153908167Y-81510552D01*
X153793489Y-81725100D01*
X153722870Y-81957899D01*
X153705000Y-82139336D01*
X138395000Y-82139336D01*
X138395000Y-82139335D01*
X138377130Y-81957898D01*
X138306511Y-81725099D01*
X138191833Y-81510551D01*
X138037502Y-81322498D01*
X137849448Y-81168167D01*
X137634900Y-81053489D01*
X137402101Y-80982870D01*
X137160000Y-80959025D01*
X136917898Y-80982870D01*
X136685099Y-81053489D01*
X136470551Y-81168167D01*
X136282498Y-81322498D01*
X136128167Y-81510552D01*
X136013489Y-81725100D01*
X135942870Y-81957899D01*
X135925000Y-82139336D01*
X135855000Y-82139336D01*
X135855000Y-82139335D01*
X135837130Y-81957898D01*
X135766511Y-81725099D01*
X135651833Y-81510551D01*
X135497502Y-81322498D01*
X135309448Y-81168167D01*
X135094900Y-81053489D01*
X134862101Y-80982870D01*
X134620000Y-80959025D01*
X134377898Y-80982870D01*
X134145099Y-81053489D01*
X133930551Y-81168167D01*
X133742498Y-81322498D01*
X133588167Y-81510552D01*
X133473489Y-81725100D01*
X133402870Y-81957899D01*
X133385000Y-82139336D01*
X133315000Y-82139336D01*
X133315000Y-82139335D01*
X133297130Y-81957898D01*
X133226511Y-81725099D01*
X133111833Y-81510551D01*
X132957502Y-81322498D01*
X132769448Y-81168167D01*
X132554900Y-81053489D01*
X132322101Y-80982870D01*
X132080000Y-80959025D01*
X131837898Y-80982870D01*
X131605099Y-81053489D01*
X131390551Y-81168167D01*
X131202498Y-81322498D01*
X131048167Y-81510552D01*
X130933489Y-81725100D01*
X130862870Y-81957899D01*
X130845000Y-82139336D01*
X130775000Y-82139336D01*
X130775000Y-82139335D01*
X130757130Y-81957898D01*
X130686511Y-81725099D01*
X130571833Y-81510551D01*
X130417502Y-81322498D01*
X130229448Y-81168167D01*
X130014900Y-81053489D01*
X129782101Y-80982870D01*
X129540000Y-80959025D01*
X129297898Y-80982870D01*
X129065099Y-81053489D01*
X128850551Y-81168167D01*
X128662498Y-81322498D01*
X128508167Y-81510552D01*
X128393489Y-81725100D01*
X128322870Y-81957899D01*
X128305000Y-82139336D01*
X128235000Y-82139336D01*
X128235000Y-82139335D01*
X128217130Y-81957898D01*
X128146511Y-81725099D01*
X128031833Y-81510551D01*
X127877502Y-81322498D01*
X127689448Y-81168167D01*
X127474900Y-81053489D01*
X127242101Y-80982870D01*
X127000000Y-80959025D01*
X126757898Y-80982870D01*
X126525099Y-81053489D01*
X126310551Y-81168167D01*
X126122498Y-81322498D01*
X125968167Y-81510552D01*
X125853489Y-81725100D01*
X125782870Y-81957899D01*
X125765000Y-82139336D01*
X125695000Y-82139336D01*
X125695000Y-82139335D01*
X125677130Y-81957898D01*
X125606511Y-81725099D01*
X125491833Y-81510551D01*
X125337502Y-81322498D01*
X125149448Y-81168167D01*
X124934900Y-81053489D01*
X124702101Y-80982870D01*
X124460000Y-80959025D01*
X124217898Y-80982870D01*
X123985099Y-81053489D01*
X123770551Y-81168167D01*
X123582498Y-81322498D01*
X123428167Y-81510552D01*
X123313489Y-81725100D01*
X123242870Y-81957899D01*
X123225000Y-82139336D01*
X117789970Y-82139336D01*
X118148217Y-81899964D01*
X118464264Y-81583917D01*
X118712580Y-81212285D01*
X118883624Y-80799349D01*
X118970821Y-80360979D01*
X118970821Y-79914021D01*
X196220779Y-79914021D01*
X196220779Y-80360979D01*
X196307976Y-80799349D01*
X196479020Y-81212285D01*
X196727336Y-81583917D01*
X197043383Y-81899964D01*
X197415015Y-82148280D01*
X197827951Y-82319324D01*
X198266321Y-82406521D01*
X198713279Y-82406521D01*
X199151649Y-82319324D01*
X199564585Y-82148280D01*
X199936217Y-81899964D01*
X200252264Y-81583917D01*
X200500580Y-81212285D01*
X200671624Y-80799349D01*
X200758821Y-80360979D01*
X200758821Y-79914021D01*
X200671624Y-79475651D01*
X200500580Y-79062715D01*
X200252264Y-78691083D01*
X199936217Y-78375036D01*
X199564585Y-78126720D01*
X199151649Y-77955676D01*
X198713279Y-77868479D01*
X198266321Y-77868479D01*
X197827951Y-77955676D01*
X197415015Y-78126720D01*
X197043383Y-78375036D01*
X196727336Y-78691083D01*
X196479020Y-79062715D01*
X196307976Y-79475651D01*
X196220779Y-79914021D01*
X118970821Y-79914021D01*
X118883624Y-79475651D01*
X118712580Y-79062715D01*
X118464264Y-78691083D01*
X118148217Y-78375036D01*
X117776585Y-78126720D01*
X117363649Y-77955676D01*
X116925279Y-77868479D01*
X116478321Y-77868479D01*
X116039951Y-77955676D01*
X115627015Y-78126720D01*
X115255383Y-78375036D01*
X114939336Y-78691083D01*
X114691020Y-79062715D01*
X114519976Y-79475651D01*
X114432779Y-79914021D01*
X113647700Y-79914021D01*
X113647700Y-76647700D01*
X201240000Y-76647700D01*
X201240001Y-109642300D01*
G36*
X185726800Y-98414604D02*
G01*
X185726800Y-98689396D01*
X185780409Y-98958907D01*
X185875717Y-99188999D01*
X172831623Y-99188999D01*
X172794200Y-99185313D01*
X172756777Y-99188999D01*
X172756775Y-99188999D01*
X172644823Y-99200025D01*
X172501186Y-99243597D01*
X172368809Y-99314354D01*
X172252779Y-99409577D01*
X172228917Y-99438653D01*
X171811414Y-99856156D01*
X171782338Y-99880018D01*
X171745590Y-99924796D01*
X171687115Y-99996048D01*
X171670461Y-100027206D01*
X171616358Y-100128426D01*
X171598464Y-100187415D01*
X171534581Y-100251298D01*
X171423392Y-100417704D01*
X171346804Y-100602604D01*
X171307760Y-100798893D01*
X171307760Y-100999027D01*
X171346804Y-101195316D01*
X171423392Y-101380216D01*
X171534581Y-101546622D01*
X171676098Y-101688139D01*
X171842504Y-101799328D01*
X172027404Y-101875916D01*
X172223693Y-101914960D01*
X172423827Y-101914960D01*
X172620116Y-101875916D01*
X172805016Y-101799328D01*
X172971422Y-101688139D01*
X173112939Y-101546622D01*
X173224128Y-101380216D01*
X173300716Y-101195316D01*
X173339760Y-100999027D01*
X173339760Y-100798893D01*
X173322675Y-100712999D01*
X184508532Y-100712999D01*
X184464739Y-100889606D01*
X184451905Y-101164097D01*
X184492869Y-101435817D01*
X184586056Y-101694326D01*
X184647775Y-101809794D01*
X184887663Y-101876531D01*
X185672195Y-101092000D01*
X185658053Y-101077858D01*
X185837658Y-100898253D01*
X185851800Y-100912395D01*
X185865943Y-100898253D01*
X186045548Y-101077858D01*
X186031405Y-101092000D01*
X186045548Y-101106142D01*
X185865942Y-101285748D01*
X185851800Y-101271605D01*
X185067269Y-102056137D01*
X185134006Y-102296025D01*
X185382692Y-102412924D01*
X185649406Y-102479061D01*
X185914705Y-102491465D01*
X185759690Y-102646480D01*
X181911582Y-102646480D01*
X181874159Y-102642794D01*
X181836736Y-102646480D01*
X181836734Y-102646480D01*
X181724782Y-102657506D01*
X181581145Y-102701078D01*
X181448768Y-102771835D01*
X181332738Y-102867058D01*
X181308881Y-102896128D01*
X177424309Y-106780701D01*
X169751585Y-106780701D01*
X169766432Y-106744858D01*
X169823500Y-106457960D01*
X169823500Y-106165440D01*
X169766432Y-105878542D01*
X169654490Y-105608289D01*
X169491975Y-105365068D01*
X169285132Y-105158225D01*
X169110740Y-105041700D01*
X169285132Y-104925175D01*
X169491975Y-104718332D01*
X169654490Y-104475111D01*
X169766432Y-104204858D01*
X169823500Y-103917960D01*
X169823500Y-103625440D01*
X169766432Y-103338542D01*
X169654490Y-103068289D01*
X169491975Y-102825068D01*
X169285132Y-102618225D01*
X169110740Y-102501700D01*
X169285132Y-102385175D01*
X169491975Y-102178332D01*
X169654490Y-101935111D01*
X169766432Y-101664858D01*
X169823500Y-101377960D01*
X169823500Y-101085440D01*
X169780179Y-100867651D01*
X172474832Y-98172999D01*
X185774858Y-98172999D01*
X185726800Y-98414604D01*
G37*
X185726800Y-98414604D02*
X185726800Y-98689396D01*
X185780409Y-98958907D01*
X185875717Y-99188999D01*
X172831623Y-99188999D01*
X172794200Y-99185313D01*
X172756777Y-99188999D01*
X172756775Y-99188999D01*
X172644823Y-99200025D01*
X172501186Y-99243597D01*
X172368809Y-99314354D01*
X172252779Y-99409577D01*
X172228917Y-99438653D01*
X171811414Y-99856156D01*
X171782338Y-99880018D01*
X171745590Y-99924796D01*
X171687115Y-99996048D01*
X171670461Y-100027206D01*
X171616358Y-100128426D01*
X171598464Y-100187415D01*
X171534581Y-100251298D01*
X171423392Y-100417704D01*
X171346804Y-100602604D01*
X171307760Y-100798893D01*
X171307760Y-100999027D01*
X171346804Y-101195316D01*
X171423392Y-101380216D01*
X171534581Y-101546622D01*
X171676098Y-101688139D01*
X171842504Y-101799328D01*
X172027404Y-101875916D01*
X172223693Y-101914960D01*
X172423827Y-101914960D01*
X172620116Y-101875916D01*
X172805016Y-101799328D01*
X172971422Y-101688139D01*
X173112939Y-101546622D01*
X173224128Y-101380216D01*
X173300716Y-101195316D01*
X173339760Y-100999027D01*
X173339760Y-100798893D01*
X173322675Y-100712999D01*
X184508532Y-100712999D01*
X184464739Y-100889606D01*
X184451905Y-101164097D01*
X184492869Y-101435817D01*
X184586056Y-101694326D01*
X184647775Y-101809794D01*
X184887663Y-101876531D01*
X185672195Y-101092000D01*
X185658053Y-101077858D01*
X185837658Y-100898253D01*
X185851800Y-100912395D01*
X185865943Y-100898253D01*
X186045548Y-101077858D01*
X186031405Y-101092000D01*
X186045548Y-101106142D01*
X185865942Y-101285748D01*
X185851800Y-101271605D01*
X185067269Y-102056137D01*
X185134006Y-102296025D01*
X185382692Y-102412924D01*
X185649406Y-102479061D01*
X185914705Y-102491465D01*
X185759690Y-102646480D01*
X181911582Y-102646480D01*
X181874159Y-102642794D01*
X181836736Y-102646480D01*
X181836734Y-102646480D01*
X181724782Y-102657506D01*
X181581145Y-102701078D01*
X181448768Y-102771835D01*
X181332738Y-102867058D01*
X181308881Y-102896128D01*
X177424309Y-106780701D01*
X169751585Y-106780701D01*
X169766432Y-106744858D01*
X169823500Y-106457960D01*
X169823500Y-106165440D01*
X169766432Y-105878542D01*
X169654490Y-105608289D01*
X169491975Y-105365068D01*
X169285132Y-105158225D01*
X169110740Y-105041700D01*
X169285132Y-104925175D01*
X169491975Y-104718332D01*
X169654490Y-104475111D01*
X169766432Y-104204858D01*
X169823500Y-103917960D01*
X169823500Y-103625440D01*
X169766432Y-103338542D01*
X169654490Y-103068289D01*
X169491975Y-102825068D01*
X169285132Y-102618225D01*
X169110740Y-102501700D01*
X169285132Y-102385175D01*
X169491975Y-102178332D01*
X169654490Y-101935111D01*
X169766432Y-101664858D01*
X169823500Y-101377960D01*
X169823500Y-101085440D01*
X169780179Y-100867651D01*
X172474832Y-98172999D01*
X185774858Y-98172999D01*
X185726800Y-98414604D01*
G36*
X168473120Y-92998027D02*
G01*
X168512164Y-93194316D01*
X168588752Y-93379216D01*
X168699941Y-93545622D01*
X168841458Y-93687139D01*
X169007864Y-93798328D01*
X169192764Y-93874916D01*
X169389053Y-93913960D01*
X169589187Y-93913960D01*
X169785476Y-93874916D01*
X169970376Y-93798328D01*
X170136782Y-93687139D01*
X170163961Y-93659960D01*
X195321719Y-93659960D01*
X195348898Y-93687139D01*
X195515304Y-93798328D01*
X195700204Y-93874916D01*
X195896493Y-93913960D01*
X196093080Y-93913960D01*
X196093081Y-95788890D01*
X193456974Y-98424998D01*
X193438052Y-98424998D01*
X193596800Y-98266250D01*
X193599872Y-97792000D01*
X193587612Y-97667518D01*
X193551302Y-97547820D01*
X193492337Y-97437506D01*
X193412985Y-97340815D01*
X193316294Y-97261463D01*
X193205980Y-97202498D01*
X193086282Y-97166188D01*
X192961800Y-97153928D01*
X192487550Y-97157000D01*
X192328800Y-97315750D01*
X192328800Y-98425000D01*
X192348800Y-98425000D01*
X192348800Y-98679000D01*
X192328800Y-98679000D01*
X192328800Y-98699000D01*
X192074800Y-98699000D01*
X192074800Y-98679000D01*
X192054800Y-98679000D01*
X192054800Y-98425000D01*
X192074800Y-98425000D01*
X192074800Y-97315750D01*
X191916050Y-97157000D01*
X191441800Y-97153928D01*
X191317318Y-97166188D01*
X191197620Y-97202498D01*
X191087306Y-97261463D01*
X190990615Y-97340815D01*
X190911263Y-97437506D01*
X190852298Y-97547820D01*
X190815988Y-97667518D01*
X190807326Y-97755467D01*
X190745367Y-97662739D01*
X190551061Y-97468433D01*
X190322580Y-97315767D01*
X190068707Y-97210609D01*
X189799196Y-97157000D01*
X189524404Y-97157000D01*
X189374290Y-97186860D01*
X189086083Y-96898653D01*
X189062221Y-96869577D01*
X188946191Y-96774354D01*
X188813814Y-96703597D01*
X188670177Y-96660025D01*
X188558225Y-96648999D01*
X188558222Y-96648999D01*
X188520799Y-96645313D01*
X188483376Y-96648999D01*
X182073890Y-96648999D01*
X182133828Y-96559296D01*
X182210416Y-96374396D01*
X182249460Y-96178107D01*
X182249460Y-95977973D01*
X182210416Y-95781684D01*
X182133828Y-95596784D01*
X182022639Y-95430378D01*
X182002544Y-95410283D01*
X187455810Y-95410283D01*
X187455810Y-95610417D01*
X187494854Y-95806706D01*
X187571442Y-95991606D01*
X187682631Y-96158012D01*
X187824148Y-96299529D01*
X187990554Y-96410718D01*
X188175454Y-96487306D01*
X188371743Y-96526350D01*
X188571877Y-96526350D01*
X188768166Y-96487306D01*
X188953066Y-96410718D01*
X189119472Y-96299529D01*
X189260989Y-96158012D01*
X189372178Y-95991606D01*
X189448766Y-95806706D01*
X189487810Y-95610417D01*
X189487810Y-95410283D01*
X189448766Y-95213994D01*
X189372178Y-95029094D01*
X189260989Y-94862688D01*
X189119472Y-94721171D01*
X188953066Y-94609982D01*
X188768166Y-94533394D01*
X188571877Y-94494350D01*
X188371743Y-94494350D01*
X188175454Y-94533394D01*
X187990554Y-94609982D01*
X187824148Y-94721171D01*
X187682631Y-94862688D01*
X187571442Y-95029094D01*
X187494854Y-95213994D01*
X187455810Y-95410283D01*
X182002544Y-95410283D01*
X181881122Y-95288861D01*
X181714716Y-95177672D01*
X181529816Y-95101084D01*
X181333527Y-95062040D01*
X181133393Y-95062040D01*
X180937104Y-95101084D01*
X180752204Y-95177672D01*
X180585798Y-95288861D01*
X180444281Y-95430378D01*
X180333092Y-95596784D01*
X180256504Y-95781684D01*
X180217460Y-95977973D01*
X180217460Y-96178107D01*
X180256504Y-96374396D01*
X180333092Y-96559296D01*
X180393030Y-96648999D01*
X172196623Y-96648999D01*
X172159200Y-96645313D01*
X172121777Y-96648999D01*
X172121775Y-96648999D01*
X172009823Y-96660025D01*
X171866186Y-96703597D01*
X171733809Y-96774354D01*
X171617779Y-96869577D01*
X171593922Y-96898647D01*
X168702549Y-99790021D01*
X168484760Y-99746700D01*
X168192240Y-99746700D01*
X167974451Y-99790021D01*
X167672783Y-99488353D01*
X167648921Y-99459277D01*
X167532891Y-99364054D01*
X167400514Y-99293297D01*
X167256877Y-99249725D01*
X167144925Y-99238699D01*
X167144922Y-99238699D01*
X167107499Y-99235013D01*
X167070076Y-99238699D01*
X139609859Y-99238699D01*
X139572436Y-99235013D01*
X139535013Y-99238699D01*
X139535010Y-99238699D01*
X139423058Y-99249725D01*
X139279421Y-99293297D01*
X139217800Y-99326234D01*
X139147043Y-99364054D01*
X139064340Y-99431927D01*
X139031014Y-99459277D01*
X139007157Y-99488347D01*
X137035052Y-101460453D01*
X136961111Y-101349793D01*
X137069768Y-101187176D01*
X137146356Y-101002276D01*
X137185400Y-100805987D01*
X137185400Y-100605853D01*
X137146356Y-100409564D01*
X137069768Y-100224664D01*
X136986018Y-100099323D01*
X136999219Y-100086122D01*
X137110408Y-99919716D01*
X137186996Y-99734816D01*
X137226040Y-99538527D01*
X137226040Y-99338393D01*
X137186996Y-99142104D01*
X137110408Y-98957204D01*
X137036832Y-98847089D01*
X137067799Y-98816122D01*
X137178988Y-98649716D01*
X137255576Y-98464816D01*
X137294620Y-98268527D01*
X137294620Y-98068393D01*
X137255576Y-97872104D01*
X137178988Y-97687204D01*
X137067799Y-97520798D01*
X136926282Y-97379281D01*
X136759876Y-97268092D01*
X136574976Y-97191504D01*
X136378687Y-97152460D01*
X136178553Y-97152460D01*
X135982264Y-97191504D01*
X135797364Y-97268092D01*
X135630958Y-97379281D01*
X135489441Y-97520798D01*
X135378252Y-97687204D01*
X135301664Y-97872104D01*
X135262620Y-98068393D01*
X135262620Y-98268527D01*
X135301664Y-98464816D01*
X135378252Y-98649716D01*
X135451828Y-98759831D01*
X135420861Y-98790798D01*
X135309672Y-98957204D01*
X135233084Y-99142104D01*
X135194040Y-99338393D01*
X135194040Y-99538527D01*
X135233084Y-99734816D01*
X135309672Y-99919716D01*
X135393422Y-100045057D01*
X135380221Y-100058258D01*
X135269032Y-100224664D01*
X135192444Y-100409564D01*
X135153400Y-100605853D01*
X135153400Y-100805987D01*
X135192444Y-101002276D01*
X135269032Y-101187176D01*
X135367529Y-101334587D01*
X135258872Y-101497204D01*
X135182284Y-101682104D01*
X135143240Y-101878393D01*
X135143240Y-102078527D01*
X135182284Y-102274816D01*
X135258872Y-102459716D01*
X135370061Y-102626122D01*
X135511578Y-102767639D01*
X135641233Y-102854272D01*
X132916913Y-105578592D01*
X132816656Y-105537064D01*
X132620367Y-105498020D01*
X132420233Y-105498020D01*
X132223944Y-105537064D01*
X132039044Y-105613652D01*
X131872638Y-105724841D01*
X131776814Y-105820666D01*
X129856118Y-103899970D01*
X130022337Y-103899970D01*
X130218626Y-103860926D01*
X130403526Y-103784338D01*
X130453830Y-103750726D01*
X130561154Y-103822438D01*
X130746054Y-103899026D01*
X130942343Y-103938070D01*
X131142477Y-103938070D01*
X131338766Y-103899026D01*
X131523666Y-103822438D01*
X131690072Y-103711249D01*
X131745990Y-103655331D01*
X131780318Y-103689659D01*
X131946724Y-103800848D01*
X132131624Y-103877436D01*
X132327913Y-103916480D01*
X132528047Y-103916480D01*
X132724336Y-103877436D01*
X132909236Y-103800848D01*
X133075642Y-103689659D01*
X133217159Y-103548142D01*
X133328348Y-103381736D01*
X133404936Y-103196836D01*
X133443980Y-103000547D01*
X133443980Y-102800413D01*
X133404936Y-102604124D01*
X133328348Y-102419224D01*
X133217159Y-102252818D01*
X133075642Y-102111301D01*
X132909236Y-102000112D01*
X132724336Y-101923524D01*
X132528047Y-101884480D01*
X132327913Y-101884480D01*
X132131624Y-101923524D01*
X131946724Y-102000112D01*
X131780318Y-102111301D01*
X131724400Y-102167219D01*
X131690072Y-102132891D01*
X131523666Y-102021702D01*
X131338766Y-101945114D01*
X131142477Y-101906070D01*
X130942343Y-101906070D01*
X130746054Y-101945114D01*
X130561154Y-102021702D01*
X130510850Y-102055314D01*
X130403526Y-101983602D01*
X130271711Y-101929003D01*
X130364192Y-101867209D01*
X130505709Y-101725692D01*
X130616898Y-101559286D01*
X130693486Y-101374386D01*
X130732530Y-101178097D01*
X130732530Y-100977963D01*
X130693486Y-100781674D01*
X130616898Y-100596774D01*
X130505709Y-100430368D01*
X130374420Y-100299079D01*
X130422976Y-100181856D01*
X130462020Y-99985567D01*
X130462020Y-99785433D01*
X130422976Y-99589144D01*
X130346388Y-99404244D01*
X130305783Y-99343473D01*
X130629660Y-99343473D01*
X130629660Y-99543607D01*
X130668704Y-99739896D01*
X130745292Y-99924796D01*
X130847957Y-100078445D01*
X130801172Y-100148464D01*
X130724584Y-100333364D01*
X130685540Y-100529653D01*
X130685540Y-100729787D01*
X130724584Y-100926076D01*
X130801172Y-101110976D01*
X130912361Y-101277382D01*
X131053878Y-101418899D01*
X131220284Y-101530088D01*
X131405184Y-101606676D01*
X131601473Y-101645720D01*
X131801607Y-101645720D01*
X131997896Y-101606676D01*
X132182796Y-101530088D01*
X132349202Y-101418899D01*
X132490719Y-101277382D01*
X132601908Y-101110976D01*
X132678496Y-100926076D01*
X132717540Y-100729787D01*
X132717540Y-100529653D01*
X132678496Y-100333364D01*
X132601908Y-100148464D01*
X132499243Y-99994815D01*
X132546028Y-99924796D01*
X132622616Y-99739896D01*
X132661660Y-99543607D01*
X132661660Y-99343473D01*
X132622616Y-99147184D01*
X132546028Y-98962284D01*
X132434839Y-98795878D01*
X132293322Y-98654361D01*
X132126916Y-98543172D01*
X131942016Y-98466584D01*
X131745727Y-98427540D01*
X131545593Y-98427540D01*
X131349304Y-98466584D01*
X131164404Y-98543172D01*
X130997998Y-98654361D01*
X130856481Y-98795878D01*
X130745292Y-98962284D01*
X130668704Y-99147184D01*
X130629660Y-99343473D01*
X130305783Y-99343473D01*
X130235199Y-99237838D01*
X130093682Y-99096321D01*
X129927276Y-98985132D01*
X129742376Y-98908544D01*
X129546087Y-98869500D01*
X129462498Y-98869500D01*
X129466340Y-98850187D01*
X129466340Y-98650053D01*
X129458456Y-98610419D01*
X130048676Y-98610419D01*
X130086099Y-98614105D01*
X130123522Y-98610419D01*
X130123525Y-98610419D01*
X130235477Y-98599393D01*
X130379114Y-98555821D01*
X130511491Y-98485064D01*
X130627521Y-98389841D01*
X130651383Y-98360765D01*
X130881788Y-98130360D01*
X131770919Y-98130360D01*
X131798098Y-98157539D01*
X131964504Y-98268728D01*
X132149404Y-98345316D01*
X132345693Y-98384360D01*
X132545827Y-98384360D01*
X132742116Y-98345316D01*
X132927016Y-98268728D01*
X133093422Y-98157539D01*
X133234939Y-98016022D01*
X133346128Y-97849616D01*
X133422716Y-97664716D01*
X133461760Y-97468427D01*
X133461760Y-97268293D01*
X133438215Y-97149921D01*
X151473576Y-97149921D01*
X151510999Y-97153607D01*
X151548422Y-97149921D01*
X151548425Y-97149921D01*
X151660377Y-97138895D01*
X151804014Y-97095323D01*
X151936391Y-97024566D01*
X152052421Y-96929343D01*
X152076283Y-96900267D01*
X152200010Y-96776540D01*
X152238447Y-96776540D01*
X152434736Y-96737496D01*
X152619636Y-96660908D01*
X152786042Y-96549719D01*
X152927559Y-96408202D01*
X153038748Y-96241796D01*
X153115336Y-96056896D01*
X153129013Y-95988133D01*
X165351460Y-95988133D01*
X165351460Y-96188267D01*
X165390504Y-96384556D01*
X165467092Y-96569456D01*
X165578281Y-96735862D01*
X165719798Y-96877379D01*
X165886204Y-96988568D01*
X166071104Y-97065156D01*
X166267393Y-97104200D01*
X166467527Y-97104200D01*
X166663816Y-97065156D01*
X166848716Y-96988568D01*
X167015122Y-96877379D01*
X167156639Y-96735862D01*
X167267828Y-96569456D01*
X167344416Y-96384556D01*
X167383460Y-96188267D01*
X167383460Y-95988133D01*
X167344416Y-95791844D01*
X167267828Y-95606944D01*
X167156639Y-95440538D01*
X167015122Y-95299021D01*
X166848716Y-95187832D01*
X166663816Y-95111244D01*
X166467527Y-95072200D01*
X166267393Y-95072200D01*
X166071104Y-95111244D01*
X165886204Y-95187832D01*
X165719798Y-95299021D01*
X165578281Y-95440538D01*
X165467092Y-95606944D01*
X165390504Y-95791844D01*
X165351460Y-95988133D01*
X153129013Y-95988133D01*
X153154380Y-95860607D01*
X153154380Y-95660473D01*
X153115336Y-95464184D01*
X153038748Y-95279284D01*
X152927559Y-95112878D01*
X152786042Y-94971361D01*
X152619636Y-94860172D01*
X152434736Y-94783584D01*
X152361784Y-94769073D01*
X152426996Y-94611636D01*
X152466040Y-94415347D01*
X152466040Y-94215213D01*
X152461056Y-94190157D01*
X152500776Y-94182256D01*
X152685676Y-94105668D01*
X152852082Y-93994479D01*
X152993599Y-93852962D01*
X153104788Y-93686556D01*
X153181376Y-93501656D01*
X153220420Y-93305367D01*
X153220420Y-93105233D01*
X153181376Y-92908944D01*
X153162097Y-92862400D01*
X168473120Y-92862400D01*
X168473120Y-92998027D01*
G37*
X168473120Y-92998027D02*
X168512164Y-93194316D01*
X168588752Y-93379216D01*
X168699941Y-93545622D01*
X168841458Y-93687139D01*
X169007864Y-93798328D01*
X169192764Y-93874916D01*
X169389053Y-93913960D01*
X169589187Y-93913960D01*
X169785476Y-93874916D01*
X169970376Y-93798328D01*
X170136782Y-93687139D01*
X170163961Y-93659960D01*
X195321719Y-93659960D01*
X195348898Y-93687139D01*
X195515304Y-93798328D01*
X195700204Y-93874916D01*
X195896493Y-93913960D01*
X196093080Y-93913960D01*
X196093081Y-95788890D01*
X193456974Y-98424998D01*
X193438052Y-98424998D01*
X193596800Y-98266250D01*
X193599872Y-97792000D01*
X193587612Y-97667518D01*
X193551302Y-97547820D01*
X193492337Y-97437506D01*
X193412985Y-97340815D01*
X193316294Y-97261463D01*
X193205980Y-97202498D01*
X193086282Y-97166188D01*
X192961800Y-97153928D01*
X192487550Y-97157000D01*
X192328800Y-97315750D01*
X192328800Y-98425000D01*
X192348800Y-98425000D01*
X192348800Y-98679000D01*
X192328800Y-98679000D01*
X192328800Y-98699000D01*
X192074800Y-98699000D01*
X192074800Y-98679000D01*
X192054800Y-98679000D01*
X192054800Y-98425000D01*
X192074800Y-98425000D01*
X192074800Y-97315750D01*
X191916050Y-97157000D01*
X191441800Y-97153928D01*
X191317318Y-97166188D01*
X191197620Y-97202498D01*
X191087306Y-97261463D01*
X190990615Y-97340815D01*
X190911263Y-97437506D01*
X190852298Y-97547820D01*
X190815988Y-97667518D01*
X190807326Y-97755467D01*
X190745367Y-97662739D01*
X190551061Y-97468433D01*
X190322580Y-97315767D01*
X190068707Y-97210609D01*
X189799196Y-97157000D01*
X189524404Y-97157000D01*
X189374290Y-97186860D01*
X189086083Y-96898653D01*
X189062221Y-96869577D01*
X188946191Y-96774354D01*
X188813814Y-96703597D01*
X188670177Y-96660025D01*
X188558225Y-96648999D01*
X188558222Y-96648999D01*
X188520799Y-96645313D01*
X188483376Y-96648999D01*
X182073890Y-96648999D01*
X182133828Y-96559296D01*
X182210416Y-96374396D01*
X182249460Y-96178107D01*
X182249460Y-95977973D01*
X182210416Y-95781684D01*
X182133828Y-95596784D01*
X182022639Y-95430378D01*
X182002544Y-95410283D01*
X187455810Y-95410283D01*
X187455810Y-95610417D01*
X187494854Y-95806706D01*
X187571442Y-95991606D01*
X187682631Y-96158012D01*
X187824148Y-96299529D01*
X187990554Y-96410718D01*
X188175454Y-96487306D01*
X188371743Y-96526350D01*
X188571877Y-96526350D01*
X188768166Y-96487306D01*
X188953066Y-96410718D01*
X189119472Y-96299529D01*
X189260989Y-96158012D01*
X189372178Y-95991606D01*
X189448766Y-95806706D01*
X189487810Y-95610417D01*
X189487810Y-95410283D01*
X189448766Y-95213994D01*
X189372178Y-95029094D01*
X189260989Y-94862688D01*
X189119472Y-94721171D01*
X188953066Y-94609982D01*
X188768166Y-94533394D01*
X188571877Y-94494350D01*
X188371743Y-94494350D01*
X188175454Y-94533394D01*
X187990554Y-94609982D01*
X187824148Y-94721171D01*
X187682631Y-94862688D01*
X187571442Y-95029094D01*
X187494854Y-95213994D01*
X187455810Y-95410283D01*
X182002544Y-95410283D01*
X181881122Y-95288861D01*
X181714716Y-95177672D01*
X181529816Y-95101084D01*
X181333527Y-95062040D01*
X181133393Y-95062040D01*
X180937104Y-95101084D01*
X180752204Y-95177672D01*
X180585798Y-95288861D01*
X180444281Y-95430378D01*
X180333092Y-95596784D01*
X180256504Y-95781684D01*
X180217460Y-95977973D01*
X180217460Y-96178107D01*
X180256504Y-96374396D01*
X180333092Y-96559296D01*
X180393030Y-96648999D01*
X172196623Y-96648999D01*
X172159200Y-96645313D01*
X172121777Y-96648999D01*
X172121775Y-96648999D01*
X172009823Y-96660025D01*
X171866186Y-96703597D01*
X171733809Y-96774354D01*
X171617779Y-96869577D01*
X171593922Y-96898647D01*
X168702549Y-99790021D01*
X168484760Y-99746700D01*
X168192240Y-99746700D01*
X167974451Y-99790021D01*
X167672783Y-99488353D01*
X167648921Y-99459277D01*
X167532891Y-99364054D01*
X167400514Y-99293297D01*
X167256877Y-99249725D01*
X167144925Y-99238699D01*
X167144922Y-99238699D01*
X167107499Y-99235013D01*
X167070076Y-99238699D01*
X139609859Y-99238699D01*
X139572436Y-99235013D01*
X139535013Y-99238699D01*
X139535010Y-99238699D01*
X139423058Y-99249725D01*
X139279421Y-99293297D01*
X139217800Y-99326234D01*
X139147043Y-99364054D01*
X139064340Y-99431927D01*
X139031014Y-99459277D01*
X139007157Y-99488347D01*
X137035052Y-101460453D01*
X136961111Y-101349793D01*
X137069768Y-101187176D01*
X137146356Y-101002276D01*
X137185400Y-100805987D01*
X137185400Y-100605853D01*
X137146356Y-100409564D01*
X137069768Y-100224664D01*
X136986018Y-100099323D01*
X136999219Y-100086122D01*
X137110408Y-99919716D01*
X137186996Y-99734816D01*
X137226040Y-99538527D01*
X137226040Y-99338393D01*
X137186996Y-99142104D01*
X137110408Y-98957204D01*
X137036832Y-98847089D01*
X137067799Y-98816122D01*
X137178988Y-98649716D01*
X137255576Y-98464816D01*
X137294620Y-98268527D01*
X137294620Y-98068393D01*
X137255576Y-97872104D01*
X137178988Y-97687204D01*
X137067799Y-97520798D01*
X136926282Y-97379281D01*
X136759876Y-97268092D01*
X136574976Y-97191504D01*
X136378687Y-97152460D01*
X136178553Y-97152460D01*
X135982264Y-97191504D01*
X135797364Y-97268092D01*
X135630958Y-97379281D01*
X135489441Y-97520798D01*
X135378252Y-97687204D01*
X135301664Y-97872104D01*
X135262620Y-98068393D01*
X135262620Y-98268527D01*
X135301664Y-98464816D01*
X135378252Y-98649716D01*
X135451828Y-98759831D01*
X135420861Y-98790798D01*
X135309672Y-98957204D01*
X135233084Y-99142104D01*
X135194040Y-99338393D01*
X135194040Y-99538527D01*
X135233084Y-99734816D01*
X135309672Y-99919716D01*
X135393422Y-100045057D01*
X135380221Y-100058258D01*
X135269032Y-100224664D01*
X135192444Y-100409564D01*
X135153400Y-100605853D01*
X135153400Y-100805987D01*
X135192444Y-101002276D01*
X135269032Y-101187176D01*
X135367529Y-101334587D01*
X135258872Y-101497204D01*
X135182284Y-101682104D01*
X135143240Y-101878393D01*
X135143240Y-102078527D01*
X135182284Y-102274816D01*
X135258872Y-102459716D01*
X135370061Y-102626122D01*
X135511578Y-102767639D01*
X135641233Y-102854272D01*
X132916913Y-105578592D01*
X132816656Y-105537064D01*
X132620367Y-105498020D01*
X132420233Y-105498020D01*
X132223944Y-105537064D01*
X132039044Y-105613652D01*
X131872638Y-105724841D01*
X131776814Y-105820666D01*
X129856118Y-103899970D01*
X130022337Y-103899970D01*
X130218626Y-103860926D01*
X130403526Y-103784338D01*
X130453830Y-103750726D01*
X130561154Y-103822438D01*
X130746054Y-103899026D01*
X130942343Y-103938070D01*
X131142477Y-103938070D01*
X131338766Y-103899026D01*
X131523666Y-103822438D01*
X131690072Y-103711249D01*
X131745990Y-103655331D01*
X131780318Y-103689659D01*
X131946724Y-103800848D01*
X132131624Y-103877436D01*
X132327913Y-103916480D01*
X132528047Y-103916480D01*
X132724336Y-103877436D01*
X132909236Y-103800848D01*
X133075642Y-103689659D01*
X133217159Y-103548142D01*
X133328348Y-103381736D01*
X133404936Y-103196836D01*
X133443980Y-103000547D01*
X133443980Y-102800413D01*
X133404936Y-102604124D01*
X133328348Y-102419224D01*
X133217159Y-102252818D01*
X133075642Y-102111301D01*
X132909236Y-102000112D01*
X132724336Y-101923524D01*
X132528047Y-101884480D01*
X132327913Y-101884480D01*
X132131624Y-101923524D01*
X131946724Y-102000112D01*
X131780318Y-102111301D01*
X131724400Y-102167219D01*
X131690072Y-102132891D01*
X131523666Y-102021702D01*
X131338766Y-101945114D01*
X131142477Y-101906070D01*
X130942343Y-101906070D01*
X130746054Y-101945114D01*
X130561154Y-102021702D01*
X130510850Y-102055314D01*
X130403526Y-101983602D01*
X130271711Y-101929003D01*
X130364192Y-101867209D01*
X130505709Y-101725692D01*
X130616898Y-101559286D01*
X130693486Y-101374386D01*
X130732530Y-101178097D01*
X130732530Y-100977963D01*
X130693486Y-100781674D01*
X130616898Y-100596774D01*
X130505709Y-100430368D01*
X130374420Y-100299079D01*
X130422976Y-100181856D01*
X130462020Y-99985567D01*
X130462020Y-99785433D01*
X130422976Y-99589144D01*
X130346388Y-99404244D01*
X130305783Y-99343473D01*
X130629660Y-99343473D01*
X130629660Y-99543607D01*
X130668704Y-99739896D01*
X130745292Y-99924796D01*
X130847957Y-100078445D01*
X130801172Y-100148464D01*
X130724584Y-100333364D01*
X130685540Y-100529653D01*
X130685540Y-100729787D01*
X130724584Y-100926076D01*
X130801172Y-101110976D01*
X130912361Y-101277382D01*
X131053878Y-101418899D01*
X131220284Y-101530088D01*
X131405184Y-101606676D01*
X131601473Y-101645720D01*
X131801607Y-101645720D01*
X131997896Y-101606676D01*
X132182796Y-101530088D01*
X132349202Y-101418899D01*
X132490719Y-101277382D01*
X132601908Y-101110976D01*
X132678496Y-100926076D01*
X132717540Y-100729787D01*
X132717540Y-100529653D01*
X132678496Y-100333364D01*
X132601908Y-100148464D01*
X132499243Y-99994815D01*
X132546028Y-99924796D01*
X132622616Y-99739896D01*
X132661660Y-99543607D01*
X132661660Y-99343473D01*
X132622616Y-99147184D01*
X132546028Y-98962284D01*
X132434839Y-98795878D01*
X132293322Y-98654361D01*
X132126916Y-98543172D01*
X131942016Y-98466584D01*
X131745727Y-98427540D01*
X131545593Y-98427540D01*
X131349304Y-98466584D01*
X131164404Y-98543172D01*
X130997998Y-98654361D01*
X130856481Y-98795878D01*
X130745292Y-98962284D01*
X130668704Y-99147184D01*
X130629660Y-99343473D01*
X130305783Y-99343473D01*
X130235199Y-99237838D01*
X130093682Y-99096321D01*
X129927276Y-98985132D01*
X129742376Y-98908544D01*
X129546087Y-98869500D01*
X129462498Y-98869500D01*
X129466340Y-98850187D01*
X129466340Y-98650053D01*
X129458456Y-98610419D01*
X130048676Y-98610419D01*
X130086099Y-98614105D01*
X130123522Y-98610419D01*
X130123525Y-98610419D01*
X130235477Y-98599393D01*
X130379114Y-98555821D01*
X130511491Y-98485064D01*
X130627521Y-98389841D01*
X130651383Y-98360765D01*
X130881788Y-98130360D01*
X131770919Y-98130360D01*
X131798098Y-98157539D01*
X131964504Y-98268728D01*
X132149404Y-98345316D01*
X132345693Y-98384360D01*
X132545827Y-98384360D01*
X132742116Y-98345316D01*
X132927016Y-98268728D01*
X133093422Y-98157539D01*
X133234939Y-98016022D01*
X133346128Y-97849616D01*
X133422716Y-97664716D01*
X133461760Y-97468427D01*
X133461760Y-97268293D01*
X133438215Y-97149921D01*
X151473576Y-97149921D01*
X151510999Y-97153607D01*
X151548422Y-97149921D01*
X151548425Y-97149921D01*
X151660377Y-97138895D01*
X151804014Y-97095323D01*
X151936391Y-97024566D01*
X152052421Y-96929343D01*
X152076283Y-96900267D01*
X152200010Y-96776540D01*
X152238447Y-96776540D01*
X152434736Y-96737496D01*
X152619636Y-96660908D01*
X152786042Y-96549719D01*
X152927559Y-96408202D01*
X153038748Y-96241796D01*
X153115336Y-96056896D01*
X153129013Y-95988133D01*
X165351460Y-95988133D01*
X165351460Y-96188267D01*
X165390504Y-96384556D01*
X165467092Y-96569456D01*
X165578281Y-96735862D01*
X165719798Y-96877379D01*
X165886204Y-96988568D01*
X166071104Y-97065156D01*
X166267393Y-97104200D01*
X166467527Y-97104200D01*
X166663816Y-97065156D01*
X166848716Y-96988568D01*
X167015122Y-96877379D01*
X167156639Y-96735862D01*
X167267828Y-96569456D01*
X167344416Y-96384556D01*
X167383460Y-96188267D01*
X167383460Y-95988133D01*
X167344416Y-95791844D01*
X167267828Y-95606944D01*
X167156639Y-95440538D01*
X167015122Y-95299021D01*
X166848716Y-95187832D01*
X166663816Y-95111244D01*
X166467527Y-95072200D01*
X166267393Y-95072200D01*
X166071104Y-95111244D01*
X165886204Y-95187832D01*
X165719798Y-95299021D01*
X165578281Y-95440538D01*
X165467092Y-95606944D01*
X165390504Y-95791844D01*
X165351460Y-95988133D01*
X153129013Y-95988133D01*
X153154380Y-95860607D01*
X153154380Y-95660473D01*
X153115336Y-95464184D01*
X153038748Y-95279284D01*
X152927559Y-95112878D01*
X152786042Y-94971361D01*
X152619636Y-94860172D01*
X152434736Y-94783584D01*
X152361784Y-94769073D01*
X152426996Y-94611636D01*
X152466040Y-94415347D01*
X152466040Y-94215213D01*
X152461056Y-94190157D01*
X152500776Y-94182256D01*
X152685676Y-94105668D01*
X152852082Y-93994479D01*
X152993599Y-93852962D01*
X153104788Y-93686556D01*
X153181376Y-93501656D01*
X153220420Y-93305367D01*
X153220420Y-93105233D01*
X153181376Y-92908944D01*
X153162097Y-92862400D01*
X168473120Y-92862400D01*
X168473120Y-92998027D01*
G36*
X165925500Y-101104700D02*
G01*
X165945500Y-101104700D01*
X165945500Y-101358700D01*
X165925500Y-101358700D01*
X165925500Y-101378700D01*
X165671500Y-101378700D01*
X165671500Y-101358700D01*
X165651500Y-101358700D01*
X165651500Y-101104700D01*
X165671500Y-101104700D01*
X165671500Y-101084700D01*
X165925500Y-101084700D01*
X165925500Y-101104700D01*
G37*
X165925500Y-101104700D02*
X165945500Y-101104700D01*
X165945500Y-101358700D01*
X165925500Y-101358700D01*
X165925500Y-101378700D01*
X165671500Y-101378700D01*
X165671500Y-101358700D01*
X165651500Y-101358700D01*
X165651500Y-101104700D01*
X165671500Y-101104700D01*
X165671500Y-101084700D01*
X165925500Y-101084700D01*
X165925500Y-101104700D01*
G36*
X128305000Y-89659336D02*
G01*
X128305000Y-90580665D01*
X128322870Y-90762102D01*
X128393489Y-90994901D01*
X128508168Y-91209449D01*
X128662499Y-91397502D01*
X128850552Y-91551833D01*
X129065100Y-91666511D01*
X129297899Y-91737130D01*
X129540000Y-91760975D01*
X129782102Y-91737130D01*
X130014901Y-91666511D01*
X130229449Y-91551833D01*
X130417502Y-91397502D01*
X130571833Y-91209449D01*
X130686511Y-90994901D01*
X130757130Y-90762101D01*
X130775000Y-90580664D01*
X130775000Y-89659335D01*
X130759404Y-89500990D01*
X130860596Y-89500990D01*
X130845000Y-89659336D01*
X130845000Y-90580665D01*
X130862870Y-90762102D01*
X130933489Y-90994901D01*
X131048168Y-91209449D01*
X131202499Y-91397502D01*
X131390552Y-91551833D01*
X131605100Y-91666511D01*
X131837899Y-91737130D01*
X132080000Y-91760975D01*
X132322102Y-91737130D01*
X132554901Y-91666511D01*
X132769449Y-91551833D01*
X132957502Y-91397502D01*
X133111833Y-91209449D01*
X133226511Y-90994901D01*
X133297130Y-90762101D01*
X133315000Y-90580664D01*
X133315000Y-89659335D01*
X133299404Y-89500990D01*
X133400596Y-89500990D01*
X133385000Y-89659336D01*
X133385000Y-90580665D01*
X133402870Y-90762102D01*
X133473489Y-90994901D01*
X133588168Y-91209449D01*
X133742499Y-91397502D01*
X133930552Y-91551833D01*
X134145100Y-91666511D01*
X134377899Y-91737130D01*
X134620000Y-91760975D01*
X134862102Y-91737130D01*
X135094901Y-91666511D01*
X135309449Y-91551833D01*
X135497502Y-91397502D01*
X135651833Y-91209449D01*
X135766511Y-90994901D01*
X135837130Y-90762101D01*
X135855000Y-90580664D01*
X135855000Y-89659335D01*
X135839404Y-89500990D01*
X135940596Y-89500990D01*
X135925000Y-89659336D01*
X135925000Y-90580665D01*
X135942870Y-90762102D01*
X136013489Y-90994901D01*
X136128168Y-91209449D01*
X136282499Y-91397502D01*
X136470552Y-91551833D01*
X136685100Y-91666511D01*
X136917899Y-91737130D01*
X137160000Y-91760975D01*
X137402102Y-91737130D01*
X137634901Y-91666511D01*
X137849449Y-91551833D01*
X138037502Y-91397502D01*
X138191833Y-91209449D01*
X138306511Y-90994901D01*
X138377130Y-90762101D01*
X138395000Y-90580664D01*
X138395000Y-90458251D01*
X138501120Y-90564371D01*
X138501120Y-90757417D01*
X138497434Y-90794840D01*
X138501120Y-90832263D01*
X138501120Y-90832266D01*
X138512146Y-90944218D01*
X138555718Y-91087855D01*
X138574741Y-91123444D01*
X138626475Y-91220232D01*
X138669585Y-91272761D01*
X138721699Y-91336262D01*
X138750769Y-91360119D01*
X143016570Y-95625921D01*
X137253980Y-95625921D01*
X137253980Y-95525853D01*
X137214936Y-95329564D01*
X137138348Y-95144664D01*
X137062737Y-95031504D01*
X137088119Y-95006122D01*
X137199308Y-94839716D01*
X137275896Y-94654816D01*
X137314940Y-94458527D01*
X137314940Y-94258393D01*
X137275896Y-94062104D01*
X137199308Y-93877204D01*
X137088119Y-93710798D01*
X136946602Y-93569281D01*
X136780196Y-93458092D01*
X136595296Y-93381504D01*
X136399007Y-93342460D01*
X136198873Y-93342460D01*
X136002584Y-93381504D01*
X135817684Y-93458092D01*
X135651278Y-93569281D01*
X135509761Y-93710798D01*
X135398572Y-93877204D01*
X135321984Y-94062104D01*
X135282940Y-94258393D01*
X135282940Y-94458527D01*
X135321984Y-94654816D01*
X135398572Y-94839716D01*
X135474183Y-94952876D01*
X135448801Y-94978258D01*
X135337612Y-95144664D01*
X135261024Y-95329564D01*
X135221980Y-95525853D01*
X135221980Y-95625921D01*
X131796195Y-95625921D01*
X127707386Y-91537113D01*
X127877502Y-91397502D01*
X128031833Y-91209449D01*
X128146511Y-90994901D01*
X128217130Y-90762101D01*
X128235000Y-90580664D01*
X128235000Y-89659335D01*
X128219404Y-89500990D01*
X128320596Y-89500990D01*
X128305000Y-89659336D01*
G37*
X128305000Y-89659336D02*
X128305000Y-90580665D01*
X128322870Y-90762102D01*
X128393489Y-90994901D01*
X128508168Y-91209449D01*
X128662499Y-91397502D01*
X128850552Y-91551833D01*
X129065100Y-91666511D01*
X129297899Y-91737130D01*
X129540000Y-91760975D01*
X129782102Y-91737130D01*
X130014901Y-91666511D01*
X130229449Y-91551833D01*
X130417502Y-91397502D01*
X130571833Y-91209449D01*
X130686511Y-90994901D01*
X130757130Y-90762101D01*
X130775000Y-90580664D01*
X130775000Y-89659335D01*
X130759404Y-89500990D01*
X130860596Y-89500990D01*
X130845000Y-89659336D01*
X130845000Y-90580665D01*
X130862870Y-90762102D01*
X130933489Y-90994901D01*
X131048168Y-91209449D01*
X131202499Y-91397502D01*
X131390552Y-91551833D01*
X131605100Y-91666511D01*
X131837899Y-91737130D01*
X132080000Y-91760975D01*
X132322102Y-91737130D01*
X132554901Y-91666511D01*
X132769449Y-91551833D01*
X132957502Y-91397502D01*
X133111833Y-91209449D01*
X133226511Y-90994901D01*
X133297130Y-90762101D01*
X133315000Y-90580664D01*
X133315000Y-89659335D01*
X133299404Y-89500990D01*
X133400596Y-89500990D01*
X133385000Y-89659336D01*
X133385000Y-90580665D01*
X133402870Y-90762102D01*
X133473489Y-90994901D01*
X133588168Y-91209449D01*
X133742499Y-91397502D01*
X133930552Y-91551833D01*
X134145100Y-91666511D01*
X134377899Y-91737130D01*
X134620000Y-91760975D01*
X134862102Y-91737130D01*
X135094901Y-91666511D01*
X135309449Y-91551833D01*
X135497502Y-91397502D01*
X135651833Y-91209449D01*
X135766511Y-90994901D01*
X135837130Y-90762101D01*
X135855000Y-90580664D01*
X135855000Y-89659335D01*
X135839404Y-89500990D01*
X135940596Y-89500990D01*
X135925000Y-89659336D01*
X135925000Y-90580665D01*
X135942870Y-90762102D01*
X136013489Y-90994901D01*
X136128168Y-91209449D01*
X136282499Y-91397502D01*
X136470552Y-91551833D01*
X136685100Y-91666511D01*
X136917899Y-91737130D01*
X137160000Y-91760975D01*
X137402102Y-91737130D01*
X137634901Y-91666511D01*
X137849449Y-91551833D01*
X138037502Y-91397502D01*
X138191833Y-91209449D01*
X138306511Y-90994901D01*
X138377130Y-90762101D01*
X138395000Y-90580664D01*
X138395000Y-90458251D01*
X138501120Y-90564371D01*
X138501120Y-90757417D01*
X138497434Y-90794840D01*
X138501120Y-90832263D01*
X138501120Y-90832266D01*
X138512146Y-90944218D01*
X138555718Y-91087855D01*
X138574741Y-91123444D01*
X138626475Y-91220232D01*
X138669585Y-91272761D01*
X138721699Y-91336262D01*
X138750769Y-91360119D01*
X143016570Y-95625921D01*
X137253980Y-95625921D01*
X137253980Y-95525853D01*
X137214936Y-95329564D01*
X137138348Y-95144664D01*
X137062737Y-95031504D01*
X137088119Y-95006122D01*
X137199308Y-94839716D01*
X137275896Y-94654816D01*
X137314940Y-94458527D01*
X137314940Y-94258393D01*
X137275896Y-94062104D01*
X137199308Y-93877204D01*
X137088119Y-93710798D01*
X136946602Y-93569281D01*
X136780196Y-93458092D01*
X136595296Y-93381504D01*
X136399007Y-93342460D01*
X136198873Y-93342460D01*
X136002584Y-93381504D01*
X135817684Y-93458092D01*
X135651278Y-93569281D01*
X135509761Y-93710798D01*
X135398572Y-93877204D01*
X135321984Y-94062104D01*
X135282940Y-94258393D01*
X135282940Y-94458527D01*
X135321984Y-94654816D01*
X135398572Y-94839716D01*
X135474183Y-94952876D01*
X135448801Y-94978258D01*
X135337612Y-95144664D01*
X135261024Y-95329564D01*
X135221980Y-95525853D01*
X135221980Y-95625921D01*
X131796195Y-95625921D01*
X127707386Y-91537113D01*
X127877502Y-91397502D01*
X128031833Y-91209449D01*
X128146511Y-90994901D01*
X128217130Y-90762101D01*
X128235000Y-90580664D01*
X128235000Y-89659335D01*
X128219404Y-89500990D01*
X128320596Y-89500990D01*
X128305000Y-89659336D01*
M02*
