G04 #@! TF.GenerationSoftware,KiCad,Pcbnew,5.1.5*
G04 #@! TF.CreationDate,2020-05-20T18:02:06-05:00*
G04 #@! TF.ProjectId,kdi574,6b646935-3734-42e6-9b69-6361645f7063,v01*
G04 #@! TF.SameCoordinates,Original*
G04 #@! TF.FileFunction,Legend,Bot*
G04 #@! TF.FilePolarity,Positive*
%FSLAX46Y46*%
G04 Gerber Fmt 4.6, Leading zero omitted, Abs format (unit mm)*
G04 Created by KiCad (PCBNEW 5.1.5) date 2020-05-20 18:02:06*
%MOMM*%
%LPD*%
G04 APERTURE LIST*
%ADD10C,0.150000*%
%ADD11C,0.120000*%
%ADD12C,0.100000*%
G04 APERTURE END LIST*
D10*
X173592928Y-106807260D02*
X173592928Y-105807260D01*
X173259595Y-106521546D01*
X172926261Y-105807260D01*
X172926261Y-106807260D01*
X172450071Y-106807260D02*
X172450071Y-105807260D01*
X172021500Y-106759641D02*
X171878642Y-106807260D01*
X171640547Y-106807260D01*
X171545309Y-106759641D01*
X171497690Y-106712022D01*
X171450071Y-106616784D01*
X171450071Y-106521546D01*
X171497690Y-106426308D01*
X171545309Y-106378689D01*
X171640547Y-106331070D01*
X171831023Y-106283451D01*
X171926261Y-106235832D01*
X171973880Y-106188213D01*
X172021500Y-106092975D01*
X172021500Y-105997737D01*
X171973880Y-105902499D01*
X171926261Y-105854880D01*
X171831023Y-105807260D01*
X171592928Y-105807260D01*
X171450071Y-105854880D01*
X170831023Y-105807260D02*
X170640547Y-105807260D01*
X170545309Y-105854880D01*
X170450071Y-105950118D01*
X170402452Y-106140594D01*
X170402452Y-106473927D01*
X170450071Y-106664403D01*
X170545309Y-106759641D01*
X170640547Y-106807260D01*
X170831023Y-106807260D01*
X170926261Y-106759641D01*
X171021500Y-106664403D01*
X171069119Y-106473927D01*
X171069119Y-106140594D01*
X171021500Y-105950118D01*
X170926261Y-105854880D01*
X170831023Y-105807260D01*
X172218599Y-104244400D02*
X172551932Y-103768210D01*
X172790027Y-104244400D02*
X172790027Y-103244400D01*
X172409075Y-103244400D01*
X172313837Y-103292020D01*
X172266218Y-103339639D01*
X172218599Y-103434877D01*
X172218599Y-103577734D01*
X172266218Y-103672972D01*
X172313837Y-103720591D01*
X172409075Y-103768210D01*
X172790027Y-103768210D01*
X171837646Y-104196781D02*
X171694789Y-104244400D01*
X171456694Y-104244400D01*
X171361456Y-104196781D01*
X171313837Y-104149162D01*
X171266218Y-104053924D01*
X171266218Y-103958686D01*
X171313837Y-103863448D01*
X171361456Y-103815829D01*
X171456694Y-103768210D01*
X171647170Y-103720591D01*
X171742408Y-103672972D01*
X171790027Y-103625353D01*
X171837646Y-103530115D01*
X171837646Y-103434877D01*
X171790027Y-103339639D01*
X171742408Y-103292020D01*
X171647170Y-103244400D01*
X171409075Y-103244400D01*
X171266218Y-103292020D01*
X170980503Y-103244400D02*
X170409075Y-103244400D01*
X170694789Y-104244400D02*
X170694789Y-103244400D01*
X172223868Y-99662240D02*
X172223868Y-98662240D01*
X171890535Y-99376526D01*
X171557201Y-98662240D01*
X171557201Y-99662240D01*
X170890535Y-98662240D02*
X170700059Y-98662240D01*
X170604820Y-98709860D01*
X170509582Y-98805098D01*
X170461963Y-98995574D01*
X170461963Y-99328907D01*
X170509582Y-99519383D01*
X170604820Y-99614621D01*
X170700059Y-99662240D01*
X170890535Y-99662240D01*
X170985773Y-99614621D01*
X171081011Y-99519383D01*
X171128630Y-99328907D01*
X171128630Y-98995574D01*
X171081011Y-98805098D01*
X170985773Y-98709860D01*
X170890535Y-98662240D01*
X170081011Y-99614621D02*
X169938154Y-99662240D01*
X169700059Y-99662240D01*
X169604820Y-99614621D01*
X169557201Y-99567002D01*
X169509582Y-99471764D01*
X169509582Y-99376526D01*
X169557201Y-99281288D01*
X169604820Y-99233669D01*
X169700059Y-99186050D01*
X169890535Y-99138431D01*
X169985773Y-99090812D01*
X170033392Y-99043193D01*
X170081011Y-98947955D01*
X170081011Y-98852717D01*
X170033392Y-98757479D01*
X169985773Y-98709860D01*
X169890535Y-98662240D01*
X169652440Y-98662240D01*
X169509582Y-98709860D01*
X169081011Y-99662240D02*
X169081011Y-98662240D01*
X163863494Y-106777421D02*
X163720637Y-106825040D01*
X163482541Y-106825040D01*
X163387303Y-106777421D01*
X163339684Y-106729802D01*
X163292065Y-106634564D01*
X163292065Y-106539326D01*
X163339684Y-106444088D01*
X163387303Y-106396469D01*
X163482541Y-106348850D01*
X163673018Y-106301231D01*
X163768256Y-106253612D01*
X163815875Y-106205993D01*
X163863494Y-106110755D01*
X163863494Y-106015517D01*
X163815875Y-105920279D01*
X163768256Y-105872660D01*
X163673018Y-105825040D01*
X163434922Y-105825040D01*
X163292065Y-105872660D01*
X162292065Y-106729802D02*
X162339684Y-106777421D01*
X162482541Y-106825040D01*
X162577780Y-106825040D01*
X162720637Y-106777421D01*
X162815875Y-106682183D01*
X162863494Y-106586945D01*
X162911113Y-106396469D01*
X162911113Y-106253612D01*
X162863494Y-106063136D01*
X162815875Y-105967898D01*
X162720637Y-105872660D01*
X162577780Y-105825040D01*
X162482541Y-105825040D01*
X162339684Y-105872660D01*
X162292065Y-105920279D01*
X161863494Y-106825040D02*
X161863494Y-105825040D01*
X161292065Y-106825040D02*
X161720637Y-106253612D01*
X161292065Y-105825040D02*
X161863494Y-106396469D01*
X163875553Y-103368860D02*
X163542220Y-104368860D01*
X163208886Y-103368860D01*
X162304124Y-104273622D02*
X162351743Y-104321241D01*
X162494600Y-104368860D01*
X162589839Y-104368860D01*
X162732696Y-104321241D01*
X162827934Y-104226003D01*
X162875553Y-104130765D01*
X162923172Y-103940289D01*
X162923172Y-103797432D01*
X162875553Y-103606956D01*
X162827934Y-103511718D01*
X162732696Y-103416480D01*
X162589839Y-103368860D01*
X162494600Y-103368860D01*
X162351743Y-103416480D01*
X162304124Y-103464099D01*
X161304124Y-104273622D02*
X161351743Y-104321241D01*
X161494600Y-104368860D01*
X161589839Y-104368860D01*
X161732696Y-104321241D01*
X161827934Y-104226003D01*
X161875553Y-104130765D01*
X161923172Y-103940289D01*
X161923172Y-103797432D01*
X161875553Y-103606956D01*
X161827934Y-103511718D01*
X161732696Y-103416480D01*
X161589839Y-103368860D01*
X161494600Y-103368860D01*
X161351743Y-103416480D01*
X161304124Y-103464099D01*
X163339684Y-100782500D02*
X163434922Y-100734880D01*
X163577780Y-100734880D01*
X163720637Y-100782500D01*
X163815875Y-100877738D01*
X163863494Y-100972976D01*
X163911113Y-101163452D01*
X163911113Y-101306309D01*
X163863494Y-101496785D01*
X163815875Y-101592023D01*
X163720637Y-101687261D01*
X163577780Y-101734880D01*
X163482541Y-101734880D01*
X163339684Y-101687261D01*
X163292065Y-101639642D01*
X163292065Y-101306309D01*
X163482541Y-101306309D01*
X162863494Y-101734880D02*
X162863494Y-100734880D01*
X162292065Y-101734880D01*
X162292065Y-100734880D01*
X161815875Y-101734880D02*
X161815875Y-100734880D01*
X161577780Y-100734880D01*
X161434922Y-100782500D01*
X161339684Y-100877738D01*
X161292065Y-100972976D01*
X161244446Y-101163452D01*
X161244446Y-101306309D01*
X161292065Y-101496785D01*
X161339684Y-101592023D01*
X161434922Y-101687261D01*
X161577780Y-101734880D01*
X161815875Y-101734880D01*
X143146613Y-102500061D02*
X143003756Y-102547680D01*
X142765660Y-102547680D01*
X142670422Y-102500061D01*
X142622803Y-102452442D01*
X142575184Y-102357204D01*
X142575184Y-102261966D01*
X142622803Y-102166728D01*
X142670422Y-102119109D01*
X142765660Y-102071490D01*
X142956137Y-102023871D01*
X143051375Y-101976252D01*
X143098994Y-101928633D01*
X143146613Y-101833395D01*
X143146613Y-101738157D01*
X143098994Y-101642919D01*
X143051375Y-101595300D01*
X142956137Y-101547680D01*
X142718041Y-101547680D01*
X142575184Y-101595300D01*
X142241851Y-101547680D02*
X142003756Y-102547680D01*
X141813280Y-101833395D01*
X141622803Y-102547680D01*
X141384708Y-101547680D01*
X141098994Y-101547680D02*
X140479946Y-101547680D01*
X140813280Y-101928633D01*
X140670422Y-101928633D01*
X140575184Y-101976252D01*
X140527565Y-102023871D01*
X140479946Y-102119109D01*
X140479946Y-102357204D01*
X140527565Y-102452442D01*
X140575184Y-102500061D01*
X140670422Y-102547680D01*
X140956137Y-102547680D01*
X141051375Y-102500061D01*
X141098994Y-102452442D01*
X145488564Y-108826680D02*
X145583802Y-108779060D01*
X145726660Y-108779060D01*
X145869517Y-108826680D01*
X145964755Y-108921918D01*
X146012374Y-109017156D01*
X146059993Y-109207632D01*
X146059993Y-109350489D01*
X146012374Y-109540965D01*
X145964755Y-109636203D01*
X145869517Y-109731441D01*
X145726660Y-109779060D01*
X145631421Y-109779060D01*
X145488564Y-109731441D01*
X145440945Y-109683822D01*
X145440945Y-109350489D01*
X145631421Y-109350489D01*
X145012374Y-109779060D02*
X145012374Y-108779060D01*
X144440945Y-109779060D01*
X144440945Y-108779060D01*
X143964755Y-109779060D02*
X143964755Y-108779060D01*
X143726660Y-108779060D01*
X143583802Y-108826680D01*
X143488564Y-108921918D01*
X143440945Y-109017156D01*
X143393326Y-109207632D01*
X143393326Y-109350489D01*
X143440945Y-109540965D01*
X143488564Y-109636203D01*
X143583802Y-109731441D01*
X143726660Y-109779060D01*
X143964755Y-109779060D01*
X151998513Y-107676581D02*
X151855656Y-107724200D01*
X151617560Y-107724200D01*
X151522322Y-107676581D01*
X151474703Y-107628962D01*
X151427084Y-107533724D01*
X151427084Y-107438486D01*
X151474703Y-107343248D01*
X151522322Y-107295629D01*
X151617560Y-107248010D01*
X151808037Y-107200391D01*
X151903275Y-107152772D01*
X151950894Y-107105153D01*
X151998513Y-107009915D01*
X151998513Y-106914677D01*
X151950894Y-106819439D01*
X151903275Y-106771820D01*
X151808037Y-106724200D01*
X151569941Y-106724200D01*
X151427084Y-106771820D01*
X151093751Y-106724200D02*
X150855656Y-107724200D01*
X150665180Y-107009915D01*
X150474703Y-107724200D01*
X150236608Y-106724200D01*
X149903275Y-106819439D02*
X149855656Y-106771820D01*
X149760418Y-106724200D01*
X149522322Y-106724200D01*
X149427084Y-106771820D01*
X149379465Y-106819439D01*
X149331846Y-106914677D01*
X149331846Y-107009915D01*
X149379465Y-107152772D01*
X149950894Y-107724200D01*
X149331846Y-107724200D01*
X151988353Y-105253421D02*
X151845496Y-105301040D01*
X151607400Y-105301040D01*
X151512162Y-105253421D01*
X151464543Y-105205802D01*
X151416924Y-105110564D01*
X151416924Y-105015326D01*
X151464543Y-104920088D01*
X151512162Y-104872469D01*
X151607400Y-104824850D01*
X151797877Y-104777231D01*
X151893115Y-104729612D01*
X151940734Y-104681993D01*
X151988353Y-104586755D01*
X151988353Y-104491517D01*
X151940734Y-104396279D01*
X151893115Y-104348660D01*
X151797877Y-104301040D01*
X151559781Y-104301040D01*
X151416924Y-104348660D01*
X151083591Y-104301040D02*
X150845496Y-105301040D01*
X150655020Y-104586755D01*
X150464543Y-105301040D01*
X150226448Y-104301040D01*
X149416924Y-104634374D02*
X149416924Y-105301040D01*
X149655020Y-104253421D02*
X149893115Y-104967707D01*
X149274067Y-104967707D01*
X143098353Y-105085781D02*
X142955496Y-105133400D01*
X142717400Y-105133400D01*
X142622162Y-105085781D01*
X142574543Y-105038162D01*
X142526924Y-104942924D01*
X142526924Y-104847686D01*
X142574543Y-104752448D01*
X142622162Y-104704829D01*
X142717400Y-104657210D01*
X142907877Y-104609591D01*
X143003115Y-104561972D01*
X143050734Y-104514353D01*
X143098353Y-104419115D01*
X143098353Y-104323877D01*
X143050734Y-104228639D01*
X143003115Y-104181020D01*
X142907877Y-104133400D01*
X142669781Y-104133400D01*
X142526924Y-104181020D01*
X142193591Y-104133400D02*
X141955496Y-105133400D01*
X141765020Y-104419115D01*
X141574543Y-105133400D01*
X141336448Y-104133400D01*
X140431686Y-105133400D02*
X141003115Y-105133400D01*
X140717400Y-105133400D02*
X140717400Y-104133400D01*
X140812639Y-104276258D01*
X140907877Y-104371496D01*
X141003115Y-104419115D01*
D11*
X143450000Y-108518000D02*
X144780000Y-108518000D01*
X143450000Y-107188000D02*
X143450000Y-108518000D01*
X146050000Y-108518000D02*
X148650000Y-108518000D01*
X146050000Y-105918000D02*
X146050000Y-108518000D01*
X143450000Y-105918000D02*
X146050000Y-105918000D01*
X148650000Y-108518000D02*
X148650000Y-100778000D01*
X143450000Y-105918000D02*
X143450000Y-100778000D01*
X143450000Y-100778000D02*
X148650000Y-100778000D01*
X195631800Y-97322000D02*
X182431800Y-97322000D01*
X182431800Y-97322000D02*
X182431800Y-106342000D01*
D12*
X182431800Y-115202000D02*
X182431800Y-115322000D01*
D11*
X182431800Y-115322000D02*
X182431800Y-108542000D01*
D12*
X182431800Y-115312000D02*
X182431800Y-115322000D01*
D11*
X182431800Y-115322000D02*
X195631800Y-115322000D01*
X195631800Y-115322000D02*
X195631800Y-108542000D01*
D12*
X195631800Y-106272000D02*
X195631800Y-106342000D01*
D11*
X195631800Y-106342000D02*
X195631800Y-97322000D01*
X196101800Y-99322000D02*
X196101800Y-97792000D01*
X169668500Y-99901700D02*
X167068500Y-99901700D01*
X169668500Y-99901700D02*
X169668500Y-107641700D01*
X169668500Y-107641700D02*
X164468500Y-107641700D01*
X164468500Y-102501700D02*
X164468500Y-107641700D01*
X167068500Y-102501700D02*
X164468500Y-102501700D01*
X167068500Y-99901700D02*
X167068500Y-102501700D01*
X164468500Y-99901700D02*
X164468500Y-101231700D01*
X165798500Y-99901700D02*
X164468500Y-99901700D01*
X116438000Y-94269936D02*
X116438000Y-95474064D01*
X118258000Y-94269936D02*
X118258000Y-95474064D01*
X139594000Y-105882064D02*
X139594000Y-104677936D01*
X137774000Y-105882064D02*
X137774000Y-104677936D01*
X144420000Y-93504936D02*
X144420000Y-94709064D01*
X142600000Y-93504936D02*
X142600000Y-94709064D01*
X145140000Y-93504936D02*
X145140000Y-94709064D01*
X146960000Y-93504936D02*
X146960000Y-94709064D01*
X149500000Y-93504936D02*
X149500000Y-94709064D01*
X147680000Y-93504936D02*
X147680000Y-94709064D01*
X173080000Y-93377936D02*
X173080000Y-94582064D01*
X174900000Y-93377936D02*
X174900000Y-94582064D01*
X177440000Y-93377936D02*
X177440000Y-94582064D01*
X175620000Y-93377936D02*
X175620000Y-94582064D01*
X179980000Y-93377936D02*
X179980000Y-94582064D01*
X178160000Y-93377936D02*
X178160000Y-94582064D01*
X140060000Y-93504936D02*
X140060000Y-94709064D01*
X141880000Y-93504936D02*
X141880000Y-94709064D01*
X121506000Y-100076000D02*
X121506000Y-96216000D01*
X121506000Y-96216000D02*
X121741000Y-96216000D01*
X121506000Y-100076000D02*
X121506000Y-103936000D01*
X121506000Y-103936000D02*
X121741000Y-103936000D01*
X134526000Y-100076000D02*
X134526000Y-96216000D01*
X134526000Y-96216000D02*
X134291000Y-96216000D01*
X134526000Y-100076000D02*
X134526000Y-103936000D01*
X134526000Y-103936000D02*
X134291000Y-103936000D01*
X134291000Y-103936000D02*
X134291000Y-105751000D01*
D10*
X146396033Y-99373440D02*
X146396033Y-100087726D01*
X146443652Y-100230583D01*
X146538890Y-100325821D01*
X146681747Y-100373440D01*
X146776985Y-100373440D01*
X146015080Y-99373440D02*
X145396033Y-99373440D01*
X145729366Y-99754393D01*
X145586509Y-99754393D01*
X145491271Y-99802012D01*
X145443652Y-99849631D01*
X145396033Y-99944869D01*
X145396033Y-100182964D01*
X145443652Y-100278202D01*
X145491271Y-100325821D01*
X145586509Y-100373440D01*
X145872223Y-100373440D01*
X145967461Y-100325821D01*
X146015080Y-100278202D01*
X194205133Y-95844380D02*
X194205133Y-96558666D01*
X194252752Y-96701523D01*
X194347990Y-96796761D01*
X194490847Y-96844380D01*
X194586085Y-96844380D01*
X193205133Y-96844380D02*
X193776561Y-96844380D01*
X193490847Y-96844380D02*
X193490847Y-95844380D01*
X193586085Y-95987238D01*
X193681323Y-96082476D01*
X193776561Y-96130095D01*
X167401833Y-97914080D02*
X167401833Y-98628366D01*
X167449452Y-98771223D01*
X167544690Y-98866461D01*
X167687547Y-98914080D01*
X167782785Y-98914080D01*
X166973261Y-98009319D02*
X166925642Y-97961700D01*
X166830404Y-97914080D01*
X166592309Y-97914080D01*
X166497071Y-97961700D01*
X166449452Y-98009319D01*
X166401833Y-98104557D01*
X166401833Y-98199795D01*
X166449452Y-98342652D01*
X167020880Y-98914080D01*
X166401833Y-98914080D01*
X117481646Y-91623140D02*
X117814980Y-91146950D01*
X118053075Y-91623140D02*
X118053075Y-90623140D01*
X117672122Y-90623140D01*
X117576884Y-90670760D01*
X117529265Y-90718379D01*
X117481646Y-90813617D01*
X117481646Y-90956474D01*
X117529265Y-91051712D01*
X117576884Y-91099331D01*
X117672122Y-91146950D01*
X118053075Y-91146950D01*
X116529265Y-91623140D02*
X117100694Y-91623140D01*
X116814980Y-91623140D02*
X116814980Y-90623140D01*
X116910218Y-90765998D01*
X117005456Y-90861236D01*
X117100694Y-90908855D01*
X138825266Y-102613720D02*
X139158600Y-102137530D01*
X139396695Y-102613720D02*
X139396695Y-101613720D01*
X139015742Y-101613720D01*
X138920504Y-101661340D01*
X138872885Y-101708959D01*
X138825266Y-101804197D01*
X138825266Y-101947054D01*
X138872885Y-102042292D01*
X138920504Y-102089911D01*
X139015742Y-102137530D01*
X139396695Y-102137530D01*
X138444314Y-101708959D02*
X138396695Y-101661340D01*
X138301457Y-101613720D01*
X138063361Y-101613720D01*
X137968123Y-101661340D01*
X137920504Y-101708959D01*
X137872885Y-101804197D01*
X137872885Y-101899435D01*
X137920504Y-102042292D01*
X138491933Y-102613720D01*
X137872885Y-102613720D01*
X143666506Y-97896940D02*
X143999840Y-97420750D01*
X144237935Y-97896940D02*
X144237935Y-96896940D01*
X143856982Y-96896940D01*
X143761744Y-96944560D01*
X143714125Y-96992179D01*
X143666506Y-97087417D01*
X143666506Y-97230274D01*
X143714125Y-97325512D01*
X143761744Y-97373131D01*
X143856982Y-97420750D01*
X144237935Y-97420750D01*
X143333173Y-96896940D02*
X142714125Y-96896940D01*
X143047459Y-97277893D01*
X142904601Y-97277893D01*
X142809363Y-97325512D01*
X142761744Y-97373131D01*
X142714125Y-97468369D01*
X142714125Y-97706464D01*
X142761744Y-97801702D01*
X142809363Y-97849321D01*
X142904601Y-97896940D01*
X143190316Y-97896940D01*
X143285554Y-97849321D01*
X143333173Y-97801702D01*
X146211586Y-97896940D02*
X146544920Y-97420750D01*
X146783015Y-97896940D02*
X146783015Y-96896940D01*
X146402062Y-96896940D01*
X146306824Y-96944560D01*
X146259205Y-96992179D01*
X146211586Y-97087417D01*
X146211586Y-97230274D01*
X146259205Y-97325512D01*
X146306824Y-97373131D01*
X146402062Y-97420750D01*
X146783015Y-97420750D01*
X145354443Y-97230274D02*
X145354443Y-97896940D01*
X145592539Y-96849321D02*
X145830634Y-97563607D01*
X145211586Y-97563607D01*
X148774446Y-97879160D02*
X149107780Y-97402970D01*
X149345875Y-97879160D02*
X149345875Y-96879160D01*
X148964922Y-96879160D01*
X148869684Y-96926780D01*
X148822065Y-96974399D01*
X148774446Y-97069637D01*
X148774446Y-97212494D01*
X148822065Y-97307732D01*
X148869684Y-97355351D01*
X148964922Y-97402970D01*
X149345875Y-97402970D01*
X147869684Y-96879160D02*
X148345875Y-96879160D01*
X148393494Y-97355351D01*
X148345875Y-97307732D01*
X148250637Y-97260113D01*
X148012541Y-97260113D01*
X147917303Y-97307732D01*
X147869684Y-97355351D01*
X147822065Y-97450589D01*
X147822065Y-97688684D01*
X147869684Y-97783922D01*
X147917303Y-97831541D01*
X148012541Y-97879160D01*
X148250637Y-97879160D01*
X148345875Y-97831541D01*
X148393494Y-97783922D01*
X174169366Y-91171020D02*
X174502700Y-90694830D01*
X174740795Y-91171020D02*
X174740795Y-90171020D01*
X174359842Y-90171020D01*
X174264604Y-90218640D01*
X174216985Y-90266259D01*
X174169366Y-90361497D01*
X174169366Y-90504354D01*
X174216985Y-90599592D01*
X174264604Y-90647211D01*
X174359842Y-90694830D01*
X174740795Y-90694830D01*
X173312223Y-90171020D02*
X173502700Y-90171020D01*
X173597938Y-90218640D01*
X173645557Y-90266259D01*
X173740795Y-90409116D01*
X173788414Y-90599592D01*
X173788414Y-90980544D01*
X173740795Y-91075782D01*
X173693176Y-91123401D01*
X173597938Y-91171020D01*
X173407461Y-91171020D01*
X173312223Y-91123401D01*
X173264604Y-91075782D01*
X173216985Y-90980544D01*
X173216985Y-90742449D01*
X173264604Y-90647211D01*
X173312223Y-90599592D01*
X173407461Y-90551973D01*
X173597938Y-90551973D01*
X173693176Y-90599592D01*
X173740795Y-90647211D01*
X173788414Y-90742449D01*
X176696666Y-91257380D02*
X177030000Y-90781190D01*
X177268095Y-91257380D02*
X177268095Y-90257380D01*
X176887142Y-90257380D01*
X176791904Y-90305000D01*
X176744285Y-90352619D01*
X176696666Y-90447857D01*
X176696666Y-90590714D01*
X176744285Y-90685952D01*
X176791904Y-90733571D01*
X176887142Y-90781190D01*
X177268095Y-90781190D01*
X176363333Y-90257380D02*
X175696666Y-90257380D01*
X176125238Y-91257380D01*
X179241746Y-91206580D02*
X179575080Y-90730390D01*
X179813175Y-91206580D02*
X179813175Y-90206580D01*
X179432222Y-90206580D01*
X179336984Y-90254200D01*
X179289365Y-90301819D01*
X179241746Y-90397057D01*
X179241746Y-90539914D01*
X179289365Y-90635152D01*
X179336984Y-90682771D01*
X179432222Y-90730390D01*
X179813175Y-90730390D01*
X178670318Y-90635152D02*
X178765556Y-90587533D01*
X178813175Y-90539914D01*
X178860794Y-90444676D01*
X178860794Y-90397057D01*
X178813175Y-90301819D01*
X178765556Y-90254200D01*
X178670318Y-90206580D01*
X178479841Y-90206580D01*
X178384603Y-90254200D01*
X178336984Y-90301819D01*
X178289365Y-90397057D01*
X178289365Y-90444676D01*
X178336984Y-90539914D01*
X178384603Y-90587533D01*
X178479841Y-90635152D01*
X178670318Y-90635152D01*
X178765556Y-90682771D01*
X178813175Y-90730390D01*
X178860794Y-90825628D01*
X178860794Y-91016104D01*
X178813175Y-91111342D01*
X178765556Y-91158961D01*
X178670318Y-91206580D01*
X178479841Y-91206580D01*
X178384603Y-91158961D01*
X178336984Y-91111342D01*
X178289365Y-91016104D01*
X178289365Y-90825628D01*
X178336984Y-90730390D01*
X178384603Y-90682771D01*
X178479841Y-90635152D01*
X141640797Y-97881700D02*
X141974130Y-97405510D01*
X142212225Y-97881700D02*
X142212225Y-96881700D01*
X141831273Y-96881700D01*
X141736035Y-96929320D01*
X141688416Y-96976939D01*
X141640797Y-97072177D01*
X141640797Y-97215034D01*
X141688416Y-97310272D01*
X141736035Y-97357891D01*
X141831273Y-97405510D01*
X142212225Y-97405510D01*
X140688416Y-97881700D02*
X141259844Y-97881700D01*
X140974130Y-97881700D02*
X140974130Y-96881700D01*
X141069368Y-97024558D01*
X141164606Y-97119796D01*
X141259844Y-97167415D01*
X140069368Y-96881700D02*
X139974130Y-96881700D01*
X139878892Y-96929320D01*
X139831273Y-96976939D01*
X139783654Y-97072177D01*
X139736035Y-97262653D01*
X139736035Y-97500748D01*
X139783654Y-97691224D01*
X139831273Y-97786462D01*
X139878892Y-97834081D01*
X139974130Y-97881700D01*
X140069368Y-97881700D01*
X140164606Y-97834081D01*
X140212225Y-97786462D01*
X140259844Y-97691224D01*
X140307463Y-97500748D01*
X140307463Y-97262653D01*
X140259844Y-97072177D01*
X140212225Y-96976939D01*
X140164606Y-96929320D01*
X140069368Y-96881700D01*
X123522644Y-106719120D02*
X123522644Y-107528644D01*
X123475025Y-107623882D01*
X123427406Y-107671501D01*
X123332168Y-107719120D01*
X123141692Y-107719120D01*
X123046454Y-107671501D01*
X122998835Y-107623882D01*
X122951216Y-107528644D01*
X122951216Y-106719120D01*
X122522644Y-106814359D02*
X122475025Y-106766740D01*
X122379787Y-106719120D01*
X122141692Y-106719120D01*
X122046454Y-106766740D01*
X121998835Y-106814359D01*
X121951216Y-106909597D01*
X121951216Y-107004835D01*
X121998835Y-107147692D01*
X122570263Y-107719120D01*
X121951216Y-107719120D01*
M02*
