G04 #@! TF.GenerationSoftware,KiCad,Pcbnew,5.1.5*
G04 #@! TF.CreationDate,2020-05-20T18:02:06-05:00*
G04 #@! TF.ProjectId,kdi574,6b646935-3734-42e6-9b69-6361645f7063,v01*
G04 #@! TF.SameCoordinates,Original*
G04 #@! TF.FileFunction,Soldermask,Bot*
G04 #@! TF.FilePolarity,Negative*
%FSLAX46Y46*%
G04 Gerber Fmt 4.6, Leading zero omitted, Abs format (unit mm)*
G04 Created by KiCad (PCBNEW 5.1.5) date 2020-05-20 18:02:06*
%MOMM*%
%LPD*%
G04 APERTURE LIST*
%ADD10C,0.100000*%
G04 APERTURE END LIST*
D10*
G36*
X194438732Y-105798400D02*
G01*
X194600615Y-105830601D01*
X194905589Y-105956926D01*
X195180061Y-106140321D01*
X195413479Y-106373739D01*
X195596874Y-106648211D01*
X195723199Y-106953185D01*
X195723199Y-106953187D01*
X195787555Y-107276721D01*
X195787600Y-107276950D01*
X195787600Y-107607050D01*
X195723199Y-107930815D01*
X195596874Y-108235789D01*
X195413479Y-108510261D01*
X195180061Y-108743679D01*
X194905589Y-108927074D01*
X194600615Y-109053399D01*
X194438733Y-109085599D01*
X194276852Y-109117800D01*
X193946748Y-109117800D01*
X193784867Y-109085599D01*
X193622985Y-109053399D01*
X193318011Y-108927074D01*
X193043539Y-108743679D01*
X192810121Y-108510261D01*
X192626726Y-108235789D01*
X192500401Y-107930815D01*
X192436000Y-107607050D01*
X192436000Y-107276950D01*
X192436046Y-107276721D01*
X192500401Y-106953187D01*
X192500401Y-106953185D01*
X192626726Y-106648211D01*
X192810121Y-106373739D01*
X193043539Y-106140321D01*
X193318011Y-105956926D01*
X193622985Y-105830601D01*
X193784868Y-105798400D01*
X193946748Y-105766200D01*
X194276852Y-105766200D01*
X194438732Y-105798400D01*
G37*
G36*
X184278732Y-105798400D02*
G01*
X184440615Y-105830601D01*
X184745589Y-105956926D01*
X185020061Y-106140321D01*
X185253479Y-106373739D01*
X185436874Y-106648211D01*
X185563199Y-106953185D01*
X185563199Y-106953187D01*
X185627555Y-107276721D01*
X185627600Y-107276950D01*
X185627600Y-107607050D01*
X185563199Y-107930815D01*
X185436874Y-108235789D01*
X185253479Y-108510261D01*
X185020061Y-108743679D01*
X184745589Y-108927074D01*
X184440615Y-109053399D01*
X184278733Y-109085599D01*
X184116852Y-109117800D01*
X183786748Y-109117800D01*
X183624867Y-109085599D01*
X183462985Y-109053399D01*
X183158011Y-108927074D01*
X182883539Y-108743679D01*
X182650121Y-108510261D01*
X182466726Y-108235789D01*
X182340401Y-107930815D01*
X182276000Y-107607050D01*
X182276000Y-107276950D01*
X182276046Y-107276721D01*
X182340401Y-106953187D01*
X182340401Y-106953185D01*
X182466726Y-106648211D01*
X182650121Y-106373739D01*
X182883539Y-106140321D01*
X183158011Y-105956926D01*
X183462985Y-105830601D01*
X183624868Y-105798400D01*
X183786748Y-105766200D01*
X184116852Y-105766200D01*
X184278732Y-105798400D01*
G37*
G36*
X145680800Y-108088800D02*
G01*
X143879200Y-108088800D01*
X143879200Y-106287200D01*
X145680800Y-106287200D01*
X145680800Y-108088800D01*
G37*
G36*
X147582754Y-106321817D02*
G01*
X147746689Y-106389721D01*
X147894227Y-106488303D01*
X148019697Y-106613773D01*
X148118279Y-106761311D01*
X148186183Y-106925246D01*
X148220800Y-107099279D01*
X148220800Y-107276721D01*
X148186183Y-107450754D01*
X148118279Y-107614689D01*
X148019697Y-107762227D01*
X147894227Y-107887697D01*
X147746689Y-107986279D01*
X147582754Y-108054183D01*
X147408721Y-108088800D01*
X147231279Y-108088800D01*
X147057246Y-108054183D01*
X146893311Y-107986279D01*
X146745773Y-107887697D01*
X146620303Y-107762227D01*
X146521721Y-107614689D01*
X146453817Y-107450754D01*
X146419200Y-107276721D01*
X146419200Y-107099279D01*
X146453817Y-106925246D01*
X146521721Y-106761311D01*
X146620303Y-106613773D01*
X146745773Y-106488303D01*
X146893311Y-106389721D01*
X147057246Y-106321817D01*
X147231279Y-106287200D01*
X147408721Y-106287200D01*
X147582754Y-106321817D01*
G37*
G36*
X139416556Y-106009051D02*
G01*
X139461541Y-106022697D01*
X139502993Y-106044854D01*
X139539327Y-106074673D01*
X139569146Y-106111007D01*
X139591303Y-106152459D01*
X139604949Y-106197444D01*
X139609800Y-106246703D01*
X139609800Y-107113297D01*
X139604949Y-107162556D01*
X139591303Y-107207541D01*
X139569146Y-107248993D01*
X139539327Y-107285327D01*
X139502993Y-107315146D01*
X139461541Y-107337303D01*
X139416556Y-107350949D01*
X139367297Y-107355800D01*
X138000703Y-107355800D01*
X137951444Y-107350949D01*
X137906459Y-107337303D01*
X137865007Y-107315146D01*
X137828673Y-107285327D01*
X137798854Y-107248993D01*
X137776697Y-107207541D01*
X137763051Y-107162556D01*
X137758200Y-107113297D01*
X137758200Y-106246703D01*
X137763051Y-106197444D01*
X137776697Y-106152459D01*
X137798854Y-106111007D01*
X137828673Y-106074673D01*
X137865007Y-106044854D01*
X137906459Y-106022697D01*
X137951444Y-106009051D01*
X138000703Y-106004200D01*
X139367297Y-106004200D01*
X139416556Y-106009051D01*
G37*
G36*
X166061254Y-105445517D02*
G01*
X166225189Y-105513421D01*
X166372727Y-105612003D01*
X166498197Y-105737473D01*
X166596779Y-105885011D01*
X166664683Y-106048946D01*
X166699300Y-106222979D01*
X166699300Y-106400421D01*
X166664683Y-106574454D01*
X166596779Y-106738389D01*
X166498197Y-106885927D01*
X166372727Y-107011397D01*
X166225189Y-107109979D01*
X166061254Y-107177883D01*
X165887221Y-107212500D01*
X165709779Y-107212500D01*
X165535746Y-107177883D01*
X165371811Y-107109979D01*
X165224273Y-107011397D01*
X165098803Y-106885927D01*
X165000221Y-106738389D01*
X164932317Y-106574454D01*
X164897700Y-106400421D01*
X164897700Y-106222979D01*
X164932317Y-106048946D01*
X165000221Y-105885011D01*
X165098803Y-105737473D01*
X165224273Y-105612003D01*
X165371811Y-105513421D01*
X165535746Y-105445517D01*
X165709779Y-105410900D01*
X165887221Y-105410900D01*
X166061254Y-105445517D01*
G37*
G36*
X168601254Y-105445517D02*
G01*
X168765189Y-105513421D01*
X168912727Y-105612003D01*
X169038197Y-105737473D01*
X169136779Y-105885011D01*
X169204683Y-106048946D01*
X169239300Y-106222979D01*
X169239300Y-106400421D01*
X169204683Y-106574454D01*
X169136779Y-106738389D01*
X169038197Y-106885927D01*
X168912727Y-107011397D01*
X168765189Y-107109979D01*
X168601254Y-107177883D01*
X168427221Y-107212500D01*
X168249779Y-107212500D01*
X168075746Y-107177883D01*
X167911811Y-107109979D01*
X167764273Y-107011397D01*
X167638803Y-106885927D01*
X167540221Y-106738389D01*
X167472317Y-106574454D01*
X167437700Y-106400421D01*
X167437700Y-106222979D01*
X167472317Y-106048946D01*
X167540221Y-105885011D01*
X167638803Y-105737473D01*
X167764273Y-105612003D01*
X167911811Y-105513421D01*
X168075746Y-105445517D01*
X168249779Y-105410900D01*
X168427221Y-105410900D01*
X168601254Y-105445517D01*
G37*
G36*
X128880894Y-103653324D02*
G01*
X128909019Y-103661856D01*
X128934935Y-103675708D01*
X128957649Y-103694351D01*
X128976292Y-103717065D01*
X128990144Y-103742981D01*
X128998676Y-103771106D01*
X129001800Y-103802831D01*
X129001800Y-105649169D01*
X128998676Y-105680894D01*
X128990144Y-105709019D01*
X128976292Y-105734935D01*
X128957649Y-105757649D01*
X128934935Y-105776292D01*
X128909019Y-105790144D01*
X128880894Y-105798676D01*
X128849169Y-105801800D01*
X128452831Y-105801800D01*
X128421106Y-105798676D01*
X128392981Y-105790144D01*
X128367065Y-105776292D01*
X128344351Y-105757649D01*
X128325708Y-105734935D01*
X128311856Y-105709019D01*
X128303324Y-105680894D01*
X128300200Y-105649169D01*
X128300200Y-103802831D01*
X128303324Y-103771106D01*
X128311856Y-103742981D01*
X128325708Y-103717065D01*
X128344351Y-103694351D01*
X128367065Y-103675708D01*
X128392981Y-103661856D01*
X128421106Y-103653324D01*
X128452831Y-103650200D01*
X128849169Y-103650200D01*
X128880894Y-103653324D01*
G37*
G36*
X123800894Y-103653324D02*
G01*
X123829019Y-103661856D01*
X123854935Y-103675708D01*
X123877649Y-103694351D01*
X123896292Y-103717065D01*
X123910144Y-103742981D01*
X123918676Y-103771106D01*
X123921800Y-103802831D01*
X123921800Y-105649169D01*
X123918676Y-105680894D01*
X123910144Y-105709019D01*
X123896292Y-105734935D01*
X123877649Y-105757649D01*
X123854935Y-105776292D01*
X123829019Y-105790144D01*
X123800894Y-105798676D01*
X123769169Y-105801800D01*
X123372831Y-105801800D01*
X123341106Y-105798676D01*
X123312981Y-105790144D01*
X123287065Y-105776292D01*
X123264351Y-105757649D01*
X123245708Y-105734935D01*
X123231856Y-105709019D01*
X123223324Y-105680894D01*
X123220200Y-105649169D01*
X123220200Y-103802831D01*
X123223324Y-103771106D01*
X123231856Y-103742981D01*
X123245708Y-103717065D01*
X123264351Y-103694351D01*
X123287065Y-103675708D01*
X123312981Y-103661856D01*
X123341106Y-103653324D01*
X123372831Y-103650200D01*
X123769169Y-103650200D01*
X123800894Y-103653324D01*
G37*
G36*
X122530894Y-103653324D02*
G01*
X122559019Y-103661856D01*
X122584935Y-103675708D01*
X122607649Y-103694351D01*
X122626292Y-103717065D01*
X122640144Y-103742981D01*
X122648676Y-103771106D01*
X122651800Y-103802831D01*
X122651800Y-105649169D01*
X122648676Y-105680894D01*
X122640144Y-105709019D01*
X122626292Y-105734935D01*
X122607649Y-105757649D01*
X122584935Y-105776292D01*
X122559019Y-105790144D01*
X122530894Y-105798676D01*
X122499169Y-105801800D01*
X122102831Y-105801800D01*
X122071106Y-105798676D01*
X122042981Y-105790144D01*
X122017065Y-105776292D01*
X121994351Y-105757649D01*
X121975708Y-105734935D01*
X121961856Y-105709019D01*
X121953324Y-105680894D01*
X121950200Y-105649169D01*
X121950200Y-103802831D01*
X121953324Y-103771106D01*
X121961856Y-103742981D01*
X121975708Y-103717065D01*
X121994351Y-103694351D01*
X122017065Y-103675708D01*
X122042981Y-103661856D01*
X122071106Y-103653324D01*
X122102831Y-103650200D01*
X122499169Y-103650200D01*
X122530894Y-103653324D01*
G37*
G36*
X126340894Y-103653324D02*
G01*
X126369019Y-103661856D01*
X126394935Y-103675708D01*
X126417649Y-103694351D01*
X126436292Y-103717065D01*
X126450144Y-103742981D01*
X126458676Y-103771106D01*
X126461800Y-103802831D01*
X126461800Y-105649169D01*
X126458676Y-105680894D01*
X126450144Y-105709019D01*
X126436292Y-105734935D01*
X126417649Y-105757649D01*
X126394935Y-105776292D01*
X126369019Y-105790144D01*
X126340894Y-105798676D01*
X126309169Y-105801800D01*
X125912831Y-105801800D01*
X125881106Y-105798676D01*
X125852981Y-105790144D01*
X125827065Y-105776292D01*
X125804351Y-105757649D01*
X125785708Y-105734935D01*
X125771856Y-105709019D01*
X125763324Y-105680894D01*
X125760200Y-105649169D01*
X125760200Y-103802831D01*
X125763324Y-103771106D01*
X125771856Y-103742981D01*
X125785708Y-103717065D01*
X125804351Y-103694351D01*
X125827065Y-103675708D01*
X125852981Y-103661856D01*
X125881106Y-103653324D01*
X125912831Y-103650200D01*
X126309169Y-103650200D01*
X126340894Y-103653324D01*
G37*
G36*
X127610894Y-103653324D02*
G01*
X127639019Y-103661856D01*
X127664935Y-103675708D01*
X127687649Y-103694351D01*
X127706292Y-103717065D01*
X127720144Y-103742981D01*
X127728676Y-103771106D01*
X127731800Y-103802831D01*
X127731800Y-105649169D01*
X127728676Y-105680894D01*
X127720144Y-105709019D01*
X127706292Y-105734935D01*
X127687649Y-105757649D01*
X127664935Y-105776292D01*
X127639019Y-105790144D01*
X127610894Y-105798676D01*
X127579169Y-105801800D01*
X127182831Y-105801800D01*
X127151106Y-105798676D01*
X127122981Y-105790144D01*
X127097065Y-105776292D01*
X127074351Y-105757649D01*
X127055708Y-105734935D01*
X127041856Y-105709019D01*
X127033324Y-105680894D01*
X127030200Y-105649169D01*
X127030200Y-103802831D01*
X127033324Y-103771106D01*
X127041856Y-103742981D01*
X127055708Y-103717065D01*
X127074351Y-103694351D01*
X127097065Y-103675708D01*
X127122981Y-103661856D01*
X127151106Y-103653324D01*
X127182831Y-103650200D01*
X127579169Y-103650200D01*
X127610894Y-103653324D01*
G37*
G36*
X130150894Y-103653324D02*
G01*
X130179019Y-103661856D01*
X130204935Y-103675708D01*
X130227649Y-103694351D01*
X130246292Y-103717065D01*
X130260144Y-103742981D01*
X130268676Y-103771106D01*
X130271800Y-103802831D01*
X130271800Y-105649169D01*
X130268676Y-105680894D01*
X130260144Y-105709019D01*
X130246292Y-105734935D01*
X130227649Y-105757649D01*
X130204935Y-105776292D01*
X130179019Y-105790144D01*
X130150894Y-105798676D01*
X130119169Y-105801800D01*
X129722831Y-105801800D01*
X129691106Y-105798676D01*
X129662981Y-105790144D01*
X129637065Y-105776292D01*
X129614351Y-105757649D01*
X129595708Y-105734935D01*
X129581856Y-105709019D01*
X129573324Y-105680894D01*
X129570200Y-105649169D01*
X129570200Y-103802831D01*
X129573324Y-103771106D01*
X129581856Y-103742981D01*
X129595708Y-103717065D01*
X129614351Y-103694351D01*
X129637065Y-103675708D01*
X129662981Y-103661856D01*
X129691106Y-103653324D01*
X129722831Y-103650200D01*
X130119169Y-103650200D01*
X130150894Y-103653324D01*
G37*
G36*
X131420894Y-103653324D02*
G01*
X131449019Y-103661856D01*
X131474935Y-103675708D01*
X131497649Y-103694351D01*
X131516292Y-103717065D01*
X131530144Y-103742981D01*
X131538676Y-103771106D01*
X131541800Y-103802831D01*
X131541800Y-105649169D01*
X131538676Y-105680894D01*
X131530144Y-105709019D01*
X131516292Y-105734935D01*
X131497649Y-105757649D01*
X131474935Y-105776292D01*
X131449019Y-105790144D01*
X131420894Y-105798676D01*
X131389169Y-105801800D01*
X130992831Y-105801800D01*
X130961106Y-105798676D01*
X130932981Y-105790144D01*
X130907065Y-105776292D01*
X130884351Y-105757649D01*
X130865708Y-105734935D01*
X130851856Y-105709019D01*
X130843324Y-105680894D01*
X130840200Y-105649169D01*
X130840200Y-103802831D01*
X130843324Y-103771106D01*
X130851856Y-103742981D01*
X130865708Y-103717065D01*
X130884351Y-103694351D01*
X130907065Y-103675708D01*
X130932981Y-103661856D01*
X130961106Y-103653324D01*
X130992831Y-103650200D01*
X131389169Y-103650200D01*
X131420894Y-103653324D01*
G37*
G36*
X132690894Y-103653324D02*
G01*
X132719019Y-103661856D01*
X132744935Y-103675708D01*
X132767649Y-103694351D01*
X132786292Y-103717065D01*
X132800144Y-103742981D01*
X132808676Y-103771106D01*
X132811800Y-103802831D01*
X132811800Y-105649169D01*
X132808676Y-105680894D01*
X132800144Y-105709019D01*
X132786292Y-105734935D01*
X132767649Y-105757649D01*
X132744935Y-105776292D01*
X132719019Y-105790144D01*
X132690894Y-105798676D01*
X132659169Y-105801800D01*
X132262831Y-105801800D01*
X132231106Y-105798676D01*
X132202981Y-105790144D01*
X132177065Y-105776292D01*
X132154351Y-105757649D01*
X132135708Y-105734935D01*
X132121856Y-105709019D01*
X132113324Y-105680894D01*
X132110200Y-105649169D01*
X132110200Y-103802831D01*
X132113324Y-103771106D01*
X132121856Y-103742981D01*
X132135708Y-103717065D01*
X132154351Y-103694351D01*
X132177065Y-103675708D01*
X132202981Y-103661856D01*
X132231106Y-103653324D01*
X132262831Y-103650200D01*
X132659169Y-103650200D01*
X132690894Y-103653324D01*
G37*
G36*
X125070894Y-103653324D02*
G01*
X125099019Y-103661856D01*
X125124935Y-103675708D01*
X125147649Y-103694351D01*
X125166292Y-103717065D01*
X125180144Y-103742981D01*
X125188676Y-103771106D01*
X125191800Y-103802831D01*
X125191800Y-105649169D01*
X125188676Y-105680894D01*
X125180144Y-105709019D01*
X125166292Y-105734935D01*
X125147649Y-105757649D01*
X125124935Y-105776292D01*
X125099019Y-105790144D01*
X125070894Y-105798676D01*
X125039169Y-105801800D01*
X124642831Y-105801800D01*
X124611106Y-105798676D01*
X124582981Y-105790144D01*
X124557065Y-105776292D01*
X124534351Y-105757649D01*
X124515708Y-105734935D01*
X124501856Y-105709019D01*
X124493324Y-105680894D01*
X124490200Y-105649169D01*
X124490200Y-103802831D01*
X124493324Y-103771106D01*
X124501856Y-103742981D01*
X124515708Y-103717065D01*
X124534351Y-103694351D01*
X124557065Y-103675708D01*
X124582981Y-103661856D01*
X124611106Y-103653324D01*
X124642831Y-103650200D01*
X125039169Y-103650200D01*
X125070894Y-103653324D01*
G37*
G36*
X133960894Y-103653324D02*
G01*
X133989019Y-103661856D01*
X134014935Y-103675708D01*
X134037649Y-103694351D01*
X134056292Y-103717065D01*
X134070144Y-103742981D01*
X134078676Y-103771106D01*
X134081800Y-103802831D01*
X134081800Y-105649169D01*
X134078676Y-105680894D01*
X134070144Y-105709019D01*
X134056292Y-105734935D01*
X134037649Y-105757649D01*
X134014935Y-105776292D01*
X133989019Y-105790144D01*
X133960894Y-105798676D01*
X133929169Y-105801800D01*
X133532831Y-105801800D01*
X133501106Y-105798676D01*
X133472981Y-105790144D01*
X133447065Y-105776292D01*
X133424351Y-105757649D01*
X133405708Y-105734935D01*
X133391856Y-105709019D01*
X133383324Y-105680894D01*
X133380200Y-105649169D01*
X133380200Y-103802831D01*
X133383324Y-103771106D01*
X133391856Y-103742981D01*
X133405708Y-103717065D01*
X133424351Y-103694351D01*
X133447065Y-103675708D01*
X133472981Y-103661856D01*
X133501106Y-103653324D01*
X133532831Y-103650200D01*
X133929169Y-103650200D01*
X133960894Y-103653324D01*
G37*
G36*
X147582754Y-103781817D02*
G01*
X147746689Y-103849721D01*
X147894227Y-103948303D01*
X148019697Y-104073773D01*
X148118279Y-104221311D01*
X148186183Y-104385246D01*
X148220800Y-104559279D01*
X148220800Y-104736721D01*
X148186183Y-104910754D01*
X148118279Y-105074689D01*
X148019697Y-105222227D01*
X147894227Y-105347697D01*
X147746689Y-105446279D01*
X147582754Y-105514183D01*
X147408721Y-105548800D01*
X147231279Y-105548800D01*
X147057246Y-105514183D01*
X146893311Y-105446279D01*
X146745773Y-105347697D01*
X146620303Y-105222227D01*
X146521721Y-105074689D01*
X146453817Y-104910754D01*
X146419200Y-104736721D01*
X146419200Y-104559279D01*
X146453817Y-104385246D01*
X146521721Y-104221311D01*
X146620303Y-104073773D01*
X146745773Y-103948303D01*
X146893311Y-103849721D01*
X147057246Y-103781817D01*
X147231279Y-103747200D01*
X147408721Y-103747200D01*
X147582754Y-103781817D01*
G37*
G36*
X145042754Y-103781817D02*
G01*
X145206689Y-103849721D01*
X145354227Y-103948303D01*
X145479697Y-104073773D01*
X145578279Y-104221311D01*
X145646183Y-104385246D01*
X145680800Y-104559279D01*
X145680800Y-104736721D01*
X145646183Y-104910754D01*
X145578279Y-105074689D01*
X145479697Y-105222227D01*
X145354227Y-105347697D01*
X145206689Y-105446279D01*
X145042754Y-105514183D01*
X144868721Y-105548800D01*
X144691279Y-105548800D01*
X144517246Y-105514183D01*
X144353311Y-105446279D01*
X144205773Y-105347697D01*
X144080303Y-105222227D01*
X143981721Y-105074689D01*
X143913817Y-104910754D01*
X143879200Y-104736721D01*
X143879200Y-104559279D01*
X143913817Y-104385246D01*
X143981721Y-104221311D01*
X144080303Y-104073773D01*
X144205773Y-103948303D01*
X144353311Y-103849721D01*
X144517246Y-103781817D01*
X144691279Y-103747200D01*
X144868721Y-103747200D01*
X145042754Y-103781817D01*
G37*
G36*
X168601254Y-102905517D02*
G01*
X168765189Y-102973421D01*
X168912727Y-103072003D01*
X169038197Y-103197473D01*
X169136779Y-103345011D01*
X169204683Y-103508946D01*
X169239300Y-103682979D01*
X169239300Y-103860421D01*
X169204683Y-104034454D01*
X169136779Y-104198389D01*
X169038197Y-104345927D01*
X168912727Y-104471397D01*
X168765189Y-104569979D01*
X168601254Y-104637883D01*
X168427221Y-104672500D01*
X168249779Y-104672500D01*
X168075746Y-104637883D01*
X167911811Y-104569979D01*
X167764273Y-104471397D01*
X167638803Y-104345927D01*
X167540221Y-104198389D01*
X167472317Y-104034454D01*
X167437700Y-103860421D01*
X167437700Y-103682979D01*
X167472317Y-103508946D01*
X167540221Y-103345011D01*
X167638803Y-103197473D01*
X167764273Y-103072003D01*
X167911811Y-102973421D01*
X168075746Y-102905517D01*
X168249779Y-102870900D01*
X168427221Y-102870900D01*
X168601254Y-102905517D01*
G37*
G36*
X166061254Y-102905517D02*
G01*
X166225189Y-102973421D01*
X166372727Y-103072003D01*
X166498197Y-103197473D01*
X166596779Y-103345011D01*
X166664683Y-103508946D01*
X166699300Y-103682979D01*
X166699300Y-103860421D01*
X166664683Y-104034454D01*
X166596779Y-104198389D01*
X166498197Y-104345927D01*
X166372727Y-104471397D01*
X166225189Y-104569979D01*
X166061254Y-104637883D01*
X165887221Y-104672500D01*
X165709779Y-104672500D01*
X165535746Y-104637883D01*
X165371811Y-104569979D01*
X165224273Y-104471397D01*
X165098803Y-104345927D01*
X165000221Y-104198389D01*
X164932317Y-104034454D01*
X164897700Y-103860421D01*
X164897700Y-103682979D01*
X164932317Y-103508946D01*
X165000221Y-103345011D01*
X165098803Y-103197473D01*
X165224273Y-103072003D01*
X165371811Y-102973421D01*
X165535746Y-102905517D01*
X165709779Y-102870900D01*
X165887221Y-102870900D01*
X166061254Y-102905517D01*
G37*
G36*
X139416556Y-103209051D02*
G01*
X139461541Y-103222697D01*
X139502993Y-103244854D01*
X139539327Y-103274673D01*
X139569146Y-103311007D01*
X139591303Y-103352459D01*
X139604949Y-103397444D01*
X139609800Y-103446703D01*
X139609800Y-104313297D01*
X139604949Y-104362556D01*
X139591303Y-104407541D01*
X139569146Y-104448993D01*
X139539327Y-104485327D01*
X139502993Y-104515146D01*
X139461541Y-104537303D01*
X139416556Y-104550949D01*
X139367297Y-104555800D01*
X138000703Y-104555800D01*
X137951444Y-104550949D01*
X137906459Y-104537303D01*
X137865007Y-104515146D01*
X137828673Y-104485327D01*
X137798854Y-104448993D01*
X137776697Y-104407541D01*
X137763051Y-104362556D01*
X137758200Y-104313297D01*
X137758200Y-103446703D01*
X137763051Y-103397444D01*
X137776697Y-103352459D01*
X137798854Y-103311007D01*
X137828673Y-103274673D01*
X137865007Y-103244854D01*
X137906459Y-103222697D01*
X137951444Y-103209051D01*
X138000703Y-103204200D01*
X139367297Y-103204200D01*
X139416556Y-103209051D01*
G37*
G36*
X145042754Y-101241817D02*
G01*
X145206689Y-101309721D01*
X145354227Y-101408303D01*
X145479697Y-101533773D01*
X145578279Y-101681311D01*
X145646183Y-101845246D01*
X145680800Y-102019279D01*
X145680800Y-102196721D01*
X145646183Y-102370754D01*
X145578279Y-102534689D01*
X145479697Y-102682227D01*
X145354227Y-102807697D01*
X145206689Y-102906279D01*
X145042754Y-102974183D01*
X144868721Y-103008800D01*
X144691279Y-103008800D01*
X144517246Y-102974183D01*
X144353311Y-102906279D01*
X144205773Y-102807697D01*
X144080303Y-102682227D01*
X143981721Y-102534689D01*
X143913817Y-102370754D01*
X143879200Y-102196721D01*
X143879200Y-102019279D01*
X143913817Y-101845246D01*
X143981721Y-101681311D01*
X144080303Y-101533773D01*
X144205773Y-101408303D01*
X144353311Y-101309721D01*
X144517246Y-101241817D01*
X144691279Y-101207200D01*
X144868721Y-101207200D01*
X145042754Y-101241817D01*
G37*
G36*
X147582754Y-101241817D02*
G01*
X147746689Y-101309721D01*
X147894227Y-101408303D01*
X148019697Y-101533773D01*
X148118279Y-101681311D01*
X148186183Y-101845246D01*
X148220800Y-102019279D01*
X148220800Y-102196721D01*
X148186183Y-102370754D01*
X148118279Y-102534689D01*
X148019697Y-102682227D01*
X147894227Y-102807697D01*
X147746689Y-102906279D01*
X147582754Y-102974183D01*
X147408721Y-103008800D01*
X147231279Y-103008800D01*
X147057246Y-102974183D01*
X146893311Y-102906279D01*
X146745773Y-102807697D01*
X146620303Y-102682227D01*
X146521721Y-102534689D01*
X146453817Y-102370754D01*
X146419200Y-102196721D01*
X146419200Y-102019279D01*
X146453817Y-101845246D01*
X146521721Y-101681311D01*
X146620303Y-101533773D01*
X146745773Y-101408303D01*
X146893311Y-101309721D01*
X147057246Y-101241817D01*
X147231279Y-101207200D01*
X147408721Y-101207200D01*
X147582754Y-101241817D01*
G37*
G36*
X168601254Y-100365517D02*
G01*
X168765189Y-100433421D01*
X168912727Y-100532003D01*
X169038197Y-100657473D01*
X169136779Y-100805011D01*
X169204683Y-100968946D01*
X169239300Y-101142979D01*
X169239300Y-101320421D01*
X169204683Y-101494454D01*
X169136779Y-101658389D01*
X169038197Y-101805927D01*
X168912727Y-101931397D01*
X168765189Y-102029979D01*
X168601254Y-102097883D01*
X168427221Y-102132500D01*
X168249779Y-102132500D01*
X168075746Y-102097883D01*
X167911811Y-102029979D01*
X167764273Y-101931397D01*
X167638803Y-101805927D01*
X167540221Y-101658389D01*
X167472317Y-101494454D01*
X167437700Y-101320421D01*
X167437700Y-101142979D01*
X167472317Y-100968946D01*
X167540221Y-100805011D01*
X167638803Y-100657473D01*
X167764273Y-100532003D01*
X167911811Y-100433421D01*
X168075746Y-100365517D01*
X168249779Y-100330900D01*
X168427221Y-100330900D01*
X168601254Y-100365517D01*
G37*
G36*
X166699300Y-102132500D02*
G01*
X164897700Y-102132500D01*
X164897700Y-100330900D01*
X166699300Y-100330900D01*
X166699300Y-102132500D01*
G37*
G36*
X191168302Y-100312359D02*
G01*
X191315858Y-100373478D01*
X191448655Y-100462211D01*
X191561589Y-100575145D01*
X191650322Y-100707942D01*
X191711441Y-100855498D01*
X191742600Y-101012143D01*
X191742600Y-101171857D01*
X191711441Y-101328502D01*
X191650322Y-101476058D01*
X191561589Y-101608855D01*
X191448655Y-101721789D01*
X191315858Y-101810522D01*
X191168302Y-101871641D01*
X191011657Y-101902800D01*
X190851943Y-101902800D01*
X190695298Y-101871641D01*
X190547742Y-101810522D01*
X190414945Y-101721789D01*
X190302011Y-101608855D01*
X190213278Y-101476058D01*
X190152159Y-101328502D01*
X190121000Y-101171857D01*
X190121000Y-101012143D01*
X190152159Y-100855498D01*
X190213278Y-100707942D01*
X190302011Y-100575145D01*
X190414945Y-100462211D01*
X190547742Y-100373478D01*
X190695298Y-100312359D01*
X190851943Y-100281200D01*
X191011657Y-100281200D01*
X191168302Y-100312359D01*
G37*
G36*
X188628302Y-100312359D02*
G01*
X188775858Y-100373478D01*
X188908655Y-100462211D01*
X189021589Y-100575145D01*
X189110322Y-100707942D01*
X189171441Y-100855498D01*
X189202600Y-101012143D01*
X189202600Y-101171857D01*
X189171441Y-101328502D01*
X189110322Y-101476058D01*
X189021589Y-101608855D01*
X188908655Y-101721789D01*
X188775858Y-101810522D01*
X188628302Y-101871641D01*
X188471657Y-101902800D01*
X188311943Y-101902800D01*
X188155298Y-101871641D01*
X188007742Y-101810522D01*
X187874945Y-101721789D01*
X187762011Y-101608855D01*
X187673278Y-101476058D01*
X187612159Y-101328502D01*
X187581000Y-101171857D01*
X187581000Y-101012143D01*
X187612159Y-100855498D01*
X187673278Y-100707942D01*
X187762011Y-100575145D01*
X187874945Y-100462211D01*
X188007742Y-100373478D01*
X188155298Y-100312359D01*
X188311943Y-100281200D01*
X188471657Y-100281200D01*
X188628302Y-100312359D01*
G37*
G36*
X186088302Y-100312359D02*
G01*
X186235858Y-100373478D01*
X186368655Y-100462211D01*
X186481589Y-100575145D01*
X186570322Y-100707942D01*
X186631441Y-100855498D01*
X186662600Y-101012143D01*
X186662600Y-101171857D01*
X186631441Y-101328502D01*
X186570322Y-101476058D01*
X186481589Y-101608855D01*
X186368655Y-101721789D01*
X186235858Y-101810522D01*
X186088302Y-101871641D01*
X185931657Y-101902800D01*
X185771943Y-101902800D01*
X185615298Y-101871641D01*
X185467742Y-101810522D01*
X185334945Y-101721789D01*
X185222011Y-101608855D01*
X185133278Y-101476058D01*
X185072159Y-101328502D01*
X185041000Y-101171857D01*
X185041000Y-101012143D01*
X185072159Y-100855498D01*
X185133278Y-100707942D01*
X185222011Y-100575145D01*
X185334945Y-100462211D01*
X185467742Y-100373478D01*
X185615298Y-100312359D01*
X185771943Y-100281200D01*
X185931657Y-100281200D01*
X186088302Y-100312359D01*
G37*
G36*
X187358302Y-97772359D02*
G01*
X187505858Y-97833478D01*
X187638655Y-97922211D01*
X187751589Y-98035145D01*
X187840322Y-98167942D01*
X187901441Y-98315498D01*
X187932600Y-98472143D01*
X187932600Y-98631857D01*
X187901441Y-98788502D01*
X187840322Y-98936058D01*
X187751589Y-99068855D01*
X187638655Y-99181789D01*
X187505858Y-99270522D01*
X187358302Y-99331641D01*
X187201657Y-99362800D01*
X187041943Y-99362800D01*
X186885298Y-99331641D01*
X186737742Y-99270522D01*
X186604945Y-99181789D01*
X186492011Y-99068855D01*
X186403278Y-98936058D01*
X186342159Y-98788502D01*
X186311000Y-98631857D01*
X186311000Y-98472143D01*
X186342159Y-98315498D01*
X186403278Y-98167942D01*
X186492011Y-98035145D01*
X186604945Y-97922211D01*
X186737742Y-97833478D01*
X186885298Y-97772359D01*
X187041943Y-97741200D01*
X187201657Y-97741200D01*
X187358302Y-97772359D01*
G37*
G36*
X189898302Y-97772359D02*
G01*
X190045858Y-97833478D01*
X190178655Y-97922211D01*
X190291589Y-98035145D01*
X190380322Y-98167942D01*
X190441441Y-98315498D01*
X190472600Y-98472143D01*
X190472600Y-98631857D01*
X190441441Y-98788502D01*
X190380322Y-98936058D01*
X190291589Y-99068855D01*
X190178655Y-99181789D01*
X190045858Y-99270522D01*
X189898302Y-99331641D01*
X189741657Y-99362800D01*
X189581943Y-99362800D01*
X189425298Y-99331641D01*
X189277742Y-99270522D01*
X189144945Y-99181789D01*
X189032011Y-99068855D01*
X188943278Y-98936058D01*
X188882159Y-98788502D01*
X188851000Y-98631857D01*
X188851000Y-98472143D01*
X188882159Y-98315498D01*
X188943278Y-98167942D01*
X189032011Y-98035145D01*
X189144945Y-97922211D01*
X189277742Y-97833478D01*
X189425298Y-97772359D01*
X189581943Y-97741200D01*
X189741657Y-97741200D01*
X189898302Y-97772359D01*
G37*
G36*
X193012600Y-99362800D02*
G01*
X191391000Y-99362800D01*
X191391000Y-97741200D01*
X193012600Y-97741200D01*
X193012600Y-99362800D01*
G37*
G36*
X118080556Y-95601051D02*
G01*
X118125541Y-95614697D01*
X118166993Y-95636854D01*
X118203327Y-95666673D01*
X118233146Y-95703007D01*
X118255303Y-95744459D01*
X118268949Y-95789444D01*
X118273800Y-95838703D01*
X118273800Y-96705297D01*
X118268949Y-96754556D01*
X118255303Y-96799541D01*
X118233146Y-96840993D01*
X118203327Y-96877327D01*
X118166993Y-96907146D01*
X118125541Y-96929303D01*
X118080556Y-96942949D01*
X118031297Y-96947800D01*
X116664703Y-96947800D01*
X116615444Y-96942949D01*
X116570459Y-96929303D01*
X116529007Y-96907146D01*
X116492673Y-96877327D01*
X116462854Y-96840993D01*
X116440697Y-96799541D01*
X116427051Y-96754556D01*
X116422200Y-96705297D01*
X116422200Y-95838703D01*
X116427051Y-95789444D01*
X116440697Y-95744459D01*
X116462854Y-95703007D01*
X116492673Y-95666673D01*
X116529007Y-95636854D01*
X116570459Y-95614697D01*
X116615444Y-95601051D01*
X116664703Y-95596200D01*
X118031297Y-95596200D01*
X118080556Y-95601051D01*
G37*
G36*
X122530894Y-94353324D02*
G01*
X122559019Y-94361856D01*
X122584935Y-94375708D01*
X122607649Y-94394351D01*
X122626292Y-94417065D01*
X122640144Y-94442981D01*
X122648676Y-94471106D01*
X122651800Y-94502831D01*
X122651800Y-96349169D01*
X122648676Y-96380894D01*
X122640144Y-96409019D01*
X122626292Y-96434935D01*
X122607649Y-96457649D01*
X122584935Y-96476292D01*
X122559019Y-96490144D01*
X122530894Y-96498676D01*
X122499169Y-96501800D01*
X122102831Y-96501800D01*
X122071106Y-96498676D01*
X122042981Y-96490144D01*
X122017065Y-96476292D01*
X121994351Y-96457649D01*
X121975708Y-96434935D01*
X121961856Y-96409019D01*
X121953324Y-96380894D01*
X121950200Y-96349169D01*
X121950200Y-94502831D01*
X121953324Y-94471106D01*
X121961856Y-94442981D01*
X121975708Y-94417065D01*
X121994351Y-94394351D01*
X122017065Y-94375708D01*
X122042981Y-94361856D01*
X122071106Y-94353324D01*
X122102831Y-94350200D01*
X122499169Y-94350200D01*
X122530894Y-94353324D01*
G37*
G36*
X123800894Y-94353324D02*
G01*
X123829019Y-94361856D01*
X123854935Y-94375708D01*
X123877649Y-94394351D01*
X123896292Y-94417065D01*
X123910144Y-94442981D01*
X123918676Y-94471106D01*
X123921800Y-94502831D01*
X123921800Y-96349169D01*
X123918676Y-96380894D01*
X123910144Y-96409019D01*
X123896292Y-96434935D01*
X123877649Y-96457649D01*
X123854935Y-96476292D01*
X123829019Y-96490144D01*
X123800894Y-96498676D01*
X123769169Y-96501800D01*
X123372831Y-96501800D01*
X123341106Y-96498676D01*
X123312981Y-96490144D01*
X123287065Y-96476292D01*
X123264351Y-96457649D01*
X123245708Y-96434935D01*
X123231856Y-96409019D01*
X123223324Y-96380894D01*
X123220200Y-96349169D01*
X123220200Y-94502831D01*
X123223324Y-94471106D01*
X123231856Y-94442981D01*
X123245708Y-94417065D01*
X123264351Y-94394351D01*
X123287065Y-94375708D01*
X123312981Y-94361856D01*
X123341106Y-94353324D01*
X123372831Y-94350200D01*
X123769169Y-94350200D01*
X123800894Y-94353324D01*
G37*
G36*
X125070894Y-94353324D02*
G01*
X125099019Y-94361856D01*
X125124935Y-94375708D01*
X125147649Y-94394351D01*
X125166292Y-94417065D01*
X125180144Y-94442981D01*
X125188676Y-94471106D01*
X125191800Y-94502831D01*
X125191800Y-96349169D01*
X125188676Y-96380894D01*
X125180144Y-96409019D01*
X125166292Y-96434935D01*
X125147649Y-96457649D01*
X125124935Y-96476292D01*
X125099019Y-96490144D01*
X125070894Y-96498676D01*
X125039169Y-96501800D01*
X124642831Y-96501800D01*
X124611106Y-96498676D01*
X124582981Y-96490144D01*
X124557065Y-96476292D01*
X124534351Y-96457649D01*
X124515708Y-96434935D01*
X124501856Y-96409019D01*
X124493324Y-96380894D01*
X124490200Y-96349169D01*
X124490200Y-94502831D01*
X124493324Y-94471106D01*
X124501856Y-94442981D01*
X124515708Y-94417065D01*
X124534351Y-94394351D01*
X124557065Y-94375708D01*
X124582981Y-94361856D01*
X124611106Y-94353324D01*
X124642831Y-94350200D01*
X125039169Y-94350200D01*
X125070894Y-94353324D01*
G37*
G36*
X126340894Y-94353324D02*
G01*
X126369019Y-94361856D01*
X126394935Y-94375708D01*
X126417649Y-94394351D01*
X126436292Y-94417065D01*
X126450144Y-94442981D01*
X126458676Y-94471106D01*
X126461800Y-94502831D01*
X126461800Y-96349169D01*
X126458676Y-96380894D01*
X126450144Y-96409019D01*
X126436292Y-96434935D01*
X126417649Y-96457649D01*
X126394935Y-96476292D01*
X126369019Y-96490144D01*
X126340894Y-96498676D01*
X126309169Y-96501800D01*
X125912831Y-96501800D01*
X125881106Y-96498676D01*
X125852981Y-96490144D01*
X125827065Y-96476292D01*
X125804351Y-96457649D01*
X125785708Y-96434935D01*
X125771856Y-96409019D01*
X125763324Y-96380894D01*
X125760200Y-96349169D01*
X125760200Y-94502831D01*
X125763324Y-94471106D01*
X125771856Y-94442981D01*
X125785708Y-94417065D01*
X125804351Y-94394351D01*
X125827065Y-94375708D01*
X125852981Y-94361856D01*
X125881106Y-94353324D01*
X125912831Y-94350200D01*
X126309169Y-94350200D01*
X126340894Y-94353324D01*
G37*
G36*
X127610894Y-94353324D02*
G01*
X127639019Y-94361856D01*
X127664935Y-94375708D01*
X127687649Y-94394351D01*
X127706292Y-94417065D01*
X127720144Y-94442981D01*
X127728676Y-94471106D01*
X127731800Y-94502831D01*
X127731800Y-96349169D01*
X127728676Y-96380894D01*
X127720144Y-96409019D01*
X127706292Y-96434935D01*
X127687649Y-96457649D01*
X127664935Y-96476292D01*
X127639019Y-96490144D01*
X127610894Y-96498676D01*
X127579169Y-96501800D01*
X127182831Y-96501800D01*
X127151106Y-96498676D01*
X127122981Y-96490144D01*
X127097065Y-96476292D01*
X127074351Y-96457649D01*
X127055708Y-96434935D01*
X127041856Y-96409019D01*
X127033324Y-96380894D01*
X127030200Y-96349169D01*
X127030200Y-94502831D01*
X127033324Y-94471106D01*
X127041856Y-94442981D01*
X127055708Y-94417065D01*
X127074351Y-94394351D01*
X127097065Y-94375708D01*
X127122981Y-94361856D01*
X127151106Y-94353324D01*
X127182831Y-94350200D01*
X127579169Y-94350200D01*
X127610894Y-94353324D01*
G37*
G36*
X128880894Y-94353324D02*
G01*
X128909019Y-94361856D01*
X128934935Y-94375708D01*
X128957649Y-94394351D01*
X128976292Y-94417065D01*
X128990144Y-94442981D01*
X128998676Y-94471106D01*
X129001800Y-94502831D01*
X129001800Y-96349169D01*
X128998676Y-96380894D01*
X128990144Y-96409019D01*
X128976292Y-96434935D01*
X128957649Y-96457649D01*
X128934935Y-96476292D01*
X128909019Y-96490144D01*
X128880894Y-96498676D01*
X128849169Y-96501800D01*
X128452831Y-96501800D01*
X128421106Y-96498676D01*
X128392981Y-96490144D01*
X128367065Y-96476292D01*
X128344351Y-96457649D01*
X128325708Y-96434935D01*
X128311856Y-96409019D01*
X128303324Y-96380894D01*
X128300200Y-96349169D01*
X128300200Y-94502831D01*
X128303324Y-94471106D01*
X128311856Y-94442981D01*
X128325708Y-94417065D01*
X128344351Y-94394351D01*
X128367065Y-94375708D01*
X128392981Y-94361856D01*
X128421106Y-94353324D01*
X128452831Y-94350200D01*
X128849169Y-94350200D01*
X128880894Y-94353324D01*
G37*
G36*
X130150894Y-94353324D02*
G01*
X130179019Y-94361856D01*
X130204935Y-94375708D01*
X130227649Y-94394351D01*
X130246292Y-94417065D01*
X130260144Y-94442981D01*
X130268676Y-94471106D01*
X130271800Y-94502831D01*
X130271800Y-96349169D01*
X130268676Y-96380894D01*
X130260144Y-96409019D01*
X130246292Y-96434935D01*
X130227649Y-96457649D01*
X130204935Y-96476292D01*
X130179019Y-96490144D01*
X130150894Y-96498676D01*
X130119169Y-96501800D01*
X129722831Y-96501800D01*
X129691106Y-96498676D01*
X129662981Y-96490144D01*
X129637065Y-96476292D01*
X129614351Y-96457649D01*
X129595708Y-96434935D01*
X129581856Y-96409019D01*
X129573324Y-96380894D01*
X129570200Y-96349169D01*
X129570200Y-94502831D01*
X129573324Y-94471106D01*
X129581856Y-94442981D01*
X129595708Y-94417065D01*
X129614351Y-94394351D01*
X129637065Y-94375708D01*
X129662981Y-94361856D01*
X129691106Y-94353324D01*
X129722831Y-94350200D01*
X130119169Y-94350200D01*
X130150894Y-94353324D01*
G37*
G36*
X131420894Y-94353324D02*
G01*
X131449019Y-94361856D01*
X131474935Y-94375708D01*
X131497649Y-94394351D01*
X131516292Y-94417065D01*
X131530144Y-94442981D01*
X131538676Y-94471106D01*
X131541800Y-94502831D01*
X131541800Y-96349169D01*
X131538676Y-96380894D01*
X131530144Y-96409019D01*
X131516292Y-96434935D01*
X131497649Y-96457649D01*
X131474935Y-96476292D01*
X131449019Y-96490144D01*
X131420894Y-96498676D01*
X131389169Y-96501800D01*
X130992831Y-96501800D01*
X130961106Y-96498676D01*
X130932981Y-96490144D01*
X130907065Y-96476292D01*
X130884351Y-96457649D01*
X130865708Y-96434935D01*
X130851856Y-96409019D01*
X130843324Y-96380894D01*
X130840200Y-96349169D01*
X130840200Y-94502831D01*
X130843324Y-94471106D01*
X130851856Y-94442981D01*
X130865708Y-94417065D01*
X130884351Y-94394351D01*
X130907065Y-94375708D01*
X130932981Y-94361856D01*
X130961106Y-94353324D01*
X130992831Y-94350200D01*
X131389169Y-94350200D01*
X131420894Y-94353324D01*
G37*
G36*
X132690894Y-94353324D02*
G01*
X132719019Y-94361856D01*
X132744935Y-94375708D01*
X132767649Y-94394351D01*
X132786292Y-94417065D01*
X132800144Y-94442981D01*
X132808676Y-94471106D01*
X132811800Y-94502831D01*
X132811800Y-96349169D01*
X132808676Y-96380894D01*
X132800144Y-96409019D01*
X132786292Y-96434935D01*
X132767649Y-96457649D01*
X132744935Y-96476292D01*
X132719019Y-96490144D01*
X132690894Y-96498676D01*
X132659169Y-96501800D01*
X132262831Y-96501800D01*
X132231106Y-96498676D01*
X132202981Y-96490144D01*
X132177065Y-96476292D01*
X132154351Y-96457649D01*
X132135708Y-96434935D01*
X132121856Y-96409019D01*
X132113324Y-96380894D01*
X132110200Y-96349169D01*
X132110200Y-94502831D01*
X132113324Y-94471106D01*
X132121856Y-94442981D01*
X132135708Y-94417065D01*
X132154351Y-94394351D01*
X132177065Y-94375708D01*
X132202981Y-94361856D01*
X132231106Y-94353324D01*
X132262831Y-94350200D01*
X132659169Y-94350200D01*
X132690894Y-94353324D01*
G37*
G36*
X133960894Y-94353324D02*
G01*
X133989019Y-94361856D01*
X134014935Y-94375708D01*
X134037649Y-94394351D01*
X134056292Y-94417065D01*
X134070144Y-94442981D01*
X134078676Y-94471106D01*
X134081800Y-94502831D01*
X134081800Y-96349169D01*
X134078676Y-96380894D01*
X134070144Y-96409019D01*
X134056292Y-96434935D01*
X134037649Y-96457649D01*
X134014935Y-96476292D01*
X133989019Y-96490144D01*
X133960894Y-96498676D01*
X133929169Y-96501800D01*
X133532831Y-96501800D01*
X133501106Y-96498676D01*
X133472981Y-96490144D01*
X133447065Y-96476292D01*
X133424351Y-96457649D01*
X133405708Y-96434935D01*
X133391856Y-96409019D01*
X133383324Y-96380894D01*
X133380200Y-96349169D01*
X133380200Y-94502831D01*
X133383324Y-94471106D01*
X133391856Y-94442981D01*
X133405708Y-94417065D01*
X133424351Y-94394351D01*
X133447065Y-94375708D01*
X133472981Y-94361856D01*
X133501106Y-94353324D01*
X133532831Y-94350200D01*
X133929169Y-94350200D01*
X133960894Y-94353324D01*
G37*
G36*
X141702556Y-94836051D02*
G01*
X141747541Y-94849697D01*
X141788993Y-94871854D01*
X141825327Y-94901673D01*
X141855146Y-94938007D01*
X141877303Y-94979459D01*
X141890949Y-95024444D01*
X141895800Y-95073703D01*
X141895800Y-95940297D01*
X141890949Y-95989556D01*
X141877303Y-96034541D01*
X141855146Y-96075993D01*
X141825327Y-96112327D01*
X141788993Y-96142146D01*
X141747541Y-96164303D01*
X141702556Y-96177949D01*
X141653297Y-96182800D01*
X140286703Y-96182800D01*
X140237444Y-96177949D01*
X140192459Y-96164303D01*
X140151007Y-96142146D01*
X140114673Y-96112327D01*
X140084854Y-96075993D01*
X140062697Y-96034541D01*
X140049051Y-95989556D01*
X140044200Y-95940297D01*
X140044200Y-95073703D01*
X140049051Y-95024444D01*
X140062697Y-94979459D01*
X140084854Y-94938007D01*
X140114673Y-94901673D01*
X140151007Y-94871854D01*
X140192459Y-94849697D01*
X140237444Y-94836051D01*
X140286703Y-94831200D01*
X141653297Y-94831200D01*
X141702556Y-94836051D01*
G37*
G36*
X149322556Y-94836051D02*
G01*
X149367541Y-94849697D01*
X149408993Y-94871854D01*
X149445327Y-94901673D01*
X149475146Y-94938007D01*
X149497303Y-94979459D01*
X149510949Y-95024444D01*
X149515800Y-95073703D01*
X149515800Y-95940297D01*
X149510949Y-95989556D01*
X149497303Y-96034541D01*
X149475146Y-96075993D01*
X149445327Y-96112327D01*
X149408993Y-96142146D01*
X149367541Y-96164303D01*
X149322556Y-96177949D01*
X149273297Y-96182800D01*
X147906703Y-96182800D01*
X147857444Y-96177949D01*
X147812459Y-96164303D01*
X147771007Y-96142146D01*
X147734673Y-96112327D01*
X147704854Y-96075993D01*
X147682697Y-96034541D01*
X147669051Y-95989556D01*
X147664200Y-95940297D01*
X147664200Y-95073703D01*
X147669051Y-95024444D01*
X147682697Y-94979459D01*
X147704854Y-94938007D01*
X147734673Y-94901673D01*
X147771007Y-94871854D01*
X147812459Y-94849697D01*
X147857444Y-94836051D01*
X147906703Y-94831200D01*
X149273297Y-94831200D01*
X149322556Y-94836051D01*
G37*
G36*
X144242556Y-94836051D02*
G01*
X144287541Y-94849697D01*
X144328993Y-94871854D01*
X144365327Y-94901673D01*
X144395146Y-94938007D01*
X144417303Y-94979459D01*
X144430949Y-95024444D01*
X144435800Y-95073703D01*
X144435800Y-95940297D01*
X144430949Y-95989556D01*
X144417303Y-96034541D01*
X144395146Y-96075993D01*
X144365327Y-96112327D01*
X144328993Y-96142146D01*
X144287541Y-96164303D01*
X144242556Y-96177949D01*
X144193297Y-96182800D01*
X142826703Y-96182800D01*
X142777444Y-96177949D01*
X142732459Y-96164303D01*
X142691007Y-96142146D01*
X142654673Y-96112327D01*
X142624854Y-96075993D01*
X142602697Y-96034541D01*
X142589051Y-95989556D01*
X142584200Y-95940297D01*
X142584200Y-95073703D01*
X142589051Y-95024444D01*
X142602697Y-94979459D01*
X142624854Y-94938007D01*
X142654673Y-94901673D01*
X142691007Y-94871854D01*
X142732459Y-94849697D01*
X142777444Y-94836051D01*
X142826703Y-94831200D01*
X144193297Y-94831200D01*
X144242556Y-94836051D01*
G37*
G36*
X146782556Y-94836051D02*
G01*
X146827541Y-94849697D01*
X146868993Y-94871854D01*
X146905327Y-94901673D01*
X146935146Y-94938007D01*
X146957303Y-94979459D01*
X146970949Y-95024444D01*
X146975800Y-95073703D01*
X146975800Y-95940297D01*
X146970949Y-95989556D01*
X146957303Y-96034541D01*
X146935146Y-96075993D01*
X146905327Y-96112327D01*
X146868993Y-96142146D01*
X146827541Y-96164303D01*
X146782556Y-96177949D01*
X146733297Y-96182800D01*
X145366703Y-96182800D01*
X145317444Y-96177949D01*
X145272459Y-96164303D01*
X145231007Y-96142146D01*
X145194673Y-96112327D01*
X145164854Y-96075993D01*
X145142697Y-96034541D01*
X145129051Y-95989556D01*
X145124200Y-95940297D01*
X145124200Y-95073703D01*
X145129051Y-95024444D01*
X145142697Y-94979459D01*
X145164854Y-94938007D01*
X145194673Y-94901673D01*
X145231007Y-94871854D01*
X145272459Y-94849697D01*
X145317444Y-94836051D01*
X145366703Y-94831200D01*
X146733297Y-94831200D01*
X146782556Y-94836051D01*
G37*
G36*
X179802556Y-94709051D02*
G01*
X179847541Y-94722697D01*
X179888993Y-94744854D01*
X179925327Y-94774673D01*
X179955146Y-94811007D01*
X179977303Y-94852459D01*
X179990949Y-94897444D01*
X179995800Y-94946703D01*
X179995800Y-95813297D01*
X179990949Y-95862556D01*
X179977303Y-95907541D01*
X179955146Y-95948993D01*
X179925327Y-95985327D01*
X179888993Y-96015146D01*
X179847541Y-96037303D01*
X179802556Y-96050949D01*
X179753297Y-96055800D01*
X178386703Y-96055800D01*
X178337444Y-96050949D01*
X178292459Y-96037303D01*
X178251007Y-96015146D01*
X178214673Y-95985327D01*
X178184854Y-95948993D01*
X178162697Y-95907541D01*
X178149051Y-95862556D01*
X178144200Y-95813297D01*
X178144200Y-94946703D01*
X178149051Y-94897444D01*
X178162697Y-94852459D01*
X178184854Y-94811007D01*
X178214673Y-94774673D01*
X178251007Y-94744854D01*
X178292459Y-94722697D01*
X178337444Y-94709051D01*
X178386703Y-94704200D01*
X179753297Y-94704200D01*
X179802556Y-94709051D01*
G37*
G36*
X177262556Y-94709051D02*
G01*
X177307541Y-94722697D01*
X177348993Y-94744854D01*
X177385327Y-94774673D01*
X177415146Y-94811007D01*
X177437303Y-94852459D01*
X177450949Y-94897444D01*
X177455800Y-94946703D01*
X177455800Y-95813297D01*
X177450949Y-95862556D01*
X177437303Y-95907541D01*
X177415146Y-95948993D01*
X177385327Y-95985327D01*
X177348993Y-96015146D01*
X177307541Y-96037303D01*
X177262556Y-96050949D01*
X177213297Y-96055800D01*
X175846703Y-96055800D01*
X175797444Y-96050949D01*
X175752459Y-96037303D01*
X175711007Y-96015146D01*
X175674673Y-95985327D01*
X175644854Y-95948993D01*
X175622697Y-95907541D01*
X175609051Y-95862556D01*
X175604200Y-95813297D01*
X175604200Y-94946703D01*
X175609051Y-94897444D01*
X175622697Y-94852459D01*
X175644854Y-94811007D01*
X175674673Y-94774673D01*
X175711007Y-94744854D01*
X175752459Y-94722697D01*
X175797444Y-94709051D01*
X175846703Y-94704200D01*
X177213297Y-94704200D01*
X177262556Y-94709051D01*
G37*
G36*
X174722556Y-94709051D02*
G01*
X174767541Y-94722697D01*
X174808993Y-94744854D01*
X174845327Y-94774673D01*
X174875146Y-94811007D01*
X174897303Y-94852459D01*
X174910949Y-94897444D01*
X174915800Y-94946703D01*
X174915800Y-95813297D01*
X174910949Y-95862556D01*
X174897303Y-95907541D01*
X174875146Y-95948993D01*
X174845327Y-95985327D01*
X174808993Y-96015146D01*
X174767541Y-96037303D01*
X174722556Y-96050949D01*
X174673297Y-96055800D01*
X173306703Y-96055800D01*
X173257444Y-96050949D01*
X173212459Y-96037303D01*
X173171007Y-96015146D01*
X173134673Y-95985327D01*
X173104854Y-95948993D01*
X173082697Y-95907541D01*
X173069051Y-95862556D01*
X173064200Y-95813297D01*
X173064200Y-94946703D01*
X173069051Y-94897444D01*
X173082697Y-94852459D01*
X173104854Y-94811007D01*
X173134673Y-94774673D01*
X173171007Y-94744854D01*
X173212459Y-94722697D01*
X173257444Y-94709051D01*
X173306703Y-94704200D01*
X174673297Y-94704200D01*
X174722556Y-94709051D01*
G37*
G36*
X118080556Y-92801051D02*
G01*
X118125541Y-92814697D01*
X118166993Y-92836854D01*
X118203327Y-92866673D01*
X118233146Y-92903007D01*
X118255303Y-92944459D01*
X118268949Y-92989444D01*
X118273800Y-93038703D01*
X118273800Y-93905297D01*
X118268949Y-93954556D01*
X118255303Y-93999541D01*
X118233146Y-94040993D01*
X118203327Y-94077327D01*
X118166993Y-94107146D01*
X118125541Y-94129303D01*
X118080556Y-94142949D01*
X118031297Y-94147800D01*
X116664703Y-94147800D01*
X116615444Y-94142949D01*
X116570459Y-94129303D01*
X116529007Y-94107146D01*
X116492673Y-94077327D01*
X116462854Y-94040993D01*
X116440697Y-93999541D01*
X116427051Y-93954556D01*
X116422200Y-93905297D01*
X116422200Y-93038703D01*
X116427051Y-92989444D01*
X116440697Y-92944459D01*
X116462854Y-92903007D01*
X116492673Y-92866673D01*
X116529007Y-92836854D01*
X116570459Y-92814697D01*
X116615444Y-92801051D01*
X116664703Y-92796200D01*
X118031297Y-92796200D01*
X118080556Y-92801051D01*
G37*
G36*
X144242556Y-92036051D02*
G01*
X144287541Y-92049697D01*
X144328993Y-92071854D01*
X144365327Y-92101673D01*
X144395146Y-92138007D01*
X144417303Y-92179459D01*
X144430949Y-92224444D01*
X144435800Y-92273703D01*
X144435800Y-93140297D01*
X144430949Y-93189556D01*
X144417303Y-93234541D01*
X144395146Y-93275993D01*
X144365327Y-93312327D01*
X144328993Y-93342146D01*
X144287541Y-93364303D01*
X144242556Y-93377949D01*
X144193297Y-93382800D01*
X142826703Y-93382800D01*
X142777444Y-93377949D01*
X142732459Y-93364303D01*
X142691007Y-93342146D01*
X142654673Y-93312327D01*
X142624854Y-93275993D01*
X142602697Y-93234541D01*
X142589051Y-93189556D01*
X142584200Y-93140297D01*
X142584200Y-92273703D01*
X142589051Y-92224444D01*
X142602697Y-92179459D01*
X142624854Y-92138007D01*
X142654673Y-92101673D01*
X142691007Y-92071854D01*
X142732459Y-92049697D01*
X142777444Y-92036051D01*
X142826703Y-92031200D01*
X144193297Y-92031200D01*
X144242556Y-92036051D01*
G37*
G36*
X146782556Y-92036051D02*
G01*
X146827541Y-92049697D01*
X146868993Y-92071854D01*
X146905327Y-92101673D01*
X146935146Y-92138007D01*
X146957303Y-92179459D01*
X146970949Y-92224444D01*
X146975800Y-92273703D01*
X146975800Y-93140297D01*
X146970949Y-93189556D01*
X146957303Y-93234541D01*
X146935146Y-93275993D01*
X146905327Y-93312327D01*
X146868993Y-93342146D01*
X146827541Y-93364303D01*
X146782556Y-93377949D01*
X146733297Y-93382800D01*
X145366703Y-93382800D01*
X145317444Y-93377949D01*
X145272459Y-93364303D01*
X145231007Y-93342146D01*
X145194673Y-93312327D01*
X145164854Y-93275993D01*
X145142697Y-93234541D01*
X145129051Y-93189556D01*
X145124200Y-93140297D01*
X145124200Y-92273703D01*
X145129051Y-92224444D01*
X145142697Y-92179459D01*
X145164854Y-92138007D01*
X145194673Y-92101673D01*
X145231007Y-92071854D01*
X145272459Y-92049697D01*
X145317444Y-92036051D01*
X145366703Y-92031200D01*
X146733297Y-92031200D01*
X146782556Y-92036051D01*
G37*
G36*
X141702556Y-92036051D02*
G01*
X141747541Y-92049697D01*
X141788993Y-92071854D01*
X141825327Y-92101673D01*
X141855146Y-92138007D01*
X141877303Y-92179459D01*
X141890949Y-92224444D01*
X141895800Y-92273703D01*
X141895800Y-93140297D01*
X141890949Y-93189556D01*
X141877303Y-93234541D01*
X141855146Y-93275993D01*
X141825327Y-93312327D01*
X141788993Y-93342146D01*
X141747541Y-93364303D01*
X141702556Y-93377949D01*
X141653297Y-93382800D01*
X140286703Y-93382800D01*
X140237444Y-93377949D01*
X140192459Y-93364303D01*
X140151007Y-93342146D01*
X140114673Y-93312327D01*
X140084854Y-93275993D01*
X140062697Y-93234541D01*
X140049051Y-93189556D01*
X140044200Y-93140297D01*
X140044200Y-92273703D01*
X140049051Y-92224444D01*
X140062697Y-92179459D01*
X140084854Y-92138007D01*
X140114673Y-92101673D01*
X140151007Y-92071854D01*
X140192459Y-92049697D01*
X140237444Y-92036051D01*
X140286703Y-92031200D01*
X141653297Y-92031200D01*
X141702556Y-92036051D01*
G37*
G36*
X149322556Y-92036051D02*
G01*
X149367541Y-92049697D01*
X149408993Y-92071854D01*
X149445327Y-92101673D01*
X149475146Y-92138007D01*
X149497303Y-92179459D01*
X149510949Y-92224444D01*
X149515800Y-92273703D01*
X149515800Y-93140297D01*
X149510949Y-93189556D01*
X149497303Y-93234541D01*
X149475146Y-93275993D01*
X149445327Y-93312327D01*
X149408993Y-93342146D01*
X149367541Y-93364303D01*
X149322556Y-93377949D01*
X149273297Y-93382800D01*
X147906703Y-93382800D01*
X147857444Y-93377949D01*
X147812459Y-93364303D01*
X147771007Y-93342146D01*
X147734673Y-93312327D01*
X147704854Y-93275993D01*
X147682697Y-93234541D01*
X147669051Y-93189556D01*
X147664200Y-93140297D01*
X147664200Y-92273703D01*
X147669051Y-92224444D01*
X147682697Y-92179459D01*
X147704854Y-92138007D01*
X147734673Y-92101673D01*
X147771007Y-92071854D01*
X147812459Y-92049697D01*
X147857444Y-92036051D01*
X147906703Y-92031200D01*
X149273297Y-92031200D01*
X149322556Y-92036051D01*
G37*
G36*
X179802556Y-91909051D02*
G01*
X179847541Y-91922697D01*
X179888993Y-91944854D01*
X179925327Y-91974673D01*
X179955146Y-92011007D01*
X179977303Y-92052459D01*
X179990949Y-92097444D01*
X179995800Y-92146703D01*
X179995800Y-93013297D01*
X179990949Y-93062556D01*
X179977303Y-93107541D01*
X179955146Y-93148993D01*
X179925327Y-93185327D01*
X179888993Y-93215146D01*
X179847541Y-93237303D01*
X179802556Y-93250949D01*
X179753297Y-93255800D01*
X178386703Y-93255800D01*
X178337444Y-93250949D01*
X178292459Y-93237303D01*
X178251007Y-93215146D01*
X178214673Y-93185327D01*
X178184854Y-93148993D01*
X178162697Y-93107541D01*
X178149051Y-93062556D01*
X178144200Y-93013297D01*
X178144200Y-92146703D01*
X178149051Y-92097444D01*
X178162697Y-92052459D01*
X178184854Y-92011007D01*
X178214673Y-91974673D01*
X178251007Y-91944854D01*
X178292459Y-91922697D01*
X178337444Y-91909051D01*
X178386703Y-91904200D01*
X179753297Y-91904200D01*
X179802556Y-91909051D01*
G37*
G36*
X177262556Y-91909051D02*
G01*
X177307541Y-91922697D01*
X177348993Y-91944854D01*
X177385327Y-91974673D01*
X177415146Y-92011007D01*
X177437303Y-92052459D01*
X177450949Y-92097444D01*
X177455800Y-92146703D01*
X177455800Y-93013297D01*
X177450949Y-93062556D01*
X177437303Y-93107541D01*
X177415146Y-93148993D01*
X177385327Y-93185327D01*
X177348993Y-93215146D01*
X177307541Y-93237303D01*
X177262556Y-93250949D01*
X177213297Y-93255800D01*
X175846703Y-93255800D01*
X175797444Y-93250949D01*
X175752459Y-93237303D01*
X175711007Y-93215146D01*
X175674673Y-93185327D01*
X175644854Y-93148993D01*
X175622697Y-93107541D01*
X175609051Y-93062556D01*
X175604200Y-93013297D01*
X175604200Y-92146703D01*
X175609051Y-92097444D01*
X175622697Y-92052459D01*
X175644854Y-92011007D01*
X175674673Y-91974673D01*
X175711007Y-91944854D01*
X175752459Y-91922697D01*
X175797444Y-91909051D01*
X175846703Y-91904200D01*
X177213297Y-91904200D01*
X177262556Y-91909051D01*
G37*
G36*
X174722556Y-91909051D02*
G01*
X174767541Y-91922697D01*
X174808993Y-91944854D01*
X174845327Y-91974673D01*
X174875146Y-92011007D01*
X174897303Y-92052459D01*
X174910949Y-92097444D01*
X174915800Y-92146703D01*
X174915800Y-93013297D01*
X174910949Y-93062556D01*
X174897303Y-93107541D01*
X174875146Y-93148993D01*
X174845327Y-93185327D01*
X174808993Y-93215146D01*
X174767541Y-93237303D01*
X174722556Y-93250949D01*
X174673297Y-93255800D01*
X173306703Y-93255800D01*
X173257444Y-93250949D01*
X173212459Y-93237303D01*
X173171007Y-93215146D01*
X173134673Y-93185327D01*
X173104854Y-93148993D01*
X173082697Y-93107541D01*
X173069051Y-93062556D01*
X173064200Y-93013297D01*
X173064200Y-92146703D01*
X173069051Y-92097444D01*
X173082697Y-92052459D01*
X173104854Y-92011007D01*
X173134673Y-91974673D01*
X173171007Y-91944854D01*
X173212459Y-91922697D01*
X173257444Y-91909051D01*
X173306703Y-91904200D01*
X174673297Y-91904200D01*
X174722556Y-91909051D01*
G37*
G36*
X157607577Y-89078616D02*
G01*
X157730257Y-89115831D01*
X157843314Y-89176262D01*
X157906715Y-89228294D01*
X157942411Y-89257589D01*
X158006755Y-89335992D01*
X158023740Y-89356688D01*
X158084169Y-89469742D01*
X158121384Y-89592422D01*
X158130800Y-89688032D01*
X158130800Y-90551968D01*
X158121384Y-90647578D01*
X158084169Y-90770258D01*
X158023738Y-90883315D01*
X157942411Y-90982411D01*
X157843315Y-91063738D01*
X157730258Y-91124169D01*
X157607578Y-91161384D01*
X157480000Y-91173948D01*
X157352423Y-91161384D01*
X157229743Y-91124169D01*
X157116686Y-91063738D01*
X157017590Y-90982411D01*
X156936263Y-90883315D01*
X156875830Y-90770253D01*
X156838617Y-90647583D01*
X156829200Y-90551968D01*
X156829200Y-89688033D01*
X156838616Y-89592423D01*
X156875831Y-89469743D01*
X156936262Y-89356686D01*
X157017587Y-89257592D01*
X157017589Y-89257589D01*
X157116686Y-89176262D01*
X157116688Y-89176260D01*
X157229742Y-89115831D01*
X157352422Y-89078616D01*
X157480000Y-89066052D01*
X157607577Y-89078616D01*
G37*
G36*
X137287577Y-89078616D02*
G01*
X137410257Y-89115831D01*
X137523314Y-89176262D01*
X137586715Y-89228294D01*
X137622411Y-89257589D01*
X137686755Y-89335992D01*
X137703740Y-89356688D01*
X137764169Y-89469742D01*
X137801384Y-89592422D01*
X137810800Y-89688032D01*
X137810800Y-90551968D01*
X137801384Y-90647578D01*
X137764169Y-90770258D01*
X137703738Y-90883315D01*
X137622411Y-90982411D01*
X137523315Y-91063738D01*
X137410258Y-91124169D01*
X137287578Y-91161384D01*
X137160000Y-91173948D01*
X137032423Y-91161384D01*
X136909743Y-91124169D01*
X136796686Y-91063738D01*
X136697590Y-90982411D01*
X136616263Y-90883315D01*
X136555830Y-90770253D01*
X136518617Y-90647583D01*
X136509200Y-90551968D01*
X136509200Y-89688033D01*
X136518616Y-89592423D01*
X136555831Y-89469743D01*
X136616262Y-89356686D01*
X136697587Y-89257592D01*
X136697589Y-89257589D01*
X136796686Y-89176262D01*
X136796688Y-89176260D01*
X136909742Y-89115831D01*
X137032422Y-89078616D01*
X137160000Y-89066052D01*
X137287577Y-89078616D01*
G37*
G36*
X134747577Y-89078616D02*
G01*
X134870257Y-89115831D01*
X134983314Y-89176262D01*
X135046715Y-89228294D01*
X135082411Y-89257589D01*
X135146755Y-89335992D01*
X135163740Y-89356688D01*
X135224169Y-89469742D01*
X135261384Y-89592422D01*
X135270800Y-89688032D01*
X135270800Y-90551968D01*
X135261384Y-90647578D01*
X135224169Y-90770258D01*
X135163738Y-90883315D01*
X135082411Y-90982411D01*
X134983315Y-91063738D01*
X134870258Y-91124169D01*
X134747578Y-91161384D01*
X134620000Y-91173948D01*
X134492423Y-91161384D01*
X134369743Y-91124169D01*
X134256686Y-91063738D01*
X134157590Y-90982411D01*
X134076263Y-90883315D01*
X134015830Y-90770253D01*
X133978617Y-90647583D01*
X133969200Y-90551968D01*
X133969200Y-89688033D01*
X133978616Y-89592423D01*
X134015831Y-89469743D01*
X134076262Y-89356686D01*
X134157587Y-89257592D01*
X134157589Y-89257589D01*
X134256686Y-89176262D01*
X134256688Y-89176260D01*
X134369742Y-89115831D01*
X134492422Y-89078616D01*
X134620000Y-89066052D01*
X134747577Y-89078616D01*
G37*
G36*
X132207577Y-89078616D02*
G01*
X132330257Y-89115831D01*
X132443314Y-89176262D01*
X132506715Y-89228294D01*
X132542411Y-89257589D01*
X132606755Y-89335992D01*
X132623740Y-89356688D01*
X132684169Y-89469742D01*
X132721384Y-89592422D01*
X132730800Y-89688032D01*
X132730800Y-90551968D01*
X132721384Y-90647578D01*
X132684169Y-90770258D01*
X132623738Y-90883315D01*
X132542411Y-90982411D01*
X132443315Y-91063738D01*
X132330258Y-91124169D01*
X132207578Y-91161384D01*
X132080000Y-91173948D01*
X131952423Y-91161384D01*
X131829743Y-91124169D01*
X131716686Y-91063738D01*
X131617590Y-90982411D01*
X131536263Y-90883315D01*
X131475830Y-90770253D01*
X131438617Y-90647583D01*
X131429200Y-90551968D01*
X131429200Y-89688033D01*
X131438616Y-89592423D01*
X131475831Y-89469743D01*
X131536262Y-89356686D01*
X131617587Y-89257592D01*
X131617589Y-89257589D01*
X131716686Y-89176262D01*
X131716688Y-89176260D01*
X131829742Y-89115831D01*
X131952422Y-89078616D01*
X132080000Y-89066052D01*
X132207577Y-89078616D01*
G37*
G36*
X129667577Y-89078616D02*
G01*
X129790257Y-89115831D01*
X129903314Y-89176262D01*
X129966715Y-89228294D01*
X130002411Y-89257589D01*
X130066755Y-89335992D01*
X130083740Y-89356688D01*
X130144169Y-89469742D01*
X130181384Y-89592422D01*
X130190800Y-89688032D01*
X130190800Y-90551968D01*
X130181384Y-90647578D01*
X130144169Y-90770258D01*
X130083738Y-90883315D01*
X130002411Y-90982411D01*
X129903315Y-91063738D01*
X129790258Y-91124169D01*
X129667578Y-91161384D01*
X129540000Y-91173948D01*
X129412423Y-91161384D01*
X129289743Y-91124169D01*
X129176686Y-91063738D01*
X129077590Y-90982411D01*
X128996263Y-90883315D01*
X128935830Y-90770253D01*
X128898617Y-90647583D01*
X128889200Y-90551968D01*
X128889200Y-89688033D01*
X128898616Y-89592423D01*
X128935831Y-89469743D01*
X128996262Y-89356686D01*
X129077587Y-89257592D01*
X129077589Y-89257589D01*
X129176686Y-89176262D01*
X129176688Y-89176260D01*
X129289742Y-89115831D01*
X129412422Y-89078616D01*
X129540000Y-89066052D01*
X129667577Y-89078616D01*
G37*
G36*
X155067577Y-89078616D02*
G01*
X155190257Y-89115831D01*
X155303314Y-89176262D01*
X155366715Y-89228294D01*
X155402411Y-89257589D01*
X155466755Y-89335992D01*
X155483740Y-89356688D01*
X155544169Y-89469742D01*
X155581384Y-89592422D01*
X155590800Y-89688032D01*
X155590800Y-90551968D01*
X155581384Y-90647578D01*
X155544169Y-90770258D01*
X155483738Y-90883315D01*
X155402411Y-90982411D01*
X155303315Y-91063738D01*
X155190258Y-91124169D01*
X155067578Y-91161384D01*
X154940000Y-91173948D01*
X154812423Y-91161384D01*
X154689743Y-91124169D01*
X154576686Y-91063738D01*
X154477590Y-90982411D01*
X154396263Y-90883315D01*
X154335830Y-90770253D01*
X154298617Y-90647583D01*
X154289200Y-90551968D01*
X154289200Y-89688033D01*
X154298616Y-89592423D01*
X154335831Y-89469743D01*
X154396262Y-89356686D01*
X154477587Y-89257592D01*
X154477589Y-89257589D01*
X154576686Y-89176262D01*
X154576688Y-89176260D01*
X154689742Y-89115831D01*
X154812422Y-89078616D01*
X154940000Y-89066052D01*
X155067577Y-89078616D01*
G37*
G36*
X160147577Y-89078616D02*
G01*
X160270257Y-89115831D01*
X160383314Y-89176262D01*
X160446715Y-89228294D01*
X160482411Y-89257589D01*
X160546755Y-89335992D01*
X160563740Y-89356688D01*
X160624169Y-89469742D01*
X160661384Y-89592422D01*
X160670800Y-89688032D01*
X160670800Y-90551968D01*
X160661384Y-90647578D01*
X160624169Y-90770258D01*
X160563738Y-90883315D01*
X160482411Y-90982411D01*
X160383315Y-91063738D01*
X160270258Y-91124169D01*
X160147578Y-91161384D01*
X160020000Y-91173948D01*
X159892423Y-91161384D01*
X159769743Y-91124169D01*
X159656686Y-91063738D01*
X159557590Y-90982411D01*
X159476263Y-90883315D01*
X159415830Y-90770253D01*
X159378617Y-90647583D01*
X159369200Y-90551968D01*
X159369200Y-89688033D01*
X159378616Y-89592423D01*
X159415831Y-89469743D01*
X159476262Y-89356686D01*
X159557587Y-89257592D01*
X159557589Y-89257589D01*
X159656686Y-89176262D01*
X159656688Y-89176260D01*
X159769742Y-89115831D01*
X159892422Y-89078616D01*
X160020000Y-89066052D01*
X160147577Y-89078616D01*
G37*
G36*
X127127577Y-89078616D02*
G01*
X127250257Y-89115831D01*
X127363314Y-89176262D01*
X127426715Y-89228294D01*
X127462411Y-89257589D01*
X127526755Y-89335992D01*
X127543740Y-89356688D01*
X127604169Y-89469742D01*
X127641384Y-89592422D01*
X127650800Y-89688032D01*
X127650800Y-90551968D01*
X127641384Y-90647578D01*
X127604169Y-90770258D01*
X127543738Y-90883315D01*
X127462411Y-90982411D01*
X127363315Y-91063738D01*
X127250258Y-91124169D01*
X127127578Y-91161384D01*
X127000000Y-91173948D01*
X126872423Y-91161384D01*
X126749743Y-91124169D01*
X126636686Y-91063738D01*
X126537590Y-90982411D01*
X126456263Y-90883315D01*
X126395830Y-90770253D01*
X126358617Y-90647583D01*
X126349200Y-90551968D01*
X126349200Y-89688033D01*
X126358616Y-89592423D01*
X126395831Y-89469743D01*
X126456262Y-89356686D01*
X126537587Y-89257592D01*
X126537589Y-89257589D01*
X126636686Y-89176262D01*
X126636688Y-89176260D01*
X126749742Y-89115831D01*
X126872422Y-89078616D01*
X127000000Y-89066052D01*
X127127577Y-89078616D01*
G37*
G36*
X188087577Y-89078616D02*
G01*
X188210257Y-89115831D01*
X188323314Y-89176262D01*
X188386715Y-89228294D01*
X188422411Y-89257589D01*
X188486755Y-89335992D01*
X188503740Y-89356688D01*
X188564169Y-89469742D01*
X188601384Y-89592422D01*
X188610800Y-89688032D01*
X188610800Y-90551968D01*
X188601384Y-90647578D01*
X188564169Y-90770258D01*
X188503738Y-90883315D01*
X188422411Y-90982411D01*
X188323315Y-91063738D01*
X188210258Y-91124169D01*
X188087578Y-91161384D01*
X187960000Y-91173948D01*
X187832423Y-91161384D01*
X187709743Y-91124169D01*
X187596686Y-91063738D01*
X187497590Y-90982411D01*
X187416263Y-90883315D01*
X187355830Y-90770253D01*
X187318617Y-90647583D01*
X187309200Y-90551968D01*
X187309200Y-89688033D01*
X187318616Y-89592423D01*
X187355831Y-89469743D01*
X187416262Y-89356686D01*
X187497587Y-89257592D01*
X187497589Y-89257589D01*
X187596686Y-89176262D01*
X187596688Y-89176260D01*
X187709742Y-89115831D01*
X187832422Y-89078616D01*
X187960000Y-89066052D01*
X188087577Y-89078616D01*
G37*
G36*
X190627577Y-89078616D02*
G01*
X190750257Y-89115831D01*
X190863314Y-89176262D01*
X190926715Y-89228294D01*
X190962411Y-89257589D01*
X191026755Y-89335992D01*
X191043740Y-89356688D01*
X191104169Y-89469742D01*
X191141384Y-89592422D01*
X191150800Y-89688032D01*
X191150800Y-90551968D01*
X191141384Y-90647578D01*
X191104169Y-90770258D01*
X191043738Y-90883315D01*
X190962411Y-90982411D01*
X190863315Y-91063738D01*
X190750258Y-91124169D01*
X190627578Y-91161384D01*
X190500000Y-91173948D01*
X190372423Y-91161384D01*
X190249743Y-91124169D01*
X190136686Y-91063738D01*
X190037590Y-90982411D01*
X189956263Y-90883315D01*
X189895830Y-90770253D01*
X189858617Y-90647583D01*
X189849200Y-90551968D01*
X189849200Y-89688033D01*
X189858616Y-89592423D01*
X189895831Y-89469743D01*
X189956262Y-89356686D01*
X190037587Y-89257592D01*
X190037589Y-89257589D01*
X190136686Y-89176262D01*
X190136688Y-89176260D01*
X190249742Y-89115831D01*
X190372422Y-89078616D01*
X190500000Y-89066052D01*
X190627577Y-89078616D01*
G37*
G36*
X193167577Y-89078616D02*
G01*
X193290257Y-89115831D01*
X193403314Y-89176262D01*
X193466715Y-89228294D01*
X193502411Y-89257589D01*
X193566755Y-89335992D01*
X193583740Y-89356688D01*
X193644169Y-89469742D01*
X193681384Y-89592422D01*
X193690800Y-89688032D01*
X193690800Y-90551968D01*
X193681384Y-90647578D01*
X193644169Y-90770258D01*
X193583738Y-90883315D01*
X193502411Y-90982411D01*
X193403315Y-91063738D01*
X193290258Y-91124169D01*
X193167578Y-91161384D01*
X193040000Y-91173948D01*
X192912423Y-91161384D01*
X192789743Y-91124169D01*
X192676686Y-91063738D01*
X192577590Y-90982411D01*
X192496263Y-90883315D01*
X192435830Y-90770253D01*
X192398617Y-90647583D01*
X192389200Y-90551968D01*
X192389200Y-89688033D01*
X192398616Y-89592423D01*
X192435831Y-89469743D01*
X192496262Y-89356686D01*
X192577587Y-89257592D01*
X192577589Y-89257589D01*
X192676686Y-89176262D01*
X192676688Y-89176260D01*
X192789742Y-89115831D01*
X192912422Y-89078616D01*
X193040000Y-89066052D01*
X193167577Y-89078616D01*
G37*
G36*
X124587577Y-89078616D02*
G01*
X124710257Y-89115831D01*
X124823314Y-89176262D01*
X124886715Y-89228294D01*
X124922411Y-89257589D01*
X124986755Y-89335992D01*
X125003740Y-89356688D01*
X125064169Y-89469742D01*
X125101384Y-89592422D01*
X125110800Y-89688032D01*
X125110800Y-90551968D01*
X125101384Y-90647578D01*
X125064169Y-90770258D01*
X125003738Y-90883315D01*
X124922411Y-90982411D01*
X124823315Y-91063738D01*
X124710258Y-91124169D01*
X124587578Y-91161384D01*
X124460000Y-91173948D01*
X124332423Y-91161384D01*
X124209743Y-91124169D01*
X124096686Y-91063738D01*
X123997590Y-90982411D01*
X123916263Y-90883315D01*
X123855830Y-90770253D01*
X123818617Y-90647583D01*
X123809200Y-90551968D01*
X123809200Y-89688033D01*
X123818616Y-89592423D01*
X123855831Y-89469743D01*
X123916262Y-89356686D01*
X123997587Y-89257592D01*
X123997589Y-89257589D01*
X124096686Y-89176262D01*
X124096688Y-89176260D01*
X124209742Y-89115831D01*
X124332422Y-89078616D01*
X124460000Y-89066052D01*
X124587577Y-89078616D01*
G37*
G36*
X162687577Y-89078616D02*
G01*
X162810257Y-89115831D01*
X162923314Y-89176262D01*
X162986715Y-89228294D01*
X163022411Y-89257589D01*
X163086755Y-89335992D01*
X163103740Y-89356688D01*
X163164169Y-89469742D01*
X163201384Y-89592422D01*
X163210800Y-89688032D01*
X163210800Y-90551968D01*
X163201384Y-90647578D01*
X163164169Y-90770258D01*
X163103738Y-90883315D01*
X163022411Y-90982411D01*
X162923315Y-91063738D01*
X162810258Y-91124169D01*
X162687578Y-91161384D01*
X162560000Y-91173948D01*
X162432423Y-91161384D01*
X162309743Y-91124169D01*
X162196686Y-91063738D01*
X162097590Y-90982411D01*
X162016263Y-90883315D01*
X161955830Y-90770253D01*
X161918617Y-90647583D01*
X161909200Y-90551968D01*
X161909200Y-89688033D01*
X161918616Y-89592423D01*
X161955831Y-89469743D01*
X162016262Y-89356686D01*
X162097587Y-89257592D01*
X162097589Y-89257589D01*
X162196686Y-89176262D01*
X162196688Y-89176260D01*
X162309742Y-89115831D01*
X162432422Y-89078616D01*
X162560000Y-89066052D01*
X162687577Y-89078616D01*
G37*
G36*
X165227577Y-89078616D02*
G01*
X165350257Y-89115831D01*
X165463314Y-89176262D01*
X165526715Y-89228294D01*
X165562411Y-89257589D01*
X165626755Y-89335992D01*
X165643740Y-89356688D01*
X165704169Y-89469742D01*
X165741384Y-89592422D01*
X165750800Y-89688032D01*
X165750800Y-90551968D01*
X165741384Y-90647578D01*
X165704169Y-90770258D01*
X165643738Y-90883315D01*
X165562411Y-90982411D01*
X165463315Y-91063738D01*
X165350258Y-91124169D01*
X165227578Y-91161384D01*
X165100000Y-91173948D01*
X164972423Y-91161384D01*
X164849743Y-91124169D01*
X164736686Y-91063738D01*
X164637590Y-90982411D01*
X164556263Y-90883315D01*
X164495830Y-90770253D01*
X164458617Y-90647583D01*
X164449200Y-90551968D01*
X164449200Y-89688033D01*
X164458616Y-89592423D01*
X164495831Y-89469743D01*
X164556262Y-89356686D01*
X164637587Y-89257592D01*
X164637589Y-89257589D01*
X164736686Y-89176262D01*
X164736688Y-89176260D01*
X164849742Y-89115831D01*
X164972422Y-89078616D01*
X165100000Y-89066052D01*
X165227577Y-89078616D01*
G37*
G36*
X167767577Y-89078616D02*
G01*
X167890257Y-89115831D01*
X168003314Y-89176262D01*
X168066715Y-89228294D01*
X168102411Y-89257589D01*
X168166755Y-89335992D01*
X168183740Y-89356688D01*
X168244169Y-89469742D01*
X168281384Y-89592422D01*
X168290800Y-89688032D01*
X168290800Y-90551968D01*
X168281384Y-90647578D01*
X168244169Y-90770258D01*
X168183738Y-90883315D01*
X168102411Y-90982411D01*
X168003315Y-91063738D01*
X167890258Y-91124169D01*
X167767578Y-91161384D01*
X167640000Y-91173948D01*
X167512423Y-91161384D01*
X167389743Y-91124169D01*
X167276686Y-91063738D01*
X167177590Y-90982411D01*
X167096263Y-90883315D01*
X167035830Y-90770253D01*
X166998617Y-90647583D01*
X166989200Y-90551968D01*
X166989200Y-89688033D01*
X166998616Y-89592423D01*
X167035831Y-89469743D01*
X167096262Y-89356686D01*
X167177587Y-89257592D01*
X167177589Y-89257589D01*
X167276686Y-89176262D01*
X167276688Y-89176260D01*
X167389742Y-89115831D01*
X167512422Y-89078616D01*
X167640000Y-89066052D01*
X167767577Y-89078616D01*
G37*
G36*
X183007577Y-89078616D02*
G01*
X183130257Y-89115831D01*
X183243314Y-89176262D01*
X183306715Y-89228294D01*
X183342411Y-89257589D01*
X183406755Y-89335992D01*
X183423740Y-89356688D01*
X183484169Y-89469742D01*
X183521384Y-89592422D01*
X183530800Y-89688032D01*
X183530800Y-90551968D01*
X183521384Y-90647578D01*
X183484169Y-90770258D01*
X183423738Y-90883315D01*
X183342411Y-90982411D01*
X183243315Y-91063738D01*
X183130258Y-91124169D01*
X183007578Y-91161384D01*
X182880000Y-91173948D01*
X182752423Y-91161384D01*
X182629743Y-91124169D01*
X182516686Y-91063738D01*
X182417590Y-90982411D01*
X182336263Y-90883315D01*
X182275830Y-90770253D01*
X182238617Y-90647583D01*
X182229200Y-90551968D01*
X182229200Y-89688033D01*
X182238616Y-89592423D01*
X182275831Y-89469743D01*
X182336262Y-89356686D01*
X182417587Y-89257592D01*
X182417589Y-89257589D01*
X182516686Y-89176262D01*
X182516688Y-89176260D01*
X182629742Y-89115831D01*
X182752422Y-89078616D01*
X182880000Y-89066052D01*
X183007577Y-89078616D01*
G37*
G36*
X185547577Y-89078616D02*
G01*
X185670257Y-89115831D01*
X185783314Y-89176262D01*
X185846715Y-89228294D01*
X185882411Y-89257589D01*
X185946755Y-89335992D01*
X185963740Y-89356688D01*
X186024169Y-89469742D01*
X186061384Y-89592422D01*
X186070800Y-89688032D01*
X186070800Y-90551968D01*
X186061384Y-90647578D01*
X186024169Y-90770258D01*
X185963738Y-90883315D01*
X185882411Y-90982411D01*
X185783315Y-91063738D01*
X185670258Y-91124169D01*
X185547578Y-91161384D01*
X185420000Y-91173948D01*
X185292423Y-91161384D01*
X185169743Y-91124169D01*
X185056686Y-91063738D01*
X184957590Y-90982411D01*
X184876263Y-90883315D01*
X184815830Y-90770253D01*
X184778617Y-90647583D01*
X184769200Y-90551968D01*
X184769200Y-89688033D01*
X184778616Y-89592423D01*
X184815831Y-89469743D01*
X184876262Y-89356686D01*
X184957587Y-89257592D01*
X184957589Y-89257589D01*
X185056686Y-89176262D01*
X185056688Y-89176260D01*
X185169742Y-89115831D01*
X185292422Y-89078616D01*
X185420000Y-89066052D01*
X185547577Y-89078616D01*
G37*
G36*
X160147577Y-81558616D02*
G01*
X160270257Y-81595831D01*
X160383314Y-81656262D01*
X160446715Y-81708294D01*
X160482411Y-81737589D01*
X160546755Y-81815992D01*
X160563740Y-81836688D01*
X160624169Y-81949742D01*
X160661384Y-82072422D01*
X160670800Y-82168032D01*
X160670800Y-83031968D01*
X160661384Y-83127578D01*
X160624169Y-83250258D01*
X160563738Y-83363315D01*
X160482411Y-83462411D01*
X160383315Y-83543738D01*
X160270258Y-83604169D01*
X160147578Y-83641384D01*
X160020000Y-83653948D01*
X159892423Y-83641384D01*
X159769743Y-83604169D01*
X159656686Y-83543738D01*
X159557590Y-83462411D01*
X159476263Y-83363315D01*
X159415830Y-83250253D01*
X159378617Y-83127583D01*
X159369200Y-83031968D01*
X159369200Y-82168033D01*
X159378616Y-82072423D01*
X159415831Y-81949743D01*
X159476262Y-81836686D01*
X159557587Y-81737592D01*
X159557589Y-81737589D01*
X159656686Y-81656262D01*
X159656688Y-81656260D01*
X159769742Y-81595831D01*
X159892422Y-81558616D01*
X160020000Y-81546052D01*
X160147577Y-81558616D01*
G37*
G36*
X193167577Y-81558616D02*
G01*
X193290257Y-81595831D01*
X193403314Y-81656262D01*
X193466715Y-81708294D01*
X193502411Y-81737589D01*
X193566755Y-81815992D01*
X193583740Y-81836688D01*
X193644169Y-81949742D01*
X193681384Y-82072422D01*
X193690800Y-82168032D01*
X193690800Y-83031968D01*
X193681384Y-83127578D01*
X193644169Y-83250258D01*
X193583738Y-83363315D01*
X193502411Y-83462411D01*
X193403315Y-83543738D01*
X193290258Y-83604169D01*
X193167578Y-83641384D01*
X193040000Y-83653948D01*
X192912423Y-83641384D01*
X192789743Y-83604169D01*
X192676686Y-83543738D01*
X192577590Y-83462411D01*
X192496263Y-83363315D01*
X192435830Y-83250253D01*
X192398617Y-83127583D01*
X192389200Y-83031968D01*
X192389200Y-82168033D01*
X192398616Y-82072423D01*
X192435831Y-81949743D01*
X192496262Y-81836686D01*
X192577587Y-81737592D01*
X192577589Y-81737589D01*
X192676686Y-81656262D01*
X192676688Y-81656260D01*
X192789742Y-81595831D01*
X192912422Y-81558616D01*
X193040000Y-81546052D01*
X193167577Y-81558616D01*
G37*
G36*
X190627577Y-81558616D02*
G01*
X190750257Y-81595831D01*
X190863314Y-81656262D01*
X190926715Y-81708294D01*
X190962411Y-81737589D01*
X191026755Y-81815992D01*
X191043740Y-81836688D01*
X191104169Y-81949742D01*
X191141384Y-82072422D01*
X191150800Y-82168032D01*
X191150800Y-83031968D01*
X191141384Y-83127578D01*
X191104169Y-83250258D01*
X191043738Y-83363315D01*
X190962411Y-83462411D01*
X190863315Y-83543738D01*
X190750258Y-83604169D01*
X190627578Y-83641384D01*
X190500000Y-83653948D01*
X190372423Y-83641384D01*
X190249743Y-83604169D01*
X190136686Y-83543738D01*
X190037590Y-83462411D01*
X189956263Y-83363315D01*
X189895830Y-83250253D01*
X189858617Y-83127583D01*
X189849200Y-83031968D01*
X189849200Y-82168033D01*
X189858616Y-82072423D01*
X189895831Y-81949743D01*
X189956262Y-81836686D01*
X190037587Y-81737592D01*
X190037589Y-81737589D01*
X190136686Y-81656262D01*
X190136688Y-81656260D01*
X190249742Y-81595831D01*
X190372422Y-81558616D01*
X190500000Y-81546052D01*
X190627577Y-81558616D01*
G37*
G36*
X188087577Y-81558616D02*
G01*
X188210257Y-81595831D01*
X188323314Y-81656262D01*
X188386715Y-81708294D01*
X188422411Y-81737589D01*
X188486755Y-81815992D01*
X188503740Y-81836688D01*
X188564169Y-81949742D01*
X188601384Y-82072422D01*
X188610800Y-82168032D01*
X188610800Y-83031968D01*
X188601384Y-83127578D01*
X188564169Y-83250258D01*
X188503738Y-83363315D01*
X188422411Y-83462411D01*
X188323315Y-83543738D01*
X188210258Y-83604169D01*
X188087578Y-83641384D01*
X187960000Y-83653948D01*
X187832423Y-83641384D01*
X187709743Y-83604169D01*
X187596686Y-83543738D01*
X187497590Y-83462411D01*
X187416263Y-83363315D01*
X187355830Y-83250253D01*
X187318617Y-83127583D01*
X187309200Y-83031968D01*
X187309200Y-82168033D01*
X187318616Y-82072423D01*
X187355831Y-81949743D01*
X187416262Y-81836686D01*
X187497587Y-81737592D01*
X187497589Y-81737589D01*
X187596686Y-81656262D01*
X187596688Y-81656260D01*
X187709742Y-81595831D01*
X187832422Y-81558616D01*
X187960000Y-81546052D01*
X188087577Y-81558616D01*
G37*
G36*
X165227577Y-81558616D02*
G01*
X165350257Y-81595831D01*
X165463314Y-81656262D01*
X165526715Y-81708294D01*
X165562411Y-81737589D01*
X165626755Y-81815992D01*
X165643740Y-81836688D01*
X165704169Y-81949742D01*
X165741384Y-82072422D01*
X165750800Y-82168032D01*
X165750800Y-83031968D01*
X165741384Y-83127578D01*
X165704169Y-83250258D01*
X165643738Y-83363315D01*
X165562411Y-83462411D01*
X165463315Y-83543738D01*
X165350258Y-83604169D01*
X165227578Y-83641384D01*
X165100000Y-83653948D01*
X164972423Y-83641384D01*
X164849743Y-83604169D01*
X164736686Y-83543738D01*
X164637590Y-83462411D01*
X164556263Y-83363315D01*
X164495830Y-83250253D01*
X164458617Y-83127583D01*
X164449200Y-83031968D01*
X164449200Y-82168033D01*
X164458616Y-82072423D01*
X164495831Y-81949743D01*
X164556262Y-81836686D01*
X164637587Y-81737592D01*
X164637589Y-81737589D01*
X164736686Y-81656262D01*
X164736688Y-81656260D01*
X164849742Y-81595831D01*
X164972422Y-81558616D01*
X165100000Y-81546052D01*
X165227577Y-81558616D01*
G37*
G36*
X162687577Y-81558616D02*
G01*
X162810257Y-81595831D01*
X162923314Y-81656262D01*
X162986715Y-81708294D01*
X163022411Y-81737589D01*
X163086755Y-81815992D01*
X163103740Y-81836688D01*
X163164169Y-81949742D01*
X163201384Y-82072422D01*
X163210800Y-82168032D01*
X163210800Y-83031968D01*
X163201384Y-83127578D01*
X163164169Y-83250258D01*
X163103738Y-83363315D01*
X163022411Y-83462411D01*
X162923315Y-83543738D01*
X162810258Y-83604169D01*
X162687578Y-83641384D01*
X162560000Y-83653948D01*
X162432423Y-83641384D01*
X162309743Y-83604169D01*
X162196686Y-83543738D01*
X162097590Y-83462411D01*
X162016263Y-83363315D01*
X161955830Y-83250253D01*
X161918617Y-83127583D01*
X161909200Y-83031968D01*
X161909200Y-82168033D01*
X161918616Y-82072423D01*
X161955831Y-81949743D01*
X162016262Y-81836686D01*
X162097587Y-81737592D01*
X162097589Y-81737589D01*
X162196686Y-81656262D01*
X162196688Y-81656260D01*
X162309742Y-81595831D01*
X162432422Y-81558616D01*
X162560000Y-81546052D01*
X162687577Y-81558616D01*
G37*
G36*
X185547577Y-81558616D02*
G01*
X185670257Y-81595831D01*
X185783314Y-81656262D01*
X185846715Y-81708294D01*
X185882411Y-81737589D01*
X185946755Y-81815992D01*
X185963740Y-81836688D01*
X186024169Y-81949742D01*
X186061384Y-82072422D01*
X186070800Y-82168032D01*
X186070800Y-83031968D01*
X186061384Y-83127578D01*
X186024169Y-83250258D01*
X185963738Y-83363315D01*
X185882411Y-83462411D01*
X185783315Y-83543738D01*
X185670258Y-83604169D01*
X185547578Y-83641384D01*
X185420000Y-83653948D01*
X185292423Y-83641384D01*
X185169743Y-83604169D01*
X185056686Y-83543738D01*
X184957590Y-83462411D01*
X184876263Y-83363315D01*
X184815830Y-83250253D01*
X184778617Y-83127583D01*
X184769200Y-83031968D01*
X184769200Y-82168033D01*
X184778616Y-82072423D01*
X184815831Y-81949743D01*
X184876262Y-81836686D01*
X184957587Y-81737592D01*
X184957589Y-81737589D01*
X185056686Y-81656262D01*
X185056688Y-81656260D01*
X185169742Y-81595831D01*
X185292422Y-81558616D01*
X185420000Y-81546052D01*
X185547577Y-81558616D01*
G37*
G36*
X157607577Y-81558616D02*
G01*
X157730257Y-81595831D01*
X157843314Y-81656262D01*
X157906715Y-81708294D01*
X157942411Y-81737589D01*
X158006755Y-81815992D01*
X158023740Y-81836688D01*
X158084169Y-81949742D01*
X158121384Y-82072422D01*
X158130800Y-82168032D01*
X158130800Y-83031968D01*
X158121384Y-83127578D01*
X158084169Y-83250258D01*
X158023738Y-83363315D01*
X157942411Y-83462411D01*
X157843315Y-83543738D01*
X157730258Y-83604169D01*
X157607578Y-83641384D01*
X157480000Y-83653948D01*
X157352423Y-83641384D01*
X157229743Y-83604169D01*
X157116686Y-83543738D01*
X157017590Y-83462411D01*
X156936263Y-83363315D01*
X156875830Y-83250253D01*
X156838617Y-83127583D01*
X156829200Y-83031968D01*
X156829200Y-82168033D01*
X156838616Y-82072423D01*
X156875831Y-81949743D01*
X156936262Y-81836686D01*
X157017587Y-81737592D01*
X157017589Y-81737589D01*
X157116686Y-81656262D01*
X157116688Y-81656260D01*
X157229742Y-81595831D01*
X157352422Y-81558616D01*
X157480000Y-81546052D01*
X157607577Y-81558616D01*
G37*
G36*
X155067577Y-81558616D02*
G01*
X155190257Y-81595831D01*
X155303314Y-81656262D01*
X155366715Y-81708294D01*
X155402411Y-81737589D01*
X155466755Y-81815992D01*
X155483740Y-81836688D01*
X155544169Y-81949742D01*
X155581384Y-82072422D01*
X155590800Y-82168032D01*
X155590800Y-83031968D01*
X155581384Y-83127578D01*
X155544169Y-83250258D01*
X155483738Y-83363315D01*
X155402411Y-83462411D01*
X155303315Y-83543738D01*
X155190258Y-83604169D01*
X155067578Y-83641384D01*
X154940000Y-83653948D01*
X154812423Y-83641384D01*
X154689743Y-83604169D01*
X154576686Y-83543738D01*
X154477590Y-83462411D01*
X154396263Y-83363315D01*
X154335830Y-83250253D01*
X154298617Y-83127583D01*
X154289200Y-83031968D01*
X154289200Y-82168033D01*
X154298616Y-82072423D01*
X154335831Y-81949743D01*
X154396262Y-81836686D01*
X154477587Y-81737592D01*
X154477589Y-81737589D01*
X154576686Y-81656262D01*
X154576688Y-81656260D01*
X154689742Y-81595831D01*
X154812422Y-81558616D01*
X154940000Y-81546052D01*
X155067577Y-81558616D01*
G37*
G36*
X137287577Y-81558616D02*
G01*
X137410257Y-81595831D01*
X137523314Y-81656262D01*
X137586715Y-81708294D01*
X137622411Y-81737589D01*
X137686755Y-81815992D01*
X137703740Y-81836688D01*
X137764169Y-81949742D01*
X137801384Y-82072422D01*
X137810800Y-82168032D01*
X137810800Y-83031968D01*
X137801384Y-83127578D01*
X137764169Y-83250258D01*
X137703738Y-83363315D01*
X137622411Y-83462411D01*
X137523315Y-83543738D01*
X137410258Y-83604169D01*
X137287578Y-83641384D01*
X137160000Y-83653948D01*
X137032423Y-83641384D01*
X136909743Y-83604169D01*
X136796686Y-83543738D01*
X136697590Y-83462411D01*
X136616263Y-83363315D01*
X136555830Y-83250253D01*
X136518617Y-83127583D01*
X136509200Y-83031968D01*
X136509200Y-82168033D01*
X136518616Y-82072423D01*
X136555831Y-81949743D01*
X136616262Y-81836686D01*
X136697587Y-81737592D01*
X136697589Y-81737589D01*
X136796686Y-81656262D01*
X136796688Y-81656260D01*
X136909742Y-81595831D01*
X137032422Y-81558616D01*
X137160000Y-81546052D01*
X137287577Y-81558616D01*
G37*
G36*
X134747577Y-81558616D02*
G01*
X134870257Y-81595831D01*
X134983314Y-81656262D01*
X135046715Y-81708294D01*
X135082411Y-81737589D01*
X135146755Y-81815992D01*
X135163740Y-81836688D01*
X135224169Y-81949742D01*
X135261384Y-82072422D01*
X135270800Y-82168032D01*
X135270800Y-83031968D01*
X135261384Y-83127578D01*
X135224169Y-83250258D01*
X135163738Y-83363315D01*
X135082411Y-83462411D01*
X134983315Y-83543738D01*
X134870258Y-83604169D01*
X134747578Y-83641384D01*
X134620000Y-83653948D01*
X134492423Y-83641384D01*
X134369743Y-83604169D01*
X134256686Y-83543738D01*
X134157590Y-83462411D01*
X134076263Y-83363315D01*
X134015830Y-83250253D01*
X133978617Y-83127583D01*
X133969200Y-83031968D01*
X133969200Y-82168033D01*
X133978616Y-82072423D01*
X134015831Y-81949743D01*
X134076262Y-81836686D01*
X134157587Y-81737592D01*
X134157589Y-81737589D01*
X134256686Y-81656262D01*
X134256688Y-81656260D01*
X134369742Y-81595831D01*
X134492422Y-81558616D01*
X134620000Y-81546052D01*
X134747577Y-81558616D01*
G37*
G36*
X132207577Y-81558616D02*
G01*
X132330257Y-81595831D01*
X132443314Y-81656262D01*
X132506715Y-81708294D01*
X132542411Y-81737589D01*
X132606755Y-81815992D01*
X132623740Y-81836688D01*
X132684169Y-81949742D01*
X132721384Y-82072422D01*
X132730800Y-82168032D01*
X132730800Y-83031968D01*
X132721384Y-83127578D01*
X132684169Y-83250258D01*
X132623738Y-83363315D01*
X132542411Y-83462411D01*
X132443315Y-83543738D01*
X132330258Y-83604169D01*
X132207578Y-83641384D01*
X132080000Y-83653948D01*
X131952423Y-83641384D01*
X131829743Y-83604169D01*
X131716686Y-83543738D01*
X131617590Y-83462411D01*
X131536263Y-83363315D01*
X131475830Y-83250253D01*
X131438617Y-83127583D01*
X131429200Y-83031968D01*
X131429200Y-82168033D01*
X131438616Y-82072423D01*
X131475831Y-81949743D01*
X131536262Y-81836686D01*
X131617587Y-81737592D01*
X131617589Y-81737589D01*
X131716686Y-81656262D01*
X131716688Y-81656260D01*
X131829742Y-81595831D01*
X131952422Y-81558616D01*
X132080000Y-81546052D01*
X132207577Y-81558616D01*
G37*
G36*
X129667577Y-81558616D02*
G01*
X129790257Y-81595831D01*
X129903314Y-81656262D01*
X129966715Y-81708294D01*
X130002411Y-81737589D01*
X130066755Y-81815992D01*
X130083740Y-81836688D01*
X130144169Y-81949742D01*
X130181384Y-82072422D01*
X130190800Y-82168032D01*
X130190800Y-83031968D01*
X130181384Y-83127578D01*
X130144169Y-83250258D01*
X130083738Y-83363315D01*
X130002411Y-83462411D01*
X129903315Y-83543738D01*
X129790258Y-83604169D01*
X129667578Y-83641384D01*
X129540000Y-83653948D01*
X129412423Y-83641384D01*
X129289743Y-83604169D01*
X129176686Y-83543738D01*
X129077590Y-83462411D01*
X128996263Y-83363315D01*
X128935830Y-83250253D01*
X128898617Y-83127583D01*
X128889200Y-83031968D01*
X128889200Y-82168033D01*
X128898616Y-82072423D01*
X128935831Y-81949743D01*
X128996262Y-81836686D01*
X129077587Y-81737592D01*
X129077589Y-81737589D01*
X129176686Y-81656262D01*
X129176688Y-81656260D01*
X129289742Y-81595831D01*
X129412422Y-81558616D01*
X129540000Y-81546052D01*
X129667577Y-81558616D01*
G37*
G36*
X127127577Y-81558616D02*
G01*
X127250257Y-81595831D01*
X127363314Y-81656262D01*
X127426715Y-81708294D01*
X127462411Y-81737589D01*
X127526755Y-81815992D01*
X127543740Y-81836688D01*
X127604169Y-81949742D01*
X127641384Y-82072422D01*
X127650800Y-82168032D01*
X127650800Y-83031968D01*
X127641384Y-83127578D01*
X127604169Y-83250258D01*
X127543738Y-83363315D01*
X127462411Y-83462411D01*
X127363315Y-83543738D01*
X127250258Y-83604169D01*
X127127578Y-83641384D01*
X127000000Y-83653948D01*
X126872423Y-83641384D01*
X126749743Y-83604169D01*
X126636686Y-83543738D01*
X126537590Y-83462411D01*
X126456263Y-83363315D01*
X126395830Y-83250253D01*
X126358617Y-83127583D01*
X126349200Y-83031968D01*
X126349200Y-82168033D01*
X126358616Y-82072423D01*
X126395831Y-81949743D01*
X126456262Y-81836686D01*
X126537587Y-81737592D01*
X126537589Y-81737589D01*
X126636686Y-81656262D01*
X126636688Y-81656260D01*
X126749742Y-81595831D01*
X126872422Y-81558616D01*
X127000000Y-81546052D01*
X127127577Y-81558616D01*
G37*
G36*
X183007577Y-81558616D02*
G01*
X183130257Y-81595831D01*
X183243314Y-81656262D01*
X183306715Y-81708294D01*
X183342411Y-81737589D01*
X183406755Y-81815992D01*
X183423740Y-81836688D01*
X183484169Y-81949742D01*
X183521384Y-82072422D01*
X183530800Y-82168032D01*
X183530800Y-83031968D01*
X183521384Y-83127578D01*
X183484169Y-83250258D01*
X183423738Y-83363315D01*
X183342411Y-83462411D01*
X183243315Y-83543738D01*
X183130258Y-83604169D01*
X183007578Y-83641384D01*
X182880000Y-83653948D01*
X182752423Y-83641384D01*
X182629743Y-83604169D01*
X182516686Y-83543738D01*
X182417590Y-83462411D01*
X182336263Y-83363315D01*
X182275830Y-83250253D01*
X182238617Y-83127583D01*
X182229200Y-83031968D01*
X182229200Y-82168033D01*
X182238616Y-82072423D01*
X182275831Y-81949743D01*
X182336262Y-81836686D01*
X182417587Y-81737592D01*
X182417589Y-81737589D01*
X182516686Y-81656262D01*
X182516688Y-81656260D01*
X182629742Y-81595831D01*
X182752422Y-81558616D01*
X182880000Y-81546052D01*
X183007577Y-81558616D01*
G37*
G36*
X124587577Y-81558616D02*
G01*
X124710257Y-81595831D01*
X124823314Y-81656262D01*
X124886715Y-81708294D01*
X124922411Y-81737589D01*
X124986755Y-81815992D01*
X125003740Y-81836688D01*
X125064169Y-81949742D01*
X125101384Y-82072422D01*
X125110800Y-82168032D01*
X125110800Y-83031968D01*
X125101384Y-83127578D01*
X125064169Y-83250258D01*
X125003738Y-83363315D01*
X124922411Y-83462411D01*
X124823315Y-83543738D01*
X124710258Y-83604169D01*
X124587578Y-83641384D01*
X124460000Y-83653948D01*
X124332423Y-83641384D01*
X124209743Y-83604169D01*
X124096686Y-83543738D01*
X123997590Y-83462411D01*
X123916263Y-83363315D01*
X123855830Y-83250253D01*
X123818617Y-83127583D01*
X123809200Y-83031968D01*
X123809200Y-82168033D01*
X123818616Y-82072423D01*
X123855831Y-81949743D01*
X123916262Y-81836686D01*
X123997587Y-81737592D01*
X123997589Y-81737589D01*
X124096686Y-81656262D01*
X124096688Y-81656260D01*
X124209742Y-81595831D01*
X124332422Y-81558616D01*
X124460000Y-81546052D01*
X124587577Y-81558616D01*
G37*
G36*
X167767577Y-81558616D02*
G01*
X167890257Y-81595831D01*
X168003314Y-81656262D01*
X168066715Y-81708294D01*
X168102411Y-81737589D01*
X168166755Y-81815992D01*
X168183740Y-81836688D01*
X168244169Y-81949742D01*
X168281384Y-82072422D01*
X168290800Y-82168032D01*
X168290800Y-83031968D01*
X168281384Y-83127578D01*
X168244169Y-83250258D01*
X168183738Y-83363315D01*
X168102411Y-83462411D01*
X168003315Y-83543738D01*
X167890258Y-83604169D01*
X167767578Y-83641384D01*
X167640000Y-83653948D01*
X167512423Y-83641384D01*
X167389743Y-83604169D01*
X167276686Y-83543738D01*
X167177590Y-83462411D01*
X167096263Y-83363315D01*
X167035830Y-83250253D01*
X166998617Y-83127583D01*
X166989200Y-83031968D01*
X166989200Y-82168033D01*
X166998616Y-82072423D01*
X167035831Y-81949743D01*
X167096262Y-81836686D01*
X167177587Y-81737592D01*
X167177589Y-81737589D01*
X167276686Y-81656262D01*
X167276688Y-81656260D01*
X167389742Y-81595831D01*
X167512422Y-81558616D01*
X167640000Y-81546052D01*
X167767577Y-81558616D01*
G37*
M02*
