M48
; DRILL file {KiCad 5.1.5} date Tue May 19 12:12:07 2020
; FORMAT={-:-/ absolute / inch / decimal}
; #@! TF.CreationDate,2020-05-19T12:12:07-05:00
; #@! TF.GenerationSoftware,Kicad,Pcbnew,5.1.5
; #@! TF.FileFunction,Plated,1,4,PTH
FMAT,2
INCH
T1C0.0150
T2C0.0299
T3C0.0315
T4C0.0394
%
G90
G05
T1
X4.5906Y-3.991
X4.623Y-4.0285
X4.6646Y-4.0677
X4.8186Y-3.8426
X4.949Y-3.6121
X5.0078Y-3.9762
X5.0107Y-3.8973
X5.0571Y-3.8878
X5.0736Y-3.8216
X5.0736Y-3.8216
X5.0963Y-3.9325
X5.107Y-3.9794
X5.1151Y-4.0506
X5.1591Y-4.052
X5.1829Y-3.9151
X5.1851Y-3.9618
X5.2137Y-4.0512
X5.2144Y-3.8334
X5.2173Y-4.1935
X5.3606Y-4.0149
X5.361Y-3.9648
X5.3626Y-3.9149
X5.3637Y-3.7648
X5.3645Y-4.1649
X5.3648Y-4.1149
X5.3653Y-3.8649
X5.3661Y-3.7149
X5.4582Y-3.8759
X5.4744Y-3.6123
X5.5197Y-3.2421
X5.5557Y-3.5694
X5.5715Y-4.2234
X5.598Y-3.3158
X5.7018Y-3.3105
X5.7965Y-3.5721
X5.8046Y-3.3077
X5.9626Y-3.7132
X5.9897Y-3.7701
X5.9923Y-3.6695
X6.2386Y-3.7194
X6.5499Y-3.783
X6.6728Y-3.6574
X6.6995Y-3.2699
X6.7752Y-3.626
X6.7844Y-3.9724
X6.902Y-3.2616
X7.0063Y-3.1806
X7.1277Y-3.1924
X7.1352Y-3.7826
X7.2705Y-3.782
X7.4201Y-3.7603
X7.7164Y-3.6574
X7.7502Y-3.626
X7.8115Y-3.3457
T2
X7.317Y-3.98
X7.367Y-3.88
X7.417Y-3.98
X7.467Y-3.88
X7.517Y-3.98
X7.567Y-3.88
T3
X6.1Y-3.252
X6.1Y-3.548
X6.2Y-3.252
X6.2Y-3.548
X6.3Y-3.252
X6.3Y-3.548
X6.4Y-3.252
X6.4Y-3.548
X6.5Y-3.252
X6.5Y-3.548
X6.6Y-3.252
X6.6Y-3.548
X4.9Y-3.252
X4.9Y-3.548
X5.0Y-3.252
X5.0Y-3.548
X5.1Y-3.252
X5.1Y-3.548
X5.2Y-3.252
X5.2Y-3.548
X5.3Y-3.252
X5.3Y-3.548
X5.4Y-3.252
X5.4Y-3.548
X7.2Y-3.252
X7.2Y-3.548
X7.3Y-3.252
X7.3Y-3.548
X7.4Y-3.252
X7.4Y-3.548
X7.5Y-3.252
X7.5Y-3.548
X7.6Y-3.252
X7.6Y-3.548
T4
X5.7Y-4.02
X5.7Y-4.12
X5.7Y-4.22
X5.8Y-4.02
X5.8Y-4.12
X5.8Y-4.22
X6.5275Y-3.9855
X6.5275Y-4.0855
X6.5275Y-4.1855
X6.6275Y-3.9855
X6.6275Y-4.0855
X6.6275Y-4.1855
T0
M30
